<?xml version="1.0" encoding="utf-8" standalone="no"?>
<!DOCTYPE svg PUBLIC "-//W3C//DTD SVG 1.1//EN"
  "http://www.w3.org/Graphics/SVG/1.1/DTD/svg11.dtd">
<svg xmlns:xlink="http://www.w3.org/1999/xlink" width="728.644375pt" height="619.928125pt" viewBox="0 0 728.644375 619.928125" xmlns="http://www.w3.org/2000/svg" version="1.1">
 <metadata>
  <rdf:RDF xmlns:dc="http://purl.org/dc/elements/1.1/" xmlns:cc="http://creativecommons.org/ns#" xmlns:rdf="http://www.w3.org/1999/02/22-rdf-syntax-ns#">
   <cc:Work>
    <dc:type rdf:resource="http://purl.org/dc/dcmitype/StillImage"/>
    <dc:date>2026-05-14T18:39:23.476386</dc:date>
    <dc:format>image/svg+xml</dc:format>
    <dc:creator>
     <cc:Agent>
      <dc:title>Matplotlib v3.10.6, https://matplotlib.org/</dc:title>
     </cc:Agent>
    </dc:creator>
   </cc:Work>
  </rdf:RDF>
 </metadata>
 <defs>
  <style type="text/css">*{stroke-linejoin: round; stroke-linecap: butt}</style>
 </defs>
 <g id="figure_1">
  <g id="patch_1">
   <path d="M 0 619.928125 
L 728.644375 619.928125 
L 728.644375 0 
L 0 0 
z
" style="fill: #ffffff"/>
  </g>
  <g id="axes_1">
   <g id="patch_2">
    <path d="M 51.844375 576.797812 
L 721.444375 576.797812 
L 721.444375 77.837812 
L 51.844375 77.837812 
z
" style="fill: #ffffff"/>
   </g>
   <g id="matplotlib.axis_1">
    <g id="xtick_1">
     <g id="line2d_1">
      <path d="M 118.088225 576.797812 
L 118.088225 77.837812 
" clip-path="url(#p1334a21af1)" style="fill: none; stroke-dasharray: 3.7,1.6; stroke-dashoffset: 0; stroke: #cccccc; stroke-opacity: 0.3"/>
     </g>
     <g id="text_1">
      <!-- 2 -->
      <g style="fill: #262626" transform="translate(114.58885 594.656094) scale(0.11 -0.11)">
       <defs>
        <path id="DejaVuSerif-32" d="M 819 3553 
L 469 3553 
L 469 4384 
Q 803 4563 1142 4656 
Q 1481 4750 1806 4750 
Q 2534 4750 2956 4397 
Q 3378 4044 3378 3438 
Q 3378 2753 2422 1800 
Q 2347 1728 2309 1691 
L 1131 513 
L 3078 513 
L 3078 1088 
L 3444 1088 
L 3444 0 
L 434 0 
L 434 341 
L 1850 1753 
Q 2319 2222 2519 2614 
Q 2719 3006 2719 3438 
Q 2719 3909 2473 4175 
Q 2228 4441 1797 4441 
Q 1350 4441 1106 4219 
Q 863 3997 819 3553 
z
" transform="scale(0.015625)"/>
       </defs>
       <use xlink:href="#DejaVuSerif-32"/>
      </g>
     </g>
    </g>
    <g id="xtick_2">
     <g id="line2d_2">
      <path d="M 189.703199 576.797812 
L 189.703199 77.837812 
" clip-path="url(#p1334a21af1)" style="fill: none; stroke-dasharray: 3.7,1.6; stroke-dashoffset: 0; stroke: #cccccc; stroke-opacity: 0.3"/>
     </g>
     <g id="text_2">
      <!-- 8 -->
      <g style="fill: #262626" transform="translate(186.203824 594.656094) scale(0.11 -0.11)">
       <defs>
        <path id="DejaVuSerif-38" d="M 2981 1275 
Q 2981 1775 2732 2051 
Q 2484 2328 2034 2328 
Q 1584 2328 1336 2051 
Q 1088 1775 1088 1275 
Q 1088 772 1336 495 
Q 1584 219 2034 219 
Q 2484 219 2732 495 
Q 2981 772 2981 1275 
z
M 2853 3541 
Q 2853 3966 2637 4203 
Q 2422 4441 2034 4441 
Q 1650 4441 1433 4203 
Q 1216 3966 1216 3541 
Q 1216 3113 1433 2875 
Q 1650 2638 2034 2638 
Q 2422 2638 2637 2875 
Q 2853 3113 2853 3541 
z
M 2516 2484 
Q 3047 2413 3344 2092 
Q 3641 1772 3641 1275 
Q 3641 619 3225 264 
Q 2809 -91 2034 -91 
Q 1263 -91 845 264 
Q 428 619 428 1275 
Q 428 1772 725 2092 
Q 1022 2413 1556 2484 
Q 1084 2569 832 2842 
Q 581 3116 581 3541 
Q 581 4103 968 4426 
Q 1356 4750 2034 4750 
Q 2713 4750 3100 4426 
Q 3488 4103 3488 3541 
Q 3488 3116 3236 2842 
Q 2984 2569 2516 2484 
z
" transform="scale(0.015625)"/>
       </defs>
       <use xlink:href="#DejaVuSerif-38"/>
      </g>
     </g>
    </g>
    <g id="xtick_3">
     <g id="line2d_3">
      <path d="M 261.318172 576.797812 
L 261.318172 77.837812 
" clip-path="url(#p1334a21af1)" style="fill: none; stroke-dasharray: 3.7,1.6; stroke-dashoffset: 0; stroke: #cccccc; stroke-opacity: 0.3"/>
     </g>
     <g id="text_3">
      <!-- 32 -->
      <g style="fill: #262626" transform="translate(254.319422 594.656094) scale(0.11 -0.11)">
       <defs>
        <path id="DejaVuSerif-33" d="M 622 4469 
Q 988 4606 1323 4678 
Q 1659 4750 1953 4750 
Q 2638 4750 3022 4454 
Q 3406 4159 3406 3634 
Q 3406 3213 3140 2930 
Q 2875 2647 2388 2547 
Q 2963 2466 3280 2130 
Q 3597 1794 3597 1259 
Q 3597 606 3158 257 
Q 2719 -91 1894 -91 
Q 1528 -91 1179 -12 
Q 831 66 488 225 
L 488 1131 
L 838 1131 
Q 869 681 1141 450 
Q 1413 219 1906 219 
Q 2384 219 2661 495 
Q 2938 772 2938 1253 
Q 2938 1803 2653 2086 
Q 2369 2369 1819 2369 
L 1522 2369 
L 1522 2688 
L 1678 2688 
Q 2225 2688 2498 2914 
Q 2772 3141 2772 3597 
Q 2772 4006 2547 4223 
Q 2322 4441 1900 4441 
Q 1478 4441 1245 4241 
Q 1013 4041 972 3647 
L 622 3647 
L 622 4469 
z
" transform="scale(0.015625)"/>
       </defs>
       <use xlink:href="#DejaVuSerif-33"/>
       <use xlink:href="#DejaVuSerif-32" transform="translate(63.623047 0)"/>
      </g>
     </g>
    </g>
    <g id="xtick_4">
     <g id="line2d_4">
      <path d="M 332.933145 576.797812 
L 332.933145 77.837812 
" clip-path="url(#p1334a21af1)" style="fill: none; stroke-dasharray: 3.7,1.6; stroke-dashoffset: 0; stroke: #cccccc; stroke-opacity: 0.3"/>
     </g>
     <g id="text_4">
      <!-- 128 -->
      <g style="fill: #262626" transform="translate(322.43502 594.656094) scale(0.11 -0.11)">
       <defs>
        <path id="DejaVuSerif-31" d="M 909 0 
L 909 331 
L 1722 331 
L 1722 4213 
L 781 3603 
L 781 4013 
L 1919 4750 
L 2350 4750 
L 2350 331 
L 3163 331 
L 3163 0 
L 909 0 
z
" transform="scale(0.015625)"/>
       </defs>
       <use xlink:href="#DejaVuSerif-31"/>
       <use xlink:href="#DejaVuSerif-32" transform="translate(63.623047 0)"/>
       <use xlink:href="#DejaVuSerif-38" transform="translate(127.246094 0)"/>
      </g>
     </g>
    </g>
    <g id="xtick_5">
     <g id="line2d_5">
      <path d="M 404.548118 576.797812 
L 404.548118 77.837812 
" clip-path="url(#p1334a21af1)" style="fill: none; stroke-dasharray: 3.7,1.6; stroke-dashoffset: 0; stroke: #cccccc; stroke-opacity: 0.3"/>
     </g>
     <g id="text_5">
      <!-- 512 -->
      <g style="fill: #262626" transform="translate(394.049993 594.656094) scale(0.11 -0.11)">
       <defs>
        <path id="DejaVuSerif-35" d="M 3219 4666 
L 3219 4153 
L 1081 4153 
L 1081 2816 
Q 1244 2928 1461 2984 
Q 1678 3041 1947 3041 
Q 2703 3041 3140 2622 
Q 3578 2203 3578 1478 
Q 3578 738 3136 323 
Q 2694 -91 1894 -91 
Q 1572 -91 1234 -12 
Q 897 66 544 225 
L 544 1131 
L 897 1131 
Q 925 688 1179 453 
Q 1434 219 1894 219 
Q 2388 219 2653 544 
Q 2919 869 2919 1478 
Q 2919 2084 2655 2407 
Q 2391 2731 1894 2731 
Q 1613 2731 1398 2631 
Q 1184 2531 1019 2322 
L 750 2322 
L 750 4666 
L 3219 4666 
z
" transform="scale(0.015625)"/>
       </defs>
       <use xlink:href="#DejaVuSerif-35"/>
       <use xlink:href="#DejaVuSerif-31" transform="translate(63.623047 0)"/>
       <use xlink:href="#DejaVuSerif-32" transform="translate(127.246094 0)"/>
      </g>
     </g>
    </g>
    <g id="xtick_6">
     <g id="line2d_6">
      <path d="M 476.163092 576.797812 
L 476.163092 77.837812 
" clip-path="url(#p1334a21af1)" style="fill: none; stroke-dasharray: 3.7,1.6; stroke-dashoffset: 0; stroke: #cccccc; stroke-opacity: 0.3"/>
     </g>
     <g id="text_6">
      <!-- 2048 -->
      <g style="fill: #262626" transform="translate(462.165592 594.656094) scale(0.11 -0.11)">
       <defs>
        <path id="DejaVuSerif-30" d="M 2034 219 
Q 2513 219 2750 744 
Q 2988 1269 2988 2328 
Q 2988 3391 2750 3916 
Q 2513 4441 2034 4441 
Q 1556 4441 1318 3916 
Q 1081 3391 1081 2328 
Q 1081 1269 1318 744 
Q 1556 219 2034 219 
z
M 2034 -91 
Q 1275 -91 848 546 
Q 422 1184 422 2328 
Q 422 3475 848 4112 
Q 1275 4750 2034 4750 
Q 2797 4750 3222 4112 
Q 3647 3475 3647 2328 
Q 3647 1184 3222 546 
Q 2797 -91 2034 -91 
z
" transform="scale(0.015625)"/>
        <path id="DejaVuSerif-34" d="M 2234 1581 
L 2234 4063 
L 641 1581 
L 2234 1581 
z
M 3609 0 
L 1484 0 
L 1484 331 
L 2234 331 
L 2234 1247 
L 197 1247 
L 197 1588 
L 2241 4750 
L 2859 4750 
L 2859 1581 
L 3750 1581 
L 3750 1247 
L 2859 1247 
L 2859 331 
L 3609 331 
L 3609 0 
z
" transform="scale(0.015625)"/>
       </defs>
       <use xlink:href="#DejaVuSerif-32"/>
       <use xlink:href="#DejaVuSerif-30" transform="translate(63.623047 0)"/>
       <use xlink:href="#DejaVuSerif-34" transform="translate(127.246094 0)"/>
       <use xlink:href="#DejaVuSerif-38" transform="translate(190.869141 0)"/>
      </g>
     </g>
    </g>
    <g id="xtick_7">
     <g id="line2d_7">
      <path d="M 547.778065 576.797812 
L 547.778065 77.837812 
" clip-path="url(#p1334a21af1)" style="fill: none; stroke-dasharray: 3.7,1.6; stroke-dashoffset: 0; stroke: #cccccc; stroke-opacity: 0.3"/>
     </g>
     <g id="text_7">
      <!-- 8192 -->
      <g style="fill: #262626" transform="translate(533.780565 594.656094) scale(0.11 -0.11)">
       <defs>
        <path id="DejaVuSerif-39" d="M 2994 2091 
Q 2784 1856 2512 1740 
Q 2241 1625 1900 1625 
Q 1206 1625 804 2044 
Q 403 2463 403 3188 
Q 403 3897 839 4323 
Q 1275 4750 2003 4750 
Q 2794 4750 3217 4161 
Q 3641 3572 3641 2478 
Q 3641 1253 3137 581 
Q 2634 -91 1722 -91 
Q 1475 -91 1203 -44 
Q 931 3 647 97 
L 647 872 
L 997 872 
Q 1038 556 1241 387 
Q 1444 219 1784 219 
Q 2391 219 2687 676 
Q 2984 1134 2994 2091 
z
M 1978 4441 
Q 1534 4441 1298 4117 
Q 1063 3794 1063 3188 
Q 1063 2581 1298 2256 
Q 1534 1931 1978 1931 
Q 2422 1931 2658 2245 
Q 2894 2559 2894 3150 
Q 2894 3772 2656 4106 
Q 2419 4441 1978 4441 
z
" transform="scale(0.015625)"/>
       </defs>
       <use xlink:href="#DejaVuSerif-38"/>
       <use xlink:href="#DejaVuSerif-31" transform="translate(63.623047 0)"/>
       <use xlink:href="#DejaVuSerif-39" transform="translate(127.246094 0)"/>
       <use xlink:href="#DejaVuSerif-32" transform="translate(190.869141 0)"/>
      </g>
     </g>
    </g>
    <g id="xtick_8">
     <g id="line2d_8">
      <path d="M 619.393038 576.797812 
L 619.393038 77.837812 
" clip-path="url(#p1334a21af1)" style="fill: none; stroke-dasharray: 3.7,1.6; stroke-dashoffset: 0; stroke: #cccccc; stroke-opacity: 0.3"/>
     </g>
     <g id="text_8">
      <!-- 32768 -->
      <g style="fill: #262626" transform="translate(601.896163 594.656094) scale(0.11 -0.11)">
       <defs>
        <path id="DejaVuSerif-37" d="M 3609 4347 
L 1784 0 
L 1319 0 
L 3059 4153 
L 903 4153 
L 903 3578 
L 538 3578 
L 538 4666 
L 3609 4666 
L 3609 4347 
z
" transform="scale(0.015625)"/>
        <path id="DejaVuSerif-36" d="M 2094 219 
Q 2534 219 2771 542 
Q 3009 866 3009 1472 
Q 3009 2078 2771 2401 
Q 2534 2725 2094 2725 
Q 1647 2725 1412 2412 
Q 1178 2100 1178 1509 
Q 1178 888 1415 553 
Q 1653 219 2094 219 
z
M 1075 2569 
Q 1288 2803 1556 2918 
Q 1825 3034 2163 3034 
Q 2859 3034 3264 2615 
Q 3669 2197 3669 1472 
Q 3669 763 3233 336 
Q 2797 -91 2069 -91 
Q 1278 -91 853 498 
Q 428 1088 428 2181 
Q 428 3406 931 4078 
Q 1434 4750 2350 4750 
Q 2597 4750 2869 4703 
Q 3141 4656 3425 4563 
L 3425 3794 
L 3072 3794 
Q 3034 4109 2831 4275 
Q 2628 4441 2284 4441 
Q 1678 4441 1381 3981 
Q 1084 3522 1075 2569 
z
" transform="scale(0.015625)"/>
       </defs>
       <use xlink:href="#DejaVuSerif-33"/>
       <use xlink:href="#DejaVuSerif-32" transform="translate(63.623047 0)"/>
       <use xlink:href="#DejaVuSerif-37" transform="translate(127.246094 0)"/>
       <use xlink:href="#DejaVuSerif-36" transform="translate(190.869141 0)"/>
       <use xlink:href="#DejaVuSerif-38" transform="translate(254.492188 0)"/>
      </g>
     </g>
    </g>
    <g id="xtick_9">
     <g id="line2d_9">
      <path d="M 691.008011 576.797812 
L 691.008011 77.837812 
" clip-path="url(#p1334a21af1)" style="fill: none; stroke-dasharray: 3.7,1.6; stroke-dashoffset: 0; stroke: #cccccc; stroke-opacity: 0.3"/>
     </g>
     <g id="text_9">
      <!-- 131072 -->
      <g style="fill: #262626" transform="translate(670.011761 594.656094) scale(0.11 -0.11)">
       <use xlink:href="#DejaVuSerif-31"/>
       <use xlink:href="#DejaVuSerif-33" transform="translate(63.623047 0)"/>
       <use xlink:href="#DejaVuSerif-31" transform="translate(127.246094 0)"/>
       <use xlink:href="#DejaVuSerif-30" transform="translate(190.869141 0)"/>
       <use xlink:href="#DejaVuSerif-37" transform="translate(254.492188 0)"/>
       <use xlink:href="#DejaVuSerif-32" transform="translate(318.115234 0)"/>
      </g>
     </g>
    </g>
    <g id="text_10">
     <!-- Payload Size (Bytes) -->
     <g style="fill: #262626" transform="translate(318.335313 610.061875) scale(0.12 -0.12)">
      <defs>
       <path id="DejaVuSerif-Bold-50" d="M 300 0 
L 300 378 
L 897 378 
L 897 4288 
L 300 4288 
L 300 4666 
L 2956 4666 
Q 3734 4666 4193 4295 
Q 4653 3925 4653 3303 
Q 4653 2678 4192 2304 
Q 3731 1931 2956 1931 
L 2100 1931 
L 2100 378 
L 2853 378 
L 2853 0 
L 300 0 
z
M 2100 2309 
L 2450 2309 
Q 2856 2309 3098 2579 
Q 3341 2850 3341 3303 
Q 3341 3753 3100 4020 
Q 2859 4288 2450 4288 
L 2100 4288 
L 2100 2309 
z
" transform="scale(0.015625)"/>
       <path id="DejaVuSerif-Bold-61" d="M 3525 2041 
L 3525 378 
L 4000 378 
L 4000 0 
L 2419 0 
L 2419 422 
Q 2200 159 1931 34 
Q 1663 -91 1319 -91 
Q 809 -91 536 182 
Q 263 456 263 966 
Q 263 1525 655 1803 
Q 1047 2081 1838 2081 
L 2419 2081 
L 2419 2278 
Q 2419 2681 2228 2873 
Q 2038 3066 1638 3066 
Q 1306 3066 1126 2930 
Q 947 2794 872 2484 
L 519 2484 
L 519 3200 
Q 816 3306 1134 3359 
Q 1453 3413 1806 3413 
Q 2697 3413 3111 3081 
Q 3525 2750 3525 2041 
z
M 2419 1044 
L 2419 1709 
L 2003 1709 
Q 1694 1709 1528 1540 
Q 1363 1372 1363 1056 
Q 1363 741 1483 584 
Q 1603 428 1850 428 
Q 2106 428 2262 597 
Q 2419 766 2419 1044 
z
" transform="scale(0.015625)"/>
       <path id="DejaVuSerif-Bold-79" d="M 1997 -750 
Q 1847 -1116 1634 -1269 
Q 1422 -1422 1063 -1422 
Q 909 -1422 721 -1387 
Q 534 -1353 313 -1288 
L 313 -594 
L 666 -597 
Q 675 -838 779 -953 
Q 884 -1069 1094 -1069 
Q 1297 -1069 1422 -958 
Q 1547 -847 1672 -538 
L 1722 -422 
L 275 2944 
L -84 2944 
L -84 3322 
L 1831 3322 
L 1831 2944 
L 1434 2944 
L 2278 978 
L 3066 2944 
L 2625 2944 
L 2625 3322 
L 3872 3322 
L 3872 2944 
L 3469 2944 
L 1997 -750 
z
" transform="scale(0.015625)"/>
       <path id="DejaVuSerif-Bold-6c" d="M 1797 378 
L 2272 378 
L 2272 0 
L 219 0 
L 219 378 
L 691 378 
L 691 4488 
L 219 4488 
L 219 4863 
L 1797 4863 
L 1797 378 
z
" transform="scale(0.015625)"/>
       <path id="DejaVuSerif-Bold-6f" d="M 2138 263 
Q 2488 263 2630 563 
Q 2772 863 2772 1663 
Q 2772 2463 2631 2761 
Q 2491 3059 2138 3059 
Q 1784 3059 1640 2757 
Q 1497 2456 1497 1663 
Q 1497 869 1640 566 
Q 1784 263 2138 263 
z
M 2138 -91 
Q 1259 -91 761 376 
Q 263 844 263 1663 
Q 263 2484 761 2948 
Q 1259 3413 2138 3413 
Q 3019 3413 3516 2948 
Q 4013 2484 4013 1663 
Q 4013 844 3514 376 
Q 3016 -91 2138 -91 
z
" transform="scale(0.015625)"/>
       <path id="DejaVuSerif-Bold-64" d="M 2747 1497 
L 2747 1825 
Q 2747 2406 2597 2665 
Q 2447 2925 2119 2925 
Q 1775 2925 1636 2651 
Q 1497 2378 1497 1663 
Q 1497 947 1637 672 
Q 1778 397 2119 397 
Q 2447 397 2597 656 
Q 2747 916 2747 1497 
z
M 3853 378 
L 4325 378 
L 4325 0 
L 2747 0 
L 2747 422 
Q 2606 163 2367 36 
Q 2128 -91 1778 -91 
Q 1072 -91 667 378 
Q 263 847 263 1663 
Q 263 2481 667 2947 
Q 1072 3413 1778 3413 
Q 2128 3413 2367 3286 
Q 2606 3159 2747 2900 
L 2747 4488 
L 2272 4488 
L 2272 4863 
L 3853 4863 
L 3853 378 
z
" transform="scale(0.015625)"/>
       <path id="DejaVuSerif-Bold-20" transform="scale(0.015625)"/>
       <path id="DejaVuSerif-Bold-53" d="M 494 225 
L 494 1331 
L 891 1331 
Q 981 806 1318 547 
Q 1656 288 2253 288 
Q 2738 288 2991 472 
Q 3244 656 3244 1013 
Q 3244 1294 3072 1450 
Q 2900 1606 2363 1741 
L 1663 1913 
Q 978 2088 700 2398 
Q 422 2709 422 3284 
Q 422 3978 883 4364 
Q 1344 4750 2175 4750 
Q 2584 4750 3026 4681 
Q 3469 4613 3944 4475 
L 3944 3444 
L 3547 3444 
Q 3456 3925 3150 4148 
Q 2844 4372 2278 4372 
Q 1816 4372 1580 4211 
Q 1344 4050 1344 3731 
Q 1344 3441 1506 3289 
Q 1669 3138 2303 2975 
L 3003 2803 
Q 3653 2641 3945 2297 
Q 4238 1953 4238 1350 
Q 4238 644 3750 276 
Q 3263 -91 2316 -91 
Q 1859 -91 1409 -12 
Q 959 66 494 225 
z
" transform="scale(0.015625)"/>
       <path id="DejaVuSerif-Bold-69" d="M 588 4263 
Q 588 4516 763 4689 
Q 938 4863 1191 4863 
Q 1438 4863 1611 4689 
Q 1784 4516 1784 4263 
Q 1784 4016 1611 3842 
Q 1438 3669 1191 3669 
Q 938 3669 763 3841 
Q 588 4013 588 4263 
z
M 1797 378 
L 2272 378 
L 2272 0 
L 219 0 
L 219 378 
L 691 378 
L 691 2944 
L 219 2944 
L 219 3322 
L 1797 3322 
L 1797 378 
z
" transform="scale(0.015625)"/>
       <path id="DejaVuSerif-Bold-7a" d="M 225 0 
L 225 378 
L 2131 2956 
L 697 2956 
L 697 2388 
L 325 2388 
L 325 3322 
L 3419 3322 
L 3419 2950 
L 1509 372 
L 3047 372 
L 3047 972 
L 3419 972 
L 3419 0 
L 225 0 
z
" transform="scale(0.015625)"/>
       <path id="DejaVuSerif-Bold-65" d="M 2566 1875 
Q 2566 2531 2444 2795 
Q 2322 3059 2028 3059 
Q 1744 3059 1620 2800 
Q 1497 2541 1497 1931 
L 1497 1875 
L 2566 1875 
z
M 3781 1503 
L 1497 1503 
L 1497 1478 
Q 1497 834 1690 548 
Q 1884 263 2316 263 
Q 2675 263 2897 453 
Q 3119 644 3181 1006 
L 3700 1006 
Q 3566 441 3166 175 
Q 2766 -91 2047 -91 
Q 1184 -91 723 364 
Q 263 819 263 1663 
Q 263 2488 734 2950 
Q 1206 3413 2047 3413 
Q 2872 3413 3312 2927 
Q 3753 2441 3781 1503 
z
" transform="scale(0.015625)"/>
       <path id="DejaVuSerif-Bold-28" d="M 2694 -997 
Q 1641 -606 1122 122 
Q 603 850 603 1931 
Q 603 3013 1115 3731 
Q 1628 4450 2694 4863 
L 2694 4488 
Q 2200 4188 1983 3598 
Q 1766 3009 1766 1931 
Q 1766 856 1983 267 
Q 2200 -322 2694 -622 
L 2694 -997 
z
" transform="scale(0.015625)"/>
       <path id="DejaVuSerif-Bold-42" d="M 300 0 
L 300 378 
L 897 378 
L 897 4288 
L 300 4288 
L 300 4666 
L 3066 4666 
Q 3919 4666 4347 4378 
Q 4775 4091 4775 3513 
Q 4775 3097 4479 2853 
Q 4184 2609 3603 2547 
Q 4306 2481 4681 2172 
Q 5056 1863 5056 1350 
Q 5056 656 4532 328 
Q 4009 0 2894 0 
L 300 0 
z
M 2100 2719 
L 2509 2719 
Q 3047 2719 3306 2914 
Q 3566 3109 3566 3513 
Q 3566 3919 3314 4103 
Q 3063 4288 2509 4288 
L 2100 4288 
L 2100 2719 
z
M 2100 378 
L 2547 378 
Q 3144 378 3431 615 
Q 3719 853 3719 1350 
Q 3719 1850 3428 2097 
Q 3138 2344 2547 2344 
L 2100 2344 
L 2100 378 
z
" transform="scale(0.015625)"/>
       <path id="DejaVuSerif-Bold-74" d="M 634 2944 
L 153 2944 
L 153 3322 
L 634 3322 
L 634 4353 
L 1741 4353 
L 1741 3322 
L 2663 3322 
L 2663 2944 
L 1741 2944 
L 1741 909 
Q 1741 475 1809 369 
Q 1878 263 2059 263 
Q 2259 263 2356 397 
Q 2453 531 2459 813 
L 2925 813 
Q 2897 313 2651 111 
Q 2406 -91 1806 -91 
Q 1122 -91 878 123 
Q 634 338 634 909 
L 634 2944 
z
" transform="scale(0.015625)"/>
       <path id="DejaVuSerif-Bold-73" d="M 300 97 
L 300 1025 
L 653 1025 
Q 697 653 931 458 
Q 1166 263 1569 263 
Q 1906 263 2086 380 
Q 2266 497 2266 716 
Q 2266 916 2152 1025 
Q 2038 1134 1709 1216 
L 1253 1331 
Q 738 1459 506 1698 
Q 275 1938 275 2344 
Q 275 2884 650 3148 
Q 1025 3413 1806 3413 
Q 2100 3413 2433 3364 
Q 2766 3316 3169 3213 
L 3169 2375 
L 2816 2375 
Q 2788 2716 2573 2887 
Q 2359 3059 1959 3059 
Q 1622 3059 1448 2951 
Q 1275 2844 1275 2638 
Q 1275 2469 1375 2372 
Q 1475 2275 1734 2209 
L 2188 2094 
Q 2841 1928 3091 1684 
Q 3341 1441 3341 1006 
Q 3341 444 2939 176 
Q 2538 -91 1691 -91 
Q 1381 -91 1034 -44 
Q 688 3 300 97 
z
" transform="scale(0.015625)"/>
       <path id="DejaVuSerif-Bold-29" d="M 325 -997 
L 325 -622 
Q 819 -322 1036 267 
Q 1253 856 1253 1931 
Q 1253 3009 1036 3598 
Q 819 4188 325 4488 
L 325 4863 
Q 1391 4450 1905 3731 
Q 2419 3013 2419 1931 
Q 2419 850 1898 122 
Q 1378 -606 325 -997 
z
" transform="scale(0.015625)"/>
      </defs>
      <use xlink:href="#DejaVuSerif-Bold-50"/>
      <use xlink:href="#DejaVuSerif-Bold-61" transform="translate(72.570312 0)"/>
      <use xlink:href="#DejaVuSerif-Bold-79" transform="translate(137.365234 0)"/>
      <use xlink:href="#DejaVuSerif-Bold-6c" transform="translate(195.470703 0)"/>
      <use xlink:href="#DejaVuSerif-Bold-6f" transform="translate(233.458984 0)"/>
      <use xlink:href="#DejaVuSerif-Bold-61" transform="translate(300.158203 0)"/>
      <use xlink:href="#DejaVuSerif-Bold-64" transform="translate(364.953125 0)"/>
      <use xlink:href="#DejaVuSerif-Bold-20" transform="translate(434.875 0)"/>
      <use xlink:href="#DejaVuSerif-Bold-53" transform="translate(469.689453 0)"/>
      <use xlink:href="#DejaVuSerif-Bold-69" transform="translate(541.90625 0)"/>
      <use xlink:href="#DejaVuSerif-Bold-7a" transform="translate(579.894531 0)"/>
      <use xlink:href="#DejaVuSerif-Bold-65" transform="translate(636.681641 0)"/>
      <use xlink:href="#DejaVuSerif-Bold-20" transform="translate(700.304688 0)"/>
      <use xlink:href="#DejaVuSerif-Bold-28" transform="translate(735.119141 0)"/>
      <use xlink:href="#DejaVuSerif-Bold-42" transform="translate(782.433594 0)"/>
      <use xlink:href="#DejaVuSerif-Bold-79" transform="translate(866.955078 0)"/>
      <use xlink:href="#DejaVuSerif-Bold-74" transform="translate(925.060547 0)"/>
      <use xlink:href="#DejaVuSerif-Bold-65" transform="translate(971.251953 0)"/>
      <use xlink:href="#DejaVuSerif-Bold-73" transform="translate(1034.875 0)"/>
      <use xlink:href="#DejaVuSerif-Bold-29" transform="translate(1091.173828 0)"/>
     </g>
    </g>
   </g>
   <g id="matplotlib.axis_2">
    <g id="ytick_1">
     <g id="line2d_10">
      <path d="M 51.844375 461.116409 
L 721.444375 461.116409 
" clip-path="url(#p1334a21af1)" style="fill: none; stroke-dasharray: 3.7,1.6; stroke-dashoffset: 0; stroke: #cccccc; stroke-opacity: 0.3"/>
     </g>
     <g id="text_11">
      <!-- $\mathdefault{10^{0}}$ -->
      <g style="fill: #262626" transform="translate(22.984375 465.29555) scale(0.11 -0.11)">
       <use xlink:href="#DejaVuSerif-31" transform="translate(0 0.7125)"/>
       <use xlink:href="#DejaVuSerif-30" transform="translate(63.623047 0.7125)"/>
       <use xlink:href="#DejaVuSerif-30" transform="translate(128.154453 37.046875) scale(0.7)"/>
      </g>
     </g>
    </g>
    <g id="ytick_2">
     <g id="line2d_11">
      <path d="M 51.844375 333.887372 
L 721.444375 333.887372 
" clip-path="url(#p1334a21af1)" style="fill: none; stroke-dasharray: 3.7,1.6; stroke-dashoffset: 0; stroke: #cccccc; stroke-opacity: 0.3"/>
     </g>
     <g id="text_12">
      <!-- $\mathdefault{10^{1}}$ -->
      <g style="fill: #262626" transform="translate(22.984375 338.066513) scale(0.11 -0.11)">
       <use xlink:href="#DejaVuSerif-31" transform="translate(0 0.7125)"/>
       <use xlink:href="#DejaVuSerif-30" transform="translate(63.623047 0.7125)"/>
       <use xlink:href="#DejaVuSerif-31" transform="translate(128.154453 37.046875) scale(0.7)"/>
      </g>
     </g>
    </g>
    <g id="ytick_3">
     <g id="line2d_12">
      <path d="M 51.844375 206.658336 
L 721.444375 206.658336 
" clip-path="url(#p1334a21af1)" style="fill: none; stroke-dasharray: 3.7,1.6; stroke-dashoffset: 0; stroke: #cccccc; stroke-opacity: 0.3"/>
     </g>
     <g id="text_13">
      <!-- $\mathdefault{10^{2}}$ -->
      <g style="fill: #262626" transform="translate(22.984375 210.837476) scale(0.11 -0.11)">
       <use xlink:href="#DejaVuSerif-31" transform="translate(0 0.7125)"/>
       <use xlink:href="#DejaVuSerif-30" transform="translate(63.623047 0.7125)"/>
       <use xlink:href="#DejaVuSerif-32" transform="translate(128.154453 37.046875) scale(0.7)"/>
      </g>
     </g>
    </g>
    <g id="ytick_4">
     <g id="line2d_13">
      <path d="M 51.844375 79.429299 
L 721.444375 79.429299 
" clip-path="url(#p1334a21af1)" style="fill: none; stroke-dasharray: 3.7,1.6; stroke-dashoffset: 0; stroke: #cccccc; stroke-opacity: 0.3"/>
     </g>
     <g id="text_14">
      <!-- $\mathdefault{10^{3}}$ -->
      <g style="fill: #262626" transform="translate(22.984375 83.60844) scale(0.11 -0.11)">
       <use xlink:href="#DejaVuSerif-31" transform="translate(0 0.7125)"/>
       <use xlink:href="#DejaVuSerif-30" transform="translate(63.623047 0.7125)"/>
       <use xlink:href="#DejaVuSerif-33" transform="translate(128.154453 37.046875) scale(0.7)"/>
      </g>
     </g>
    </g>
    <g id="ytick_5">
     <g id="line2d_14">
      <path d="M 51.844375 550.045689 
L 721.444375 550.045689 
" clip-path="url(#p1334a21af1)" style="fill: none; stroke-dasharray: 3.7,1.6; stroke-dashoffset: 0; stroke: #cccccc; stroke-opacity: 0.3"/>
     </g>
    </g>
    <g id="ytick_6">
     <g id="line2d_15">
      <path d="M 51.844375 527.641768 
L 721.444375 527.641768 
" clip-path="url(#p1334a21af1)" style="fill: none; stroke-dasharray: 3.7,1.6; stroke-dashoffset: 0; stroke: #cccccc; stroke-opacity: 0.3"/>
     </g>
    </g>
    <g id="ytick_7">
     <g id="line2d_16">
      <path d="M 51.844375 511.745933 
L 721.444375 511.745933 
" clip-path="url(#p1334a21af1)" style="fill: none; stroke-dasharray: 3.7,1.6; stroke-dashoffset: 0; stroke: #cccccc; stroke-opacity: 0.3"/>
     </g>
    </g>
    <g id="ytick_8">
     <g id="line2d_17">
      <path d="M 51.844375 499.416165 
L 721.444375 499.416165 
" clip-path="url(#p1334a21af1)" style="fill: none; stroke-dasharray: 3.7,1.6; stroke-dashoffset: 0; stroke: #cccccc; stroke-opacity: 0.3"/>
     </g>
    </g>
    <g id="ytick_9">
     <g id="line2d_18">
      <path d="M 51.844375 489.342012 
L 721.444375 489.342012 
" clip-path="url(#p1334a21af1)" style="fill: none; stroke-dasharray: 3.7,1.6; stroke-dashoffset: 0; stroke: #cccccc; stroke-opacity: 0.3"/>
     </g>
    </g>
    <g id="ytick_10">
     <g id="line2d_19">
      <path d="M 51.844375 480.824436 
L 721.444375 480.824436 
" clip-path="url(#p1334a21af1)" style="fill: none; stroke-dasharray: 3.7,1.6; stroke-dashoffset: 0; stroke: #cccccc; stroke-opacity: 0.3"/>
     </g>
    </g>
    <g id="ytick_11">
     <g id="line2d_20">
      <path d="M 51.844375 473.446177 
L 721.444375 473.446177 
" clip-path="url(#p1334a21af1)" style="fill: none; stroke-dasharray: 3.7,1.6; stroke-dashoffset: 0; stroke: #cccccc; stroke-opacity: 0.3"/>
     </g>
    </g>
    <g id="ytick_12">
     <g id="line2d_21">
      <path d="M 51.844375 466.938091 
L 721.444375 466.938091 
" clip-path="url(#p1334a21af1)" style="fill: none; stroke-dasharray: 3.7,1.6; stroke-dashoffset: 0; stroke: #cccccc; stroke-opacity: 0.3"/>
     </g>
    </g>
    <g id="ytick_13">
     <g id="line2d_22">
      <path d="M 51.844375 422.816653 
L 721.444375 422.816653 
" clip-path="url(#p1334a21af1)" style="fill: none; stroke-dasharray: 3.7,1.6; stroke-dashoffset: 0; stroke: #cccccc; stroke-opacity: 0.3"/>
     </g>
    </g>
    <g id="ytick_14">
     <g id="line2d_23">
      <path d="M 51.844375 400.412731 
L 721.444375 400.412731 
" clip-path="url(#p1334a21af1)" style="fill: none; stroke-dasharray: 3.7,1.6; stroke-dashoffset: 0; stroke: #cccccc; stroke-opacity: 0.3"/>
     </g>
    </g>
    <g id="ytick_15">
     <g id="line2d_24">
      <path d="M 51.844375 384.516896 
L 721.444375 384.516896 
" clip-path="url(#p1334a21af1)" style="fill: none; stroke-dasharray: 3.7,1.6; stroke-dashoffset: 0; stroke: #cccccc; stroke-opacity: 0.3"/>
     </g>
    </g>
    <g id="ytick_16">
     <g id="line2d_25">
      <path d="M 51.844375 372.187129 
L 721.444375 372.187129 
" clip-path="url(#p1334a21af1)" style="fill: none; stroke-dasharray: 3.7,1.6; stroke-dashoffset: 0; stroke: #cccccc; stroke-opacity: 0.3"/>
     </g>
    </g>
    <g id="ytick_17">
     <g id="line2d_26">
      <path d="M 51.844375 362.112975 
L 721.444375 362.112975 
" clip-path="url(#p1334a21af1)" style="fill: none; stroke-dasharray: 3.7,1.6; stroke-dashoffset: 0; stroke: #cccccc; stroke-opacity: 0.3"/>
     </g>
    </g>
    <g id="ytick_18">
     <g id="line2d_27">
      <path d="M 51.844375 353.5954 
L 721.444375 353.5954 
" clip-path="url(#p1334a21af1)" style="fill: none; stroke-dasharray: 3.7,1.6; stroke-dashoffset: 0; stroke: #cccccc; stroke-opacity: 0.3"/>
     </g>
    </g>
    <g id="ytick_19">
     <g id="line2d_28">
      <path d="M 51.844375 346.21714 
L 721.444375 346.21714 
" clip-path="url(#p1334a21af1)" style="fill: none; stroke-dasharray: 3.7,1.6; stroke-dashoffset: 0; stroke: #cccccc; stroke-opacity: 0.3"/>
     </g>
    </g>
    <g id="ytick_20">
     <g id="line2d_29">
      <path d="M 51.844375 339.709054 
L 721.444375 339.709054 
" clip-path="url(#p1334a21af1)" style="fill: none; stroke-dasharray: 3.7,1.6; stroke-dashoffset: 0; stroke: #cccccc; stroke-opacity: 0.3"/>
     </g>
    </g>
    <g id="ytick_21">
     <g id="line2d_30">
      <path d="M 51.844375 295.587616 
L 721.444375 295.587616 
" clip-path="url(#p1334a21af1)" style="fill: none; stroke-dasharray: 3.7,1.6; stroke-dashoffset: 0; stroke: #cccccc; stroke-opacity: 0.3"/>
     </g>
    </g>
    <g id="ytick_22">
     <g id="line2d_31">
      <path d="M 51.844375 273.183695 
L 721.444375 273.183695 
" clip-path="url(#p1334a21af1)" style="fill: none; stroke-dasharray: 3.7,1.6; stroke-dashoffset: 0; stroke: #cccccc; stroke-opacity: 0.3"/>
     </g>
    </g>
    <g id="ytick_23">
     <g id="line2d_32">
      <path d="M 51.844375 257.28786 
L 721.444375 257.28786 
" clip-path="url(#p1334a21af1)" style="fill: none; stroke-dasharray: 3.7,1.6; stroke-dashoffset: 0; stroke: #cccccc; stroke-opacity: 0.3"/>
     </g>
    </g>
    <g id="ytick_24">
     <g id="line2d_33">
      <path d="M 51.844375 244.958092 
L 721.444375 244.958092 
" clip-path="url(#p1334a21af1)" style="fill: none; stroke-dasharray: 3.7,1.6; stroke-dashoffset: 0; stroke: #cccccc; stroke-opacity: 0.3"/>
     </g>
    </g>
    <g id="ytick_25">
     <g id="line2d_34">
      <path d="M 51.844375 234.883939 
L 721.444375 234.883939 
" clip-path="url(#p1334a21af1)" style="fill: none; stroke-dasharray: 3.7,1.6; stroke-dashoffset: 0; stroke: #cccccc; stroke-opacity: 0.3"/>
     </g>
    </g>
    <g id="ytick_26">
     <g id="line2d_35">
      <path d="M 51.844375 226.366363 
L 721.444375 226.366363 
" clip-path="url(#p1334a21af1)" style="fill: none; stroke-dasharray: 3.7,1.6; stroke-dashoffset: 0; stroke: #cccccc; stroke-opacity: 0.3"/>
     </g>
    </g>
    <g id="ytick_27">
     <g id="line2d_36">
      <path d="M 51.844375 218.988103 
L 721.444375 218.988103 
" clip-path="url(#p1334a21af1)" style="fill: none; stroke-dasharray: 3.7,1.6; stroke-dashoffset: 0; stroke: #cccccc; stroke-opacity: 0.3"/>
     </g>
    </g>
    <g id="ytick_28">
     <g id="line2d_37">
      <path d="M 51.844375 212.480017 
L 721.444375 212.480017 
" clip-path="url(#p1334a21af1)" style="fill: none; stroke-dasharray: 3.7,1.6; stroke-dashoffset: 0; stroke: #cccccc; stroke-opacity: 0.3"/>
     </g>
    </g>
    <g id="ytick_29">
     <g id="line2d_38">
      <path d="M 51.844375 168.358579 
L 721.444375 168.358579 
" clip-path="url(#p1334a21af1)" style="fill: none; stroke-dasharray: 3.7,1.6; stroke-dashoffset: 0; stroke: #cccccc; stroke-opacity: 0.3"/>
     </g>
    </g>
    <g id="ytick_30">
     <g id="line2d_39">
      <path d="M 51.844375 145.954658 
L 721.444375 145.954658 
" clip-path="url(#p1334a21af1)" style="fill: none; stroke-dasharray: 3.7,1.6; stroke-dashoffset: 0; stroke: #cccccc; stroke-opacity: 0.3"/>
     </g>
    </g>
    <g id="ytick_31">
     <g id="line2d_40">
      <path d="M 51.844375 130.058823 
L 721.444375 130.058823 
" clip-path="url(#p1334a21af1)" style="fill: none; stroke-dasharray: 3.7,1.6; stroke-dashoffset: 0; stroke: #cccccc; stroke-opacity: 0.3"/>
     </g>
    </g>
    <g id="ytick_32">
     <g id="line2d_41">
      <path d="M 51.844375 117.729056 
L 721.444375 117.729056 
" clip-path="url(#p1334a21af1)" style="fill: none; stroke-dasharray: 3.7,1.6; stroke-dashoffset: 0; stroke: #cccccc; stroke-opacity: 0.3"/>
     </g>
    </g>
    <g id="ytick_33">
     <g id="line2d_42">
      <path d="M 51.844375 107.654902 
L 721.444375 107.654902 
" clip-path="url(#p1334a21af1)" style="fill: none; stroke-dasharray: 3.7,1.6; stroke-dashoffset: 0; stroke: #cccccc; stroke-opacity: 0.3"/>
     </g>
    </g>
    <g id="ytick_34">
     <g id="line2d_43">
      <path d="M 51.844375 99.137326 
L 721.444375 99.137326 
" clip-path="url(#p1334a21af1)" style="fill: none; stroke-dasharray: 3.7,1.6; stroke-dashoffset: 0; stroke: #cccccc; stroke-opacity: 0.3"/>
     </g>
    </g>
    <g id="ytick_35">
     <g id="line2d_44">
      <path d="M 51.844375 91.759067 
L 721.444375 91.759067 
" clip-path="url(#p1334a21af1)" style="fill: none; stroke-dasharray: 3.7,1.6; stroke-dashoffset: 0; stroke: #cccccc; stroke-opacity: 0.3"/>
     </g>
    </g>
    <g id="ytick_36">
     <g id="line2d_45">
      <path d="M 51.844375 85.250981 
L 721.444375 85.250981 
" clip-path="url(#p1334a21af1)" style="fill: none; stroke-dasharray: 3.7,1.6; stroke-dashoffset: 0; stroke: #cccccc; stroke-opacity: 0.3"/>
     </g>
    </g>
    <g id="text_15">
     <!-- Energy Efficiency (mJ per Byte) -->
     <g style="fill: #262626" transform="translate(16.318125 433.720313) rotate(-90) scale(0.12 -0.12)">
      <defs>
       <path id="DejaVuSerif-Bold-45" d="M 300 0 
L 300 378 
L 897 378 
L 897 4288 
L 300 4288 
L 300 4666 
L 4494 4666 
L 4494 3566 
L 4063 3566 
L 4063 4238 
L 2100 4238 
L 2100 2741 
L 3322 2741 
L 3322 3334 
L 3750 3334 
L 3750 1722 
L 3322 1722 
L 3322 2316 
L 2100 2316 
L 2100 428 
L 4122 428 
L 4122 1100 
L 4550 1100 
L 4550 0 
L 300 0 
z
" transform="scale(0.015625)"/>
       <path id="DejaVuSerif-Bold-6e" d="M 219 0 
L 219 378 
L 691 378 
L 691 2944 
L 219 2944 
L 219 3322 
L 1797 3322 
L 1797 2853 
Q 1997 3150 2253 3281 
Q 2509 3413 2900 3413 
Q 3459 3413 3745 3083 
Q 4031 2753 4031 2113 
L 4031 378 
L 4506 378 
L 4506 0 
L 2522 0 
L 2522 378 
L 2925 378 
L 2925 2144 
Q 2925 2566 2817 2730 
Q 2709 2894 2444 2894 
Q 2109 2894 1953 2648 
Q 1797 2403 1797 1869 
L 1797 378 
L 2203 378 
L 2203 0 
L 219 0 
z
" transform="scale(0.015625)"/>
       <path id="DejaVuSerif-Bold-72" d="M 3438 3359 
L 3438 2369 
L 3084 2369 
Q 3066 2634 2941 2764 
Q 2816 2894 2578 2894 
Q 2216 2894 2006 2575 
Q 1797 2256 1797 1691 
L 1797 378 
L 2400 378 
L 2400 0 
L 219 0 
L 219 378 
L 691 378 
L 691 2944 
L 184 2944 
L 184 3322 
L 1797 3322 
L 1797 2731 
Q 1959 3078 2226 3245 
Q 2494 3413 2881 3413 
Q 2978 3413 3117 3398 
Q 3256 3384 3438 3359 
z
" transform="scale(0.015625)"/>
       <path id="DejaVuSerif-Bold-67" d="M 3853 2944 
L 3853 44 
Q 3853 -656 3354 -1039 
Q 2856 -1422 1947 -1422 
Q 1616 -1422 1275 -1370 
Q 934 -1319 575 -1216 
L 575 -422 
L 928 -422 
Q 975 -750 1192 -909 
Q 1409 -1069 1813 -1069 
Q 2325 -1069 2536 -823 
Q 2747 -578 2747 44 
L 2747 422 
Q 2606 163 2367 36 
Q 2128 -91 1778 -91 
Q 1072 -91 667 378 
Q 263 847 263 1663 
Q 263 2481 667 2947 
Q 1072 3413 1778 3413 
Q 2128 3413 2367 3286 
Q 2606 3159 2747 2900 
L 2747 3322 
L 4325 3322 
L 4325 2944 
L 3853 2944 
z
M 2747 1825 
Q 2747 2406 2597 2665 
Q 2447 2925 2119 2925 
Q 1775 2925 1636 2651 
Q 1497 2378 1497 1663 
Q 1497 947 1637 672 
Q 1778 397 2119 397 
Q 2447 397 2597 656 
Q 2747 916 2747 1497 
L 2747 1825 
z
" transform="scale(0.015625)"/>
       <path id="DejaVuSerif-Bold-66" d="M 3097 4031 
L 2747 4031 
Q 2722 4275 2605 4394 
Q 2488 4513 2272 4513 
Q 2022 4513 1909 4333 
Q 1797 4153 1797 3750 
L 1797 3322 
L 2631 3322 
L 2631 2944 
L 1797 2944 
L 1797 378 
L 2438 378 
L 2438 0 
L 219 0 
L 219 378 
L 691 378 
L 691 2944 
L 197 2944 
L 197 3322 
L 691 3322 
L 691 3738 
Q 691 4291 1044 4577 
Q 1397 4863 2081 4863 
Q 2347 4863 2600 4833 
Q 2853 4803 3097 4744 
L 3097 4031 
z
" transform="scale(0.015625)"/>
       <path id="DejaVuSerif-Bold-63" d="M 3609 1038 
Q 3491 469 3123 189 
Q 2756 -91 2125 -91 
Q 1238 -91 750 368 
Q 263 828 263 1663 
Q 263 2488 744 2950 
Q 1225 3413 2081 3413 
Q 2428 3413 2781 3347 
Q 3134 3281 3500 3150 
L 3500 2228 
L 3150 2228 
Q 3100 2650 2903 2854 
Q 2706 3059 2350 3059 
Q 1888 3059 1692 2746 
Q 1497 2434 1497 1663 
Q 1497 909 1687 586 
Q 1878 263 2309 263 
Q 2644 263 2845 463 
Q 3047 663 3091 1038 
L 3609 1038 
z
" transform="scale(0.015625)"/>
       <path id="DejaVuSerif-Bold-6d" d="M 3884 2778 
Q 4116 3109 4384 3261 
Q 4653 3413 5013 3413 
Q 5584 3413 5867 3089 
Q 6150 2766 6150 2113 
L 6150 378 
L 6625 378 
L 6625 0 
L 4647 0 
L 4647 378 
L 5044 378 
L 5044 1947 
Q 5044 2569 4948 2731 
Q 4853 2894 4594 2894 
Q 4300 2894 4137 2667 
Q 3975 2441 3975 2022 
L 3975 378 
L 4372 378 
L 4372 0 
L 2472 0 
L 2472 378 
L 2869 378 
L 2869 1947 
Q 2869 2569 2772 2731 
Q 2675 2894 2419 2894 
Q 2122 2894 1959 2667 
Q 1797 2441 1797 2022 
L 1797 378 
L 2194 378 
L 2194 0 
L 219 0 
L 219 378 
L 691 378 
L 691 2944 
L 219 2944 
L 219 3322 
L 1797 3322 
L 1797 2853 
Q 1991 3144 2241 3278 
Q 2491 3413 2834 3413 
Q 3241 3413 3494 3258 
Q 3747 3103 3884 2778 
z
" transform="scale(0.015625)"/>
       <path id="DejaVuSerif-Bold-4a" d="M -469 -1119 
L -469 -384 
L -63 -384 
Q -44 -678 76 -815 
Q 197 -953 434 -953 
Q 738 -953 858 -720 
Q 978 -488 978 153 
L 978 4288 
L 300 4288 
L 300 4666 
L 2784 4666 
L 2784 4288 
L 2188 4288 
L 2188 128 
Q 2188 -631 1805 -981 
Q 1422 -1331 588 -1331 
Q 328 -1331 65 -1278 
Q -197 -1225 -469 -1119 
z
" transform="scale(0.015625)"/>
       <path id="DejaVuSerif-Bold-70" d="M 1728 1825 
L 1728 1497 
Q 1728 916 1876 656 
Q 2025 397 2356 397 
Q 2697 397 2836 672 
Q 2975 947 2975 1663 
Q 2975 2378 2836 2651 
Q 2697 2925 2356 2925 
Q 2025 2925 1876 2665 
Q 1728 2406 1728 1825 
z
M 622 2944 
L 147 2944 
L 147 3322 
L 1728 3322 
L 1728 2900 
Q 1869 3159 2106 3286 
Q 2344 3413 2694 3413 
Q 3403 3413 3811 2945 
Q 4219 2478 4219 1663 
Q 4219 847 3811 378 
Q 3403 -91 2694 -91 
Q 2344 -91 2106 36 
Q 1869 163 1728 422 
L 1728 -953 
L 2241 -953 
L 2241 -1331 
L 147 -1331 
L 147 -953 
L 622 -953 
L 622 2944 
z
" transform="scale(0.015625)"/>
      </defs>
      <use xlink:href="#DejaVuSerif-Bold-45"/>
      <use xlink:href="#DejaVuSerif-Bold-6e" transform="translate(76.220703 0)"/>
      <use xlink:href="#DejaVuSerif-Bold-65" transform="translate(148.925781 0)"/>
      <use xlink:href="#DejaVuSerif-Bold-72" transform="translate(212.548828 0)"/>
      <use xlink:href="#DejaVuSerif-Bold-67" transform="translate(265.234375 0)"/>
      <use xlink:href="#DejaVuSerif-Bold-79" transform="translate(335.15625 0)"/>
      <use xlink:href="#DejaVuSerif-Bold-20" transform="translate(393.261719 0)"/>
      <use xlink:href="#DejaVuSerif-Bold-45" transform="translate(428.076172 0)"/>
      <use xlink:href="#DejaVuSerif-Bold-66" transform="translate(504.296875 0)"/>
      <use xlink:href="#DejaVuSerif-Bold-66" transform="translate(547.314453 0)"/>
      <use xlink:href="#DejaVuSerif-Bold-69" transform="translate(590.332031 0)"/>
      <use xlink:href="#DejaVuSerif-Bold-63" transform="translate(628.320312 0)"/>
      <use xlink:href="#DejaVuSerif-Bold-69" transform="translate(689.208984 0)"/>
      <use xlink:href="#DejaVuSerif-Bold-65" transform="translate(727.197266 0)"/>
      <use xlink:href="#DejaVuSerif-Bold-6e" transform="translate(790.820312 0)"/>
      <use xlink:href="#DejaVuSerif-Bold-63" transform="translate(863.525391 0)"/>
      <use xlink:href="#DejaVuSerif-Bold-79" transform="translate(924.414062 0)"/>
      <use xlink:href="#DejaVuSerif-Bold-20" transform="translate(982.519531 0)"/>
      <use xlink:href="#DejaVuSerif-Bold-28" transform="translate(1017.333984 0)"/>
      <use xlink:href="#DejaVuSerif-Bold-6d" transform="translate(1064.648438 0)"/>
      <use xlink:href="#DejaVuSerif-Bold-4a" transform="translate(1170.458984 0)"/>
      <use xlink:href="#DejaVuSerif-Bold-20" transform="translate(1217.773438 0)"/>
      <use xlink:href="#DejaVuSerif-Bold-70" transform="translate(1252.587891 0)"/>
      <use xlink:href="#DejaVuSerif-Bold-65" transform="translate(1322.509766 0)"/>
      <use xlink:href="#DejaVuSerif-Bold-72" transform="translate(1386.132812 0)"/>
      <use xlink:href="#DejaVuSerif-Bold-20" transform="translate(1438.818359 0)"/>
      <use xlink:href="#DejaVuSerif-Bold-42" transform="translate(1473.632812 0)"/>
      <use xlink:href="#DejaVuSerif-Bold-79" transform="translate(1558.154297 0)"/>
      <use xlink:href="#DejaVuSerif-Bold-74" transform="translate(1616.259766 0)"/>
      <use xlink:href="#DejaVuSerif-Bold-65" transform="translate(1662.451172 0)"/>
      <use xlink:href="#DejaVuSerif-Bold-29" transform="translate(1726.074219 0)"/>
     </g>
    </g>
   </g>
   <g id="FillBetweenPolyCollection_1">
    <defs>
     <path id="m3518175fcf" d="M 82.280739 -403.731656 
L 82.280739 -402.196306 
L 118.088225 -357.336972 
L 153.895712 -319.10148 
L 189.703199 -281.868079 
L 225.510685 -244.738985 
L 261.318172 -208.343572 
L 297.125658 -174.208682 
L 332.933145 -143.352616 
L 368.740632 -116.444226 
L 404.548118 -96.97384 
L 440.355605 -83.014979 
L 476.163092 -75.114768 
L 511.970578 -70.707092 
L 547.778065 -68.198922 
L 583.585551 -66.806605 
L 619.393038 -66.209659 
L 655.200525 -65.810313 
L 655.200525 -67.685229 
L 655.200525 -67.685229 
L 619.393038 -68.156321 
L 583.585551 -68.833834 
L 547.778065 -70.115741 
L 511.970578 -72.563847 
L 476.163092 -76.920539 
L 440.355605 -84.906791 
L 404.548118 -98.751345 
L 368.740632 -118.099034 
L 332.933145 -145.024677 
L 297.125658 -175.620986 
L 261.318172 -209.911688 
L 225.510685 -246.217334 
L 189.703199 -283.456901 
L 153.895712 -320.822147 
L 118.088225 -358.979478 
L 82.280739 -403.731656 
z
" style="stroke: #0000ff; stroke-opacity: 0.2"/>
    </defs>
    <g clip-path="url(#p1334a21af1)">
     <use xlink:href="#m3518175fcf" x="0" y="619.928125" style="fill: #0000ff; fill-opacity: 0.2; stroke: #0000ff; stroke-opacity: 0.2"/>
    </g>
   </g>
   <g id="FillBetweenPolyCollection_2">
    <defs>
     <path id="m5963572c80" d="M 82.280739 -443.782364 
L 82.280739 -442.994794 
L 118.088225 -407.346199 
L 153.895712 -373.693072 
L 189.703199 -343.481857 
L 225.510685 -323.282452 
L 261.318172 -306.745972 
L 297.125658 -296.786362 
L 332.933145 -290.850962 
L 368.740632 -287.547856 
L 404.548118 -286.01091 
L 440.355605 -285.243763 
L 476.163092 -284.792 
L 511.970578 -284.712543 
L 547.778065 -284.845971 
L 583.585551 -284.980161 
L 583.585551 -285.119388 
L 583.585551 -285.119388 
L 547.778065 -285.203633 
L 511.970578 -285.308283 
L 476.163092 -285.511854 
L 440.355605 -285.967139 
L 404.548118 -286.835929 
L 368.740632 -288.456765 
L 332.933145 -291.89823 
L 297.125658 -297.828896 
L 261.318172 -307.902956 
L 225.510685 -325.04142 
L 189.703199 -344.761002 
L 153.895712 -375.308616 
L 118.088225 -408.800571 
L 82.280739 -443.782364 
z
" style="stroke: #ff0000; stroke-opacity: 0.2"/>
    </defs>
    <g clip-path="url(#p1334a21af1)">
     <use xlink:href="#m5963572c80" x="0" y="619.928125" style="fill: #ff0000; fill-opacity: 0.2; stroke: #ff0000; stroke-opacity: 0.2"/>
    </g>
   </g>
   <g id="FillBetweenPolyCollection_3">
    <defs>
     <path id="m8ccd79a86b" d="M 82.280739 -519.410313 
L 82.280739 -504.763169 
L 118.088225 -464.602363 
L 153.895712 -435.374037 
L 189.703199 -396.985856 
L 225.510685 -358.986506 
L 261.318172 -321.710665 
L 297.125658 -285.755959 
L 332.933145 -248.970453 
L 368.740632 -220.758794 
L 404.548118 -189.766186 
L 440.355605 -171.031454 
L 476.163092 -152.601095 
L 511.970578 -142.345495 
L 547.778065 -136.957202 
L 583.585551 -134.500745 
L 619.393038 -132.122719 
L 655.200525 -131.235521 
L 691.008011 -130.522561 
L 691.008011 -131.882683 
L 691.008011 -131.882683 
L 655.200525 -132.624606 
L 619.393038 -133.587722 
L 583.585551 -135.879352 
L 547.778065 -138.980903 
L 511.970578 -144.746003 
L 476.163092 -157.194653 
L 440.355605 -174.932622 
L 404.548118 -195.378916 
L 368.740632 -230.545583 
L 332.933145 -254.688907 
L 297.125658 -292.802851 
L 261.318172 -335.727741 
L 225.510685 -363.180349 
L 189.703199 -400.627471 
L 153.895712 -439.612992 
L 118.088225 -470.777418 
L 82.280739 -519.410313 
z
" style="stroke: #ffa500; stroke-opacity: 0.2"/>
    </defs>
    <g clip-path="url(#p1334a21af1)">
     <use xlink:href="#m8ccd79a86b" x="0" y="619.928125" style="fill: #ffa500; fill-opacity: 0.2; stroke: #ffa500; stroke-opacity: 0.2"/>
    </g>
   </g>
   <g id="patch_3">
    <path d="M 75.119241 388.872757 
L 232.672182 388.872757 
L 232.672182 86.786625 
L 75.119241 86.786625 
L 75.119241 388.872757 
z
" clip-path="url(#p1334a21af1)" style="fill: none; opacity: 0.4; stroke-dasharray: 3.7,1.6; stroke-dashoffset: 0; stroke: #808080; stroke-linejoin: miter"/>
   </g>
   <g id="line2d_46">
    <path d="M 82.280739 216.858546 
L 118.088225 261.666971 
L 153.895712 299.842032 
L 189.703199 337.194864 
L 225.510685 374.352961 
L 261.318172 410.72114 
L 297.125658 444.934054 
L 332.933145 475.654704 
L 368.740632 502.580121 
L 404.548118 521.950581 
L 440.355605 535.77952 
L 476.163092 543.755833 
L 511.970578 548.181214 
L 547.778065 550.604228 
L 583.585551 551.911666 
L 619.393038 552.558156 
L 655.200525 553.026159 
" clip-path="url(#p1334a21af1)" style="fill: none; stroke: #0000ff; stroke-width: 1.5; stroke-linecap: round"/>
    <defs>
     <path id="m333faeaaad" d="M 0 4 
C 1.060812 4 2.078319 3.578535 2.828427 2.828427 
C 3.578535 2.078319 4 1.060812 4 0 
C 4 -1.060812 3.578535 -2.078319 2.828427 -2.828427 
C 2.078319 -3.578535 1.060812 -4 0 -4 
C -1.060812 -4 -2.078319 -3.578535 -2.828427 -2.828427 
C -3.578535 -2.078319 -4 -1.060812 -4 0 
C -4 1.060812 -3.578535 2.078319 -2.828427 2.828427 
C -2.078319 3.578535 -1.060812 4 0 4 
z
" style="stroke: #ffffff; stroke-width: 0.75"/>
    </defs>
    <g clip-path="url(#p1334a21af1)">
     <use xlink:href="#m333faeaaad" x="82.280739" y="216.858546" style="fill: #0000ff; stroke: #ffffff; stroke-width: 0.75"/>
     <use xlink:href="#m333faeaaad" x="118.088225" y="261.666971" style="fill: #0000ff; stroke: #ffffff; stroke-width: 0.75"/>
     <use xlink:href="#m333faeaaad" x="153.895712" y="299.842032" style="fill: #0000ff; stroke: #ffffff; stroke-width: 0.75"/>
     <use xlink:href="#m333faeaaad" x="189.703199" y="337.194864" style="fill: #0000ff; stroke: #ffffff; stroke-width: 0.75"/>
     <use xlink:href="#m333faeaaad" x="225.510685" y="374.352961" style="fill: #0000ff; stroke: #ffffff; stroke-width: 0.75"/>
     <use xlink:href="#m333faeaaad" x="261.318172" y="410.72114" style="fill: #0000ff; stroke: #ffffff; stroke-width: 0.75"/>
     <use xlink:href="#m333faeaaad" x="297.125658" y="444.934054" style="fill: #0000ff; stroke: #ffffff; stroke-width: 0.75"/>
     <use xlink:href="#m333faeaaad" x="332.933145" y="475.654704" style="fill: #0000ff; stroke: #ffffff; stroke-width: 0.75"/>
     <use xlink:href="#m333faeaaad" x="368.740632" y="502.580121" style="fill: #0000ff; stroke: #ffffff; stroke-width: 0.75"/>
     <use xlink:href="#m333faeaaad" x="404.548118" y="521.950581" style="fill: #0000ff; stroke: #ffffff; stroke-width: 0.75"/>
     <use xlink:href="#m333faeaaad" x="440.355605" y="535.77952" style="fill: #0000ff; stroke: #ffffff; stroke-width: 0.75"/>
     <use xlink:href="#m333faeaaad" x="476.163092" y="543.755833" style="fill: #0000ff; stroke: #ffffff; stroke-width: 0.75"/>
     <use xlink:href="#m333faeaaad" x="511.970578" y="548.181214" style="fill: #0000ff; stroke: #ffffff; stroke-width: 0.75"/>
     <use xlink:href="#m333faeaaad" x="547.778065" y="550.604228" style="fill: #0000ff; stroke: #ffffff; stroke-width: 0.75"/>
     <use xlink:href="#m333faeaaad" x="583.585551" y="551.911666" style="fill: #0000ff; stroke: #ffffff; stroke-width: 0.75"/>
     <use xlink:href="#m333faeaaad" x="619.393038" y="552.558156" style="fill: #0000ff; stroke: #ffffff; stroke-width: 0.75"/>
     <use xlink:href="#m333faeaaad" x="655.200525" y="553.026159" style="fill: #0000ff; stroke: #ffffff; stroke-width: 0.75"/>
    </g>
   </g>
   <g id="line2d_47">
    <path d="M 82.280739 176.561241 
L 118.088225 211.869059 
L 153.895712 245.407977 
L 189.703199 275.801773 
L 225.510685 295.756546 
L 261.318172 312.580771 
L 297.125658 322.611958 
L 332.933145 328.503014 
L 368.740632 331.829944 
L 404.548118 333.40012 
L 440.355605 334.269085 
L 476.163092 334.656597 
L 511.970578 334.826872 
L 547.778065 334.850102 
L 583.585551 334.860633 
" clip-path="url(#p1334a21af1)" style="fill: none; stroke: #ff0000; stroke-width: 1.5; stroke-linecap: round"/>
    <defs>
     <path id="m3841c8ea1b" d="M 0 4 
C 1.060812 4 2.078319 3.578535 2.828427 2.828427 
C 3.578535 2.078319 4 1.060812 4 0 
C 4 -1.060812 3.578535 -2.078319 2.828427 -2.828427 
C 2.078319 -3.578535 1.060812 -4 0 -4 
C -1.060812 -4 -2.078319 -3.578535 -2.828427 -2.828427 
C -3.578535 -2.078319 -4 -1.060812 -4 0 
C -4 1.060812 -3.578535 2.078319 -2.828427 2.828427 
C -2.078319 3.578535 -1.060812 4 0 4 
z
" style="stroke: #ffffff; stroke-width: 0.75"/>
    </defs>
    <g clip-path="url(#p1334a21af1)">
     <use xlink:href="#m3841c8ea1b" x="82.280739" y="176.561241" style="fill: #ff0000; stroke: #ffffff; stroke-width: 0.75"/>
     <use xlink:href="#m3841c8ea1b" x="118.088225" y="211.869059" style="fill: #ff0000; stroke: #ffffff; stroke-width: 0.75"/>
     <use xlink:href="#m3841c8ea1b" x="153.895712" y="245.407977" style="fill: #ff0000; stroke: #ffffff; stroke-width: 0.75"/>
     <use xlink:href="#m3841c8ea1b" x="189.703199" y="275.801773" style="fill: #ff0000; stroke: #ffffff; stroke-width: 0.75"/>
     <use xlink:href="#m3841c8ea1b" x="225.510685" y="295.756546" style="fill: #ff0000; stroke: #ffffff; stroke-width: 0.75"/>
     <use xlink:href="#m3841c8ea1b" x="261.318172" y="312.580771" style="fill: #ff0000; stroke: #ffffff; stroke-width: 0.75"/>
     <use xlink:href="#m3841c8ea1b" x="297.125658" y="322.611958" style="fill: #ff0000; stroke: #ffffff; stroke-width: 0.75"/>
     <use xlink:href="#m3841c8ea1b" x="332.933145" y="328.503014" style="fill: #ff0000; stroke: #ffffff; stroke-width: 0.75"/>
     <use xlink:href="#m3841c8ea1b" x="368.740632" y="331.829944" style="fill: #ff0000; stroke: #ffffff; stroke-width: 0.75"/>
     <use xlink:href="#m3841c8ea1b" x="404.548118" y="333.40012" style="fill: #ff0000; stroke: #ffffff; stroke-width: 0.75"/>
     <use xlink:href="#m3841c8ea1b" x="440.355605" y="334.269085" style="fill: #ff0000; stroke: #ffffff; stroke-width: 0.75"/>
     <use xlink:href="#m3841c8ea1b" x="476.163092" y="334.656597" style="fill: #ff0000; stroke: #ffffff; stroke-width: 0.75"/>
     <use xlink:href="#m3841c8ea1b" x="511.970578" y="334.826872" style="fill: #ff0000; stroke: #ffffff; stroke-width: 0.75"/>
     <use xlink:href="#m3841c8ea1b" x="547.778065" y="334.850102" style="fill: #ff0000; stroke: #ffffff; stroke-width: 0.75"/>
     <use xlink:href="#m3841c8ea1b" x="583.585551" y="334.860633" style="fill: #ff0000; stroke: #ffffff; stroke-width: 0.75"/>
    </g>
   </g>
   <g id="line2d_48">
    <path d="M 82.280739 107.354758 
L 118.088225 152.721018 
L 153.895712 182.610632 
L 189.703199 221.152362 
L 225.510685 258.900207 
L 261.318172 291.859478 
L 297.125658 331.228559 
L 332.933145 368.572764 
L 368.740632 394.642377 
L 404.548118 427.74226 
L 440.355605 446.902167 
L 476.163092 465.00977 
L 511.970578 476.399929 
L 547.778065 481.935649 
L 583.585551 484.724663 
L 619.393038 487.04945 
L 655.200525 488.011125 
L 691.008011 488.698793 
" clip-path="url(#p1334a21af1)" style="fill: none; stroke: #ffa500; stroke-width: 1.5; stroke-linecap: round"/>
    <defs>
     <path id="m81bee6f2b1" d="M 0 4 
C 1.060812 4 2.078319 3.578535 2.828427 2.828427 
C 3.578535 2.078319 4 1.060812 4 0 
C 4 -1.060812 3.578535 -2.078319 2.828427 -2.828427 
C 2.078319 -3.578535 1.060812 -4 0 -4 
C -1.060812 -4 -2.078319 -3.578535 -2.828427 -2.828427 
C -3.578535 -2.078319 -4 -1.060812 -4 0 
C -4 1.060812 -3.578535 2.078319 -2.828427 2.828427 
C -2.078319 3.578535 -1.060812 4 0 4 
z
" style="stroke: #ffffff; stroke-width: 0.75"/>
    </defs>
    <g clip-path="url(#p1334a21af1)">
     <use xlink:href="#m81bee6f2b1" x="82.280739" y="107.354758" style="fill: #ffa500; stroke: #ffffff; stroke-width: 0.75"/>
     <use xlink:href="#m81bee6f2b1" x="118.088225" y="152.721018" style="fill: #ffa500; stroke: #ffffff; stroke-width: 0.75"/>
     <use xlink:href="#m81bee6f2b1" x="153.895712" y="182.610632" style="fill: #ffa500; stroke: #ffffff; stroke-width: 0.75"/>
     <use xlink:href="#m81bee6f2b1" x="189.703199" y="221.152362" style="fill: #ffa500; stroke: #ffffff; stroke-width: 0.75"/>
     <use xlink:href="#m81bee6f2b1" x="225.510685" y="258.900207" style="fill: #ffa500; stroke: #ffffff; stroke-width: 0.75"/>
     <use xlink:href="#m81bee6f2b1" x="261.318172" y="291.859478" style="fill: #ffa500; stroke: #ffffff; stroke-width: 0.75"/>
     <use xlink:href="#m81bee6f2b1" x="297.125658" y="331.228559" style="fill: #ffa500; stroke: #ffffff; stroke-width: 0.75"/>
     <use xlink:href="#m81bee6f2b1" x="332.933145" y="368.572764" style="fill: #ffa500; stroke: #ffffff; stroke-width: 0.75"/>
     <use xlink:href="#m81bee6f2b1" x="368.740632" y="394.642377" style="fill: #ffa500; stroke: #ffffff; stroke-width: 0.75"/>
     <use xlink:href="#m81bee6f2b1" x="404.548118" y="427.74226" style="fill: #ffa500; stroke: #ffffff; stroke-width: 0.75"/>
     <use xlink:href="#m81bee6f2b1" x="440.355605" y="446.902167" style="fill: #ffa500; stroke: #ffffff; stroke-width: 0.75"/>
     <use xlink:href="#m81bee6f2b1" x="476.163092" y="465.00977" style="fill: #ffa500; stroke: #ffffff; stroke-width: 0.75"/>
     <use xlink:href="#m81bee6f2b1" x="511.970578" y="476.399929" style="fill: #ffa500; stroke: #ffffff; stroke-width: 0.75"/>
     <use xlink:href="#m81bee6f2b1" x="547.778065" y="481.935649" style="fill: #ffa500; stroke: #ffffff; stroke-width: 0.75"/>
     <use xlink:href="#m81bee6f2b1" x="583.585551" y="484.724663" style="fill: #ffa500; stroke: #ffffff; stroke-width: 0.75"/>
     <use xlink:href="#m81bee6f2b1" x="619.393038" y="487.04945" style="fill: #ffa500; stroke: #ffffff; stroke-width: 0.75"/>
     <use xlink:href="#m81bee6f2b1" x="655.200525" y="488.011125" style="fill: #ffa500; stroke: #ffffff; stroke-width: 0.75"/>
     <use xlink:href="#m81bee6f2b1" x="691.008011" y="488.698793" style="fill: #ffa500; stroke: #ffffff; stroke-width: 0.75"/>
    </g>
   </g>
   <g id="line2d_49"/>
   <g id="line2d_50"/>
   <g id="line2d_51"/>
   <g id="patch_4">
    <path d="M 51.844375 576.797812 
L 51.844375 77.837812 
" style="fill: none; stroke: #cccccc; stroke-width: 1.25; stroke-linejoin: miter; stroke-linecap: square"/>
   </g>
   <g id="patch_5">
    <path d="M 721.444375 576.797812 
L 721.444375 77.837812 
" style="fill: none; stroke: #cccccc; stroke-width: 1.25; stroke-linejoin: miter; stroke-linecap: square"/>
   </g>
   <g id="patch_6">
    <path d="M 51.844375 576.797812 
L 721.444375 576.797812 
" style="fill: none; stroke: #cccccc; stroke-width: 1.25; stroke-linejoin: miter; stroke-linecap: square"/>
   </g>
   <g id="patch_7">
    <path d="M 51.844375 77.837812 
L 721.444375 77.837812 
" style="fill: none; stroke: #cccccc; stroke-width: 1.25; stroke-linejoin: miter; stroke-linecap: square"/>
   </g>
   <g id="text_16">
    <!-- BYTE Method: Protocol Efficiency Comparison -->
    <g style="fill: #262626" transform="translate(203.839375 17.837813) scale(0.14 -0.14)">
     <defs>
      <path id="DejaVuSerif-Bold-59" d="M 1100 0 
L 1100 378 
L 1728 378 
L 1728 1931 
L 341 4288 
L -56 4288 
L -56 4666 
L 2181 4666 
L 2181 4288 
L 1663 4288 
L 2713 2509 
L 3756 4288 
L 3291 4288 
L 3291 4666 
L 4628 4666 
L 4628 4288 
L 4231 4288 
L 2938 2094 
L 2938 378 
L 3566 378 
L 3566 0 
L 1100 0 
z
" transform="scale(0.015625)"/>
      <path id="DejaVuSerif-Bold-54" d="M 1159 0 
L 1159 378 
L 1778 378 
L 1778 4238 
L 500 4238 
L 500 3500 
L 72 3500 
L 72 4666 
L 4697 4666 
L 4697 3500 
L 4275 3500 
L 4275 4238 
L 2988 4238 
L 2988 378 
L 3609 378 
L 3609 0 
L 1159 0 
z
" transform="scale(0.015625)"/>
      <path id="DejaVuSerif-Bold-4d" d="M 269 0 
L 269 378 
L 863 378 
L 863 4288 
L 269 4288 
L 269 4666 
L 2194 4666 
L 3525 1672 
L 4863 4666 
L 6784 4666 
L 6784 4288 
L 6188 4288 
L 6188 378 
L 6784 378 
L 6784 0 
L 4384 0 
L 4384 378 
L 4978 378 
L 4978 3938 
L 3531 684 
L 2741 684 
L 1300 3938 
L 1300 378 
L 1894 378 
L 1894 0 
L 269 0 
z
" transform="scale(0.015625)"/>
      <path id="DejaVuSerif-Bold-68" d="M 219 0 
L 219 378 
L 691 378 
L 691 4488 
L 197 4488 
L 197 4863 
L 1797 4863 
L 1797 2853 
Q 1997 3150 2253 3281 
Q 2509 3413 2900 3413 
Q 3459 3413 3745 3083 
Q 4031 2753 4031 2113 
L 4031 378 
L 4506 378 
L 4506 0 
L 2522 0 
L 2522 378 
L 2925 378 
L 2925 2144 
Q 2925 2566 2817 2730 
Q 2709 2894 2444 2894 
Q 2109 2894 1953 2648 
Q 1797 2403 1797 1869 
L 1797 378 
L 2203 378 
L 2203 0 
L 219 0 
z
" transform="scale(0.015625)"/>
      <path id="DejaVuSerif-Bold-3a" d="M 588 2541 
Q 588 2788 761 2963 
Q 934 3138 1178 3138 
Q 1422 3138 1597 2961 
Q 1772 2784 1772 2541 
Q 1772 2297 1598 2125 
Q 1425 1953 1178 1953 
Q 931 1953 759 2125 
Q 588 2297 588 2541 
z
M 588 506 
Q 588 750 761 925 
Q 934 1100 1178 1100 
Q 1422 1100 1597 925 
Q 1772 750 1772 506 
Q 1772 259 1597 84 
Q 1422 -91 1178 -91 
Q 934 -91 761 84 
Q 588 259 588 506 
z
" transform="scale(0.015625)"/>
      <path id="DejaVuSerif-Bold-43" d="M 4769 1331 
Q 4584 609 4106 259 
Q 3628 -91 2822 -91 
Q 1641 -91 955 561 
Q 269 1213 269 2328 
Q 269 3447 955 4098 
Q 1641 4750 2822 4750 
Q 3238 4750 3688 4650 
Q 4138 4550 4641 4347 
L 4641 3200 
L 4244 3200 
Q 4122 3788 3800 4080 
Q 3478 4372 2950 4372 
Q 2269 4372 1937 3870 
Q 1606 3369 1606 2328 
Q 1606 1288 1937 788 
Q 2269 288 2956 288 
Q 3422 288 3717 547 
Q 4013 806 4147 1331 
L 4769 1331 
z
" transform="scale(0.015625)"/>
     </defs>
     <use xlink:href="#DejaVuSerif-Bold-42"/>
     <use xlink:href="#DejaVuSerif-Bold-59" transform="translate(82.771484 0)"/>
     <use xlink:href="#DejaVuSerif-Bold-54" transform="translate(154.158203 0)"/>
     <use xlink:href="#DejaVuSerif-Bold-45" transform="translate(228.572266 0)"/>
     <use xlink:href="#DejaVuSerif-Bold-20" transform="translate(304.792969 0)"/>
     <use xlink:href="#DejaVuSerif-Bold-4d" transform="translate(339.607422 0)"/>
     <use xlink:href="#DejaVuSerif-Bold-65" transform="translate(450.300781 0)"/>
     <use xlink:href="#DejaVuSerif-Bold-74" transform="translate(513.923828 0)"/>
     <use xlink:href="#DejaVuSerif-Bold-68" transform="translate(560.115234 0)"/>
     <use xlink:href="#DejaVuSerif-Bold-6f" transform="translate(632.820312 0)"/>
     <use xlink:href="#DejaVuSerif-Bold-64" transform="translate(699.519531 0)"/>
     <use xlink:href="#DejaVuSerif-Bold-3a" transform="translate(769.441406 0)"/>
     <use xlink:href="#DejaVuSerif-Bold-20" transform="translate(806.355469 0)"/>
     <use xlink:href="#DejaVuSerif-Bold-50" transform="translate(841.169922 0)"/>
     <use xlink:href="#DejaVuSerif-Bold-72" transform="translate(916.365234 0)"/>
     <use xlink:href="#DejaVuSerif-Bold-6f" transform="translate(969.050781 0)"/>
     <use xlink:href="#DejaVuSerif-Bold-74" transform="translate(1035.75 0)"/>
     <use xlink:href="#DejaVuSerif-Bold-6f" transform="translate(1081.941406 0)"/>
     <use xlink:href="#DejaVuSerif-Bold-63" transform="translate(1148.640625 0)"/>
     <use xlink:href="#DejaVuSerif-Bold-6f" transform="translate(1209.529297 0)"/>
     <use xlink:href="#DejaVuSerif-Bold-6c" transform="translate(1276.228516 0)"/>
     <use xlink:href="#DejaVuSerif-Bold-20" transform="translate(1314.216797 0)"/>
     <use xlink:href="#DejaVuSerif-Bold-45" transform="translate(1349.03125 0)"/>
     <use xlink:href="#DejaVuSerif-Bold-66" transform="translate(1425.251953 0)"/>
     <use xlink:href="#DejaVuSerif-Bold-66" transform="translate(1468.269531 0)"/>
     <use xlink:href="#DejaVuSerif-Bold-69" transform="translate(1511.287109 0)"/>
     <use xlink:href="#DejaVuSerif-Bold-63" transform="translate(1549.275391 0)"/>
     <use xlink:href="#DejaVuSerif-Bold-69" transform="translate(1610.164062 0)"/>
     <use xlink:href="#DejaVuSerif-Bold-65" transform="translate(1648.152344 0)"/>
     <use xlink:href="#DejaVuSerif-Bold-6e" transform="translate(1711.775391 0)"/>
     <use xlink:href="#DejaVuSerif-Bold-63" transform="translate(1784.480469 0)"/>
     <use xlink:href="#DejaVuSerif-Bold-79" transform="translate(1845.369141 0)"/>
     <use xlink:href="#DejaVuSerif-Bold-20" transform="translate(1903.474609 0)"/>
     <use xlink:href="#DejaVuSerif-Bold-43" transform="translate(1938.289062 0)"/>
     <use xlink:href="#DejaVuSerif-Bold-6f" transform="translate(2017.878906 0)"/>
     <use xlink:href="#DejaVuSerif-Bold-6d" transform="translate(2084.578125 0)"/>
     <use xlink:href="#DejaVuSerif-Bold-70" transform="translate(2190.388672 0)"/>
     <use xlink:href="#DejaVuSerif-Bold-61" transform="translate(2260.310547 0)"/>
     <use xlink:href="#DejaVuSerif-Bold-72" transform="translate(2325.105469 0)"/>
     <use xlink:href="#DejaVuSerif-Bold-69" transform="translate(2377.791016 0)"/>
     <use xlink:href="#DejaVuSerif-Bold-73" transform="translate(2415.779297 0)"/>
     <use xlink:href="#DejaVuSerif-Bold-6f" transform="translate(2472.078125 0)"/>
     <use xlink:href="#DejaVuSerif-Bold-6e" transform="translate(2538.777344 0)"/>
    </g>
   </g>
  </g>
  <g id="axes_2">
   <g id="patch_8">
    <path d="M 454.084375 285.473812 
L 688.444375 285.473812 
L 688.444375 110.837812 
L 454.084375 110.837812 
z
" style="fill: #ffffff"/>
   </g>
   <g id="matplotlib.axis_3">
    <g id="xtick_10">
     <g id="line2d_52">
      <path d="M 464.737102 285.473812 
L 464.737102 110.837812 
" clip-path="url(#p560deed4c4)" style="fill: none; stroke: #cccccc; stroke-linecap: round"/>
     </g>
     <g id="text_17">
      <!-- $\mathdefault{2^{0}}$ -->
      <g style="fill: #262626" transform="translate(461.377102 299.532875) scale(0.06 -0.06)">
       <use xlink:href="#DejaVuSerif-32" transform="translate(0 0.7125)"/>
       <use xlink:href="#DejaVuSerif-30" transform="translate(64.531406 37.046875) scale(0.7)"/>
      </g>
     </g>
    </g>
    <g id="xtick_11">
     <g id="line2d_53">
      <path d="M 518.000739 285.473812 
L 518.000739 110.837812 
" clip-path="url(#p560deed4c4)" style="fill: none; stroke: #cccccc; stroke-linecap: round"/>
     </g>
     <g id="text_18">
      <!-- $\mathdefault{2^{1}}$ -->
      <g style="fill: #262626" transform="translate(514.640739 299.532875) scale(0.06 -0.06)">
       <use xlink:href="#DejaVuSerif-32" transform="translate(0 0.7125)"/>
       <use xlink:href="#DejaVuSerif-31" transform="translate(64.531406 37.046875) scale(0.7)"/>
      </g>
     </g>
    </g>
    <g id="xtick_12">
     <g id="line2d_54">
      <path d="M 571.264375 285.473812 
L 571.264375 110.837812 
" clip-path="url(#p560deed4c4)" style="fill: none; stroke: #cccccc; stroke-linecap: round"/>
     </g>
     <g id="text_19">
      <!-- $\mathdefault{2^{2}}$ -->
      <g style="fill: #262626" transform="translate(567.904375 299.532875) scale(0.06 -0.06)">
       <use xlink:href="#DejaVuSerif-32" transform="translate(0 0.7125)"/>
       <use xlink:href="#DejaVuSerif-32" transform="translate(64.531406 37.046875) scale(0.7)"/>
      </g>
     </g>
    </g>
    <g id="xtick_13">
     <g id="line2d_55">
      <path d="M 624.528011 285.473812 
L 624.528011 110.837812 
" clip-path="url(#p560deed4c4)" style="fill: none; stroke: #cccccc; stroke-linecap: round"/>
     </g>
     <g id="text_20">
      <!-- $\mathdefault{2^{3}}$ -->
      <g style="fill: #262626" transform="translate(621.168011 299.532875) scale(0.06 -0.06)">
       <use xlink:href="#DejaVuSerif-32" transform="translate(0 0.7125)"/>
       <use xlink:href="#DejaVuSerif-33" transform="translate(64.531406 37.046875) scale(0.7)"/>
      </g>
     </g>
    </g>
    <g id="xtick_14">
     <g id="line2d_56">
      <path d="M 677.791648 285.473812 
L 677.791648 110.837812 
" clip-path="url(#p560deed4c4)" style="fill: none; stroke: #cccccc; stroke-linecap: round"/>
     </g>
     <g id="text_21">
      <!-- $\mathdefault{2^{4}}$ -->
      <g style="fill: #262626" transform="translate(674.431648 299.532875) scale(0.06 -0.06)">
       <use xlink:href="#DejaVuSerif-32" transform="translate(0 0.7125)"/>
       <use xlink:href="#DejaVuSerif-34" transform="translate(64.531406 37.046875) scale(0.7)"/>
      </g>
     </g>
    </g>
    <g id="text_22">
     <!-- Payload Size (Bytes) -->
     <g style="fill: #262626" transform="translate(535.236797 310.099594) scale(0.07 -0.07)">
      <defs>
       <path id="DejaVuSerif-50" d="M 1581 2375 
L 2406 2375 
Q 2872 2375 3115 2626 
Q 3359 2878 3359 3353 
Q 3359 3831 3115 4081 
Q 2872 4331 2406 4331 
L 1581 4331 
L 1581 2375 
z
M 353 0 
L 353 331 
L 947 331 
L 947 4331 
L 353 4331 
L 353 4666 
L 2559 4666 
Q 3259 4666 3668 4311 
Q 4078 3956 4078 3353 
Q 4078 2753 3668 2397 
Q 3259 2041 2559 2041 
L 1581 2041 
L 1581 331 
L 2303 331 
L 2303 0 
L 353 0 
z
" transform="scale(0.015625)"/>
       <path id="DejaVuSerif-61" d="M 2547 1044 
L 2547 1747 
L 1806 1747 
Q 1378 1747 1168 1562 
Q 959 1378 959 997 
Q 959 650 1171 447 
Q 1384 244 1747 244 
Q 2106 244 2326 466 
Q 2547 688 2547 1044 
z
M 3122 2075 
L 3122 331 
L 3634 331 
L 3634 0 
L 2547 0 
L 2547 359 
Q 2356 128 2106 18 
Q 1856 -91 1522 -91 
Q 969 -91 644 203 
Q 319 497 319 997 
Q 319 1513 691 1797 
Q 1063 2081 1741 2081 
L 2547 2081 
L 2547 2309 
Q 2547 2688 2317 2895 
Q 2088 3103 1672 3103 
Q 1328 3103 1125 2947 
Q 922 2791 872 2484 
L 575 2484 
L 575 3156 
Q 875 3284 1158 3348 
Q 1441 3413 1709 3413 
Q 2400 3413 2761 3070 
Q 3122 2728 3122 2075 
z
" transform="scale(0.015625)"/>
       <path id="DejaVuSerif-79" d="M 1381 -609 
L 1600 -56 
L 359 2988 
L -19 2988 
L -19 3322 
L 1509 3322 
L 1509 2988 
L 978 2988 
L 1913 703 
L 2847 2988 
L 2350 2988 
L 2350 3322 
L 3597 3322 
L 3597 2988 
L 3225 2988 
L 1703 -750 
Q 1547 -1138 1356 -1280 
Q 1166 -1422 819 -1422 
Q 672 -1422 517 -1397 
Q 363 -1372 206 -1325 
L 206 -691 
L 500 -691 
Q 519 -903 608 -995 
Q 697 -1088 884 -1088 
Q 1056 -1088 1161 -992 
Q 1266 -897 1381 -609 
z
" transform="scale(0.015625)"/>
       <path id="DejaVuSerif-6c" d="M 1313 331 
L 1856 331 
L 1856 0 
L 184 0 
L 184 331 
L 738 331 
L 738 4531 
L 184 4531 
L 184 4863 
L 1313 4863 
L 1313 331 
z
" transform="scale(0.015625)"/>
       <path id="DejaVuSerif-6f" d="M 1925 219 
Q 2388 219 2623 584 
Q 2859 950 2859 1663 
Q 2859 2375 2623 2739 
Q 2388 3103 1925 3103 
Q 1463 3103 1227 2739 
Q 991 2375 991 1663 
Q 991 950 1228 584 
Q 1466 219 1925 219 
z
M 1925 -91 
Q 1200 -91 759 389 
Q 319 869 319 1663 
Q 319 2456 758 2934 
Q 1197 3413 1925 3413 
Q 2653 3413 3092 2934 
Q 3531 2456 3531 1663 
Q 3531 869 3092 389 
Q 2653 -91 1925 -91 
z
" transform="scale(0.015625)"/>
       <path id="DejaVuSerif-64" d="M 3359 331 
L 3909 331 
L 3909 0 
L 2784 0 
L 2784 519 
Q 2616 206 2355 57 
Q 2094 -91 1709 -91 
Q 1097 -91 708 395 
Q 319 881 319 1663 
Q 319 2444 706 2928 
Q 1094 3413 1709 3413 
Q 2094 3413 2355 3264 
Q 2616 3116 2784 2803 
L 2784 4531 
L 2241 4531 
L 2241 4863 
L 3359 4863 
L 3359 331 
z
M 2784 1497 
L 2784 1825 
Q 2784 2422 2554 2737 
Q 2325 3053 1888 3053 
Q 1444 3053 1217 2703 
Q 991 2353 991 1663 
Q 991 975 1217 622 
Q 1444 269 1888 269 
Q 2325 269 2554 583 
Q 2784 897 2784 1497 
z
" transform="scale(0.015625)"/>
       <path id="DejaVuSerif-20" transform="scale(0.015625)"/>
       <path id="DejaVuSerif-53" d="M 594 225 
L 594 1288 
L 953 1284 
Q 969 753 1261 498 
Q 1553 244 2150 244 
Q 2706 244 2998 464 
Q 3291 684 3291 1106 
Q 3291 1444 3114 1625 
Q 2938 1806 2369 1978 
L 1753 2163 
Q 1084 2366 811 2669 
Q 538 2972 538 3500 
Q 538 4094 959 4422 
Q 1381 4750 2144 4750 
Q 2469 4750 2856 4679 
Q 3244 4609 3681 4475 
L 3681 3481 
L 3328 3481 
Q 3275 3975 2998 4195 
Q 2722 4416 2156 4416 
Q 1663 4416 1405 4214 
Q 1147 4013 1147 3628 
Q 1147 3294 1340 3103 
Q 1534 2913 2163 2725 
L 2741 2553 
Q 3375 2363 3645 2067 
Q 3916 1772 3916 1275 
Q 3916 597 3481 253 
Q 3047 -91 2188 -91 
Q 1803 -91 1404 -12 
Q 1006 66 594 225 
z
" transform="scale(0.015625)"/>
       <path id="DejaVuSerif-69" d="M 622 4353 
Q 622 4497 726 4603 
Q 831 4709 978 4709 
Q 1122 4709 1226 4603 
Q 1331 4497 1331 4353 
Q 1331 4206 1228 4103 
Q 1125 4000 978 4000 
Q 831 4000 726 4103 
Q 622 4206 622 4353 
z
M 1356 331 
L 1900 331 
L 1900 0 
L 231 0 
L 231 331 
L 781 331 
L 781 2988 
L 231 2988 
L 231 3322 
L 1356 3322 
L 1356 331 
z
" transform="scale(0.015625)"/>
       <path id="DejaVuSerif-7a" d="M 256 0 
L 256 269 
L 2338 2988 
L 691 2988 
L 691 2413 
L 359 2413 
L 359 3322 
L 3078 3322 
L 3078 3053 
L 997 331 
L 2803 331 
L 2803 934 
L 3138 934 
L 3138 0 
L 256 0 
z
" transform="scale(0.015625)"/>
       <path id="DejaVuSerif-65" d="M 3469 1600 
L 991 1600 
L 991 1575 
Q 991 903 1244 561 
Q 1497 219 1991 219 
Q 2369 219 2611 417 
Q 2853 616 2950 1006 
L 3413 1006 
Q 3275 459 2904 184 
Q 2534 -91 1931 -91 
Q 1203 -91 761 389 
Q 319 869 319 1663 
Q 319 2450 753 2931 
Q 1188 3413 1894 3413 
Q 2647 3413 3050 2948 
Q 3453 2484 3469 1600 
z
M 2791 1931 
Q 2772 2513 2545 2808 
Q 2319 3103 1894 3103 
Q 1497 3103 1269 2806 
Q 1041 2509 991 1931 
L 2791 1931 
z
" transform="scale(0.015625)"/>
       <path id="DejaVuSerif-28" d="M 2041 -997 
Q 1281 -656 893 83 
Q 506 822 506 1931 
Q 506 3044 893 3783 
Q 1281 4522 2041 4863 
L 2041 4556 
Q 1559 4225 1350 3623 
Q 1141 3022 1141 1931 
Q 1141 844 1350 242 
Q 1559 -359 2041 -691 
L 2041 -997 
z
" transform="scale(0.015625)"/>
       <path id="DejaVuSerif-42" d="M 1581 331 
L 2516 331 
Q 3078 331 3337 575 
Q 3597 819 3597 1350 
Q 3597 1878 3339 2120 
Q 3081 2363 2516 2363 
L 1581 2363 
L 1581 331 
z
M 1581 2694 
L 2375 2694 
Q 2888 2694 3123 2891 
Q 3359 3088 3359 3513 
Q 3359 3941 3123 4136 
Q 2888 4331 2375 4331 
L 1581 4331 
L 1581 2694 
z
M 353 0 
L 353 331 
L 947 331 
L 947 4331 
L 353 4331 
L 353 4666 
L 2656 4666 
Q 3363 4666 3720 4377 
Q 4078 4088 4078 3513 
Q 4078 3097 3829 2850 
Q 3581 2603 3103 2547 
Q 3697 2472 4005 2167 
Q 4313 1863 4313 1350 
Q 4313 656 3875 328 
Q 3438 0 2509 0 
L 353 0 
z
" transform="scale(0.015625)"/>
       <path id="DejaVuSerif-74" d="M 691 2988 
L 184 2988 
L 184 3322 
L 691 3322 
L 691 4353 
L 1269 4353 
L 1269 3322 
L 2350 3322 
L 2350 2988 
L 1269 2988 
L 1269 878 
Q 1269 456 1350 337 
Q 1431 219 1650 219 
Q 1875 219 1978 351 
Q 2081 484 2088 781 
L 2522 781 
Q 2497 328 2275 118 
Q 2053 -91 1600 -91 
Q 1103 -91 897 129 
Q 691 350 691 878 
L 691 2988 
z
" transform="scale(0.015625)"/>
       <path id="DejaVuSerif-73" d="M 359 184 
L 359 959 
L 691 959 
Q 703 588 923 403 
Q 1144 219 1575 219 
Q 1963 219 2166 364 
Q 2369 509 2369 788 
Q 2369 1006 2220 1140 
Q 2072 1275 1594 1428 
L 1178 1569 
Q 750 1706 558 1912 
Q 366 2119 366 2438 
Q 366 2894 700 3153 
Q 1034 3413 1625 3413 
Q 1888 3413 2178 3344 
Q 2469 3275 2778 3144 
L 2778 2419 
L 2447 2419 
Q 2434 2741 2221 2922 
Q 2009 3103 1644 3103 
Q 1281 3103 1095 2975 
Q 909 2847 909 2591 
Q 909 2381 1050 2254 
Q 1191 2128 1613 1997 
L 2069 1856 
Q 2541 1709 2748 1489 
Q 2956 1269 2956 922 
Q 2956 450 2595 179 
Q 2234 -91 1600 -91 
Q 1278 -91 972 -22 
Q 666 47 359 184 
z
" transform="scale(0.015625)"/>
       <path id="DejaVuSerif-29" d="M 453 -997 
L 453 -691 
Q 934 -359 1145 242 
Q 1356 844 1356 1931 
Q 1356 3022 1145 3623 
Q 934 4225 453 4556 
L 453 4863 
Q 1216 4522 1603 3783 
Q 1991 3044 1991 1931 
Q 1991 822 1603 83 
Q 1216 -656 453 -997 
z
" transform="scale(0.015625)"/>
      </defs>
      <use xlink:href="#DejaVuSerif-50"/>
      <use xlink:href="#DejaVuSerif-61" transform="translate(62.785156 0)"/>
      <use xlink:href="#DejaVuSerif-79" transform="translate(122.404297 0)"/>
      <use xlink:href="#DejaVuSerif-6c" transform="translate(178.898438 0)"/>
      <use xlink:href="#DejaVuSerif-6f" transform="translate(210.880859 0)"/>
      <use xlink:href="#DejaVuSerif-61" transform="translate(271.085938 0)"/>
      <use xlink:href="#DejaVuSerif-64" transform="translate(330.705078 0)"/>
      <use xlink:href="#DejaVuSerif-20" transform="translate(394.71875 0)"/>
      <use xlink:href="#DejaVuSerif-53" transform="translate(426.505859 0)"/>
      <use xlink:href="#DejaVuSerif-69" transform="translate(495.011719 0)"/>
      <use xlink:href="#DejaVuSerif-7a" transform="translate(526.994141 0)"/>
      <use xlink:href="#DejaVuSerif-65" transform="translate(579.679688 0)"/>
      <use xlink:href="#DejaVuSerif-20" transform="translate(638.859375 0)"/>
      <use xlink:href="#DejaVuSerif-28" transform="translate(670.646484 0)"/>
      <use xlink:href="#DejaVuSerif-42" transform="translate(709.660156 0)"/>
      <use xlink:href="#DejaVuSerif-79" transform="translate(783.146484 0)"/>
      <use xlink:href="#DejaVuSerif-74" transform="translate(839.640625 0)"/>
      <use xlink:href="#DejaVuSerif-65" transform="translate(879.826172 0)"/>
      <use xlink:href="#DejaVuSerif-73" transform="translate(939.005859 0)"/>
      <use xlink:href="#DejaVuSerif-29" transform="translate(990.324219 0)"/>
     </g>
    </g>
   </g>
   <g id="matplotlib.axis_4">
    <g id="ytick_37">
     <g id="line2d_57">
      <path d="M 454.084375 253.68676 
L 688.444375 253.68676 
" clip-path="url(#p560deed4c4)" style="fill: none; stroke: #cccccc; stroke-linecap: round"/>
     </g>
     <g id="text_23">
      <!-- $\mathdefault{10^{1}}$ -->
      <g style="fill: #262626" transform="translate(434.024375 255.966292) scale(0.06 -0.06)">
       <use xlink:href="#DejaVuSerif-31" transform="translate(0 0.7125)"/>
       <use xlink:href="#DejaVuSerif-30" transform="translate(63.623047 0.7125)"/>
       <use xlink:href="#DejaVuSerif-31" transform="translate(128.154453 37.046875) scale(0.7)"/>
      </g>
     </g>
    </g>
    <g id="ytick_38">
     <g id="line2d_58">
      <path d="M 454.084375 180.135651 
L 688.444375 180.135651 
" clip-path="url(#p560deed4c4)" style="fill: none; stroke: #cccccc; stroke-linecap: round"/>
     </g>
     <g id="text_24">
      <!-- $\mathdefault{10^{2}}$ -->
      <g style="fill: #262626" transform="translate(434.024375 182.415183) scale(0.06 -0.06)">
       <use xlink:href="#DejaVuSerif-31" transform="translate(0 0.7125)"/>
       <use xlink:href="#DejaVuSerif-30" transform="translate(63.623047 0.7125)"/>
       <use xlink:href="#DejaVuSerif-32" transform="translate(128.154453 37.046875) scale(0.7)"/>
      </g>
     </g>
    </g>
    <g id="ytick_39"/>
    <g id="ytick_40"/>
    <g id="ytick_41"/>
    <g id="ytick_42"/>
    <g id="ytick_43"/>
    <g id="ytick_44"/>
    <g id="ytick_45"/>
    <g id="ytick_46"/>
    <g id="ytick_47"/>
    <g id="ytick_48"/>
    <g id="ytick_49"/>
    <g id="ytick_50"/>
    <g id="ytick_51"/>
    <g id="ytick_52"/>
    <g id="ytick_53"/>
    <g id="ytick_54"/>
    <g id="ytick_55"/>
    <g id="ytick_56"/>
    <g id="ytick_57"/>
    <g id="ytick_58"/>
    <g id="ytick_59"/>
    <g id="text_25">
     <!-- mJ/Byte -->
     <g style="fill: #262626" transform="translate(428.469062 212.084719) rotate(-90) scale(0.07 -0.07)">
      <defs>
       <path id="DejaVuSerif-6d" d="M 3316 2675 
Q 3481 3041 3739 3227 
Q 3997 3413 4341 3413 
Q 4863 3413 5119 3089 
Q 5375 2766 5375 2113 
L 5375 331 
L 5894 331 
L 5894 0 
L 4300 0 
L 4300 331 
L 4800 331 
L 4800 2047 
Q 4800 2556 4650 2772 
Q 4500 2988 4153 2988 
Q 3769 2988 3567 2697 
Q 3366 2406 3366 1850 
L 3366 331 
L 3866 331 
L 3866 0 
L 2291 0 
L 2291 331 
L 2791 331 
L 2791 2069 
Q 2791 2566 2641 2777 
Q 2491 2988 2144 2988 
Q 1759 2988 1557 2697 
Q 1356 2406 1356 1850 
L 1356 331 
L 1856 331 
L 1856 0 
L 263 0 
L 263 331 
L 781 331 
L 781 2994 
L 231 2994 
L 231 3322 
L 1356 3322 
L 1356 2731 
Q 1516 3063 1762 3238 
Q 2009 3413 2322 3413 
Q 2709 3413 2968 3220 
Q 3228 3028 3316 2675 
z
" transform="scale(0.015625)"/>
       <path id="DejaVuSerif-4a" d="M -538 -1119 
L -538 -384 
L -181 -384 
Q -172 -694 -34 -845 
Q 103 -997 378 -997 
Q 750 -997 897 -762 
Q 1044 -528 1044 153 
L 1044 4331 
L 319 4331 
L 319 4666 
L 2272 4666 
L 2272 4331 
L 1678 4331 
L 1678 128 
Q 1678 -644 1368 -987 
Q 1059 -1331 372 -1331 
Q 150 -1331 -79 -1278 
Q -309 -1225 -538 -1119 
z
" transform="scale(0.015625)"/>
       <path id="DejaVuSerif-2f" d="M 1656 4666 
L 2156 4666 
L 500 -594 
L 0 -594 
L 1656 4666 
z
" transform="scale(0.015625)"/>
      </defs>
      <use xlink:href="#DejaVuSerif-6d"/>
      <use xlink:href="#DejaVuSerif-4a" transform="translate(94.824219 0)"/>
      <use xlink:href="#DejaVuSerif-2f" transform="translate(134.912109 0)"/>
      <use xlink:href="#DejaVuSerif-42" transform="translate(168.603516 0)"/>
      <use xlink:href="#DejaVuSerif-79" transform="translate(242.089844 0)"/>
      <use xlink:href="#DejaVuSerif-74" transform="translate(298.583984 0)"/>
      <use xlink:href="#DejaVuSerif-65" transform="translate(338.769531 0)"/>
     </g>
    </g>
   </g>
   <g id="FillBetweenPolyCollection_4">
    <defs>
     <path id="md99ec0c115" d="M 464.737102 -434.272161 
L 464.737102 -433.376201 
L 518.000739 -407.491281 
L 571.264375 -385.436342 
L 624.528011 -363.75355 
L 677.791648 -342.392313 
L 677.791648 -343.214607 
L 677.791648 -343.214607 
L 624.528011 -364.761203 
L 571.264375 -386.339034 
L 518.000739 -408.475925 
L 464.737102 -434.272161 
z
" style="stroke: #0000ff; stroke-opacity: 0.2"/>
    </defs>
    <g clip-path="url(#p560deed4c4)">
     <use xlink:href="#md99ec0c115" x="0" y="619.928125" style="fill: #0000ff; fill-opacity: 0.2; stroke: #0000ff; stroke-opacity: 0.2"/>
    </g>
   </g>
   <g id="FillBetweenPolyCollection_5">
    <defs>
     <path id="m59e3888447" d="M 464.737102 -457.421562 
L 464.737102 -456.977078 
L 518.000739 -436.385251 
L 571.264375 -416.93015 
L 624.528011 -399.427939 
L 677.791648 -387.778876 
L 677.791648 -388.805492 
L 677.791648 -388.805492 
L 624.528011 -400.179663 
L 571.264375 -417.893196 
L 518.000739 -437.179809 
L 464.737102 -457.421562 
z
" style="stroke: #ff0000; stroke-opacity: 0.2"/>
    </defs>
    <g clip-path="url(#p560deed4c4)">
     <use xlink:href="#m59e3888447" x="0" y="619.928125" style="fill: #ff0000; fill-opacity: 0.2; stroke: #ff0000; stroke-opacity: 0.2"/>
    </g>
   </g>
   <g id="FillBetweenPolyCollection_6">
    <defs>
     <path id="m8859e1cd9b" d="M 464.737102 -501.152313 
L 464.737102 -492.684708 
L 518.000739 -469.345478 
L 571.264375 -452.562462 
L 624.528011 -430.443605 
L 677.791648 -408.510965 
L 677.791648 -410.861667 
L 677.791648 -410.861667 
L 624.528011 -432.50131 
L 571.264375 -455.118315 
L 518.000739 -473.376741 
L 464.737102 -501.152313 
z
" style="stroke: #ffa500; stroke-opacity: 0.2"/>
    </defs>
    <g clip-path="url(#p560deed4c4)">
     <use xlink:href="#m8859e1cd9b" x="0" y="619.928125" style="fill: #ffa500; fill-opacity: 0.2; stroke: #ffa500; stroke-opacity: 0.2"/>
    </g>
   </g>
   <g id="patch_9">
    <path d="M 454.084375 110.837812 
L 75.119241 86.786625 
" style="fill: none; opacity: 0.4; stroke-dasharray: 3.7,1.6; stroke-dashoffset: 0; stroke: #808080; stroke-linejoin: miter"/>
   </g>
   <g id="patch_10">
    <path d="M 688.444375 285.473812 
L 232.672182 388.872757 
" style="fill: none; opacity: 0.4; stroke-dasharray: 3.7,1.6; stroke-dashoffset: 0; stroke: #808080; stroke-linejoin: miter"/>
   </g>
   <g id="line2d_59">
    <path d="M 464.737102 186.032393 
L 518.000739 211.936145 
L 571.264375 234.005148 
L 624.528011 255.598821 
L 677.791648 277.079918 
" clip-path="url(#p560deed4c4)" style="fill: none; stroke: #0000ff; stroke-width: 1.5; stroke-linecap: round"/>
    <defs>
     <path id="ma045aae9b1" d="M 0 2.5 
C 0.663008 2.5 1.29895 2.236584 1.767767 1.767767 
C 2.236584 1.29895 2.5 0.663008 2.5 0 
C 2.5 -0.663008 2.236584 -1.29895 1.767767 -1.767767 
C 1.29895 -2.236584 0.663008 -2.5 0 -2.5 
C -0.663008 -2.5 -1.29895 -2.236584 -1.767767 -1.767767 
C -2.236584 -1.29895 -2.5 -0.663008 -2.5 0 
C -2.5 0.663008 -2.236584 1.29895 -1.767767 1.767767 
C -1.29895 2.236584 -0.663008 2.5 0 2.5 
z
" style="stroke: #ffffff; stroke-width: 0.75"/>
    </defs>
    <g clip-path="url(#p560deed4c4)">
     <use xlink:href="#ma045aae9b1" x="464.737102" y="186.032393" style="fill: #0000ff; stroke: #ffffff; stroke-width: 0.75"/>
     <use xlink:href="#ma045aae9b1" x="518.000739" y="211.936145" style="fill: #0000ff; stroke: #ffffff; stroke-width: 0.75"/>
     <use xlink:href="#ma045aae9b1" x="571.264375" y="234.005148" style="fill: #0000ff; stroke: #ffffff; stroke-width: 0.75"/>
     <use xlink:href="#ma045aae9b1" x="624.528011" y="255.598821" style="fill: #0000ff; stroke: #ffffff; stroke-width: 0.75"/>
     <use xlink:href="#ma045aae9b1" x="677.791648" y="277.079918" style="fill: #0000ff; stroke: #ffffff; stroke-width: 0.75"/>
    </g>
   </g>
   <g id="line2d_60">
    <path d="M 464.737102 162.736521 
L 518.000739 183.147971 
L 571.264375 202.53682 
L 624.528011 220.107474 
L 677.791648 231.643329 
" clip-path="url(#p560deed4c4)" style="fill: none; stroke: #ff0000; stroke-width: 1.5; stroke-linecap: round"/>
    <defs>
     <path id="mad52c03e2f" d="M 0 2.5 
C 0.663008 2.5 1.29895 2.236584 1.767767 1.767767 
C 2.236584 1.29895 2.5 0.663008 2.5 0 
C 2.5 -0.663008 2.236584 -1.29895 1.767767 -1.767767 
C 1.29895 -2.236584 0.663008 -2.5 0 -2.5 
C -0.663008 -2.5 -1.29895 -2.236584 -1.767767 -1.767767 
C -2.236584 -1.29895 -2.5 -0.663008 -2.5 0 
C -2.5 0.663008 -2.236584 1.29895 -1.767767 1.767767 
C -1.29895 2.236584 -0.663008 2.5 0 2.5 
z
" style="stroke: #ffffff; stroke-width: 0.75"/>
    </defs>
    <g clip-path="url(#p560deed4c4)">
     <use xlink:href="#mad52c03e2f" x="464.737102" y="162.736521" style="fill: #ff0000; stroke: #ffffff; stroke-width: 0.75"/>
     <use xlink:href="#mad52c03e2f" x="518.000739" y="183.147971" style="fill: #ff0000; stroke: #ffffff; stroke-width: 0.75"/>
     <use xlink:href="#mad52c03e2f" x="571.264375" y="202.53682" style="fill: #ff0000; stroke: #ffffff; stroke-width: 0.75"/>
     <use xlink:href="#mad52c03e2f" x="624.528011" y="220.107474" style="fill: #ff0000; stroke: #ffffff; stroke-width: 0.75"/>
     <use xlink:href="#mad52c03e2f" x="677.791648" y="231.643329" style="fill: #ff0000; stroke: #ffffff; stroke-width: 0.75"/>
    </g>
   </g>
   <g id="line2d_61">
    <path d="M 464.737102 122.728251 
L 518.000739 148.954487 
L 571.264375 166.233674 
L 624.528011 188.514648 
L 677.791648 210.336678 
" clip-path="url(#p560deed4c4)" style="fill: none; stroke: #ffa500; stroke-width: 1.5; stroke-linecap: round"/>
    <defs>
     <path id="m6ee0f3fbbc" d="M 0 2.5 
C 0.663008 2.5 1.29895 2.236584 1.767767 1.767767 
C 2.236584 1.29895 2.5 0.663008 2.5 0 
C 2.5 -0.663008 2.236584 -1.29895 1.767767 -1.767767 
C 1.29895 -2.236584 0.663008 -2.5 0 -2.5 
C -0.663008 -2.5 -1.29895 -2.236584 -1.767767 -1.767767 
C -2.236584 -1.29895 -2.5 -0.663008 -2.5 0 
C -2.5 0.663008 -2.236584 1.29895 -1.767767 1.767767 
C -1.29895 2.236584 -0.663008 2.5 0 2.5 
z
" style="stroke: #ffffff; stroke-width: 0.75"/>
    </defs>
    <g clip-path="url(#p560deed4c4)">
     <use xlink:href="#m6ee0f3fbbc" x="464.737102" y="122.728251" style="fill: #ffa500; stroke: #ffffff; stroke-width: 0.75"/>
     <use xlink:href="#m6ee0f3fbbc" x="518.000739" y="148.954487" style="fill: #ffa500; stroke: #ffffff; stroke-width: 0.75"/>
     <use xlink:href="#m6ee0f3fbbc" x="571.264375" y="166.233674" style="fill: #ffa500; stroke: #ffffff; stroke-width: 0.75"/>
     <use xlink:href="#m6ee0f3fbbc" x="624.528011" y="188.514648" style="fill: #ffa500; stroke: #ffffff; stroke-width: 0.75"/>
     <use xlink:href="#m6ee0f3fbbc" x="677.791648" y="210.336678" style="fill: #ffa500; stroke: #ffffff; stroke-width: 0.75"/>
    </g>
   </g>
   <g id="patch_11">
    <path d="M 454.084375 285.473812 
L 454.084375 110.837812 
" style="fill: none; stroke: #cccccc; stroke-width: 1.25; stroke-linejoin: miter; stroke-linecap: square"/>
   </g>
   <g id="patch_12">
    <path d="M 688.444375 285.473812 
L 688.444375 110.837812 
" style="fill: none; stroke: #cccccc; stroke-width: 1.25; stroke-linejoin: miter; stroke-linecap: square"/>
   </g>
   <g id="patch_13">
    <path d="M 454.084375 285.473812 
L 688.444375 285.473812 
" style="fill: none; stroke: #cccccc; stroke-width: 1.25; stroke-linejoin: miter; stroke-linecap: square"/>
   </g>
   <g id="patch_14">
    <path d="M 454.084375 110.837812 
L 688.444375 110.837812 
" style="fill: none; stroke: #cccccc; stroke-width: 1.25; stroke-linejoin: miter; stroke-linecap: square"/>
   </g>
  </g>
  <g id="legend_1">
   <g id="patch_15">
    <path d="M 284.045781 72.328125 
L 467.642969 72.328125 
Q 469.442969 72.328125 469.442969 70.528125 
L 469.442969 58.217812 
Q 469.442969 56.417812 467.642969 56.417812 
L 284.045781 56.417812 
Q 282.245781 56.417812 282.245781 58.217812 
L 282.245781 70.528125 
Q 282.245781 72.328125 284.045781 72.328125 
z
" style="fill: #ffffff; opacity: 0.8; stroke: #cccccc; stroke-linejoin: miter"/>
   </g>
   <g id="line2d_62">
    <path d="M 285.845781 63.706406 
L 294.845781 63.706406 
L 303.845781 63.706406 
" style="fill: none; stroke: #0000ff; stroke-width: 1.5; stroke-linecap: round"/>
    <g>
     <use xlink:href="#m333faeaaad" x="294.845781" y="63.706406" style="fill: #0000ff; stroke: #ffffff; stroke-width: 0.75"/>
    </g>
   </g>
   <g id="text_26">
    <!-- BLE -->
    <g style="fill: #262626" transform="translate(311.045781 66.856406) scale(0.09 -0.09)">
     <defs>
      <path id="DejaVuSerif-4c" d="M 353 0 
L 353 331 
L 947 331 
L 947 4331 
L 353 4331 
L 353 4666 
L 2175 4666 
L 2175 4331 
L 1581 4331 
L 1581 384 
L 3713 384 
L 3713 1166 
L 4097 1166 
L 4097 0 
L 353 0 
z
" transform="scale(0.015625)"/>
      <path id="DejaVuSerif-45" d="M 353 0 
L 353 331 
L 947 331 
L 947 4331 
L 353 4331 
L 353 4666 
L 4109 4666 
L 4109 3628 
L 3725 3628 
L 3725 4281 
L 1581 4281 
L 1581 2719 
L 3109 2719 
L 3109 3303 
L 3494 3303 
L 3494 1753 
L 3109 1753 
L 3109 2338 
L 1581 2338 
L 1581 384 
L 3775 384 
L 3775 1038 
L 4159 1038 
L 4159 0 
L 353 0 
z
" transform="scale(0.015625)"/>
     </defs>
     <use xlink:href="#DejaVuSerif-42"/>
     <use xlink:href="#DejaVuSerif-4c" transform="translate(73.486328 0)"/>
     <use xlink:href="#DejaVuSerif-45" transform="translate(139.892578 0)"/>
    </g>
   </g>
   <g id="line2d_63">
    <path d="M 348.205938 63.706406 
L 357.205938 63.706406 
L 366.205938 63.706406 
" style="fill: none; stroke: #ff0000; stroke-width: 1.5; stroke-linecap: round"/>
    <g>
     <use xlink:href="#m3841c8ea1b" x="357.205938" y="63.706406" style="fill: #ff0000; stroke: #ffffff; stroke-width: 0.75"/>
    </g>
   </g>
   <g id="text_27">
    <!-- LORA -->
    <g style="fill: #262626" transform="translate(373.405938 66.856406) scale(0.09 -0.09)">
     <defs>
      <path id="DejaVuSerif-4f" d="M 2625 244 
Q 3391 244 3781 770 
Q 4172 1297 4172 2328 
Q 4172 3363 3781 3889 
Q 3391 4416 2625 4416 
Q 1856 4416 1465 3889 
Q 1075 3363 1075 2328 
Q 1075 1297 1465 770 
Q 1856 244 2625 244 
z
M 2625 -91 
Q 2150 -91 1751 65 
Q 1353 222 1050 525 
Q 700 875 529 1319 
Q 359 1763 359 2328 
Q 359 2894 529 3339 
Q 700 3784 1050 4134 
Q 1356 4441 1750 4595 
Q 2144 4750 2625 4750 
Q 3641 4750 4266 4084 
Q 4891 3419 4891 2328 
Q 4891 1769 4719 1320 
Q 4547 872 4197 525 
Q 3891 219 3497 64 
Q 3103 -91 2625 -91 
z
" transform="scale(0.015625)"/>
      <path id="DejaVuSerif-52" d="M 3066 2316 
Q 3284 2256 3442 2114 
Q 3600 1972 3725 1716 
L 4403 331 
L 4972 331 
L 4972 0 
L 3872 0 
L 3144 1484 
Q 2934 1916 2759 2042 
Q 2584 2169 2278 2169 
L 1581 2169 
L 1581 331 
L 2241 331 
L 2241 0 
L 353 0 
L 353 331 
L 947 331 
L 947 4331 
L 353 4331 
L 353 4666 
L 2719 4666 
Q 3400 4666 3770 4341 
Q 4141 4016 4141 3419 
Q 4141 2938 3870 2661 
Q 3600 2384 3066 2316 
z
M 1581 2503 
L 2503 2503 
Q 2975 2503 3200 2726 
Q 3425 2950 3425 3419 
Q 3425 3888 3200 4109 
Q 2975 4331 2503 4331 
L 1581 4331 
L 1581 2503 
z
" transform="scale(0.015625)"/>
      <path id="DejaVuSerif-41" d="M 1281 1691 
L 2994 1691 
L 2138 3909 
L 1281 1691 
z
M -38 0 
L -38 331 
L 372 331 
L 2034 4666 
L 2559 4666 
L 4225 331 
L 4684 331 
L 4684 0 
L 2988 0 
L 2988 331 
L 3506 331 
L 3116 1356 
L 1153 1356 
L 763 331 
L 1275 331 
L 1275 0 
L -38 0 
z
" transform="scale(0.015625)"/>
     </defs>
     <use xlink:href="#DejaVuSerif-4c"/>
     <use xlink:href="#DejaVuSerif-4f" transform="translate(66.40625 0)"/>
     <use xlink:href="#DejaVuSerif-52" transform="translate(148.388672 0)"/>
     <use xlink:href="#DejaVuSerif-41" transform="translate(223.681641 0)"/>
    </g>
   </g>
   <g id="line2d_64">
    <path d="M 418.0375 63.706406 
L 427.0375 63.706406 
L 436.0375 63.706406 
" style="fill: none; stroke: #ffa500; stroke-width: 1.5; stroke-linecap: round"/>
    <g>
     <use xlink:href="#m81bee6f2b1" x="427.0375" y="63.706406" style="fill: #ffa500; stroke: #ffffff; stroke-width: 0.75"/>
    </g>
   </g>
   <g id="text_28">
    <!-- WIFI -->
    <g style="fill: #262626" transform="translate(443.2375 66.856406) scale(0.09 -0.09)">
     <defs>
      <path id="DejaVuSerif-57" d="M 4878 0 
L 4366 0 
L 3297 3794 
L 2228 0 
L 1716 0 
L 494 4331 
L 31 4331 
L 31 4666 
L 1734 4666 
L 1734 4331 
L 1153 4331 
L 2125 884 
L 3188 4666 
L 3694 4666 
L 4775 844 
L 5753 4331 
L 5216 4331 
L 5216 4666 
L 6559 4666 
L 6559 4331 
L 6100 4331 
L 4878 0 
z
" transform="scale(0.015625)"/>
      <path id="DejaVuSerif-49" d="M 1581 331 
L 2175 331 
L 2175 0 
L 353 0 
L 353 331 
L 947 331 
L 947 4331 
L 353 4331 
L 353 4666 
L 2175 4666 
L 2175 4331 
L 1581 4331 
L 1581 331 
z
" transform="scale(0.015625)"/>
      <path id="DejaVuSerif-46" d="M 353 0 
L 353 331 
L 947 331 
L 947 4331 
L 353 4331 
L 353 4666 
L 4172 4666 
L 4172 3628 
L 3788 3628 
L 3788 4281 
L 1581 4281 
L 1581 2719 
L 3175 2719 
L 3175 3303 
L 3559 3303 
L 3559 1753 
L 3175 1753 
L 3175 2338 
L 1581 2338 
L 1581 331 
L 2328 331 
L 2328 0 
L 353 0 
z
" transform="scale(0.015625)"/>
     </defs>
     <use xlink:href="#DejaVuSerif-57"/>
     <use xlink:href="#DejaVuSerif-49" transform="translate(102.783203 0)"/>
     <use xlink:href="#DejaVuSerif-46" transform="translate(142.285156 0)"/>
     <use xlink:href="#DejaVuSerif-49" transform="translate(211.669922 0)"/>
    </g>
   </g>
  </g>
 </g>
 <defs>
  <clipPath id="p1334a21af1">
   <rect x="51.844375" y="77.837813" width="669.6" height="498.96"/>
  </clipPath>
  <clipPath id="p560deed4c4">
   <rect x="454.084375" y="110.837812" width="234.36" height="174.636"/>
  </clipPath>
 </defs>
</svg>
