<?xml version="1.0" encoding="utf-8" standalone="no"?>
<!DOCTYPE svg PUBLIC "-//W3C//DTD SVG 1.1//EN"
  "http://www.w3.org/Graphics/SVG/1.1/DTD/svg11.dtd">
<svg xmlns:xlink="http://www.w3.org/1999/xlink" width="735.024375pt" height="619.928125pt" viewBox="0 0 735.024375 619.928125" xmlns="http://www.w3.org/2000/svg" version="1.1">
 <metadata>
  <rdf:RDF xmlns:dc="http://purl.org/dc/elements/1.1/" xmlns:cc="http://creativecommons.org/ns#" xmlns:rdf="http://www.w3.org/1999/02/22-rdf-syntax-ns#">
   <cc:Work>
    <dc:type rdf:resource="http://purl.org/dc/dcmitype/StillImage"/>
    <dc:date>2026-05-14T18:39:18.871463</dc:date>
    <dc:format>image/svg+xml</dc:format>
    <dc:creator>
     <cc:Agent>
      <dc:title>Matplotlib v3.10.6, https://matplotlib.org/</dc:title>
     </cc:Agent>
    </dc:creator>
   </cc:Work>
  </rdf:RDF>
 </metadata>
 <defs>
  <style type="text/css">*{stroke-linejoin: round; stroke-linecap: butt}</style>
 </defs>
 <g id="figure_1">
  <g id="patch_1">
   <path d="M 0 619.928125 
L 735.024375 619.928125 
L 735.024375 0 
L 0 0 
z
" style="fill: #ffffff"/>
  </g>
  <g id="axes_1">
   <g id="patch_2">
    <path d="M 58.224375 576.797812 
L 727.824375 576.797812 
L 727.824375 77.837812 
L 58.224375 77.837812 
z
" style="fill: #ffffff"/>
   </g>
   <g id="matplotlib.axis_1">
    <g id="xtick_1">
     <g id="line2d_1">
      <path d="M 152.737294 576.797812 
L 152.737294 77.837812 
" clip-path="url(#pd682d5580c)" style="fill: none; stroke-dasharray: 3.7,1.6; stroke-dashoffset: 0; stroke: #cccccc; stroke-opacity: 0.3"/>
     </g>
     <g id="text_1">
      <!-- 4 -->
      <g style="fill: #262626" transform="translate(149.237919 594.656094) scale(0.11 -0.11)">
       <defs>
        <path id="DejaVuSerif-34" d="M 2234 1581 
L 2234 4063 
L 641 1581 
L 2234 1581 
z
M 3609 0 
L 1484 0 
L 1484 331 
L 2234 331 
L 2234 1247 
L 197 1247 
L 197 1588 
L 2241 4750 
L 2859 4750 
L 2859 1581 
L 3750 1581 
L 3750 1247 
L 2859 1247 
L 2859 331 
L 3609 331 
L 3609 0 
z
" transform="scale(0.015625)"/>
       </defs>
       <use xlink:href="#DejaVuSerif-34"/>
      </g>
     </g>
    </g>
    <g id="xtick_2">
     <g id="line2d_2">
      <path d="M 248.852126 576.797812 
L 248.852126 77.837812 
" clip-path="url(#pd682d5580c)" style="fill: none; stroke-dasharray: 3.7,1.6; stroke-dashoffset: 0; stroke: #cccccc; stroke-opacity: 0.3"/>
     </g>
     <g id="text_2">
      <!-- 32 -->
      <g style="fill: #262626" transform="translate(241.853376 594.656094) scale(0.11 -0.11)">
       <defs>
        <path id="DejaVuSerif-33" d="M 622 4469 
Q 988 4606 1323 4678 
Q 1659 4750 1953 4750 
Q 2638 4750 3022 4454 
Q 3406 4159 3406 3634 
Q 3406 3213 3140 2930 
Q 2875 2647 2388 2547 
Q 2963 2466 3280 2130 
Q 3597 1794 3597 1259 
Q 3597 606 3158 257 
Q 2719 -91 1894 -91 
Q 1528 -91 1179 -12 
Q 831 66 488 225 
L 488 1131 
L 838 1131 
Q 869 681 1141 450 
Q 1413 219 1906 219 
Q 2384 219 2661 495 
Q 2938 772 2938 1253 
Q 2938 1803 2653 2086 
Q 2369 2369 1819 2369 
L 1522 2369 
L 1522 2688 
L 1678 2688 
Q 2225 2688 2498 2914 
Q 2772 3141 2772 3597 
Q 2772 4006 2547 4223 
Q 2322 4441 1900 4441 
Q 1478 4441 1245 4241 
Q 1013 4041 972 3647 
L 622 3647 
L 622 4469 
z
" transform="scale(0.015625)"/>
        <path id="DejaVuSerif-32" d="M 819 3553 
L 469 3553 
L 469 4384 
Q 803 4563 1142 4656 
Q 1481 4750 1806 4750 
Q 2534 4750 2956 4397 
Q 3378 4044 3378 3438 
Q 3378 2753 2422 1800 
Q 2347 1728 2309 1691 
L 1131 513 
L 3078 513 
L 3078 1088 
L 3444 1088 
L 3444 0 
L 434 0 
L 434 341 
L 1850 1753 
Q 2319 2222 2519 2614 
Q 2719 3006 2719 3438 
Q 2719 3909 2473 4175 
Q 2228 4441 1797 4441 
Q 1350 4441 1106 4219 
Q 863 3997 819 3553 
z
" transform="scale(0.015625)"/>
       </defs>
       <use xlink:href="#DejaVuSerif-33"/>
       <use xlink:href="#DejaVuSerif-32" transform="translate(63.623047 0)"/>
      </g>
     </g>
    </g>
    <g id="xtick_3">
     <g id="line2d_3">
      <path d="M 344.966959 576.797812 
L 344.966959 77.837812 
" clip-path="url(#pd682d5580c)" style="fill: none; stroke-dasharray: 3.7,1.6; stroke-dashoffset: 0; stroke: #cccccc; stroke-opacity: 0.3"/>
     </g>
     <g id="text_3">
      <!-- 256 -->
      <g style="fill: #262626" transform="translate(334.468834 594.656094) scale(0.11 -0.11)">
       <defs>
        <path id="DejaVuSerif-35" d="M 3219 4666 
L 3219 4153 
L 1081 4153 
L 1081 2816 
Q 1244 2928 1461 2984 
Q 1678 3041 1947 3041 
Q 2703 3041 3140 2622 
Q 3578 2203 3578 1478 
Q 3578 738 3136 323 
Q 2694 -91 1894 -91 
Q 1572 -91 1234 -12 
Q 897 66 544 225 
L 544 1131 
L 897 1131 
Q 925 688 1179 453 
Q 1434 219 1894 219 
Q 2388 219 2653 544 
Q 2919 869 2919 1478 
Q 2919 2084 2655 2407 
Q 2391 2731 1894 2731 
Q 1613 2731 1398 2631 
Q 1184 2531 1019 2322 
L 750 2322 
L 750 4666 
L 3219 4666 
z
" transform="scale(0.015625)"/>
        <path id="DejaVuSerif-36" d="M 2094 219 
Q 2534 219 2771 542 
Q 3009 866 3009 1472 
Q 3009 2078 2771 2401 
Q 2534 2725 2094 2725 
Q 1647 2725 1412 2412 
Q 1178 2100 1178 1509 
Q 1178 888 1415 553 
Q 1653 219 2094 219 
z
M 1075 2569 
Q 1288 2803 1556 2918 
Q 1825 3034 2163 3034 
Q 2859 3034 3264 2615 
Q 3669 2197 3669 1472 
Q 3669 763 3233 336 
Q 2797 -91 2069 -91 
Q 1278 -91 853 498 
Q 428 1088 428 2181 
Q 428 3406 931 4078 
Q 1434 4750 2350 4750 
Q 2597 4750 2869 4703 
Q 3141 4656 3425 4563 
L 3425 3794 
L 3072 3794 
Q 3034 4109 2831 4275 
Q 2628 4441 2284 4441 
Q 1678 4441 1381 3981 
Q 1084 3522 1075 2569 
z
" transform="scale(0.015625)"/>
       </defs>
       <use xlink:href="#DejaVuSerif-32"/>
       <use xlink:href="#DejaVuSerif-35" transform="translate(63.623047 0)"/>
       <use xlink:href="#DejaVuSerif-36" transform="translate(127.246094 0)"/>
      </g>
     </g>
    </g>
    <g id="xtick_4">
     <g id="line2d_4">
      <path d="M 441.081791 576.797812 
L 441.081791 77.837812 
" clip-path="url(#pd682d5580c)" style="fill: none; stroke-dasharray: 3.7,1.6; stroke-dashoffset: 0; stroke: #cccccc; stroke-opacity: 0.3"/>
     </g>
     <g id="text_4">
      <!-- 2048 -->
      <g style="fill: #262626" transform="translate(427.084291 594.656094) scale(0.11 -0.11)">
       <defs>
        <path id="DejaVuSerif-30" d="M 2034 219 
Q 2513 219 2750 744 
Q 2988 1269 2988 2328 
Q 2988 3391 2750 3916 
Q 2513 4441 2034 4441 
Q 1556 4441 1318 3916 
Q 1081 3391 1081 2328 
Q 1081 1269 1318 744 
Q 1556 219 2034 219 
z
M 2034 -91 
Q 1275 -91 848 546 
Q 422 1184 422 2328 
Q 422 3475 848 4112 
Q 1275 4750 2034 4750 
Q 2797 4750 3222 4112 
Q 3647 3475 3647 2328 
Q 3647 1184 3222 546 
Q 2797 -91 2034 -91 
z
" transform="scale(0.015625)"/>
        <path id="DejaVuSerif-38" d="M 2981 1275 
Q 2981 1775 2732 2051 
Q 2484 2328 2034 2328 
Q 1584 2328 1336 2051 
Q 1088 1775 1088 1275 
Q 1088 772 1336 495 
Q 1584 219 2034 219 
Q 2484 219 2732 495 
Q 2981 772 2981 1275 
z
M 2853 3541 
Q 2853 3966 2637 4203 
Q 2422 4441 2034 4441 
Q 1650 4441 1433 4203 
Q 1216 3966 1216 3541 
Q 1216 3113 1433 2875 
Q 1650 2638 2034 2638 
Q 2422 2638 2637 2875 
Q 2853 3113 2853 3541 
z
M 2516 2484 
Q 3047 2413 3344 2092 
Q 3641 1772 3641 1275 
Q 3641 619 3225 264 
Q 2809 -91 2034 -91 
Q 1263 -91 845 264 
Q 428 619 428 1275 
Q 428 1772 725 2092 
Q 1022 2413 1556 2484 
Q 1084 2569 832 2842 
Q 581 3116 581 3541 
Q 581 4103 968 4426 
Q 1356 4750 2034 4750 
Q 2713 4750 3100 4426 
Q 3488 4103 3488 3541 
Q 3488 3116 3236 2842 
Q 2984 2569 2516 2484 
z
" transform="scale(0.015625)"/>
       </defs>
       <use xlink:href="#DejaVuSerif-32"/>
       <use xlink:href="#DejaVuSerif-30" transform="translate(63.623047 0)"/>
       <use xlink:href="#DejaVuSerif-34" transform="translate(127.246094 0)"/>
       <use xlink:href="#DejaVuSerif-38" transform="translate(190.869141 0)"/>
      </g>
     </g>
    </g>
    <g id="xtick_5">
     <g id="line2d_5">
      <path d="M 537.196624 576.797812 
L 537.196624 77.837812 
" clip-path="url(#pd682d5580c)" style="fill: none; stroke-dasharray: 3.7,1.6; stroke-dashoffset: 0; stroke: #cccccc; stroke-opacity: 0.3"/>
     </g>
     <g id="text_5">
      <!-- 16384 -->
      <g style="fill: #262626" transform="translate(519.699749 594.656094) scale(0.11 -0.11)">
       <defs>
        <path id="DejaVuSerif-31" d="M 909 0 
L 909 331 
L 1722 331 
L 1722 4213 
L 781 3603 
L 781 4013 
L 1919 4750 
L 2350 4750 
L 2350 331 
L 3163 331 
L 3163 0 
L 909 0 
z
" transform="scale(0.015625)"/>
       </defs>
       <use xlink:href="#DejaVuSerif-31"/>
       <use xlink:href="#DejaVuSerif-36" transform="translate(63.623047 0)"/>
       <use xlink:href="#DejaVuSerif-33" transform="translate(127.246094 0)"/>
       <use xlink:href="#DejaVuSerif-38" transform="translate(190.869141 0)"/>
       <use xlink:href="#DejaVuSerif-34" transform="translate(254.492188 0)"/>
      </g>
     </g>
    </g>
    <g id="xtick_6">
     <g id="line2d_6">
      <path d="M 633.311456 576.797812 
L 633.311456 77.837812 
" clip-path="url(#pd682d5580c)" style="fill: none; stroke-dasharray: 3.7,1.6; stroke-dashoffset: 0; stroke: #cccccc; stroke-opacity: 0.3"/>
     </g>
     <g id="text_6">
      <!-- 131072 -->
      <g style="fill: #262626" transform="translate(612.315206 594.656094) scale(0.11 -0.11)">
       <defs>
        <path id="DejaVuSerif-37" d="M 3609 4347 
L 1784 0 
L 1319 0 
L 3059 4153 
L 903 4153 
L 903 3578 
L 538 3578 
L 538 4666 
L 3609 4666 
L 3609 4347 
z
" transform="scale(0.015625)"/>
       </defs>
       <use xlink:href="#DejaVuSerif-31"/>
       <use xlink:href="#DejaVuSerif-33" transform="translate(63.623047 0)"/>
       <use xlink:href="#DejaVuSerif-31" transform="translate(127.246094 0)"/>
       <use xlink:href="#DejaVuSerif-30" transform="translate(190.869141 0)"/>
       <use xlink:href="#DejaVuSerif-37" transform="translate(254.492188 0)"/>
       <use xlink:href="#DejaVuSerif-32" transform="translate(318.115234 0)"/>
      </g>
     </g>
    </g>
    <g id="text_7">
     <!-- Payload Size (Bytes) -->
     <g style="fill: #262626" transform="translate(324.715313 610.061875) scale(0.12 -0.12)">
      <defs>
       <path id="DejaVuSerif-Bold-50" d="M 300 0 
L 300 378 
L 897 378 
L 897 4288 
L 300 4288 
L 300 4666 
L 2956 4666 
Q 3734 4666 4193 4295 
Q 4653 3925 4653 3303 
Q 4653 2678 4192 2304 
Q 3731 1931 2956 1931 
L 2100 1931 
L 2100 378 
L 2853 378 
L 2853 0 
L 300 0 
z
M 2100 2309 
L 2450 2309 
Q 2856 2309 3098 2579 
Q 3341 2850 3341 3303 
Q 3341 3753 3100 4020 
Q 2859 4288 2450 4288 
L 2100 4288 
L 2100 2309 
z
" transform="scale(0.015625)"/>
       <path id="DejaVuSerif-Bold-61" d="M 3525 2041 
L 3525 378 
L 4000 378 
L 4000 0 
L 2419 0 
L 2419 422 
Q 2200 159 1931 34 
Q 1663 -91 1319 -91 
Q 809 -91 536 182 
Q 263 456 263 966 
Q 263 1525 655 1803 
Q 1047 2081 1838 2081 
L 2419 2081 
L 2419 2278 
Q 2419 2681 2228 2873 
Q 2038 3066 1638 3066 
Q 1306 3066 1126 2930 
Q 947 2794 872 2484 
L 519 2484 
L 519 3200 
Q 816 3306 1134 3359 
Q 1453 3413 1806 3413 
Q 2697 3413 3111 3081 
Q 3525 2750 3525 2041 
z
M 2419 1044 
L 2419 1709 
L 2003 1709 
Q 1694 1709 1528 1540 
Q 1363 1372 1363 1056 
Q 1363 741 1483 584 
Q 1603 428 1850 428 
Q 2106 428 2262 597 
Q 2419 766 2419 1044 
z
" transform="scale(0.015625)"/>
       <path id="DejaVuSerif-Bold-79" d="M 1997 -750 
Q 1847 -1116 1634 -1269 
Q 1422 -1422 1063 -1422 
Q 909 -1422 721 -1387 
Q 534 -1353 313 -1288 
L 313 -594 
L 666 -597 
Q 675 -838 779 -953 
Q 884 -1069 1094 -1069 
Q 1297 -1069 1422 -958 
Q 1547 -847 1672 -538 
L 1722 -422 
L 275 2944 
L -84 2944 
L -84 3322 
L 1831 3322 
L 1831 2944 
L 1434 2944 
L 2278 978 
L 3066 2944 
L 2625 2944 
L 2625 3322 
L 3872 3322 
L 3872 2944 
L 3469 2944 
L 1997 -750 
z
" transform="scale(0.015625)"/>
       <path id="DejaVuSerif-Bold-6c" d="M 1797 378 
L 2272 378 
L 2272 0 
L 219 0 
L 219 378 
L 691 378 
L 691 4488 
L 219 4488 
L 219 4863 
L 1797 4863 
L 1797 378 
z
" transform="scale(0.015625)"/>
       <path id="DejaVuSerif-Bold-6f" d="M 2138 263 
Q 2488 263 2630 563 
Q 2772 863 2772 1663 
Q 2772 2463 2631 2761 
Q 2491 3059 2138 3059 
Q 1784 3059 1640 2757 
Q 1497 2456 1497 1663 
Q 1497 869 1640 566 
Q 1784 263 2138 263 
z
M 2138 -91 
Q 1259 -91 761 376 
Q 263 844 263 1663 
Q 263 2484 761 2948 
Q 1259 3413 2138 3413 
Q 3019 3413 3516 2948 
Q 4013 2484 4013 1663 
Q 4013 844 3514 376 
Q 3016 -91 2138 -91 
z
" transform="scale(0.015625)"/>
       <path id="DejaVuSerif-Bold-64" d="M 2747 1497 
L 2747 1825 
Q 2747 2406 2597 2665 
Q 2447 2925 2119 2925 
Q 1775 2925 1636 2651 
Q 1497 2378 1497 1663 
Q 1497 947 1637 672 
Q 1778 397 2119 397 
Q 2447 397 2597 656 
Q 2747 916 2747 1497 
z
M 3853 378 
L 4325 378 
L 4325 0 
L 2747 0 
L 2747 422 
Q 2606 163 2367 36 
Q 2128 -91 1778 -91 
Q 1072 -91 667 378 
Q 263 847 263 1663 
Q 263 2481 667 2947 
Q 1072 3413 1778 3413 
Q 2128 3413 2367 3286 
Q 2606 3159 2747 2900 
L 2747 4488 
L 2272 4488 
L 2272 4863 
L 3853 4863 
L 3853 378 
z
" transform="scale(0.015625)"/>
       <path id="DejaVuSerif-Bold-20" transform="scale(0.015625)"/>
       <path id="DejaVuSerif-Bold-53" d="M 494 225 
L 494 1331 
L 891 1331 
Q 981 806 1318 547 
Q 1656 288 2253 288 
Q 2738 288 2991 472 
Q 3244 656 3244 1013 
Q 3244 1294 3072 1450 
Q 2900 1606 2363 1741 
L 1663 1913 
Q 978 2088 700 2398 
Q 422 2709 422 3284 
Q 422 3978 883 4364 
Q 1344 4750 2175 4750 
Q 2584 4750 3026 4681 
Q 3469 4613 3944 4475 
L 3944 3444 
L 3547 3444 
Q 3456 3925 3150 4148 
Q 2844 4372 2278 4372 
Q 1816 4372 1580 4211 
Q 1344 4050 1344 3731 
Q 1344 3441 1506 3289 
Q 1669 3138 2303 2975 
L 3003 2803 
Q 3653 2641 3945 2297 
Q 4238 1953 4238 1350 
Q 4238 644 3750 276 
Q 3263 -91 2316 -91 
Q 1859 -91 1409 -12 
Q 959 66 494 225 
z
" transform="scale(0.015625)"/>
       <path id="DejaVuSerif-Bold-69" d="M 588 4263 
Q 588 4516 763 4689 
Q 938 4863 1191 4863 
Q 1438 4863 1611 4689 
Q 1784 4516 1784 4263 
Q 1784 4016 1611 3842 
Q 1438 3669 1191 3669 
Q 938 3669 763 3841 
Q 588 4013 588 4263 
z
M 1797 378 
L 2272 378 
L 2272 0 
L 219 0 
L 219 378 
L 691 378 
L 691 2944 
L 219 2944 
L 219 3322 
L 1797 3322 
L 1797 378 
z
" transform="scale(0.015625)"/>
       <path id="DejaVuSerif-Bold-7a" d="M 225 0 
L 225 378 
L 2131 2956 
L 697 2956 
L 697 2388 
L 325 2388 
L 325 3322 
L 3419 3322 
L 3419 2950 
L 1509 372 
L 3047 372 
L 3047 972 
L 3419 972 
L 3419 0 
L 225 0 
z
" transform="scale(0.015625)"/>
       <path id="DejaVuSerif-Bold-65" d="M 2566 1875 
Q 2566 2531 2444 2795 
Q 2322 3059 2028 3059 
Q 1744 3059 1620 2800 
Q 1497 2541 1497 1931 
L 1497 1875 
L 2566 1875 
z
M 3781 1503 
L 1497 1503 
L 1497 1478 
Q 1497 834 1690 548 
Q 1884 263 2316 263 
Q 2675 263 2897 453 
Q 3119 644 3181 1006 
L 3700 1006 
Q 3566 441 3166 175 
Q 2766 -91 2047 -91 
Q 1184 -91 723 364 
Q 263 819 263 1663 
Q 263 2488 734 2950 
Q 1206 3413 2047 3413 
Q 2872 3413 3312 2927 
Q 3753 2441 3781 1503 
z
" transform="scale(0.015625)"/>
       <path id="DejaVuSerif-Bold-28" d="M 2694 -997 
Q 1641 -606 1122 122 
Q 603 850 603 1931 
Q 603 3013 1115 3731 
Q 1628 4450 2694 4863 
L 2694 4488 
Q 2200 4188 1983 3598 
Q 1766 3009 1766 1931 
Q 1766 856 1983 267 
Q 2200 -322 2694 -622 
L 2694 -997 
z
" transform="scale(0.015625)"/>
       <path id="DejaVuSerif-Bold-42" d="M 300 0 
L 300 378 
L 897 378 
L 897 4288 
L 300 4288 
L 300 4666 
L 3066 4666 
Q 3919 4666 4347 4378 
Q 4775 4091 4775 3513 
Q 4775 3097 4479 2853 
Q 4184 2609 3603 2547 
Q 4306 2481 4681 2172 
Q 5056 1863 5056 1350 
Q 5056 656 4532 328 
Q 4009 0 2894 0 
L 300 0 
z
M 2100 2719 
L 2509 2719 
Q 3047 2719 3306 2914 
Q 3566 3109 3566 3513 
Q 3566 3919 3314 4103 
Q 3063 4288 2509 4288 
L 2100 4288 
L 2100 2719 
z
M 2100 378 
L 2547 378 
Q 3144 378 3431 615 
Q 3719 853 3719 1350 
Q 3719 1850 3428 2097 
Q 3138 2344 2547 2344 
L 2100 2344 
L 2100 378 
z
" transform="scale(0.015625)"/>
       <path id="DejaVuSerif-Bold-74" d="M 634 2944 
L 153 2944 
L 153 3322 
L 634 3322 
L 634 4353 
L 1741 4353 
L 1741 3322 
L 2663 3322 
L 2663 2944 
L 1741 2944 
L 1741 909 
Q 1741 475 1809 369 
Q 1878 263 2059 263 
Q 2259 263 2356 397 
Q 2453 531 2459 813 
L 2925 813 
Q 2897 313 2651 111 
Q 2406 -91 1806 -91 
Q 1122 -91 878 123 
Q 634 338 634 909 
L 634 2944 
z
" transform="scale(0.015625)"/>
       <path id="DejaVuSerif-Bold-73" d="M 300 97 
L 300 1025 
L 653 1025 
Q 697 653 931 458 
Q 1166 263 1569 263 
Q 1906 263 2086 380 
Q 2266 497 2266 716 
Q 2266 916 2152 1025 
Q 2038 1134 1709 1216 
L 1253 1331 
Q 738 1459 506 1698 
Q 275 1938 275 2344 
Q 275 2884 650 3148 
Q 1025 3413 1806 3413 
Q 2100 3413 2433 3364 
Q 2766 3316 3169 3213 
L 3169 2375 
L 2816 2375 
Q 2788 2716 2573 2887 
Q 2359 3059 1959 3059 
Q 1622 3059 1448 2951 
Q 1275 2844 1275 2638 
Q 1275 2469 1375 2372 
Q 1475 2275 1734 2209 
L 2188 2094 
Q 2841 1928 3091 1684 
Q 3341 1441 3341 1006 
Q 3341 444 2939 176 
Q 2538 -91 1691 -91 
Q 1381 -91 1034 -44 
Q 688 3 300 97 
z
" transform="scale(0.015625)"/>
       <path id="DejaVuSerif-Bold-29" d="M 325 -997 
L 325 -622 
Q 819 -322 1036 267 
Q 1253 856 1253 1931 
Q 1253 3009 1036 3598 
Q 819 4188 325 4488 
L 325 4863 
Q 1391 4450 1905 3731 
Q 2419 3013 2419 1931 
Q 2419 850 1898 122 
Q 1378 -606 325 -997 
z
" transform="scale(0.015625)"/>
      </defs>
      <use xlink:href="#DejaVuSerif-Bold-50"/>
      <use xlink:href="#DejaVuSerif-Bold-61" transform="translate(72.570312 0)"/>
      <use xlink:href="#DejaVuSerif-Bold-79" transform="translate(137.365234 0)"/>
      <use xlink:href="#DejaVuSerif-Bold-6c" transform="translate(195.470703 0)"/>
      <use xlink:href="#DejaVuSerif-Bold-6f" transform="translate(233.458984 0)"/>
      <use xlink:href="#DejaVuSerif-Bold-61" transform="translate(300.158203 0)"/>
      <use xlink:href="#DejaVuSerif-Bold-64" transform="translate(364.953125 0)"/>
      <use xlink:href="#DejaVuSerif-Bold-20" transform="translate(434.875 0)"/>
      <use xlink:href="#DejaVuSerif-Bold-53" transform="translate(469.689453 0)"/>
      <use xlink:href="#DejaVuSerif-Bold-69" transform="translate(541.90625 0)"/>
      <use xlink:href="#DejaVuSerif-Bold-7a" transform="translate(579.894531 0)"/>
      <use xlink:href="#DejaVuSerif-Bold-65" transform="translate(636.681641 0)"/>
      <use xlink:href="#DejaVuSerif-Bold-20" transform="translate(700.304688 0)"/>
      <use xlink:href="#DejaVuSerif-Bold-28" transform="translate(735.119141 0)"/>
      <use xlink:href="#DejaVuSerif-Bold-42" transform="translate(782.433594 0)"/>
      <use xlink:href="#DejaVuSerif-Bold-79" transform="translate(866.955078 0)"/>
      <use xlink:href="#DejaVuSerif-Bold-74" transform="translate(925.060547 0)"/>
      <use xlink:href="#DejaVuSerif-Bold-65" transform="translate(971.251953 0)"/>
      <use xlink:href="#DejaVuSerif-Bold-73" transform="translate(1034.875 0)"/>
      <use xlink:href="#DejaVuSerif-Bold-29" transform="translate(1091.173828 0)"/>
     </g>
    </g>
   </g>
   <g id="matplotlib.axis_2">
    <g id="ytick_1">
     <g id="line2d_7">
      <path d="M 58.224375 515.063222 
L 727.824375 515.063222 
" clip-path="url(#pd682d5580c)" style="fill: none; stroke-dasharray: 3.7,1.6; stroke-dashoffset: 0; stroke: #cccccc; stroke-opacity: 0.3"/>
     </g>
     <g id="text_8">
      <!-- $\mathdefault{10^{-1}}$ -->
      <g style="fill: #262626" transform="translate(22.984375 519.242362) scale(0.11 -0.11)">
       <defs>
        <path id="DejaVuSerif-2212" d="M 678 2259 
L 4684 2259 
L 4684 1753 
L 678 1753 
L 678 2259 
z
" transform="scale(0.015625)"/>
       </defs>
       <use xlink:href="#DejaVuSerif-31" transform="translate(0 0.7125)"/>
       <use xlink:href="#DejaVuSerif-30" transform="translate(63.623047 0.7125)"/>
       <use xlink:href="#DejaVuSerif-2212" transform="translate(128.154453 37.046875) scale(0.7)"/>
       <use xlink:href="#DejaVuSerif-31" transform="translate(186.806797 37.046875) scale(0.7)"/>
      </g>
     </g>
    </g>
    <g id="ytick_2">
     <g id="line2d_8">
      <path d="M 58.224375 410.601003 
L 727.824375 410.601003 
" clip-path="url(#pd682d5580c)" style="fill: none; stroke-dasharray: 3.7,1.6; stroke-dashoffset: 0; stroke: #cccccc; stroke-opacity: 0.3"/>
     </g>
     <g id="text_9">
      <!-- $\mathdefault{10^{0}}$ -->
      <g style="fill: #262626" transform="translate(29.364375 414.780143) scale(0.11 -0.11)">
       <use xlink:href="#DejaVuSerif-31" transform="translate(0 0.7125)"/>
       <use xlink:href="#DejaVuSerif-30" transform="translate(63.623047 0.7125)"/>
       <use xlink:href="#DejaVuSerif-30" transform="translate(128.154453 37.046875) scale(0.7)"/>
      </g>
     </g>
    </g>
    <g id="ytick_3">
     <g id="line2d_9">
      <path d="M 58.224375 306.138784 
L 727.824375 306.138784 
" clip-path="url(#pd682d5580c)" style="fill: none; stroke-dasharray: 3.7,1.6; stroke-dashoffset: 0; stroke: #cccccc; stroke-opacity: 0.3"/>
     </g>
     <g id="text_10">
      <!-- $\mathdefault{10^{1}}$ -->
      <g style="fill: #262626" transform="translate(29.364375 310.317924) scale(0.11 -0.11)">
       <use xlink:href="#DejaVuSerif-31" transform="translate(0 0.7125)"/>
       <use xlink:href="#DejaVuSerif-30" transform="translate(63.623047 0.7125)"/>
       <use xlink:href="#DejaVuSerif-31" transform="translate(128.154453 37.046875) scale(0.7)"/>
      </g>
     </g>
    </g>
    <g id="ytick_4">
     <g id="line2d_10">
      <path d="M 58.224375 201.676565 
L 727.824375 201.676565 
" clip-path="url(#pd682d5580c)" style="fill: none; stroke-dasharray: 3.7,1.6; stroke-dashoffset: 0; stroke: #cccccc; stroke-opacity: 0.3"/>
     </g>
     <g id="text_11">
      <!-- $\mathdefault{10^{2}}$ -->
      <g style="fill: #262626" transform="translate(29.364375 205.855706) scale(0.11 -0.11)">
       <use xlink:href="#DejaVuSerif-31" transform="translate(0 0.7125)"/>
       <use xlink:href="#DejaVuSerif-30" transform="translate(63.623047 0.7125)"/>
       <use xlink:href="#DejaVuSerif-32" transform="translate(128.154453 37.046875) scale(0.7)"/>
      </g>
     </g>
    </g>
    <g id="ytick_5">
     <g id="line2d_11">
      <path d="M 58.224375 97.214346 
L 727.824375 97.214346 
" clip-path="url(#pd682d5580c)" style="fill: none; stroke-dasharray: 3.7,1.6; stroke-dashoffset: 0; stroke: #cccccc; stroke-opacity: 0.3"/>
     </g>
     <g id="text_12">
      <!-- $\mathdefault{10^{3}}$ -->
      <g style="fill: #262626" transform="translate(29.364375 101.393487) scale(0.11 -0.11)">
       <use xlink:href="#DejaVuSerif-31" transform="translate(0 0.7125)"/>
       <use xlink:href="#DejaVuSerif-30" transform="translate(63.623047 0.7125)"/>
       <use xlink:href="#DejaVuSerif-33" transform="translate(128.154453 37.046875) scale(0.7)"/>
      </g>
     </g>
    </g>
    <g id="ytick_6">
     <g id="line2d_12">
      <path d="M 58.224375 569.684295 
L 727.824375 569.684295 
" clip-path="url(#pd682d5580c)" style="fill: none; stroke-dasharray: 3.7,1.6; stroke-dashoffset: 0; stroke: #cccccc; stroke-opacity: 0.3"/>
     </g>
    </g>
    <g id="ytick_7">
     <g id="line2d_13">
      <path d="M 58.224375 556.632918 
L 727.824375 556.632918 
" clip-path="url(#pd682d5580c)" style="fill: none; stroke-dasharray: 3.7,1.6; stroke-dashoffset: 0; stroke: #cccccc; stroke-opacity: 0.3"/>
     </g>
    </g>
    <g id="ytick_8">
     <g id="line2d_14">
      <path d="M 58.224375 546.509483 
L 727.824375 546.509483 
" clip-path="url(#pd682d5580c)" style="fill: none; stroke-dasharray: 3.7,1.6; stroke-dashoffset: 0; stroke: #cccccc; stroke-opacity: 0.3"/>
     </g>
    </g>
    <g id="ytick_9">
     <g id="line2d_15">
      <path d="M 58.224375 538.238034 
L 727.824375 538.238034 
" clip-path="url(#pd682d5580c)" style="fill: none; stroke-dasharray: 3.7,1.6; stroke-dashoffset: 0; stroke: #cccccc; stroke-opacity: 0.3"/>
     </g>
    </g>
    <g id="ytick_10">
     <g id="line2d_16">
      <path d="M 58.224375 531.244624 
L 727.824375 531.244624 
" clip-path="url(#pd682d5580c)" style="fill: none; stroke-dasharray: 3.7,1.6; stroke-dashoffset: 0; stroke: #cccccc; stroke-opacity: 0.3"/>
     </g>
    </g>
    <g id="ytick_11">
     <g id="line2d_17">
      <path d="M 58.224375 525.186657 
L 727.824375 525.186657 
" clip-path="url(#pd682d5580c)" style="fill: none; stroke-dasharray: 3.7,1.6; stroke-dashoffset: 0; stroke: #cccccc; stroke-opacity: 0.3"/>
     </g>
    </g>
    <g id="ytick_12">
     <g id="line2d_18">
      <path d="M 58.224375 519.843151 
L 727.824375 519.843151 
" clip-path="url(#pd682d5580c)" style="fill: none; stroke-dasharray: 3.7,1.6; stroke-dashoffset: 0; stroke: #cccccc; stroke-opacity: 0.3"/>
     </g>
    </g>
    <g id="ytick_13">
     <g id="line2d_19">
      <path d="M 58.224375 483.61696 
L 727.824375 483.61696 
" clip-path="url(#pd682d5580c)" style="fill: none; stroke-dasharray: 3.7,1.6; stroke-dashoffset: 0; stroke: #cccccc; stroke-opacity: 0.3"/>
     </g>
    </g>
    <g id="ytick_14">
     <g id="line2d_20">
      <path d="M 58.224375 465.222077 
L 727.824375 465.222077 
" clip-path="url(#pd682d5580c)" style="fill: none; stroke-dasharray: 3.7,1.6; stroke-dashoffset: 0; stroke: #cccccc; stroke-opacity: 0.3"/>
     </g>
    </g>
    <g id="ytick_15">
     <g id="line2d_21">
      <path d="M 58.224375 452.170699 
L 727.824375 452.170699 
" clip-path="url(#pd682d5580c)" style="fill: none; stroke-dasharray: 3.7,1.6; stroke-dashoffset: 0; stroke: #cccccc; stroke-opacity: 0.3"/>
     </g>
    </g>
    <g id="ytick_16">
     <g id="line2d_22">
      <path d="M 58.224375 442.047264 
L 727.824375 442.047264 
" clip-path="url(#pd682d5580c)" style="fill: none; stroke-dasharray: 3.7,1.6; stroke-dashoffset: 0; stroke: #cccccc; stroke-opacity: 0.3"/>
     </g>
    </g>
    <g id="ytick_17">
     <g id="line2d_23">
      <path d="M 58.224375 433.775815 
L 727.824375 433.775815 
" clip-path="url(#pd682d5580c)" style="fill: none; stroke-dasharray: 3.7,1.6; stroke-dashoffset: 0; stroke: #cccccc; stroke-opacity: 0.3"/>
     </g>
    </g>
    <g id="ytick_18">
     <g id="line2d_24">
      <path d="M 58.224375 426.782405 
L 727.824375 426.782405 
" clip-path="url(#pd682d5580c)" style="fill: none; stroke-dasharray: 3.7,1.6; stroke-dashoffset: 0; stroke: #cccccc; stroke-opacity: 0.3"/>
     </g>
    </g>
    <g id="ytick_19">
     <g id="line2d_25">
      <path d="M 58.224375 420.724438 
L 727.824375 420.724438 
" clip-path="url(#pd682d5580c)" style="fill: none; stroke-dasharray: 3.7,1.6; stroke-dashoffset: 0; stroke: #cccccc; stroke-opacity: 0.3"/>
     </g>
    </g>
    <g id="ytick_20">
     <g id="line2d_26">
      <path d="M 58.224375 415.380932 
L 727.824375 415.380932 
" clip-path="url(#pd682d5580c)" style="fill: none; stroke-dasharray: 3.7,1.6; stroke-dashoffset: 0; stroke: #cccccc; stroke-opacity: 0.3"/>
     </g>
    </g>
    <g id="ytick_21">
     <g id="line2d_27">
      <path d="M 58.224375 379.154741 
L 727.824375 379.154741 
" clip-path="url(#pd682d5580c)" style="fill: none; stroke-dasharray: 3.7,1.6; stroke-dashoffset: 0; stroke: #cccccc; stroke-opacity: 0.3"/>
     </g>
    </g>
    <g id="ytick_22">
     <g id="line2d_28">
      <path d="M 58.224375 360.759858 
L 727.824375 360.759858 
" clip-path="url(#pd682d5580c)" style="fill: none; stroke-dasharray: 3.7,1.6; stroke-dashoffset: 0; stroke: #cccccc; stroke-opacity: 0.3"/>
     </g>
    </g>
    <g id="ytick_23">
     <g id="line2d_29">
      <path d="M 58.224375 347.70848 
L 727.824375 347.70848 
" clip-path="url(#pd682d5580c)" style="fill: none; stroke-dasharray: 3.7,1.6; stroke-dashoffset: 0; stroke: #cccccc; stroke-opacity: 0.3"/>
     </g>
    </g>
    <g id="ytick_24">
     <g id="line2d_30">
      <path d="M 58.224375 337.585045 
L 727.824375 337.585045 
" clip-path="url(#pd682d5580c)" style="fill: none; stroke-dasharray: 3.7,1.6; stroke-dashoffset: 0; stroke: #cccccc; stroke-opacity: 0.3"/>
     </g>
    </g>
    <g id="ytick_25">
     <g id="line2d_31">
      <path d="M 58.224375 329.313596 
L 727.824375 329.313596 
" clip-path="url(#pd682d5580c)" style="fill: none; stroke-dasharray: 3.7,1.6; stroke-dashoffset: 0; stroke: #cccccc; stroke-opacity: 0.3"/>
     </g>
    </g>
    <g id="ytick_26">
     <g id="line2d_32">
      <path d="M 58.224375 322.320186 
L 727.824375 322.320186 
" clip-path="url(#pd682d5580c)" style="fill: none; stroke-dasharray: 3.7,1.6; stroke-dashoffset: 0; stroke: #cccccc; stroke-opacity: 0.3"/>
     </g>
    </g>
    <g id="ytick_27">
     <g id="line2d_33">
      <path d="M 58.224375 316.262219 
L 727.824375 316.262219 
" clip-path="url(#pd682d5580c)" style="fill: none; stroke-dasharray: 3.7,1.6; stroke-dashoffset: 0; stroke: #cccccc; stroke-opacity: 0.3"/>
     </g>
    </g>
    <g id="ytick_28">
     <g id="line2d_34">
      <path d="M 58.224375 310.918713 
L 727.824375 310.918713 
" clip-path="url(#pd682d5580c)" style="fill: none; stroke-dasharray: 3.7,1.6; stroke-dashoffset: 0; stroke: #cccccc; stroke-opacity: 0.3"/>
     </g>
    </g>
    <g id="ytick_29">
     <g id="line2d_35">
      <path d="M 58.224375 274.692523 
L 727.824375 274.692523 
" clip-path="url(#pd682d5580c)" style="fill: none; stroke-dasharray: 3.7,1.6; stroke-dashoffset: 0; stroke: #cccccc; stroke-opacity: 0.3"/>
     </g>
    </g>
    <g id="ytick_30">
     <g id="line2d_36">
      <path d="M 58.224375 256.297639 
L 727.824375 256.297639 
" clip-path="url(#pd682d5580c)" style="fill: none; stroke-dasharray: 3.7,1.6; stroke-dashoffset: 0; stroke: #cccccc; stroke-opacity: 0.3"/>
     </g>
    </g>
    <g id="ytick_31">
     <g id="line2d_37">
      <path d="M 58.224375 243.246261 
L 727.824375 243.246261 
" clip-path="url(#pd682d5580c)" style="fill: none; stroke-dasharray: 3.7,1.6; stroke-dashoffset: 0; stroke: #cccccc; stroke-opacity: 0.3"/>
     </g>
    </g>
    <g id="ytick_32">
     <g id="line2d_38">
      <path d="M 58.224375 233.122826 
L 727.824375 233.122826 
" clip-path="url(#pd682d5580c)" style="fill: none; stroke-dasharray: 3.7,1.6; stroke-dashoffset: 0; stroke: #cccccc; stroke-opacity: 0.3"/>
     </g>
    </g>
    <g id="ytick_33">
     <g id="line2d_39">
      <path d="M 58.224375 224.851378 
L 727.824375 224.851378 
" clip-path="url(#pd682d5580c)" style="fill: none; stroke-dasharray: 3.7,1.6; stroke-dashoffset: 0; stroke: #cccccc; stroke-opacity: 0.3"/>
     </g>
    </g>
    <g id="ytick_34">
     <g id="line2d_40">
      <path d="M 58.224375 217.857967 
L 727.824375 217.857967 
" clip-path="url(#pd682d5580c)" style="fill: none; stroke-dasharray: 3.7,1.6; stroke-dashoffset: 0; stroke: #cccccc; stroke-opacity: 0.3"/>
     </g>
    </g>
    <g id="ytick_35">
     <g id="line2d_41">
      <path d="M 58.224375 211.8 
L 727.824375 211.8 
" clip-path="url(#pd682d5580c)" style="fill: none; stroke-dasharray: 3.7,1.6; stroke-dashoffset: 0; stroke: #cccccc; stroke-opacity: 0.3"/>
     </g>
    </g>
    <g id="ytick_36">
     <g id="line2d_42">
      <path d="M 58.224375 206.456494 
L 727.824375 206.456494 
" clip-path="url(#pd682d5580c)" style="fill: none; stroke-dasharray: 3.7,1.6; stroke-dashoffset: 0; stroke: #cccccc; stroke-opacity: 0.3"/>
     </g>
    </g>
    <g id="ytick_37">
     <g id="line2d_43">
      <path d="M 58.224375 170.230304 
L 727.824375 170.230304 
" clip-path="url(#pd682d5580c)" style="fill: none; stroke-dasharray: 3.7,1.6; stroke-dashoffset: 0; stroke: #cccccc; stroke-opacity: 0.3"/>
     </g>
    </g>
    <g id="ytick_38">
     <g id="line2d_44">
      <path d="M 58.224375 151.83542 
L 727.824375 151.83542 
" clip-path="url(#pd682d5580c)" style="fill: none; stroke-dasharray: 3.7,1.6; stroke-dashoffset: 0; stroke: #cccccc; stroke-opacity: 0.3"/>
     </g>
    </g>
    <g id="ytick_39">
     <g id="line2d_45">
      <path d="M 58.224375 138.784042 
L 727.824375 138.784042 
" clip-path="url(#pd682d5580c)" style="fill: none; stroke-dasharray: 3.7,1.6; stroke-dashoffset: 0; stroke: #cccccc; stroke-opacity: 0.3"/>
     </g>
    </g>
    <g id="ytick_40">
     <g id="line2d_46">
      <path d="M 58.224375 128.660607 
L 727.824375 128.660607 
" clip-path="url(#pd682d5580c)" style="fill: none; stroke-dasharray: 3.7,1.6; stroke-dashoffset: 0; stroke: #cccccc; stroke-opacity: 0.3"/>
     </g>
    </g>
    <g id="ytick_41">
     <g id="line2d_47">
      <path d="M 58.224375 120.389159 
L 727.824375 120.389159 
" clip-path="url(#pd682d5580c)" style="fill: none; stroke-dasharray: 3.7,1.6; stroke-dashoffset: 0; stroke: #cccccc; stroke-opacity: 0.3"/>
     </g>
    </g>
    <g id="ytick_42">
     <g id="line2d_48">
      <path d="M 58.224375 113.395749 
L 727.824375 113.395749 
" clip-path="url(#pd682d5580c)" style="fill: none; stroke-dasharray: 3.7,1.6; stroke-dashoffset: 0; stroke: #cccccc; stroke-opacity: 0.3"/>
     </g>
    </g>
    <g id="ytick_43">
     <g id="line2d_49">
      <path d="M 58.224375 107.337781 
L 727.824375 107.337781 
" clip-path="url(#pd682d5580c)" style="fill: none; stroke-dasharray: 3.7,1.6; stroke-dashoffset: 0; stroke: #cccccc; stroke-opacity: 0.3"/>
     </g>
    </g>
    <g id="ytick_44">
     <g id="line2d_50">
      <path d="M 58.224375 101.994275 
L 727.824375 101.994275 
" clip-path="url(#pd682d5580c)" style="fill: none; stroke-dasharray: 3.7,1.6; stroke-dashoffset: 0; stroke: #cccccc; stroke-opacity: 0.3"/>
     </g>
    </g>
    <g id="text_13">
     <!-- Energy Efficiency (mJ per Byte) -->
     <g style="fill: #262626" transform="translate(16.318125 433.720313) rotate(-90) scale(0.12 -0.12)">
      <defs>
       <path id="DejaVuSerif-Bold-45" d="M 300 0 
L 300 378 
L 897 378 
L 897 4288 
L 300 4288 
L 300 4666 
L 4494 4666 
L 4494 3566 
L 4063 3566 
L 4063 4238 
L 2100 4238 
L 2100 2741 
L 3322 2741 
L 3322 3334 
L 3750 3334 
L 3750 1722 
L 3322 1722 
L 3322 2316 
L 2100 2316 
L 2100 428 
L 4122 428 
L 4122 1100 
L 4550 1100 
L 4550 0 
L 300 0 
z
" transform="scale(0.015625)"/>
       <path id="DejaVuSerif-Bold-6e" d="M 219 0 
L 219 378 
L 691 378 
L 691 2944 
L 219 2944 
L 219 3322 
L 1797 3322 
L 1797 2853 
Q 1997 3150 2253 3281 
Q 2509 3413 2900 3413 
Q 3459 3413 3745 3083 
Q 4031 2753 4031 2113 
L 4031 378 
L 4506 378 
L 4506 0 
L 2522 0 
L 2522 378 
L 2925 378 
L 2925 2144 
Q 2925 2566 2817 2730 
Q 2709 2894 2444 2894 
Q 2109 2894 1953 2648 
Q 1797 2403 1797 1869 
L 1797 378 
L 2203 378 
L 2203 0 
L 219 0 
z
" transform="scale(0.015625)"/>
       <path id="DejaVuSerif-Bold-72" d="M 3438 3359 
L 3438 2369 
L 3084 2369 
Q 3066 2634 2941 2764 
Q 2816 2894 2578 2894 
Q 2216 2894 2006 2575 
Q 1797 2256 1797 1691 
L 1797 378 
L 2400 378 
L 2400 0 
L 219 0 
L 219 378 
L 691 378 
L 691 2944 
L 184 2944 
L 184 3322 
L 1797 3322 
L 1797 2731 
Q 1959 3078 2226 3245 
Q 2494 3413 2881 3413 
Q 2978 3413 3117 3398 
Q 3256 3384 3438 3359 
z
" transform="scale(0.015625)"/>
       <path id="DejaVuSerif-Bold-67" d="M 3853 2944 
L 3853 44 
Q 3853 -656 3354 -1039 
Q 2856 -1422 1947 -1422 
Q 1616 -1422 1275 -1370 
Q 934 -1319 575 -1216 
L 575 -422 
L 928 -422 
Q 975 -750 1192 -909 
Q 1409 -1069 1813 -1069 
Q 2325 -1069 2536 -823 
Q 2747 -578 2747 44 
L 2747 422 
Q 2606 163 2367 36 
Q 2128 -91 1778 -91 
Q 1072 -91 667 378 
Q 263 847 263 1663 
Q 263 2481 667 2947 
Q 1072 3413 1778 3413 
Q 2128 3413 2367 3286 
Q 2606 3159 2747 2900 
L 2747 3322 
L 4325 3322 
L 4325 2944 
L 3853 2944 
z
M 2747 1825 
Q 2747 2406 2597 2665 
Q 2447 2925 2119 2925 
Q 1775 2925 1636 2651 
Q 1497 2378 1497 1663 
Q 1497 947 1637 672 
Q 1778 397 2119 397 
Q 2447 397 2597 656 
Q 2747 916 2747 1497 
L 2747 1825 
z
" transform="scale(0.015625)"/>
       <path id="DejaVuSerif-Bold-66" d="M 3097 4031 
L 2747 4031 
Q 2722 4275 2605 4394 
Q 2488 4513 2272 4513 
Q 2022 4513 1909 4333 
Q 1797 4153 1797 3750 
L 1797 3322 
L 2631 3322 
L 2631 2944 
L 1797 2944 
L 1797 378 
L 2438 378 
L 2438 0 
L 219 0 
L 219 378 
L 691 378 
L 691 2944 
L 197 2944 
L 197 3322 
L 691 3322 
L 691 3738 
Q 691 4291 1044 4577 
Q 1397 4863 2081 4863 
Q 2347 4863 2600 4833 
Q 2853 4803 3097 4744 
L 3097 4031 
z
" transform="scale(0.015625)"/>
       <path id="DejaVuSerif-Bold-63" d="M 3609 1038 
Q 3491 469 3123 189 
Q 2756 -91 2125 -91 
Q 1238 -91 750 368 
Q 263 828 263 1663 
Q 263 2488 744 2950 
Q 1225 3413 2081 3413 
Q 2428 3413 2781 3347 
Q 3134 3281 3500 3150 
L 3500 2228 
L 3150 2228 
Q 3100 2650 2903 2854 
Q 2706 3059 2350 3059 
Q 1888 3059 1692 2746 
Q 1497 2434 1497 1663 
Q 1497 909 1687 586 
Q 1878 263 2309 263 
Q 2644 263 2845 463 
Q 3047 663 3091 1038 
L 3609 1038 
z
" transform="scale(0.015625)"/>
       <path id="DejaVuSerif-Bold-6d" d="M 3884 2778 
Q 4116 3109 4384 3261 
Q 4653 3413 5013 3413 
Q 5584 3413 5867 3089 
Q 6150 2766 6150 2113 
L 6150 378 
L 6625 378 
L 6625 0 
L 4647 0 
L 4647 378 
L 5044 378 
L 5044 1947 
Q 5044 2569 4948 2731 
Q 4853 2894 4594 2894 
Q 4300 2894 4137 2667 
Q 3975 2441 3975 2022 
L 3975 378 
L 4372 378 
L 4372 0 
L 2472 0 
L 2472 378 
L 2869 378 
L 2869 1947 
Q 2869 2569 2772 2731 
Q 2675 2894 2419 2894 
Q 2122 2894 1959 2667 
Q 1797 2441 1797 2022 
L 1797 378 
L 2194 378 
L 2194 0 
L 219 0 
L 219 378 
L 691 378 
L 691 2944 
L 219 2944 
L 219 3322 
L 1797 3322 
L 1797 2853 
Q 1991 3144 2241 3278 
Q 2491 3413 2834 3413 
Q 3241 3413 3494 3258 
Q 3747 3103 3884 2778 
z
" transform="scale(0.015625)"/>
       <path id="DejaVuSerif-Bold-4a" d="M -469 -1119 
L -469 -384 
L -63 -384 
Q -44 -678 76 -815 
Q 197 -953 434 -953 
Q 738 -953 858 -720 
Q 978 -488 978 153 
L 978 4288 
L 300 4288 
L 300 4666 
L 2784 4666 
L 2784 4288 
L 2188 4288 
L 2188 128 
Q 2188 -631 1805 -981 
Q 1422 -1331 588 -1331 
Q 328 -1331 65 -1278 
Q -197 -1225 -469 -1119 
z
" transform="scale(0.015625)"/>
       <path id="DejaVuSerif-Bold-70" d="M 1728 1825 
L 1728 1497 
Q 1728 916 1876 656 
Q 2025 397 2356 397 
Q 2697 397 2836 672 
Q 2975 947 2975 1663 
Q 2975 2378 2836 2651 
Q 2697 2925 2356 2925 
Q 2025 2925 1876 2665 
Q 1728 2406 1728 1825 
z
M 622 2944 
L 147 2944 
L 147 3322 
L 1728 3322 
L 1728 2900 
Q 1869 3159 2106 3286 
Q 2344 3413 2694 3413 
Q 3403 3413 3811 2945 
Q 4219 2478 4219 1663 
Q 4219 847 3811 378 
Q 3403 -91 2694 -91 
Q 2344 -91 2106 36 
Q 1869 163 1728 422 
L 1728 -953 
L 2241 -953 
L 2241 -1331 
L 147 -1331 
L 147 -953 
L 622 -953 
L 622 2944 
z
" transform="scale(0.015625)"/>
      </defs>
      <use xlink:href="#DejaVuSerif-Bold-45"/>
      <use xlink:href="#DejaVuSerif-Bold-6e" transform="translate(76.220703 0)"/>
      <use xlink:href="#DejaVuSerif-Bold-65" transform="translate(148.925781 0)"/>
      <use xlink:href="#DejaVuSerif-Bold-72" transform="translate(212.548828 0)"/>
      <use xlink:href="#DejaVuSerif-Bold-67" transform="translate(265.234375 0)"/>
      <use xlink:href="#DejaVuSerif-Bold-79" transform="translate(335.15625 0)"/>
      <use xlink:href="#DejaVuSerif-Bold-20" transform="translate(393.261719 0)"/>
      <use xlink:href="#DejaVuSerif-Bold-45" transform="translate(428.076172 0)"/>
      <use xlink:href="#DejaVuSerif-Bold-66" transform="translate(504.296875 0)"/>
      <use xlink:href="#DejaVuSerif-Bold-66" transform="translate(547.314453 0)"/>
      <use xlink:href="#DejaVuSerif-Bold-69" transform="translate(590.332031 0)"/>
      <use xlink:href="#DejaVuSerif-Bold-63" transform="translate(628.320312 0)"/>
      <use xlink:href="#DejaVuSerif-Bold-69" transform="translate(689.208984 0)"/>
      <use xlink:href="#DejaVuSerif-Bold-65" transform="translate(727.197266 0)"/>
      <use xlink:href="#DejaVuSerif-Bold-6e" transform="translate(790.820312 0)"/>
      <use xlink:href="#DejaVuSerif-Bold-63" transform="translate(863.525391 0)"/>
      <use xlink:href="#DejaVuSerif-Bold-79" transform="translate(924.414062 0)"/>
      <use xlink:href="#DejaVuSerif-Bold-20" transform="translate(982.519531 0)"/>
      <use xlink:href="#DejaVuSerif-Bold-28" transform="translate(1017.333984 0)"/>
      <use xlink:href="#DejaVuSerif-Bold-6d" transform="translate(1064.648438 0)"/>
      <use xlink:href="#DejaVuSerif-Bold-4a" transform="translate(1170.458984 0)"/>
      <use xlink:href="#DejaVuSerif-Bold-20" transform="translate(1217.773438 0)"/>
      <use xlink:href="#DejaVuSerif-Bold-70" transform="translate(1252.587891 0)"/>
      <use xlink:href="#DejaVuSerif-Bold-65" transform="translate(1322.509766 0)"/>
      <use xlink:href="#DejaVuSerif-Bold-72" transform="translate(1386.132812 0)"/>
      <use xlink:href="#DejaVuSerif-Bold-20" transform="translate(1438.818359 0)"/>
      <use xlink:href="#DejaVuSerif-Bold-42" transform="translate(1473.632812 0)"/>
      <use xlink:href="#DejaVuSerif-Bold-79" transform="translate(1558.154297 0)"/>
      <use xlink:href="#DejaVuSerif-Bold-74" transform="translate(1616.259766 0)"/>
      <use xlink:href="#DejaVuSerif-Bold-65" transform="translate(1662.451172 0)"/>
      <use xlink:href="#DejaVuSerif-Bold-29" transform="translate(1726.074219 0)"/>
     </g>
    </g>
   </g>
   <g id="FillBetweenPolyCollection_1">
    <defs>
     <path id="mbdbf6ca5fc" d="M 88.660739 -519.410313 
L 88.660739 -495.88988 
L 120.699016 -464.828301 
L 152.737294 -440.177767 
L 184.775571 -407.511027 
L 216.813849 -376.196543 
L 248.852126 -343.458637 
L 280.890404 -315.653698 
L 312.928681 -280.524465 
L 344.966959 -252.166803 
L 377.005236 -221.323471 
L 409.043514 -190.532809 
L 441.081791 -164.652671 
L 473.120069 -137.359438 
L 505.158346 -117.489829 
L 537.196624 -102.19795 
L 569.234901 -91.485986 
L 601.273179 -80.109365 
L 601.273179 -81.719958 
L 601.273179 -81.719958 
L 569.234901 -93.588626 
L 537.196624 -104.083772 
L 505.158346 -121.155609 
L 473.120069 -140.448399 
L 441.081791 -168.391346 
L 409.043514 -195.154913 
L 377.005236 -224.67709 
L 344.966959 -255.295132 
L 312.928681 -282.694464 
L 280.890404 -324.652543 
L 248.852126 -346.069673 
L 216.813849 -387.529027 
L 184.775571 -412.230601 
L 152.737294 -443.693805 
L 120.699016 -467.866393 
L 88.660739 -519.410313 
z
" style="stroke: #ff0000; stroke-opacity: 0.2"/>
    </defs>
    <g clip-path="url(#pd682d5580c)">
     <use xlink:href="#mbdbf6ca5fc" x="0" y="619.928125" style="fill: #ff0000; fill-opacity: 0.2; stroke: #ff0000; stroke-opacity: 0.2"/>
    </g>
   </g>
   <g id="FillBetweenPolyCollection_2">
    <defs>
     <path id="m33d8b13a77" d="M 88.660739 -488.466067 
L 88.660739 -487.741022 
L 120.699016 -460.466963 
L 152.737294 -434.888646 
L 184.775571 -403.801938 
L 216.813849 -372.232465 
L 248.852126 -340.682581 
L 280.890404 -309.368747 
L 312.928681 -277.86714 
L 344.966959 -247.243576 
L 377.005236 -215.716748 
L 409.043514 -187.405671 
L 441.081791 -157.663367 
L 473.120069 -131.892601 
L 505.158346 -110.150112 
L 537.196624 -92.925621 
L 569.234901 -81.652779 
L 601.273179 -74.288204 
L 633.311456 -69.715198 
L 665.349734 -67.990942 
L 697.388011 -65.810313 
L 697.388011 -66.579927 
L 697.388011 -66.579927 
L 665.349734 -69.068865 
L 633.311456 -70.581224 
L 601.273179 -76.255457 
L 569.234901 -84.157964 
L 537.196624 -93.900027 
L 505.158346 -113.146649 
L 473.120069 -135.779463 
L 441.081791 -159.901921 
L 409.043514 -191.207088 
L 377.005236 -217.387793 
L 344.966959 -251.85032 
L 312.928681 -282.207853 
L 280.890404 -312.724119 
L 248.852126 -343.804631 
L 216.813849 -375.44626 
L 184.775571 -407.039633 
L 152.737294 -438.185769 
L 120.699016 -464.615156 
L 88.660739 -488.466067 
z
" style="stroke: #008000; stroke-opacity: 0.2"/>
    </defs>
    <g clip-path="url(#pd682d5580c)">
     <use xlink:href="#m33d8b13a77" x="0" y="619.928125" style="fill: #008000; fill-opacity: 0.2; stroke: #008000; stroke-opacity: 0.2"/>
    </g>
   </g>
   <g id="FillBetweenPolyCollection_3">
    <defs>
     <path id="m023ebe2950" d="M 88.660739 -505.399864 
L 88.660739 -493.372788 
L 120.699016 -460.330483 
L 152.737294 -436.231067 
L 184.775571 -404.870647 
L 216.813849 -373.777058 
L 248.852126 -342.917588 
L 280.890404 -313.558731 
L 312.928681 -283.251972 
L 344.966959 -260.09358 
L 377.005236 -234.790967 
L 409.043514 -219.379612 
L 441.081791 -204.276664 
L 473.120069 -195.725669 
L 505.158346 -191.404833 
L 537.196624 -189.381579 
L 569.234901 -187.435343 
L 601.273179 -186.702104 
L 633.311456 -186.102706 
L 633.311456 -187.23408 
L 633.311456 -187.23408 
L 601.273179 -187.86352 
L 569.234901 -188.638708 
L 537.196624 -190.527105 
L 505.158346 -192.998888 
L 473.120069 -197.713528 
L 441.081791 -208.155216 
L 409.043514 -222.735553 
L 377.005236 -239.231936 
L 344.966959 -268.170079 
L 312.928681 -287.922139 
L 280.890404 -319.33346 
L 248.852126 -354.83267 
L 216.813849 -377.029556 
L 184.775571 -407.836032 
L 152.737294 -439.68874 
L 120.699016 -465.466427 
L 88.660739 -505.399864 
z
" style="stroke: #0000ff; stroke-opacity: 0.2"/>
    </defs>
    <g clip-path="url(#pd682d5580c)">
     <use xlink:href="#m023ebe2950" x="0" y="619.928125" style="fill: #0000ff; fill-opacity: 0.2; stroke: #0000ff; stroke-opacity: 0.2"/>
    </g>
   </g>
   <g id="patch_3">
    <path d="M 82.253083 255.072392 
L 223.221504 255.072392 
L 223.221504 93.397997 
L 82.253083 93.397997 
L 82.253083 255.072392 
z
" clip-path="url(#pd682d5580c)" style="fill: none; opacity: 0.4; stroke-dasharray: 3.7,1.6; stroke-dashoffset: 0; stroke: #808080; stroke-linejoin: miter"/>
   </g>
   <g id="line2d_51">
    <path d="M 88.660739 111.894592 
L 120.699016 153.712491 
L 152.737294 178.242351 
L 184.775571 210.227909 
L 216.813849 239.08153 
L 248.852126 275.19999 
L 280.890404 300.260708 
L 312.928681 338.311217 
L 344.966959 366.331372 
L 377.005236 396.919378 
L 409.043514 427.287859 
L 441.081791 453.559039 
L 473.120069 480.966143 
L 505.158346 500.968419 
L 537.196624 516.800347 
L 569.234901 527.476465 
L 601.273179 539.047643 
" clip-path="url(#pd682d5580c)" style="fill: none; stroke: #ff0000; stroke-width: 1.5; stroke-linecap: round"/>
    <defs>
     <path id="mbca267214f" d="M 0 4 
C 1.060812 4 2.078319 3.578535 2.828427 2.828427 
C 3.578535 2.078319 4 1.060812 4 0 
C 4 -1.060812 3.578535 -2.078319 2.828427 -2.828427 
C 2.078319 -3.578535 1.060812 -4 0 -4 
C -1.060812 -4 -2.078319 -3.578535 -2.828427 -2.828427 
C -3.578535 -2.078319 -4 -1.060812 -4 0 
C -4 1.060812 -3.578535 2.078319 -2.828427 2.828427 
C -2.078319 3.578535 -1.060812 4 0 4 
z
" style="stroke: #ffffff; stroke-width: 0.75"/>
    </defs>
    <g clip-path="url(#pd682d5580c)">
     <use xlink:href="#mbca267214f" x="88.660739" y="111.894592" style="fill: #ff0000; stroke: #ffffff; stroke-width: 0.75"/>
     <use xlink:href="#mbca267214f" x="120.699016" y="153.712491" style="fill: #ff0000; stroke: #ffffff; stroke-width: 0.75"/>
     <use xlink:href="#mbca267214f" x="152.737294" y="178.242351" style="fill: #ff0000; stroke: #ffffff; stroke-width: 0.75"/>
     <use xlink:href="#mbca267214f" x="184.775571" y="210.227909" style="fill: #ff0000; stroke: #ffffff; stroke-width: 0.75"/>
     <use xlink:href="#mbca267214f" x="216.813849" y="239.08153" style="fill: #ff0000; stroke: #ffffff; stroke-width: 0.75"/>
     <use xlink:href="#mbca267214f" x="248.852126" y="275.19999" style="fill: #ff0000; stroke: #ffffff; stroke-width: 0.75"/>
     <use xlink:href="#mbca267214f" x="280.890404" y="300.260708" style="fill: #ff0000; stroke: #ffffff; stroke-width: 0.75"/>
     <use xlink:href="#mbca267214f" x="312.928681" y="338.311217" style="fill: #ff0000; stroke: #ffffff; stroke-width: 0.75"/>
     <use xlink:href="#mbca267214f" x="344.966959" y="366.331372" style="fill: #ff0000; stroke: #ffffff; stroke-width: 0.75"/>
     <use xlink:href="#mbca267214f" x="377.005236" y="396.919378" style="fill: #ff0000; stroke: #ffffff; stroke-width: 0.75"/>
     <use xlink:href="#mbca267214f" x="409.043514" y="427.287859" style="fill: #ff0000; stroke: #ffffff; stroke-width: 0.75"/>
     <use xlink:href="#mbca267214f" x="441.081791" y="453.559039" style="fill: #ff0000; stroke: #ffffff; stroke-width: 0.75"/>
     <use xlink:href="#mbca267214f" x="473.120069" y="480.966143" style="fill: #ff0000; stroke: #ffffff; stroke-width: 0.75"/>
     <use xlink:href="#mbca267214f" x="505.158346" y="500.968419" style="fill: #ff0000; stroke: #ffffff; stroke-width: 0.75"/>
     <use xlink:href="#mbca267214f" x="537.196624" y="516.800347" style="fill: #ff0000; stroke: #ffffff; stroke-width: 0.75"/>
     <use xlink:href="#mbca267214f" x="569.234901" y="527.476465" style="fill: #ff0000; stroke: #ffffff; stroke-width: 0.75"/>
     <use xlink:href="#mbca267214f" x="601.273179" y="539.047643" style="fill: #ff0000; stroke: #ffffff; stroke-width: 0.75"/>
    </g>
   </g>
   <g id="line2d_52">
    <path d="M 88.660739 131.823132 
L 120.699016 157.580773 
L 152.737294 183.627552 
L 184.775571 214.661869 
L 216.813849 246.244582 
L 248.852126 277.964517 
L 280.890404 309.045478 
L 312.928681 339.957471 
L 344.966959 370.723733 
L 377.005236 403.464141 
L 409.043514 430.682215 
L 441.081791 461.232237 
L 473.120069 486.42849 
L 505.158346 508.513751 
L 537.196624 526.542649 
L 569.234901 537.069011 
L 601.273179 544.76496 
L 633.311456 549.818737 
L 665.349734 551.417582 
L 697.388011 553.766716 
" clip-path="url(#pd682d5580c)" style="fill: none; stroke: #008000; stroke-width: 1.5; stroke-linecap: round"/>
    <defs>
     <path id="m63d470745d" d="M 0 4 
C 1.060812 4 2.078319 3.578535 2.828427 2.828427 
C 3.578535 2.078319 4 1.060812 4 0 
C 4 -1.060812 3.578535 -2.078319 2.828427 -2.828427 
C 2.078319 -3.578535 1.060812 -4 0 -4 
C -1.060812 -4 -2.078319 -3.578535 -2.828427 -2.828427 
C -3.578535 -2.078319 -4 -1.060812 -4 0 
C -4 1.060812 -3.578535 2.078319 -2.828427 2.828427 
C -2.078319 3.578535 -1.060812 4 0 4 
z
" style="stroke: #ffffff; stroke-width: 0.75"/>
    </defs>
    <g clip-path="url(#pd682d5580c)">
     <use xlink:href="#m63d470745d" x="88.660739" y="131.823132" style="fill: #008000; stroke: #ffffff; stroke-width: 0.75"/>
     <use xlink:href="#m63d470745d" x="120.699016" y="157.580773" style="fill: #008000; stroke: #ffffff; stroke-width: 0.75"/>
     <use xlink:href="#m63d470745d" x="152.737294" y="183.627552" style="fill: #008000; stroke: #ffffff; stroke-width: 0.75"/>
     <use xlink:href="#m63d470745d" x="184.775571" y="214.661869" style="fill: #008000; stroke: #ffffff; stroke-width: 0.75"/>
     <use xlink:href="#m63d470745d" x="216.813849" y="246.244582" style="fill: #008000; stroke: #ffffff; stroke-width: 0.75"/>
     <use xlink:href="#m63d470745d" x="248.852126" y="277.964517" style="fill: #008000; stroke: #ffffff; stroke-width: 0.75"/>
     <use xlink:href="#m63d470745d" x="280.890404" y="309.045478" style="fill: #008000; stroke: #ffffff; stroke-width: 0.75"/>
     <use xlink:href="#m63d470745d" x="312.928681" y="339.957471" style="fill: #008000; stroke: #ffffff; stroke-width: 0.75"/>
     <use xlink:href="#m63d470745d" x="344.966959" y="370.723733" style="fill: #008000; stroke: #ffffff; stroke-width: 0.75"/>
     <use xlink:href="#m63d470745d" x="377.005236" y="403.464141" style="fill: #008000; stroke: #ffffff; stroke-width: 0.75"/>
     <use xlink:href="#m63d470745d" x="409.043514" y="430.682215" style="fill: #008000; stroke: #ffffff; stroke-width: 0.75"/>
     <use xlink:href="#m63d470745d" x="441.081791" y="461.232237" style="fill: #008000; stroke: #ffffff; stroke-width: 0.75"/>
     <use xlink:href="#m63d470745d" x="473.120069" y="486.42849" style="fill: #008000; stroke: #ffffff; stroke-width: 0.75"/>
     <use xlink:href="#m63d470745d" x="505.158346" y="508.513751" style="fill: #008000; stroke: #ffffff; stroke-width: 0.75"/>
     <use xlink:href="#m63d470745d" x="537.196624" y="526.542649" style="fill: #008000; stroke: #ffffff; stroke-width: 0.75"/>
     <use xlink:href="#m63d470745d" x="569.234901" y="537.069011" style="fill: #008000; stroke: #ffffff; stroke-width: 0.75"/>
     <use xlink:href="#m63d470745d" x="601.273179" y="544.76496" style="fill: #008000; stroke: #ffffff; stroke-width: 0.75"/>
     <use xlink:href="#m63d470745d" x="633.311456" y="549.818737" style="fill: #008000; stroke: #ffffff; stroke-width: 0.75"/>
     <use xlink:href="#m63d470745d" x="665.349734" y="551.417582" style="fill: #008000; stroke: #ffffff; stroke-width: 0.75"/>
     <use xlink:href="#m63d470745d" x="697.388011" y="553.766716" style="fill: #008000; stroke: #ffffff; stroke-width: 0.75"/>
    </g>
   </g>
   <g id="line2d_53">
    <path d="M 88.660739 120.142724 
L 120.699016 157.390984 
L 152.737294 181.932043 
L 184.775571 213.576979 
L 216.813849 244.570089 
L 248.852126 271.631511 
L 280.890404 303.955748 
L 312.928681 334.617448 
L 344.966959 356.022071 
L 377.005236 383.198943 
L 409.043514 398.930308 
L 441.081791 413.797672 
L 473.120069 423.149635 
L 505.158346 427.694773 
L 537.196624 429.984711 
L 569.234901 431.893493 
L 601.273179 432.683082 
L 633.311456 433.247696 
" clip-path="url(#pd682d5580c)" style="fill: none; stroke: #0000ff; stroke-width: 1.5; stroke-linecap: round"/>
    <defs>
     <path id="m8dc1d6e746" d="M 0 4 
C 1.060812 4 2.078319 3.578535 2.828427 2.828427 
C 3.578535 2.078319 4 1.060812 4 0 
C 4 -1.060812 3.578535 -2.078319 2.828427 -2.828427 
C 2.078319 -3.578535 1.060812 -4 0 -4 
C -1.060812 -4 -2.078319 -3.578535 -2.828427 -2.828427 
C -3.578535 -2.078319 -4 -1.060812 -4 0 
C -4 1.060812 -3.578535 2.078319 -2.828427 2.828427 
C -2.078319 3.578535 -1.060812 4 0 4 
z
" style="stroke: #ffffff; stroke-width: 0.75"/>
    </defs>
    <g clip-path="url(#pd682d5580c)">
     <use xlink:href="#m8dc1d6e746" x="88.660739" y="120.142724" style="fill: #0000ff; stroke: #ffffff; stroke-width: 0.75"/>
     <use xlink:href="#m8dc1d6e746" x="120.699016" y="157.390984" style="fill: #0000ff; stroke: #ffffff; stroke-width: 0.75"/>
     <use xlink:href="#m8dc1d6e746" x="152.737294" y="181.932043" style="fill: #0000ff; stroke: #ffffff; stroke-width: 0.75"/>
     <use xlink:href="#m8dc1d6e746" x="184.775571" y="213.576979" style="fill: #0000ff; stroke: #ffffff; stroke-width: 0.75"/>
     <use xlink:href="#m8dc1d6e746" x="216.813849" y="244.570089" style="fill: #0000ff; stroke: #ffffff; stroke-width: 0.75"/>
     <use xlink:href="#m8dc1d6e746" x="248.852126" y="271.631511" style="fill: #0000ff; stroke: #ffffff; stroke-width: 0.75"/>
     <use xlink:href="#m8dc1d6e746" x="280.890404" y="303.955748" style="fill: #0000ff; stroke: #ffffff; stroke-width: 0.75"/>
     <use xlink:href="#m8dc1d6e746" x="312.928681" y="334.617448" style="fill: #0000ff; stroke: #ffffff; stroke-width: 0.75"/>
     <use xlink:href="#m8dc1d6e746" x="344.966959" y="356.022071" style="fill: #0000ff; stroke: #ffffff; stroke-width: 0.75"/>
     <use xlink:href="#m8dc1d6e746" x="377.005236" y="383.198943" style="fill: #0000ff; stroke: #ffffff; stroke-width: 0.75"/>
     <use xlink:href="#m8dc1d6e746" x="409.043514" y="398.930308" style="fill: #0000ff; stroke: #ffffff; stroke-width: 0.75"/>
     <use xlink:href="#m8dc1d6e746" x="441.081791" y="413.797672" style="fill: #0000ff; stroke: #ffffff; stroke-width: 0.75"/>
     <use xlink:href="#m8dc1d6e746" x="473.120069" y="423.149635" style="fill: #0000ff; stroke: #ffffff; stroke-width: 0.75"/>
     <use xlink:href="#m8dc1d6e746" x="505.158346" y="427.694773" style="fill: #0000ff; stroke: #ffffff; stroke-width: 0.75"/>
     <use xlink:href="#m8dc1d6e746" x="537.196624" y="429.984711" style="fill: #0000ff; stroke: #ffffff; stroke-width: 0.75"/>
     <use xlink:href="#m8dc1d6e746" x="569.234901" y="431.893493" style="fill: #0000ff; stroke: #ffffff; stroke-width: 0.75"/>
     <use xlink:href="#m8dc1d6e746" x="601.273179" y="432.683082" style="fill: #0000ff; stroke: #ffffff; stroke-width: 0.75"/>
     <use xlink:href="#m8dc1d6e746" x="633.311456" y="433.247696" style="fill: #0000ff; stroke: #ffffff; stroke-width: 0.75"/>
    </g>
   </g>
   <g id="line2d_54"/>
   <g id="line2d_55"/>
   <g id="line2d_56"/>
   <g id="patch_4">
    <path d="M 58.224375 576.797813 
L 58.224375 77.837813 
" style="fill: none; stroke: #cccccc; stroke-width: 1.25; stroke-linejoin: miter; stroke-linecap: square"/>
   </g>
   <g id="patch_5">
    <path d="M 727.824375 576.797813 
L 727.824375 77.837813 
" style="fill: none; stroke: #cccccc; stroke-width: 1.25; stroke-linejoin: miter; stroke-linecap: square"/>
   </g>
   <g id="patch_6">
    <path d="M 58.224375 576.797812 
L 727.824375 576.797812 
" style="fill: none; stroke: #cccccc; stroke-width: 1.25; stroke-linejoin: miter; stroke-linecap: square"/>
   </g>
   <g id="patch_7">
    <path d="M 58.224375 77.837812 
L 727.824375 77.837812 
" style="fill: none; stroke: #cccccc; stroke-width: 1.25; stroke-linejoin: miter; stroke-linecap: square"/>
   </g>
   <g id="text_14">
    <!-- WIFI: Efficiency Comparison by Transfer Method -->
    <g style="fill: #262626" transform="translate(200.780313 17.837813) scale(0.14 -0.14)">
     <defs>
      <path id="DejaVuSerif-Bold-57" d="M 5453 0 
L 4647 0 
L 3591 3397 
L 2534 0 
L 1728 0 
L 397 4288 
L -56 4288 
L -56 4666 
L 2156 4666 
L 2156 4288 
L 1656 4288 
L 2547 1422 
L 3553 4666 
L 4441 4666 
L 5466 1369 
L 6375 4288 
L 5819 4288 
L 5819 4666 
L 7263 4666 
L 7263 4288 
L 6784 4288 
L 5453 0 
z
" transform="scale(0.015625)"/>
      <path id="DejaVuSerif-Bold-49" d="M 300 0 
L 300 378 
L 897 378 
L 897 4288 
L 300 4288 
L 300 4666 
L 2700 4666 
L 2700 4288 
L 2100 4288 
L 2100 378 
L 2700 378 
L 2700 0 
L 300 0 
z
" transform="scale(0.015625)"/>
      <path id="DejaVuSerif-Bold-46" d="M 300 0 
L 300 378 
L 897 378 
L 897 4288 
L 300 4288 
L 300 4666 
L 4459 4666 
L 4459 3566 
L 4031 3566 
L 4031 4238 
L 2106 4238 
L 2106 2741 
L 3291 2741 
L 3291 3334 
L 3719 3334 
L 3719 1722 
L 3291 1722 
L 3291 2316 
L 2106 2316 
L 2106 378 
L 2841 378 
L 2841 0 
L 300 0 
z
" transform="scale(0.015625)"/>
      <path id="DejaVuSerif-Bold-3a" d="M 588 2541 
Q 588 2788 761 2963 
Q 934 3138 1178 3138 
Q 1422 3138 1597 2961 
Q 1772 2784 1772 2541 
Q 1772 2297 1598 2125 
Q 1425 1953 1178 1953 
Q 931 1953 759 2125 
Q 588 2297 588 2541 
z
M 588 506 
Q 588 750 761 925 
Q 934 1100 1178 1100 
Q 1422 1100 1597 925 
Q 1772 750 1772 506 
Q 1772 259 1597 84 
Q 1422 -91 1178 -91 
Q 934 -91 761 84 
Q 588 259 588 506 
z
" transform="scale(0.015625)"/>
      <path id="DejaVuSerif-Bold-43" d="M 4769 1331 
Q 4584 609 4106 259 
Q 3628 -91 2822 -91 
Q 1641 -91 955 561 
Q 269 1213 269 2328 
Q 269 3447 955 4098 
Q 1641 4750 2822 4750 
Q 3238 4750 3688 4650 
Q 4138 4550 4641 4347 
L 4641 3200 
L 4244 3200 
Q 4122 3788 3800 4080 
Q 3478 4372 2950 4372 
Q 2269 4372 1937 3870 
Q 1606 3369 1606 2328 
Q 1606 1288 1937 788 
Q 2269 288 2956 288 
Q 3422 288 3717 547 
Q 4013 806 4147 1331 
L 4769 1331 
z
" transform="scale(0.015625)"/>
      <path id="DejaVuSerif-Bold-62" d="M 622 378 
L 622 4488 
L 147 4488 
L 147 4863 
L 1728 4863 
L 1728 2900 
Q 1869 3159 2106 3286 
Q 2344 3413 2694 3413 
Q 3403 3413 3811 2945 
Q 4219 2478 4219 1663 
Q 4219 847 3811 378 
Q 3403 -91 2694 -91 
Q 2344 -91 2106 36 
Q 1869 163 1728 422 
L 1728 0 
L 147 0 
L 147 378 
L 622 378 
z
M 1728 1497 
Q 1728 916 1876 656 
Q 2025 397 2356 397 
Q 2697 397 2836 672 
Q 2975 947 2975 1663 
Q 2975 2378 2836 2651 
Q 2697 2925 2356 2925 
Q 2025 2925 1876 2665 
Q 1728 2406 1728 1825 
L 1728 1497 
z
" transform="scale(0.015625)"/>
      <path id="DejaVuSerif-Bold-54" d="M 1159 0 
L 1159 378 
L 1778 378 
L 1778 4238 
L 500 4238 
L 500 3500 
L 72 3500 
L 72 4666 
L 4697 4666 
L 4697 3500 
L 4275 3500 
L 4275 4238 
L 2988 4238 
L 2988 378 
L 3609 378 
L 3609 0 
L 1159 0 
z
" transform="scale(0.015625)"/>
      <path id="DejaVuSerif-Bold-4d" d="M 269 0 
L 269 378 
L 863 378 
L 863 4288 
L 269 4288 
L 269 4666 
L 2194 4666 
L 3525 1672 
L 4863 4666 
L 6784 4666 
L 6784 4288 
L 6188 4288 
L 6188 378 
L 6784 378 
L 6784 0 
L 4384 0 
L 4384 378 
L 4978 378 
L 4978 3938 
L 3531 684 
L 2741 684 
L 1300 3938 
L 1300 378 
L 1894 378 
L 1894 0 
L 269 0 
z
" transform="scale(0.015625)"/>
      <path id="DejaVuSerif-Bold-68" d="M 219 0 
L 219 378 
L 691 378 
L 691 4488 
L 197 4488 
L 197 4863 
L 1797 4863 
L 1797 2853 
Q 1997 3150 2253 3281 
Q 2509 3413 2900 3413 
Q 3459 3413 3745 3083 
Q 4031 2753 4031 2113 
L 4031 378 
L 4506 378 
L 4506 0 
L 2522 0 
L 2522 378 
L 2925 378 
L 2925 2144 
Q 2925 2566 2817 2730 
Q 2709 2894 2444 2894 
Q 2109 2894 1953 2648 
Q 1797 2403 1797 1869 
L 1797 378 
L 2203 378 
L 2203 0 
L 219 0 
z
" transform="scale(0.015625)"/>
     </defs>
     <use xlink:href="#DejaVuSerif-Bold-57"/>
     <use xlink:href="#DejaVuSerif-Bold-49" transform="translate(112.304688 0)"/>
     <use xlink:href="#DejaVuSerif-Bold-46" transform="translate(159.082031 0)"/>
     <use xlink:href="#DejaVuSerif-Bold-49" transform="translate(230.078125 0)"/>
     <use xlink:href="#DejaVuSerif-Bold-3a" transform="translate(276.855469 0)"/>
     <use xlink:href="#DejaVuSerif-Bold-20" transform="translate(313.769531 0)"/>
     <use xlink:href="#DejaVuSerif-Bold-45" transform="translate(348.583984 0)"/>
     <use xlink:href="#DejaVuSerif-Bold-66" transform="translate(424.804688 0)"/>
     <use xlink:href="#DejaVuSerif-Bold-66" transform="translate(467.822266 0)"/>
     <use xlink:href="#DejaVuSerif-Bold-69" transform="translate(510.839844 0)"/>
     <use xlink:href="#DejaVuSerif-Bold-63" transform="translate(548.828125 0)"/>
     <use xlink:href="#DejaVuSerif-Bold-69" transform="translate(609.716797 0)"/>
     <use xlink:href="#DejaVuSerif-Bold-65" transform="translate(647.705078 0)"/>
     <use xlink:href="#DejaVuSerif-Bold-6e" transform="translate(711.328125 0)"/>
     <use xlink:href="#DejaVuSerif-Bold-63" transform="translate(784.033203 0)"/>
     <use xlink:href="#DejaVuSerif-Bold-79" transform="translate(844.921875 0)"/>
     <use xlink:href="#DejaVuSerif-Bold-20" transform="translate(903.027344 0)"/>
     <use xlink:href="#DejaVuSerif-Bold-43" transform="translate(937.841797 0)"/>
     <use xlink:href="#DejaVuSerif-Bold-6f" transform="translate(1017.431641 0)"/>
     <use xlink:href="#DejaVuSerif-Bold-6d" transform="translate(1084.130859 0)"/>
     <use xlink:href="#DejaVuSerif-Bold-70" transform="translate(1189.941406 0)"/>
     <use xlink:href="#DejaVuSerif-Bold-61" transform="translate(1259.863281 0)"/>
     <use xlink:href="#DejaVuSerif-Bold-72" transform="translate(1324.658203 0)"/>
     <use xlink:href="#DejaVuSerif-Bold-69" transform="translate(1377.34375 0)"/>
     <use xlink:href="#DejaVuSerif-Bold-73" transform="translate(1415.332031 0)"/>
     <use xlink:href="#DejaVuSerif-Bold-6f" transform="translate(1471.630859 0)"/>
     <use xlink:href="#DejaVuSerif-Bold-6e" transform="translate(1538.330078 0)"/>
     <use xlink:href="#DejaVuSerif-Bold-20" transform="translate(1611.035156 0)"/>
     <use xlink:href="#DejaVuSerif-Bold-62" transform="translate(1645.849609 0)"/>
     <use xlink:href="#DejaVuSerif-Bold-79" transform="translate(1715.771484 0)"/>
     <use xlink:href="#DejaVuSerif-Bold-20" transform="translate(1773.876953 0)"/>
     <use xlink:href="#DejaVuSerif-Bold-54" transform="translate(1808.691406 0)"/>
     <use xlink:href="#DejaVuSerif-Bold-72" transform="translate(1875.855469 0)"/>
     <use xlink:href="#DejaVuSerif-Bold-61" transform="translate(1928.541016 0)"/>
     <use xlink:href="#DejaVuSerif-Bold-6e" transform="translate(1993.335938 0)"/>
     <use xlink:href="#DejaVuSerif-Bold-73" transform="translate(2066.041016 0)"/>
     <use xlink:href="#DejaVuSerif-Bold-66" transform="translate(2122.339844 0)"/>
     <use xlink:href="#DejaVuSerif-Bold-65" transform="translate(2165.357422 0)"/>
     <use xlink:href="#DejaVuSerif-Bold-72" transform="translate(2228.980469 0)"/>
     <use xlink:href="#DejaVuSerif-Bold-20" transform="translate(2281.666016 0)"/>
     <use xlink:href="#DejaVuSerif-Bold-4d" transform="translate(2316.480469 0)"/>
     <use xlink:href="#DejaVuSerif-Bold-65" transform="translate(2427.173828 0)"/>
     <use xlink:href="#DejaVuSerif-Bold-74" transform="translate(2490.796875 0)"/>
     <use xlink:href="#DejaVuSerif-Bold-68" transform="translate(2536.988281 0)"/>
     <use xlink:href="#DejaVuSerif-Bold-6f" transform="translate(2609.693359 0)"/>
     <use xlink:href="#DejaVuSerif-Bold-64" transform="translate(2676.392578 0)"/>
    </g>
   </g>
  </g>
  <g id="axes_2">
   <g id="patch_8">
    <path d="M 460.464375 285.473812 
L 694.824375 285.473812 
L 694.824375 110.837812 
L 460.464375 110.837812 
z
" style="fill: #ffffff"/>
   </g>
   <g id="matplotlib.axis_3">
    <g id="xtick_7">
     <g id="line2d_57">
      <path d="M 471.117102 285.473812 
L 471.117102 110.837812 
" clip-path="url(#p557837ad5a)" style="fill: none; stroke: #cccccc; stroke-linecap: round"/>
     </g>
     <g id="text_15">
      <!-- $\mathdefault{2^{0}}$ -->
      <g style="fill: #262626" transform="translate(467.757102 299.532875) scale(0.06 -0.06)">
       <use xlink:href="#DejaVuSerif-32" transform="translate(0 0.7125)"/>
       <use xlink:href="#DejaVuSerif-30" transform="translate(64.531406 37.046875) scale(0.7)"/>
      </g>
     </g>
    </g>
    <g id="xtick_8">
     <g id="line2d_58">
      <path d="M 524.380739 285.473812 
L 524.380739 110.837812 
" clip-path="url(#p557837ad5a)" style="fill: none; stroke: #cccccc; stroke-linecap: round"/>
     </g>
     <g id="text_16">
      <!-- $\mathdefault{2^{1}}$ -->
      <g style="fill: #262626" transform="translate(521.020739 299.532875) scale(0.06 -0.06)">
       <use xlink:href="#DejaVuSerif-32" transform="translate(0 0.7125)"/>
       <use xlink:href="#DejaVuSerif-31" transform="translate(64.531406 37.046875) scale(0.7)"/>
      </g>
     </g>
    </g>
    <g id="xtick_9">
     <g id="line2d_59">
      <path d="M 577.644375 285.473812 
L 577.644375 110.837812 
" clip-path="url(#p557837ad5a)" style="fill: none; stroke: #cccccc; stroke-linecap: round"/>
     </g>
     <g id="text_17">
      <!-- $\mathdefault{2^{2}}$ -->
      <g style="fill: #262626" transform="translate(574.284375 299.532875) scale(0.06 -0.06)">
       <use xlink:href="#DejaVuSerif-32" transform="translate(0 0.7125)"/>
       <use xlink:href="#DejaVuSerif-32" transform="translate(64.531406 37.046875) scale(0.7)"/>
      </g>
     </g>
    </g>
    <g id="xtick_10">
     <g id="line2d_60">
      <path d="M 630.908011 285.473812 
L 630.908011 110.837812 
" clip-path="url(#p557837ad5a)" style="fill: none; stroke: #cccccc; stroke-linecap: round"/>
     </g>
     <g id="text_18">
      <!-- $\mathdefault{2^{3}}$ -->
      <g style="fill: #262626" transform="translate(627.548011 299.532875) scale(0.06 -0.06)">
       <use xlink:href="#DejaVuSerif-32" transform="translate(0 0.7125)"/>
       <use xlink:href="#DejaVuSerif-33" transform="translate(64.531406 37.046875) scale(0.7)"/>
      </g>
     </g>
    </g>
    <g id="xtick_11">
     <g id="line2d_61">
      <path d="M 684.171648 285.473812 
L 684.171648 110.837812 
" clip-path="url(#p557837ad5a)" style="fill: none; stroke: #cccccc; stroke-linecap: round"/>
     </g>
     <g id="text_19">
      <!-- $\mathdefault{2^{4}}$ -->
      <g style="fill: #262626" transform="translate(680.811648 299.532875) scale(0.06 -0.06)">
       <use xlink:href="#DejaVuSerif-32" transform="translate(0 0.7125)"/>
       <use xlink:href="#DejaVuSerif-34" transform="translate(64.531406 37.046875) scale(0.7)"/>
      </g>
     </g>
    </g>
    <g id="text_20">
     <!-- Payload Size (Bytes) -->
     <g style="fill: #262626" transform="translate(541.616797 310.099594) scale(0.07 -0.07)">
      <defs>
       <path id="DejaVuSerif-50" d="M 1581 2375 
L 2406 2375 
Q 2872 2375 3115 2626 
Q 3359 2878 3359 3353 
Q 3359 3831 3115 4081 
Q 2872 4331 2406 4331 
L 1581 4331 
L 1581 2375 
z
M 353 0 
L 353 331 
L 947 331 
L 947 4331 
L 353 4331 
L 353 4666 
L 2559 4666 
Q 3259 4666 3668 4311 
Q 4078 3956 4078 3353 
Q 4078 2753 3668 2397 
Q 3259 2041 2559 2041 
L 1581 2041 
L 1581 331 
L 2303 331 
L 2303 0 
L 353 0 
z
" transform="scale(0.015625)"/>
       <path id="DejaVuSerif-61" d="M 2547 1044 
L 2547 1747 
L 1806 1747 
Q 1378 1747 1168 1562 
Q 959 1378 959 997 
Q 959 650 1171 447 
Q 1384 244 1747 244 
Q 2106 244 2326 466 
Q 2547 688 2547 1044 
z
M 3122 2075 
L 3122 331 
L 3634 331 
L 3634 0 
L 2547 0 
L 2547 359 
Q 2356 128 2106 18 
Q 1856 -91 1522 -91 
Q 969 -91 644 203 
Q 319 497 319 997 
Q 319 1513 691 1797 
Q 1063 2081 1741 2081 
L 2547 2081 
L 2547 2309 
Q 2547 2688 2317 2895 
Q 2088 3103 1672 3103 
Q 1328 3103 1125 2947 
Q 922 2791 872 2484 
L 575 2484 
L 575 3156 
Q 875 3284 1158 3348 
Q 1441 3413 1709 3413 
Q 2400 3413 2761 3070 
Q 3122 2728 3122 2075 
z
" transform="scale(0.015625)"/>
       <path id="DejaVuSerif-79" d="M 1381 -609 
L 1600 -56 
L 359 2988 
L -19 2988 
L -19 3322 
L 1509 3322 
L 1509 2988 
L 978 2988 
L 1913 703 
L 2847 2988 
L 2350 2988 
L 2350 3322 
L 3597 3322 
L 3597 2988 
L 3225 2988 
L 1703 -750 
Q 1547 -1138 1356 -1280 
Q 1166 -1422 819 -1422 
Q 672 -1422 517 -1397 
Q 363 -1372 206 -1325 
L 206 -691 
L 500 -691 
Q 519 -903 608 -995 
Q 697 -1088 884 -1088 
Q 1056 -1088 1161 -992 
Q 1266 -897 1381 -609 
z
" transform="scale(0.015625)"/>
       <path id="DejaVuSerif-6c" d="M 1313 331 
L 1856 331 
L 1856 0 
L 184 0 
L 184 331 
L 738 331 
L 738 4531 
L 184 4531 
L 184 4863 
L 1313 4863 
L 1313 331 
z
" transform="scale(0.015625)"/>
       <path id="DejaVuSerif-6f" d="M 1925 219 
Q 2388 219 2623 584 
Q 2859 950 2859 1663 
Q 2859 2375 2623 2739 
Q 2388 3103 1925 3103 
Q 1463 3103 1227 2739 
Q 991 2375 991 1663 
Q 991 950 1228 584 
Q 1466 219 1925 219 
z
M 1925 -91 
Q 1200 -91 759 389 
Q 319 869 319 1663 
Q 319 2456 758 2934 
Q 1197 3413 1925 3413 
Q 2653 3413 3092 2934 
Q 3531 2456 3531 1663 
Q 3531 869 3092 389 
Q 2653 -91 1925 -91 
z
" transform="scale(0.015625)"/>
       <path id="DejaVuSerif-64" d="M 3359 331 
L 3909 331 
L 3909 0 
L 2784 0 
L 2784 519 
Q 2616 206 2355 57 
Q 2094 -91 1709 -91 
Q 1097 -91 708 395 
Q 319 881 319 1663 
Q 319 2444 706 2928 
Q 1094 3413 1709 3413 
Q 2094 3413 2355 3264 
Q 2616 3116 2784 2803 
L 2784 4531 
L 2241 4531 
L 2241 4863 
L 3359 4863 
L 3359 331 
z
M 2784 1497 
L 2784 1825 
Q 2784 2422 2554 2737 
Q 2325 3053 1888 3053 
Q 1444 3053 1217 2703 
Q 991 2353 991 1663 
Q 991 975 1217 622 
Q 1444 269 1888 269 
Q 2325 269 2554 583 
Q 2784 897 2784 1497 
z
" transform="scale(0.015625)"/>
       <path id="DejaVuSerif-20" transform="scale(0.015625)"/>
       <path id="DejaVuSerif-53" d="M 594 225 
L 594 1288 
L 953 1284 
Q 969 753 1261 498 
Q 1553 244 2150 244 
Q 2706 244 2998 464 
Q 3291 684 3291 1106 
Q 3291 1444 3114 1625 
Q 2938 1806 2369 1978 
L 1753 2163 
Q 1084 2366 811 2669 
Q 538 2972 538 3500 
Q 538 4094 959 4422 
Q 1381 4750 2144 4750 
Q 2469 4750 2856 4679 
Q 3244 4609 3681 4475 
L 3681 3481 
L 3328 3481 
Q 3275 3975 2998 4195 
Q 2722 4416 2156 4416 
Q 1663 4416 1405 4214 
Q 1147 4013 1147 3628 
Q 1147 3294 1340 3103 
Q 1534 2913 2163 2725 
L 2741 2553 
Q 3375 2363 3645 2067 
Q 3916 1772 3916 1275 
Q 3916 597 3481 253 
Q 3047 -91 2188 -91 
Q 1803 -91 1404 -12 
Q 1006 66 594 225 
z
" transform="scale(0.015625)"/>
       <path id="DejaVuSerif-69" d="M 622 4353 
Q 622 4497 726 4603 
Q 831 4709 978 4709 
Q 1122 4709 1226 4603 
Q 1331 4497 1331 4353 
Q 1331 4206 1228 4103 
Q 1125 4000 978 4000 
Q 831 4000 726 4103 
Q 622 4206 622 4353 
z
M 1356 331 
L 1900 331 
L 1900 0 
L 231 0 
L 231 331 
L 781 331 
L 781 2988 
L 231 2988 
L 231 3322 
L 1356 3322 
L 1356 331 
z
" transform="scale(0.015625)"/>
       <path id="DejaVuSerif-7a" d="M 256 0 
L 256 269 
L 2338 2988 
L 691 2988 
L 691 2413 
L 359 2413 
L 359 3322 
L 3078 3322 
L 3078 3053 
L 997 331 
L 2803 331 
L 2803 934 
L 3138 934 
L 3138 0 
L 256 0 
z
" transform="scale(0.015625)"/>
       <path id="DejaVuSerif-65" d="M 3469 1600 
L 991 1600 
L 991 1575 
Q 991 903 1244 561 
Q 1497 219 1991 219 
Q 2369 219 2611 417 
Q 2853 616 2950 1006 
L 3413 1006 
Q 3275 459 2904 184 
Q 2534 -91 1931 -91 
Q 1203 -91 761 389 
Q 319 869 319 1663 
Q 319 2450 753 2931 
Q 1188 3413 1894 3413 
Q 2647 3413 3050 2948 
Q 3453 2484 3469 1600 
z
M 2791 1931 
Q 2772 2513 2545 2808 
Q 2319 3103 1894 3103 
Q 1497 3103 1269 2806 
Q 1041 2509 991 1931 
L 2791 1931 
z
" transform="scale(0.015625)"/>
       <path id="DejaVuSerif-28" d="M 2041 -997 
Q 1281 -656 893 83 
Q 506 822 506 1931 
Q 506 3044 893 3783 
Q 1281 4522 2041 4863 
L 2041 4556 
Q 1559 4225 1350 3623 
Q 1141 3022 1141 1931 
Q 1141 844 1350 242 
Q 1559 -359 2041 -691 
L 2041 -997 
z
" transform="scale(0.015625)"/>
       <path id="DejaVuSerif-42" d="M 1581 331 
L 2516 331 
Q 3078 331 3337 575 
Q 3597 819 3597 1350 
Q 3597 1878 3339 2120 
Q 3081 2363 2516 2363 
L 1581 2363 
L 1581 331 
z
M 1581 2694 
L 2375 2694 
Q 2888 2694 3123 2891 
Q 3359 3088 3359 3513 
Q 3359 3941 3123 4136 
Q 2888 4331 2375 4331 
L 1581 4331 
L 1581 2694 
z
M 353 0 
L 353 331 
L 947 331 
L 947 4331 
L 353 4331 
L 353 4666 
L 2656 4666 
Q 3363 4666 3720 4377 
Q 4078 4088 4078 3513 
Q 4078 3097 3829 2850 
Q 3581 2603 3103 2547 
Q 3697 2472 4005 2167 
Q 4313 1863 4313 1350 
Q 4313 656 3875 328 
Q 3438 0 2509 0 
L 353 0 
z
" transform="scale(0.015625)"/>
       <path id="DejaVuSerif-74" d="M 691 2988 
L 184 2988 
L 184 3322 
L 691 3322 
L 691 4353 
L 1269 4353 
L 1269 3322 
L 2350 3322 
L 2350 2988 
L 1269 2988 
L 1269 878 
Q 1269 456 1350 337 
Q 1431 219 1650 219 
Q 1875 219 1978 351 
Q 2081 484 2088 781 
L 2522 781 
Q 2497 328 2275 118 
Q 2053 -91 1600 -91 
Q 1103 -91 897 129 
Q 691 350 691 878 
L 691 2988 
z
" transform="scale(0.015625)"/>
       <path id="DejaVuSerif-73" d="M 359 184 
L 359 959 
L 691 959 
Q 703 588 923 403 
Q 1144 219 1575 219 
Q 1963 219 2166 364 
Q 2369 509 2369 788 
Q 2369 1006 2220 1140 
Q 2072 1275 1594 1428 
L 1178 1569 
Q 750 1706 558 1912 
Q 366 2119 366 2438 
Q 366 2894 700 3153 
Q 1034 3413 1625 3413 
Q 1888 3413 2178 3344 
Q 2469 3275 2778 3144 
L 2778 2419 
L 2447 2419 
Q 2434 2741 2221 2922 
Q 2009 3103 1644 3103 
Q 1281 3103 1095 2975 
Q 909 2847 909 2591 
Q 909 2381 1050 2254 
Q 1191 2128 1613 1997 
L 2069 1856 
Q 2541 1709 2748 1489 
Q 2956 1269 2956 922 
Q 2956 450 2595 179 
Q 2234 -91 1600 -91 
Q 1278 -91 972 -22 
Q 666 47 359 184 
z
" transform="scale(0.015625)"/>
       <path id="DejaVuSerif-29" d="M 453 -997 
L 453 -691 
Q 934 -359 1145 242 
Q 1356 844 1356 1931 
Q 1356 3022 1145 3623 
Q 934 4225 453 4556 
L 453 4863 
Q 1216 4522 1603 3783 
Q 1991 3044 1991 1931 
Q 1991 822 1603 83 
Q 1216 -656 453 -997 
z
" transform="scale(0.015625)"/>
      </defs>
      <use xlink:href="#DejaVuSerif-50"/>
      <use xlink:href="#DejaVuSerif-61" transform="translate(62.785156 0)"/>
      <use xlink:href="#DejaVuSerif-79" transform="translate(122.404297 0)"/>
      <use xlink:href="#DejaVuSerif-6c" transform="translate(178.898438 0)"/>
      <use xlink:href="#DejaVuSerif-6f" transform="translate(210.880859 0)"/>
      <use xlink:href="#DejaVuSerif-61" transform="translate(271.085938 0)"/>
      <use xlink:href="#DejaVuSerif-64" transform="translate(330.705078 0)"/>
      <use xlink:href="#DejaVuSerif-20" transform="translate(394.71875 0)"/>
      <use xlink:href="#DejaVuSerif-53" transform="translate(426.505859 0)"/>
      <use xlink:href="#DejaVuSerif-69" transform="translate(495.011719 0)"/>
      <use xlink:href="#DejaVuSerif-7a" transform="translate(526.994141 0)"/>
      <use xlink:href="#DejaVuSerif-65" transform="translate(579.679688 0)"/>
      <use xlink:href="#DejaVuSerif-20" transform="translate(638.859375 0)"/>
      <use xlink:href="#DejaVuSerif-28" transform="translate(670.646484 0)"/>
      <use xlink:href="#DejaVuSerif-42" transform="translate(709.660156 0)"/>
      <use xlink:href="#DejaVuSerif-79" transform="translate(783.146484 0)"/>
      <use xlink:href="#DejaVuSerif-74" transform="translate(839.640625 0)"/>
      <use xlink:href="#DejaVuSerif-65" transform="translate(879.826172 0)"/>
      <use xlink:href="#DejaVuSerif-73" transform="translate(939.005859 0)"/>
      <use xlink:href="#DejaVuSerif-29" transform="translate(990.324219 0)"/>
     </g>
    </g>
   </g>
   <g id="matplotlib.axis_4">
    <g id="ytick_45">
     <g id="line2d_62">
      <path d="M 460.464375 227.797186 
L 694.824375 227.797186 
" clip-path="url(#p557837ad5a)" style="fill: none; stroke: #cccccc; stroke-linecap: round"/>
     </g>
     <g id="text_21">
      <!-- $\mathdefault{10^{2}}$ -->
      <g style="fill: #262626" transform="translate(440.404375 230.076717) scale(0.06 -0.06)">
       <use xlink:href="#DejaVuSerif-31" transform="translate(0 0.7125)"/>
       <use xlink:href="#DejaVuSerif-30" transform="translate(63.623047 0.7125)"/>
       <use xlink:href="#DejaVuSerif-32" transform="translate(128.154453 37.046875) scale(0.7)"/>
      </g>
     </g>
    </g>
    <g id="ytick_46">
     <g id="line2d_63">
      <path d="M 460.464375 114.960122 
L 694.824375 114.960122 
" clip-path="url(#p557837ad5a)" style="fill: none; stroke: #cccccc; stroke-linecap: round"/>
     </g>
     <g id="text_22">
      <!-- $\mathdefault{10^{3}}$ -->
      <g style="fill: #262626" transform="translate(440.404375 117.239654) scale(0.06 -0.06)">
       <use xlink:href="#DejaVuSerif-31" transform="translate(0 0.7125)"/>
       <use xlink:href="#DejaVuSerif-30" transform="translate(63.623047 0.7125)"/>
       <use xlink:href="#DejaVuSerif-33" transform="translate(128.154453 37.046875) scale(0.7)"/>
      </g>
     </g>
    </g>
    <g id="ytick_47"/>
    <g id="ytick_48"/>
    <g id="ytick_49"/>
    <g id="ytick_50"/>
    <g id="ytick_51"/>
    <g id="ytick_52"/>
    <g id="ytick_53"/>
    <g id="ytick_54"/>
    <g id="ytick_55"/>
    <g id="ytick_56"/>
    <g id="ytick_57"/>
    <g id="ytick_58"/>
    <g id="ytick_59"/>
    <g id="ytick_60"/>
    <g id="text_23">
     <!-- mJ/Byte -->
     <g style="fill: #262626" transform="translate(434.849062 212.084719) rotate(-90) scale(0.07 -0.07)">
      <defs>
       <path id="DejaVuSerif-6d" d="M 3316 2675 
Q 3481 3041 3739 3227 
Q 3997 3413 4341 3413 
Q 4863 3413 5119 3089 
Q 5375 2766 5375 2113 
L 5375 331 
L 5894 331 
L 5894 0 
L 4300 0 
L 4300 331 
L 4800 331 
L 4800 2047 
Q 4800 2556 4650 2772 
Q 4500 2988 4153 2988 
Q 3769 2988 3567 2697 
Q 3366 2406 3366 1850 
L 3366 331 
L 3866 331 
L 3866 0 
L 2291 0 
L 2291 331 
L 2791 331 
L 2791 2069 
Q 2791 2566 2641 2777 
Q 2491 2988 2144 2988 
Q 1759 2988 1557 2697 
Q 1356 2406 1356 1850 
L 1356 331 
L 1856 331 
L 1856 0 
L 263 0 
L 263 331 
L 781 331 
L 781 2994 
L 231 2994 
L 231 3322 
L 1356 3322 
L 1356 2731 
Q 1516 3063 1762 3238 
Q 2009 3413 2322 3413 
Q 2709 3413 2968 3220 
Q 3228 3028 3316 2675 
z
" transform="scale(0.015625)"/>
       <path id="DejaVuSerif-4a" d="M -538 -1119 
L -538 -384 
L -181 -384 
Q -172 -694 -34 -845 
Q 103 -997 378 -997 
Q 750 -997 897 -762 
Q 1044 -528 1044 153 
L 1044 4331 
L 319 4331 
L 319 4666 
L 2272 4666 
L 2272 4331 
L 1678 4331 
L 1678 128 
Q 1678 -644 1368 -987 
Q 1059 -1331 372 -1331 
Q 150 -1331 -79 -1278 
Q -309 -1225 -538 -1119 
z
" transform="scale(0.015625)"/>
       <path id="DejaVuSerif-2f" d="M 1656 4666 
L 2156 4666 
L 500 -594 
L 0 -594 
L 1656 4666 
z
" transform="scale(0.015625)"/>
      </defs>
      <use xlink:href="#DejaVuSerif-6d"/>
      <use xlink:href="#DejaVuSerif-4a" transform="translate(94.824219 0)"/>
      <use xlink:href="#DejaVuSerif-2f" transform="translate(134.912109 0)"/>
      <use xlink:href="#DejaVuSerif-42" transform="translate(168.603516 0)"/>
      <use xlink:href="#DejaVuSerif-79" transform="translate(242.089844 0)"/>
      <use xlink:href="#DejaVuSerif-74" transform="translate(298.583984 0)"/>
      <use xlink:href="#DejaVuSerif-65" transform="translate(338.769531 0)"/>
     </g>
    </g>
   </g>
   <g id="FillBetweenPolyCollection_4">
    <defs>
     <path id="mb7ce6339d0" d="M 471.117102 -501.152312 
L 471.117102 -474.234394 
L 524.380739 -442.442519 
L 577.644375 -415.662085 
L 630.908011 -380.498391 
L 684.171648 -346.741872 
L 684.171648 -359.429217 
L 684.171648 -359.429217 
L 630.908011 -385.691872 
L 577.644375 -419.540564 
L 524.380739 -445.725938 
L 471.117102 -501.152312 
z
" style="stroke: #ff0000; stroke-opacity: 0.2"/>
    </defs>
    <g clip-path="url(#p557837ad5a)">
     <use xlink:href="#mb7ce6339d0" x="0" y="619.928125" style="fill: #ff0000; fill-opacity: 0.2; stroke: #ff0000; stroke-opacity: 0.2"/>
    </g>
   </g>
   <g id="FillBetweenPolyCollection_5">
    <defs>
     <path id="mdd2c0c11bb" d="M 471.117102 -467.974616 
L 471.117102 -467.191444 
L 524.380739 -437.735455 
L 577.644375 -410.036969 
L 630.908011 -376.591725 
L 684.171648 -342.392313 
L 684.171648 -345.901256 
L 684.171648 -345.901256 
L 630.908011 -379.984999 
L 577.644375 -413.886484 
L 524.380739 -442.127213 
L 471.117102 -467.974616 
z
" style="stroke: #008000; stroke-opacity: 0.2"/>
    </defs>
    <g clip-path="url(#p557837ad5a)">
     <use xlink:href="#mdd2c0c11bb" x="0" y="619.928125" style="fill: #008000; fill-opacity: 0.2; stroke: #008000; stroke-opacity: 0.2"/>
    </g>
   </g>
   <g id="FillBetweenPolyCollection_6">
    <defs>
     <path id="meedb14499f" d="M 471.117102 -486.224183 
L 471.117102 -471.982437 
L 524.380739 -437.603626 
L 577.644375 -411.70415 
L 630.908011 -377.720432 
L 684.171648 -344.157665 
L 684.171648 -347.581913 
L 684.171648 -347.581913 
L 630.908011 -381.109852 
L 577.644375 -415.50221 
L 524.380739 -443.519696 
L 471.117102 -486.224183 
z
" style="stroke: #0000ff; stroke-opacity: 0.2"/>
    </defs>
    <g clip-path="url(#p557837ad5a)">
     <use xlink:href="#meedb14499f" x="0" y="619.928125" style="fill: #0000ff; fill-opacity: 0.2; stroke: #0000ff; stroke-opacity: 0.2"/>
    </g>
   </g>
   <g id="patch_9">
    <path d="M 460.464375 110.837812 
L 82.253083 93.397997 
" style="fill: none; opacity: 0.4; stroke-dasharray: 3.7,1.6; stroke-dashoffset: 0; stroke: #808080; stroke-linejoin: miter"/>
   </g>
   <g id="patch_10">
    <path d="M 694.824375 285.473812 
L 223.221504 255.072392 
" style="fill: none; opacity: 0.4; stroke-dasharray: 3.7,1.6; stroke-dashoffset: 0; stroke: #808080; stroke-linejoin: miter"/>
   </g>
   <g id="line2d_64">
    <path d="M 471.117102 130.817299 
L 524.380739 175.987782 
L 577.644375 202.484226 
L 630.908011 237.0341 
L 684.171648 268.200946 
" clip-path="url(#p557837ad5a)" style="fill: none; stroke: #ff0000; stroke-width: 1.5; stroke-linecap: round"/>
    <defs>
     <path id="mf0bb87e04b" d="M 0 2.5 
C 0.663008 2.5 1.29895 2.236584 1.767767 1.767767 
C 2.236584 1.29895 2.5 0.663008 2.5 0 
C 2.5 -0.663008 2.236584 -1.29895 1.767767 -1.767767 
C 1.29895 -2.236584 0.663008 -2.5 0 -2.5 
C -0.663008 -2.5 -1.29895 -2.236584 -1.767767 -1.767767 
C -2.236584 -1.29895 -2.5 -0.663008 -2.5 0 
C -2.5 0.663008 -2.236584 1.29895 -1.767767 1.767767 
C -1.29895 2.236584 -0.663008 2.5 0 2.5 
z
" style="stroke: #ffffff; stroke-width: 0.75"/>
    </defs>
    <g clip-path="url(#p557837ad5a)">
     <use xlink:href="#mf0bb87e04b" x="471.117102" y="130.817299" style="fill: #ff0000; stroke: #ffffff; stroke-width: 0.75"/>
     <use xlink:href="#mf0bb87e04b" x="524.380739" y="175.987782" style="fill: #ff0000; stroke: #ffffff; stroke-width: 0.75"/>
     <use xlink:href="#mf0bb87e04b" x="577.644375" y="202.484226" style="fill: #ff0000; stroke: #ffffff; stroke-width: 0.75"/>
     <use xlink:href="#mf0bb87e04b" x="630.908011" y="237.0341" style="fill: #ff0000; stroke: #ffffff; stroke-width: 0.75"/>
     <use xlink:href="#mf0bb87e04b" x="684.171648" y="268.200946" style="fill: #ff0000; stroke: #ffffff; stroke-width: 0.75"/>
    </g>
   </g>
   <g id="line2d_65">
    <path d="M 471.117102 152.343531 
L 524.380739 180.166188 
L 577.644375 208.301165 
L 630.908011 241.823536 
L 684.171648 275.938267 
" clip-path="url(#p557837ad5a)" style="fill: none; stroke: #008000; stroke-width: 1.5; stroke-linecap: round"/>
    <defs>
     <path id="m17ddb60c95" d="M 0 2.5 
C 0.663008 2.5 1.29895 2.236584 1.767767 1.767767 
C 2.236584 1.29895 2.5 0.663008 2.5 0 
C 2.5 -0.663008 2.236584 -1.29895 1.767767 -1.767767 
C 1.29895 -2.236584 0.663008 -2.5 0 -2.5 
C -0.663008 -2.5 -1.29895 -2.236584 -1.767767 -1.767767 
C -2.236584 -1.29895 -2.5 -0.663008 -2.5 0 
C -2.5 0.663008 -2.236584 1.29895 -1.767767 1.767767 
C -1.29895 2.236584 -0.663008 2.5 0 2.5 
z
" style="stroke: #ffffff; stroke-width: 0.75"/>
    </defs>
    <g clip-path="url(#p557837ad5a)">
     <use xlink:href="#m17ddb60c95" x="471.117102" y="152.343531" style="fill: #008000; stroke: #ffffff; stroke-width: 0.75"/>
     <use xlink:href="#m17ddb60c95" x="524.380739" y="180.166188" style="fill: #008000; stroke: #ffffff; stroke-width: 0.75"/>
     <use xlink:href="#m17ddb60c95" x="577.644375" y="208.301165" style="fill: #008000; stroke: #ffffff; stroke-width: 0.75"/>
     <use xlink:href="#m17ddb60c95" x="630.908011" y="241.823536" style="fill: #008000; stroke: #ffffff; stroke-width: 0.75"/>
     <use xlink:href="#m17ddb60c95" x="684.171648" y="275.938267" style="fill: #008000; stroke: #ffffff; stroke-width: 0.75"/>
    </g>
   </g>
   <g id="line2d_66">
    <path d="M 471.117102 139.726692 
L 524.380739 179.961183 
L 577.644375 206.469725 
L 630.908011 240.651668 
L 684.171648 274.129528 
" clip-path="url(#p557837ad5a)" style="fill: none; stroke: #0000ff; stroke-width: 1.5; stroke-linecap: round"/>
    <defs>
     <path id="m077b081cf0" d="M 0 2.5 
C 0.663008 2.5 1.29895 2.236584 1.767767 1.767767 
C 2.236584 1.29895 2.5 0.663008 2.5 0 
C 2.5 -0.663008 2.236584 -1.29895 1.767767 -1.767767 
C 1.29895 -2.236584 0.663008 -2.5 0 -2.5 
C -0.663008 -2.5 -1.29895 -2.236584 -1.767767 -1.767767 
C -2.236584 -1.29895 -2.5 -0.663008 -2.5 0 
C -2.5 0.663008 -2.236584 1.29895 -1.767767 1.767767 
C -1.29895 2.236584 -0.663008 2.5 0 2.5 
z
" style="stroke: #ffffff; stroke-width: 0.75"/>
    </defs>
    <g clip-path="url(#p557837ad5a)">
     <use xlink:href="#m077b081cf0" x="471.117102" y="139.726692" style="fill: #0000ff; stroke: #ffffff; stroke-width: 0.75"/>
     <use xlink:href="#m077b081cf0" x="524.380739" y="179.961183" style="fill: #0000ff; stroke: #ffffff; stroke-width: 0.75"/>
     <use xlink:href="#m077b081cf0" x="577.644375" y="206.469725" style="fill: #0000ff; stroke: #ffffff; stroke-width: 0.75"/>
     <use xlink:href="#m077b081cf0" x="630.908011" y="240.651668" style="fill: #0000ff; stroke: #ffffff; stroke-width: 0.75"/>
     <use xlink:href="#m077b081cf0" x="684.171648" y="274.129528" style="fill: #0000ff; stroke: #ffffff; stroke-width: 0.75"/>
    </g>
   </g>
   <g id="patch_11">
    <path d="M 460.464375 285.473813 
L 460.464375 110.837813 
" style="fill: none; stroke: #cccccc; stroke-width: 1.25; stroke-linejoin: miter; stroke-linecap: square"/>
   </g>
   <g id="patch_12">
    <path d="M 694.824375 285.473813 
L 694.824375 110.837813 
" style="fill: none; stroke: #cccccc; stroke-width: 1.25; stroke-linejoin: miter; stroke-linecap: square"/>
   </g>
   <g id="patch_13">
    <path d="M 460.464375 285.473812 
L 694.824375 285.473812 
" style="fill: none; stroke: #cccccc; stroke-width: 1.25; stroke-linejoin: miter; stroke-linecap: square"/>
   </g>
   <g id="patch_14">
    <path d="M 460.464375 110.837812 
L 694.824375 110.837812 
" style="fill: none; stroke: #cccccc; stroke-width: 1.25; stroke-linejoin: miter; stroke-linecap: square"/>
   </g>
  </g>
  <g id="legend_1">
   <g id="patch_15">
    <path d="M 284.453438 72.328125 
L 479.995313 72.328125 
Q 481.795313 72.328125 481.795313 70.528125 
L 481.795313 58.217812 
Q 481.795313 56.417812 479.995313 56.417812 
L 284.453438 56.417812 
Q 282.653437 56.417812 282.653437 58.217812 
L 282.653437 70.528125 
Q 282.653437 72.328125 284.453438 72.328125 
z
" style="fill: #ffffff; opacity: 0.8; stroke: #cccccc; stroke-linejoin: miter"/>
   </g>
   <g id="line2d_67">
    <path d="M 286.253438 63.706406 
L 295.253438 63.706406 
L 304.253438 63.706406 
" style="fill: none; stroke: #ff0000; stroke-width: 1.5; stroke-linecap: round"/>
    <g>
     <use xlink:href="#mbca267214f" x="295.253438" y="63.706406" style="fill: #ff0000; stroke: #ffffff; stroke-width: 0.75"/>
    </g>
   </g>
   <g id="text_24">
    <!-- ALL -->
    <g style="fill: #262626" transform="translate(311.453438 66.856406) scale(0.09 -0.09)">
     <defs>
      <path id="DejaVuSerif-41" d="M 1281 1691 
L 2994 1691 
L 2138 3909 
L 1281 1691 
z
M -38 0 
L -38 331 
L 372 331 
L 2034 4666 
L 2559 4666 
L 4225 331 
L 4684 331 
L 4684 0 
L 2988 0 
L 2988 331 
L 3506 331 
L 3116 1356 
L 1153 1356 
L 763 331 
L 1275 331 
L 1275 0 
L -38 0 
z
" transform="scale(0.015625)"/>
      <path id="DejaVuSerif-4c" d="M 353 0 
L 353 331 
L 947 331 
L 947 4331 
L 353 4331 
L 353 4666 
L 2175 4666 
L 2175 4331 
L 1581 4331 
L 1581 384 
L 3713 384 
L 3713 1166 
L 4097 1166 
L 4097 0 
L 353 0 
z
" transform="scale(0.015625)"/>
     </defs>
     <use xlink:href="#DejaVuSerif-41"/>
     <use xlink:href="#DejaVuSerif-4c" transform="translate(72.216797 0)"/>
     <use xlink:href="#DejaVuSerif-4c" transform="translate(138.623047 0)"/>
    </g>
   </g>
   <g id="line2d_68">
    <path d="M 347.90625 63.706406 
L 356.90625 63.706406 
L 365.90625 63.706406 
" style="fill: none; stroke: #008000; stroke-width: 1.5; stroke-linecap: round"/>
    <g>
     <use xlink:href="#m63d470745d" x="356.90625" y="63.706406" style="fill: #008000; stroke: #ffffff; stroke-width: 0.75"/>
    </g>
   </g>
   <g id="text_25">
    <!-- CHUNK -->
    <g style="fill: #262626" transform="translate(373.10625 66.856406) scale(0.09 -0.09)">
     <defs>
      <path id="DejaVuSerif-43" d="M 4513 1234 
Q 4306 581 3820 245 
Q 3334 -91 2591 -91 
Q 2134 -91 1743 65 
Q 1353 222 1050 525 
Q 700 875 529 1320 
Q 359 1766 359 2328 
Q 359 3416 987 4083 
Q 1616 4750 2644 4750 
Q 3025 4750 3456 4650 
Q 3888 4550 4384 4347 
L 4384 3272 
L 4031 3272 
Q 3916 3859 3567 4137 
Q 3219 4416 2591 4416 
Q 1844 4416 1459 3886 
Q 1075 3356 1075 2328 
Q 1075 1303 1459 773 
Q 1844 244 2591 244 
Q 3113 244 3450 492 
Q 3788 741 3938 1234 
L 4513 1234 
z
" transform="scale(0.015625)"/>
      <path id="DejaVuSerif-48" d="M 353 0 
L 353 331 
L 947 331 
L 947 4331 
L 353 4331 
L 353 4666 
L 2175 4666 
L 2175 4331 
L 1581 4331 
L 1581 2719 
L 4000 2719 
L 4000 4331 
L 3406 4331 
L 3406 4666 
L 5228 4666 
L 5228 4331 
L 4634 4331 
L 4634 331 
L 5228 331 
L 5228 0 
L 3406 0 
L 3406 331 
L 4000 331 
L 4000 2338 
L 1581 2338 
L 1581 331 
L 2175 331 
L 2175 0 
L 353 0 
z
" transform="scale(0.015625)"/>
      <path id="DejaVuSerif-55" d="M 897 4331 
L 300 4331 
L 300 4666 
L 2125 4666 
L 2125 4331 
L 1528 4331 
L 1528 1919 
Q 1528 1025 1820 672 
Q 2113 319 2828 319 
Q 3544 319 3836 672 
Q 4128 1025 4128 1919 
L 4128 4331 
L 3531 4331 
L 3531 4666 
L 5106 4666 
L 5106 4331 
L 4513 4331 
L 4513 1856 
Q 4513 791 4103 350 
Q 3694 -91 2713 -91 
Q 1731 -91 1314 353 
Q 897 797 897 1856 
L 897 4331 
z
" transform="scale(0.015625)"/>
      <path id="DejaVuSerif-4e" d="M 313 0 
L 313 331 
L 941 331 
L 941 4331 
L 313 4331 
L 313 4666 
L 1509 4666 
L 4306 984 
L 4306 4331 
L 3681 4331 
L 3681 4666 
L 5319 4666 
L 5319 4331 
L 4691 4331 
L 4691 -91 
L 4313 -91 
L 1325 3841 
L 1325 331 
L 1953 331 
L 1953 0 
L 313 0 
z
" transform="scale(0.015625)"/>
      <path id="DejaVuSerif-4b" d="M 353 0 
L 353 331 
L 947 331 
L 947 4331 
L 353 4331 
L 353 4666 
L 2175 4666 
L 2175 4331 
L 1581 4331 
L 1581 2566 
L 3591 4331 
L 3084 4331 
L 3084 4666 
L 4634 4666 
L 4634 4331 
L 4109 4331 
L 2106 2572 
L 4347 331 
L 4878 331 
L 4878 0 
L 3794 0 
L 1581 2216 
L 1581 331 
L 2175 331 
L 2175 0 
L 353 0 
z
" transform="scale(0.015625)"/>
     </defs>
     <use xlink:href="#DejaVuSerif-43"/>
     <use xlink:href="#DejaVuSerif-48" transform="translate(76.513672 0)"/>
     <use xlink:href="#DejaVuSerif-55" transform="translate(163.720703 0)"/>
     <use xlink:href="#DejaVuSerif-4e" transform="translate(247.998047 0)"/>
     <use xlink:href="#DejaVuSerif-4b" transform="translate(335.498047 0)"/>
    </g>
   </g>
   <g id="line2d_69">
    <path d="M 428.024531 63.706406 
L 437.024531 63.706406 
L 446.024531 63.706406 
" style="fill: none; stroke: #0000ff; stroke-width: 1.5; stroke-linecap: round"/>
    <g>
     <use xlink:href="#m8dc1d6e746" x="437.024531" y="63.706406" style="fill: #0000ff; stroke: #ffffff; stroke-width: 0.75"/>
    </g>
   </g>
   <g id="text_26">
    <!-- BYTE -->
    <g style="fill: #262626" transform="translate(453.224531 66.856406) scale(0.09 -0.09)">
     <defs>
      <path id="DejaVuSerif-59" d="M 1209 0 
L 1209 331 
L 1806 331 
L 1806 2009 
L 366 4331 
L -72 4331 
L -72 4666 
L 1663 4666 
L 1663 4331 
L 1119 4331 
L 2284 2444 
L 3450 4331 
L 2925 4331 
L 2925 4666 
L 4281 4666 
L 4281 4331 
L 3841 4331 
L 2438 2069 
L 2438 331 
L 3034 331 
L 3034 0 
L 1209 0 
z
" transform="scale(0.015625)"/>
      <path id="DejaVuSerif-54" d="M 1222 0 
L 1222 331 
L 1819 331 
L 1819 4294 
L 447 4294 
L 447 3566 
L 63 3566 
L 63 4666 
L 4206 4666 
L 4206 3566 
L 3822 3566 
L 3822 4294 
L 2450 4294 
L 2450 331 
L 3047 331 
L 3047 0 
L 1222 0 
z
" transform="scale(0.015625)"/>
      <path id="DejaVuSerif-45" d="M 353 0 
L 353 331 
L 947 331 
L 947 4331 
L 353 4331 
L 353 4666 
L 4109 4666 
L 4109 3628 
L 3725 3628 
L 3725 4281 
L 1581 4281 
L 1581 2719 
L 3109 2719 
L 3109 3303 
L 3494 3303 
L 3494 1753 
L 3109 1753 
L 3109 2338 
L 1581 2338 
L 1581 384 
L 3775 384 
L 3775 1038 
L 4159 1038 
L 4159 0 
L 353 0 
z
" transform="scale(0.015625)"/>
     </defs>
     <use xlink:href="#DejaVuSerif-42"/>
     <use xlink:href="#DejaVuSerif-59" transform="translate(71.736328 0)"/>
     <use xlink:href="#DejaVuSerif-54" transform="translate(137.751953 0)"/>
     <use xlink:href="#DejaVuSerif-45" transform="translate(204.451172 0)"/>
    </g>
   </g>
  </g>
 </g>
 <defs>
  <clipPath id="pd682d5580c">
   <rect x="58.224375" y="77.837813" width="669.6" height="498.96"/>
  </clipPath>
  <clipPath id="p557837ad5a">
   <rect x="460.464375" y="110.837812" width="234.36" height="174.636"/>
  </clipPath>
 </defs>
</svg>
