<?xml version="1.0" encoding="utf-8" standalone="no"?>
<!DOCTYPE svg PUBLIC "-//W3C//DTD SVG 1.1//EN"
  "http://www.w3.org/Graphics/SVG/1.1/DTD/svg11.dtd">
<svg xmlns:xlink="http://www.w3.org/1999/xlink" width="720pt" height="504pt" viewBox="0 0 720 504" xmlns="http://www.w3.org/2000/svg" version="1.1">
 <metadata>
  <rdf:RDF xmlns:dc="http://purl.org/dc/elements/1.1/" xmlns:cc="http://creativecommons.org/ns#" xmlns:rdf="http://www.w3.org/1999/02/22-rdf-syntax-ns#">
   <cc:Work>
    <dc:type rdf:resource="http://purl.org/dc/dcmitype/StillImage"/>
    <dc:date>2026-05-13T22:49:30.201092</dc:date>
    <dc:format>image/svg+xml</dc:format>
    <dc:creator>
     <cc:Agent>
      <dc:title>Matplotlib v3.10.6, https://matplotlib.org/</dc:title>
     </cc:Agent>
    </dc:creator>
   </cc:Work>
  </rdf:RDF>
 </metadata>
 <defs>
  <style type="text/css">*{stroke-linejoin: round; stroke-linecap: butt}</style>
 </defs>
 <g id="figure_1">
  <g id="patch_1">
   <path d="M 0 504 
L 720 504 
L 720 0 
L 0 0 
z
" style="fill: #ffffff"/>
  </g>
  <g id="axes_1">
   <g id="patch_2">
    <path d="M 58.61625 449.88375 
L 707.04 449.88375 
L 707.04 58.016 
L 58.61625 58.016 
z
" style="fill: #ffffff"/>
   </g>
   <g id="matplotlib.axis_1">
    <g id="xtick_1">
     <g id="line2d_1">
      <path d="M 133.241816 449.88375 
L 133.241816 58.016 
" clip-path="url(#p5b782045a8)" style="fill: none; stroke: #cccccc; stroke-linecap: round"/>
     </g>
     <g id="text_1">
      <!-- $\mathdefault{0.6}$ -->
      <g style="fill: #262626" transform="translate(125.541816 467.257344) scale(0.11 -0.11)">
       <defs>
        <path id="ArialMT-30" d="M 266 2259 
Q 266 3072 433 3567 
Q 600 4063 929 4331 
Q 1259 4600 1759 4600 
Q 2128 4600 2406 4451 
Q 2684 4303 2865 4023 
Q 3047 3744 3150 3342 
Q 3253 2941 3253 2259 
Q 3253 1453 3087 958 
Q 2922 463 2592 192 
Q 2263 -78 1759 -78 
Q 1097 -78 719 397 
Q 266 969 266 2259 
z
M 844 2259 
Q 844 1131 1108 757 
Q 1372 384 1759 384 
Q 2147 384 2411 759 
Q 2675 1134 2675 2259 
Q 2675 3391 2411 3762 
Q 2147 4134 1753 4134 
Q 1366 4134 1134 3806 
Q 844 3388 844 2259 
z
" transform="scale(0.015625)"/>
        <path id="ArialMT-2e" d="M 581 0 
L 581 641 
L 1222 641 
L 1222 0 
L 581 0 
z
" transform="scale(0.015625)"/>
        <path id="ArialMT-36" d="M 3184 3459 
L 2625 3416 
Q 2550 3747 2413 3897 
Q 2184 4138 1850 4138 
Q 1581 4138 1378 3988 
Q 1113 3794 959 3422 
Q 806 3050 800 2363 
Q 1003 2672 1297 2822 
Q 1591 2972 1913 2972 
Q 2475 2972 2870 2558 
Q 3266 2144 3266 1488 
Q 3266 1056 3080 686 
Q 2894 316 2569 119 
Q 2244 -78 1831 -78 
Q 1128 -78 684 439 
Q 241 956 241 2144 
Q 241 3472 731 4075 
Q 1159 4600 1884 4600 
Q 2425 4600 2770 4297 
Q 3116 3994 3184 3459 
z
M 888 1484 
Q 888 1194 1011 928 
Q 1134 663 1356 523 
Q 1578 384 1822 384 
Q 2178 384 2434 671 
Q 2691 959 2691 1453 
Q 2691 1928 2437 2201 
Q 2184 2475 1800 2475 
Q 1419 2475 1153 2201 
Q 888 1928 888 1484 
z
" transform="scale(0.015625)"/>
       </defs>
       <use xlink:href="#ArialMT-30" transform="translate(0 0.125)"/>
       <use xlink:href="#ArialMT-2e" transform="translate(55.615234 0.125)"/>
       <use xlink:href="#ArialMT-36" transform="translate(83.398438 0.125)"/>
      </g>
     </g>
    </g>
    <g id="xtick_2">
     <g id="line2d_2">
      <path d="M 237.291531 449.88375 
L 237.291531 58.016 
" clip-path="url(#p5b782045a8)" style="fill: none; stroke: #cccccc; stroke-linecap: round"/>
     </g>
     <g id="text_2">
      <!-- $\mathdefault{0.8}$ -->
      <g style="fill: #262626" transform="translate(229.591531 467.257344) scale(0.11 -0.11)">
       <defs>
        <path id="ArialMT-38" d="M 1131 2484 
Q 781 2613 612 2850 
Q 444 3088 444 3419 
Q 444 3919 803 4259 
Q 1163 4600 1759 4600 
Q 2359 4600 2725 4251 
Q 3091 3903 3091 3403 
Q 3091 3084 2923 2848 
Q 2756 2613 2416 2484 
Q 2838 2347 3058 2040 
Q 3278 1734 3278 1309 
Q 3278 722 2862 322 
Q 2447 -78 1769 -78 
Q 1091 -78 675 323 
Q 259 725 259 1325 
Q 259 1772 486 2073 
Q 713 2375 1131 2484 
z
M 1019 3438 
Q 1019 3113 1228 2906 
Q 1438 2700 1772 2700 
Q 2097 2700 2305 2904 
Q 2513 3109 2513 3406 
Q 2513 3716 2298 3927 
Q 2084 4138 1766 4138 
Q 1444 4138 1231 3931 
Q 1019 3725 1019 3438 
z
M 838 1322 
Q 838 1081 952 856 
Q 1066 631 1291 507 
Q 1516 384 1775 384 
Q 2178 384 2440 643 
Q 2703 903 2703 1303 
Q 2703 1709 2433 1975 
Q 2163 2241 1756 2241 
Q 1359 2241 1098 1978 
Q 838 1716 838 1322 
z
" transform="scale(0.015625)"/>
       </defs>
       <use xlink:href="#ArialMT-30" transform="translate(0 0.125)"/>
       <use xlink:href="#ArialMT-2e" transform="translate(55.615234 0.125)"/>
       <use xlink:href="#ArialMT-38" transform="translate(83.398438 0.125)"/>
      </g>
     </g>
    </g>
    <g id="xtick_3">
     <g id="line2d_3">
      <path d="M 341.341246 449.88375 
L 341.341246 58.016 
" clip-path="url(#p5b782045a8)" style="fill: none; stroke: #cccccc; stroke-linecap: round"/>
     </g>
     <g id="text_3">
      <!-- $\mathdefault{1.0}$ -->
      <g style="fill: #262626" transform="translate(333.641246 467.257344) scale(0.11 -0.11)">
       <defs>
        <path id="ArialMT-31" d="M 2384 0 
L 1822 0 
L 1822 3584 
Q 1619 3391 1289 3197 
Q 959 3003 697 2906 
L 697 3450 
Q 1169 3672 1522 3987 
Q 1875 4303 2022 4600 
L 2384 4600 
L 2384 0 
z
" transform="scale(0.015625)"/>
       </defs>
       <use xlink:href="#ArialMT-31" transform="translate(0 0.125)"/>
       <use xlink:href="#ArialMT-2e" transform="translate(55.615234 0.125)"/>
       <use xlink:href="#ArialMT-30" transform="translate(83.398438 0.125)"/>
      </g>
     </g>
    </g>
    <g id="xtick_4">
     <g id="line2d_4">
      <path d="M 445.390961 449.88375 
L 445.390961 58.016 
" clip-path="url(#p5b782045a8)" style="fill: none; stroke: #cccccc; stroke-linecap: round"/>
     </g>
     <g id="text_4">
      <!-- $\mathdefault{1.2}$ -->
      <g style="fill: #262626" transform="translate(437.690961 467.257344) scale(0.11 -0.11)">
       <defs>
        <path id="ArialMT-32" d="M 3222 541 
L 3222 0 
L 194 0 
Q 188 203 259 391 
Q 375 700 629 1000 
Q 884 1300 1366 1694 
Q 2113 2306 2375 2664 
Q 2638 3022 2638 3341 
Q 2638 3675 2398 3904 
Q 2159 4134 1775 4134 
Q 1369 4134 1125 3890 
Q 881 3647 878 3216 
L 300 3275 
Q 359 3922 746 4261 
Q 1134 4600 1788 4600 
Q 2447 4600 2831 4234 
Q 3216 3869 3216 3328 
Q 3216 3053 3103 2787 
Q 2991 2522 2730 2228 
Q 2469 1934 1863 1422 
Q 1356 997 1212 845 
Q 1069 694 975 541 
L 3222 541 
z
" transform="scale(0.015625)"/>
       </defs>
       <use xlink:href="#ArialMT-31" transform="translate(0 0.125)"/>
       <use xlink:href="#ArialMT-2e" transform="translate(55.615234 0.125)"/>
       <use xlink:href="#ArialMT-32" transform="translate(83.398438 0.125)"/>
      </g>
     </g>
    </g>
    <g id="xtick_5">
     <g id="line2d_5">
      <path d="M 549.440676 449.88375 
L 549.440676 58.016 
" clip-path="url(#p5b782045a8)" style="fill: none; stroke: #cccccc; stroke-linecap: round"/>
     </g>
     <g id="text_5">
      <!-- $\mathdefault{1.4}$ -->
      <g style="fill: #262626" transform="translate(541.740676 467.257344) scale(0.11 -0.11)">
       <defs>
        <path id="ArialMT-34" d="M 2069 0 
L 2069 1097 
L 81 1097 
L 81 1613 
L 2172 4581 
L 2631 4581 
L 2631 1613 
L 3250 1613 
L 3250 1097 
L 2631 1097 
L 2631 0 
L 2069 0 
z
M 2069 1613 
L 2069 3678 
L 634 1613 
L 2069 1613 
z
" transform="scale(0.015625)"/>
       </defs>
       <use xlink:href="#ArialMT-31" transform="translate(0 0.125)"/>
       <use xlink:href="#ArialMT-2e" transform="translate(55.615234 0.125)"/>
       <use xlink:href="#ArialMT-34" transform="translate(83.398438 0.125)"/>
      </g>
     </g>
    </g>
    <g id="xtick_6">
     <g id="line2d_6">
      <path d="M 653.490391 449.88375 
L 653.490391 58.016 
" clip-path="url(#p5b782045a8)" style="fill: none; stroke: #cccccc; stroke-linecap: round"/>
     </g>
     <g id="text_6">
      <!-- $\mathdefault{1.6}$ -->
      <g style="fill: #262626" transform="translate(645.790391 467.257344) scale(0.11 -0.11)">
       <use xlink:href="#ArialMT-31" transform="translate(0 0.125)"/>
       <use xlink:href="#ArialMT-2e" transform="translate(55.615234 0.125)"/>
       <use xlink:href="#ArialMT-36" transform="translate(83.398438 0.125)"/>
      </g>
     </g>
    </g>
    <g id="text_7">
     <!-- Energy Efficiency (mJ/Byte) -->
     <g style="fill: #262626" transform="translate(309.248437 488.179219) scale(0.12 -0.12)">
      <defs>
       <path id="ArialMT-45" d="M 506 0 
L 506 4581 
L 3819 4581 
L 3819 4041 
L 1113 4041 
L 1113 2638 
L 3647 2638 
L 3647 2100 
L 1113 2100 
L 1113 541 
L 3925 541 
L 3925 0 
L 506 0 
z
" transform="scale(0.015625)"/>
       <path id="ArialMT-6e" d="M 422 0 
L 422 3319 
L 928 3319 
L 928 2847 
Q 1294 3394 1984 3394 
Q 2284 3394 2536 3286 
Q 2788 3178 2913 3003 
Q 3038 2828 3088 2588 
Q 3119 2431 3119 2041 
L 3119 0 
L 2556 0 
L 2556 2019 
Q 2556 2363 2490 2533 
Q 2425 2703 2258 2804 
Q 2091 2906 1866 2906 
Q 1506 2906 1245 2678 
Q 984 2450 984 1813 
L 984 0 
L 422 0 
z
" transform="scale(0.015625)"/>
       <path id="ArialMT-65" d="M 2694 1069 
L 3275 997 
Q 3138 488 2766 206 
Q 2394 -75 1816 -75 
Q 1088 -75 661 373 
Q 234 822 234 1631 
Q 234 2469 665 2931 
Q 1097 3394 1784 3394 
Q 2450 3394 2872 2941 
Q 3294 2488 3294 1666 
Q 3294 1616 3291 1516 
L 816 1516 
Q 847 969 1125 678 
Q 1403 388 1819 388 
Q 2128 388 2347 550 
Q 2566 713 2694 1069 
z
M 847 1978 
L 2700 1978 
Q 2663 2397 2488 2606 
Q 2219 2931 1791 2931 
Q 1403 2931 1139 2672 
Q 875 2413 847 1978 
z
" transform="scale(0.015625)"/>
       <path id="ArialMT-72" d="M 416 0 
L 416 3319 
L 922 3319 
L 922 2816 
Q 1116 3169 1280 3281 
Q 1444 3394 1641 3394 
Q 1925 3394 2219 3213 
L 2025 2691 
Q 1819 2813 1613 2813 
Q 1428 2813 1281 2702 
Q 1134 2591 1072 2394 
Q 978 2094 978 1738 
L 978 0 
L 416 0 
z
" transform="scale(0.015625)"/>
       <path id="ArialMT-67" d="M 319 -275 
L 866 -356 
Q 900 -609 1056 -725 
Q 1266 -881 1628 -881 
Q 2019 -881 2231 -725 
Q 2444 -569 2519 -288 
Q 2563 -116 2559 434 
Q 2191 0 1641 0 
Q 956 0 581 494 
Q 206 988 206 1678 
Q 206 2153 378 2554 
Q 550 2956 876 3175 
Q 1203 3394 1644 3394 
Q 2231 3394 2613 2919 
L 2613 3319 
L 3131 3319 
L 3131 450 
Q 3131 -325 2973 -648 
Q 2816 -972 2473 -1159 
Q 2131 -1347 1631 -1347 
Q 1038 -1347 672 -1080 
Q 306 -813 319 -275 
z
M 784 1719 
Q 784 1066 1043 766 
Q 1303 466 1694 466 
Q 2081 466 2343 764 
Q 2606 1063 2606 1700 
Q 2606 2309 2336 2618 
Q 2066 2928 1684 2928 
Q 1309 2928 1046 2623 
Q 784 2319 784 1719 
z
" transform="scale(0.015625)"/>
       <path id="ArialMT-79" d="M 397 -1278 
L 334 -750 
Q 519 -800 656 -800 
Q 844 -800 956 -737 
Q 1069 -675 1141 -563 
Q 1194 -478 1313 -144 
Q 1328 -97 1363 -6 
L 103 3319 
L 709 3319 
L 1400 1397 
Q 1534 1031 1641 628 
Q 1738 1016 1872 1384 
L 2581 3319 
L 3144 3319 
L 1881 -56 
Q 1678 -603 1566 -809 
Q 1416 -1088 1222 -1217 
Q 1028 -1347 759 -1347 
Q 597 -1347 397 -1278 
z
" transform="scale(0.015625)"/>
       <path id="ArialMT-20" transform="scale(0.015625)"/>
       <path id="ArialMT-66" d="M 556 0 
L 556 2881 
L 59 2881 
L 59 3319 
L 556 3319 
L 556 3672 
Q 556 4006 616 4169 
Q 697 4388 901 4523 
Q 1106 4659 1475 4659 
Q 1713 4659 2000 4603 
L 1916 4113 
Q 1741 4144 1584 4144 
Q 1328 4144 1222 4034 
Q 1116 3925 1116 3625 
L 1116 3319 
L 1763 3319 
L 1763 2881 
L 1116 2881 
L 1116 0 
L 556 0 
z
" transform="scale(0.015625)"/>
       <path id="ArialMT-69" d="M 425 3934 
L 425 4581 
L 988 4581 
L 988 3934 
L 425 3934 
z
M 425 0 
L 425 3319 
L 988 3319 
L 988 0 
L 425 0 
z
" transform="scale(0.015625)"/>
       <path id="ArialMT-63" d="M 2588 1216 
L 3141 1144 
Q 3050 572 2676 248 
Q 2303 -75 1759 -75 
Q 1078 -75 664 370 
Q 250 816 250 1647 
Q 250 2184 428 2587 
Q 606 2991 970 3192 
Q 1334 3394 1763 3394 
Q 2303 3394 2647 3120 
Q 2991 2847 3088 2344 
L 2541 2259 
Q 2463 2594 2264 2762 
Q 2066 2931 1784 2931 
Q 1359 2931 1093 2626 
Q 828 2322 828 1663 
Q 828 994 1084 691 
Q 1341 388 1753 388 
Q 2084 388 2306 591 
Q 2528 794 2588 1216 
z
" transform="scale(0.015625)"/>
       <path id="ArialMT-28" d="M 1497 -1347 
Q 1031 -759 709 28 
Q 388 816 388 1659 
Q 388 2403 628 3084 
Q 909 3875 1497 4659 
L 1900 4659 
Q 1522 4009 1400 3731 
Q 1209 3300 1100 2831 
Q 966 2247 966 1656 
Q 966 153 1900 -1347 
L 1497 -1347 
z
" transform="scale(0.015625)"/>
       <path id="ArialMT-6d" d="M 422 0 
L 422 3319 
L 925 3319 
L 925 2853 
Q 1081 3097 1340 3245 
Q 1600 3394 1931 3394 
Q 2300 3394 2536 3241 
Q 2772 3088 2869 2813 
Q 3263 3394 3894 3394 
Q 4388 3394 4653 3120 
Q 4919 2847 4919 2278 
L 4919 0 
L 4359 0 
L 4359 2091 
Q 4359 2428 4304 2576 
Q 4250 2725 4106 2815 
Q 3963 2906 3769 2906 
Q 3419 2906 3187 2673 
Q 2956 2441 2956 1928 
L 2956 0 
L 2394 0 
L 2394 2156 
Q 2394 2531 2256 2718 
Q 2119 2906 1806 2906 
Q 1569 2906 1367 2781 
Q 1166 2656 1075 2415 
Q 984 2175 984 1722 
L 984 0 
L 422 0 
z
" transform="scale(0.015625)"/>
       <path id="ArialMT-4a" d="M 184 1300 
L 731 1375 
Q 753 850 928 656 
Q 1103 463 1413 463 
Q 1641 463 1806 567 
Q 1972 672 2034 851 
Q 2097 1031 2097 1425 
L 2097 4581 
L 2703 4581 
L 2703 1459 
Q 2703 884 2564 568 
Q 2425 253 2123 87 
Q 1822 -78 1416 -78 
Q 813 -78 492 269 
Q 172 616 184 1300 
z
" transform="scale(0.015625)"/>
       <path id="ArialMT-2f" d="M 0 -78 
L 1328 4659 
L 1778 4659 
L 453 -78 
L 0 -78 
z
" transform="scale(0.015625)"/>
       <path id="ArialMT-42" d="M 469 0 
L 469 4581 
L 2188 4581 
Q 2713 4581 3030 4442 
Q 3347 4303 3526 4014 
Q 3706 3725 3706 3409 
Q 3706 3116 3547 2856 
Q 3388 2597 3066 2438 
Q 3481 2316 3704 2022 
Q 3928 1728 3928 1328 
Q 3928 1006 3792 729 
Q 3656 453 3456 303 
Q 3256 153 2954 76 
Q 2653 0 2216 0 
L 469 0 
z
M 1075 2656 
L 2066 2656 
Q 2469 2656 2644 2709 
Q 2875 2778 2992 2937 
Q 3109 3097 3109 3338 
Q 3109 3566 3000 3739 
Q 2891 3913 2687 3977 
Q 2484 4041 1991 4041 
L 1075 4041 
L 1075 2656 
z
M 1075 541 
L 2216 541 
Q 2509 541 2628 563 
Q 2838 600 2978 687 
Q 3119 775 3209 942 
Q 3300 1109 3300 1328 
Q 3300 1584 3169 1773 
Q 3038 1963 2805 2039 
Q 2572 2116 2134 2116 
L 1075 2116 
L 1075 541 
z
" transform="scale(0.015625)"/>
       <path id="ArialMT-74" d="M 1650 503 
L 1731 6 
Q 1494 -44 1306 -44 
Q 1000 -44 831 53 
Q 663 150 594 308 
Q 525 466 525 972 
L 525 2881 
L 113 2881 
L 113 3319 
L 525 3319 
L 525 4141 
L 1084 4478 
L 1084 3319 
L 1650 3319 
L 1650 2881 
L 1084 2881 
L 1084 941 
Q 1084 700 1114 631 
Q 1144 563 1211 522 
Q 1278 481 1403 481 
Q 1497 481 1650 503 
z
" transform="scale(0.015625)"/>
       <path id="ArialMT-29" d="M 791 -1347 
L 388 -1347 
Q 1322 153 1322 1656 
Q 1322 2244 1188 2822 
Q 1081 3291 891 3722 
Q 769 4003 388 4659 
L 791 4659 
Q 1378 3875 1659 3084 
Q 1900 2403 1900 1659 
Q 1900 816 1576 28 
Q 1253 -759 791 -1347 
z
" transform="scale(0.015625)"/>
      </defs>
      <use xlink:href="#ArialMT-45"/>
      <use xlink:href="#ArialMT-6e" transform="translate(66.699219 0)"/>
      <use xlink:href="#ArialMT-65" transform="translate(122.314453 0)"/>
      <use xlink:href="#ArialMT-72" transform="translate(177.929688 0)"/>
      <use xlink:href="#ArialMT-67" transform="translate(211.230469 0)"/>
      <use xlink:href="#ArialMT-79" transform="translate(266.845703 0)"/>
      <use xlink:href="#ArialMT-20" transform="translate(316.845703 0)"/>
      <use xlink:href="#ArialMT-45" transform="translate(344.628906 0)"/>
      <use xlink:href="#ArialMT-66" transform="translate(411.328125 0)"/>
      <use xlink:href="#ArialMT-66" transform="translate(437.361328 0)"/>
      <use xlink:href="#ArialMT-69" transform="translate(465.144531 0)"/>
      <use xlink:href="#ArialMT-63" transform="translate(487.361328 0)"/>
      <use xlink:href="#ArialMT-69" transform="translate(537.361328 0)"/>
      <use xlink:href="#ArialMT-65" transform="translate(559.578125 0)"/>
      <use xlink:href="#ArialMT-6e" transform="translate(615.193359 0)"/>
      <use xlink:href="#ArialMT-63" transform="translate(670.808594 0)"/>
      <use xlink:href="#ArialMT-79" transform="translate(720.808594 0)"/>
      <use xlink:href="#ArialMT-20" transform="translate(770.808594 0)"/>
      <use xlink:href="#ArialMT-28" transform="translate(798.591797 0)"/>
      <use xlink:href="#ArialMT-6d" transform="translate(831.892578 0)"/>
      <use xlink:href="#ArialMT-4a" transform="translate(915.193359 0)"/>
      <use xlink:href="#ArialMT-2f" transform="translate(965.193359 0)"/>
      <use xlink:href="#ArialMT-42" transform="translate(992.976562 0)"/>
      <use xlink:href="#ArialMT-79" transform="translate(1059.675781 0)"/>
      <use xlink:href="#ArialMT-74" transform="translate(1109.675781 0)"/>
      <use xlink:href="#ArialMT-65" transform="translate(1137.458984 0)"/>
      <use xlink:href="#ArialMT-29" transform="translate(1193.074219 0)"/>
     </g>
    </g>
   </g>
   <g id="matplotlib.axis_2">
    <g id="ytick_1">
     <g id="line2d_7">
      <path d="M 58.61625 449.88375 
L 707.04 449.88375 
" clip-path="url(#p5b782045a8)" style="fill: none; stroke: #cccccc; stroke-linecap: round"/>
     </g>
     <g id="text_8">
      <!-- 0.0 -->
      <g style="fill: #262626" transform="translate(33.82625 453.820547) scale(0.11 -0.11)">
       <use xlink:href="#ArialMT-30"/>
       <use xlink:href="#ArialMT-2e" transform="translate(55.615234 0)"/>
       <use xlink:href="#ArialMT-30" transform="translate(83.398438 0)"/>
      </g>
     </g>
    </g>
    <g id="ytick_2">
     <g id="line2d_8">
      <path d="M 58.61625 363.75897 
L 707.04 363.75897 
" clip-path="url(#p5b782045a8)" style="fill: none; stroke: #cccccc; stroke-linecap: round"/>
     </g>
     <g id="text_9">
      <!-- 0.1 -->
      <g style="fill: #262626" transform="translate(33.82625 367.695767) scale(0.11 -0.11)">
       <use xlink:href="#ArialMT-30"/>
       <use xlink:href="#ArialMT-2e" transform="translate(55.615234 0)"/>
       <use xlink:href="#ArialMT-31" transform="translate(83.398438 0)"/>
      </g>
     </g>
    </g>
    <g id="ytick_3">
     <g id="line2d_9">
      <path d="M 58.61625 277.63419 
L 707.04 277.63419 
" clip-path="url(#p5b782045a8)" style="fill: none; stroke: #cccccc; stroke-linecap: round"/>
     </g>
     <g id="text_10">
      <!-- 0.2 -->
      <g style="fill: #262626" transform="translate(33.82625 281.570986) scale(0.11 -0.11)">
       <use xlink:href="#ArialMT-30"/>
       <use xlink:href="#ArialMT-2e" transform="translate(55.615234 0)"/>
       <use xlink:href="#ArialMT-32" transform="translate(83.398438 0)"/>
      </g>
     </g>
    </g>
    <g id="ytick_4">
     <g id="line2d_10">
      <path d="M 58.61625 191.509409 
L 707.04 191.509409 
" clip-path="url(#p5b782045a8)" style="fill: none; stroke: #cccccc; stroke-linecap: round"/>
     </g>
     <g id="text_11">
      <!-- 0.3 -->
      <g style="fill: #262626" transform="translate(33.82625 195.446206) scale(0.11 -0.11)">
       <defs>
        <path id="ArialMT-33" d="M 269 1209 
L 831 1284 
Q 928 806 1161 595 
Q 1394 384 1728 384 
Q 2125 384 2398 659 
Q 2672 934 2672 1341 
Q 2672 1728 2419 1979 
Q 2166 2231 1775 2231 
Q 1616 2231 1378 2169 
L 1441 2663 
Q 1497 2656 1531 2656 
Q 1891 2656 2178 2843 
Q 2466 3031 2466 3422 
Q 2466 3731 2256 3934 
Q 2047 4138 1716 4138 
Q 1388 4138 1169 3931 
Q 950 3725 888 3313 
L 325 3413 
Q 428 3978 793 4289 
Q 1159 4600 1703 4600 
Q 2078 4600 2393 4439 
Q 2709 4278 2876 4000 
Q 3044 3722 3044 3409 
Q 3044 3113 2884 2869 
Q 2725 2625 2413 2481 
Q 2819 2388 3044 2092 
Q 3269 1797 3269 1353 
Q 3269 753 2831 336 
Q 2394 -81 1725 -81 
Q 1122 -81 723 278 
Q 325 638 269 1209 
z
" transform="scale(0.015625)"/>
       </defs>
       <use xlink:href="#ArialMT-30"/>
       <use xlink:href="#ArialMT-2e" transform="translate(55.615234 0)"/>
       <use xlink:href="#ArialMT-33" transform="translate(83.398438 0)"/>
      </g>
     </g>
    </g>
    <g id="ytick_5">
     <g id="line2d_11">
      <path d="M 58.61625 105.384629 
L 707.04 105.384629 
" clip-path="url(#p5b782045a8)" style="fill: none; stroke: #cccccc; stroke-linecap: round"/>
     </g>
     <g id="text_12">
      <!-- 0.4 -->
      <g style="fill: #262626" transform="translate(33.82625 109.321426) scale(0.11 -0.11)">
       <use xlink:href="#ArialMT-30"/>
       <use xlink:href="#ArialMT-2e" transform="translate(55.615234 0)"/>
       <use xlink:href="#ArialMT-34" transform="translate(83.398438 0)"/>
      </g>
     </g>
    </g>
    <g id="text_13">
     <!-- Probability Distribution -->
     <g style="fill: #262626" transform="translate(21.300625 313.639562) rotate(-90) scale(0.12 -0.12)">
      <defs>
       <path id="ArialMT-50" d="M 494 0 
L 494 4581 
L 2222 4581 
Q 2678 4581 2919 4538 
Q 3256 4481 3484 4323 
Q 3713 4166 3852 3881 
Q 3991 3597 3991 3256 
Q 3991 2672 3619 2267 
Q 3247 1863 2275 1863 
L 1100 1863 
L 1100 0 
L 494 0 
z
M 1100 2403 
L 2284 2403 
Q 2872 2403 3119 2622 
Q 3366 2841 3366 3238 
Q 3366 3525 3220 3729 
Q 3075 3934 2838 4000 
Q 2684 4041 2272 4041 
L 1100 4041 
L 1100 2403 
z
" transform="scale(0.015625)"/>
       <path id="ArialMT-6f" d="M 213 1659 
Q 213 2581 725 3025 
Q 1153 3394 1769 3394 
Q 2453 3394 2887 2945 
Q 3322 2497 3322 1706 
Q 3322 1066 3130 698 
Q 2938 331 2570 128 
Q 2203 -75 1769 -75 
Q 1072 -75 642 372 
Q 213 819 213 1659 
z
M 791 1659 
Q 791 1022 1069 705 
Q 1347 388 1769 388 
Q 2188 388 2466 706 
Q 2744 1025 2744 1678 
Q 2744 2294 2464 2611 
Q 2184 2928 1769 2928 
Q 1347 2928 1069 2612 
Q 791 2297 791 1659 
z
" transform="scale(0.015625)"/>
       <path id="ArialMT-62" d="M 941 0 
L 419 0 
L 419 4581 
L 981 4581 
L 981 2947 
Q 1338 3394 1891 3394 
Q 2197 3394 2470 3270 
Q 2744 3147 2920 2923 
Q 3097 2700 3197 2384 
Q 3297 2069 3297 1709 
Q 3297 856 2875 390 
Q 2453 -75 1863 -75 
Q 1275 -75 941 416 
L 941 0 
z
M 934 1684 
Q 934 1088 1097 822 
Q 1363 388 1816 388 
Q 2184 388 2453 708 
Q 2722 1028 2722 1663 
Q 2722 2313 2464 2622 
Q 2206 2931 1841 2931 
Q 1472 2931 1203 2611 
Q 934 2291 934 1684 
z
" transform="scale(0.015625)"/>
       <path id="ArialMT-61" d="M 2588 409 
Q 2275 144 1986 34 
Q 1697 -75 1366 -75 
Q 819 -75 525 192 
Q 231 459 231 875 
Q 231 1119 342 1320 
Q 453 1522 633 1644 
Q 813 1766 1038 1828 
Q 1203 1872 1538 1913 
Q 2219 1994 2541 2106 
Q 2544 2222 2544 2253 
Q 2544 2597 2384 2738 
Q 2169 2928 1744 2928 
Q 1347 2928 1158 2789 
Q 969 2650 878 2297 
L 328 2372 
Q 403 2725 575 2942 
Q 747 3159 1072 3276 
Q 1397 3394 1825 3394 
Q 2250 3394 2515 3294 
Q 2781 3194 2906 3042 
Q 3031 2891 3081 2659 
Q 3109 2516 3109 2141 
L 3109 1391 
Q 3109 606 3145 398 
Q 3181 191 3288 0 
L 2700 0 
Q 2613 175 2588 409 
z
M 2541 1666 
Q 2234 1541 1622 1453 
Q 1275 1403 1131 1340 
Q 988 1278 909 1158 
Q 831 1038 831 891 
Q 831 666 1001 516 
Q 1172 366 1500 366 
Q 1825 366 2078 508 
Q 2331 650 2450 897 
Q 2541 1088 2541 1459 
L 2541 1666 
z
" transform="scale(0.015625)"/>
       <path id="ArialMT-6c" d="M 409 0 
L 409 4581 
L 972 4581 
L 972 0 
L 409 0 
z
" transform="scale(0.015625)"/>
       <path id="ArialMT-44" d="M 494 0 
L 494 4581 
L 2072 4581 
Q 2606 4581 2888 4516 
Q 3281 4425 3559 4188 
Q 3922 3881 4101 3404 
Q 4281 2928 4281 2316 
Q 4281 1794 4159 1391 
Q 4038 988 3847 723 
Q 3656 459 3429 307 
Q 3203 156 2883 78 
Q 2563 0 2147 0 
L 494 0 
z
M 1100 541 
L 2078 541 
Q 2531 541 2789 625 
Q 3047 709 3200 863 
Q 3416 1078 3536 1442 
Q 3656 1806 3656 2325 
Q 3656 3044 3420 3430 
Q 3184 3816 2847 3947 
Q 2603 4041 2063 4041 
L 1100 4041 
L 1100 541 
z
" transform="scale(0.015625)"/>
       <path id="ArialMT-73" d="M 197 991 
L 753 1078 
Q 800 744 1014 566 
Q 1228 388 1613 388 
Q 2000 388 2187 545 
Q 2375 703 2375 916 
Q 2375 1106 2209 1216 
Q 2094 1291 1634 1406 
Q 1016 1563 777 1677 
Q 538 1791 414 1992 
Q 291 2194 291 2438 
Q 291 2659 392 2848 
Q 494 3038 669 3163 
Q 800 3259 1026 3326 
Q 1253 3394 1513 3394 
Q 1903 3394 2198 3281 
Q 2494 3169 2634 2976 
Q 2775 2784 2828 2463 
L 2278 2388 
Q 2241 2644 2061 2787 
Q 1881 2931 1553 2931 
Q 1166 2931 1000 2803 
Q 834 2675 834 2503 
Q 834 2394 903 2306 
Q 972 2216 1119 2156 
Q 1203 2125 1616 2013 
Q 2213 1853 2448 1751 
Q 2684 1650 2818 1456 
Q 2953 1263 2953 975 
Q 2953 694 2789 445 
Q 2625 197 2315 61 
Q 2006 -75 1616 -75 
Q 969 -75 630 194 
Q 291 463 197 991 
z
" transform="scale(0.015625)"/>
       <path id="ArialMT-75" d="M 2597 0 
L 2597 488 
Q 2209 -75 1544 -75 
Q 1250 -75 995 37 
Q 741 150 617 320 
Q 494 491 444 738 
Q 409 903 409 1263 
L 409 3319 
L 972 3319 
L 972 1478 
Q 972 1038 1006 884 
Q 1059 663 1231 536 
Q 1403 409 1656 409 
Q 1909 409 2131 539 
Q 2353 669 2445 892 
Q 2538 1116 2538 1541 
L 2538 3319 
L 3100 3319 
L 3100 0 
L 2597 0 
z
" transform="scale(0.015625)"/>
      </defs>
      <use xlink:href="#ArialMT-50"/>
      <use xlink:href="#ArialMT-72" transform="translate(66.699219 0)"/>
      <use xlink:href="#ArialMT-6f" transform="translate(100 0)"/>
      <use xlink:href="#ArialMT-62" transform="translate(155.615234 0)"/>
      <use xlink:href="#ArialMT-61" transform="translate(211.230469 0)"/>
      <use xlink:href="#ArialMT-62" transform="translate(266.845703 0)"/>
      <use xlink:href="#ArialMT-69" transform="translate(322.460938 0)"/>
      <use xlink:href="#ArialMT-6c" transform="translate(344.677734 0)"/>
      <use xlink:href="#ArialMT-69" transform="translate(366.894531 0)"/>
      <use xlink:href="#ArialMT-74" transform="translate(389.111328 0)"/>
      <use xlink:href="#ArialMT-79" transform="translate(416.894531 0)"/>
      <use xlink:href="#ArialMT-20" transform="translate(466.894531 0)"/>
      <use xlink:href="#ArialMT-44" transform="translate(494.677734 0)"/>
      <use xlink:href="#ArialMT-69" transform="translate(566.894531 0)"/>
      <use xlink:href="#ArialMT-73" transform="translate(589.111328 0)"/>
      <use xlink:href="#ArialMT-74" transform="translate(639.111328 0)"/>
      <use xlink:href="#ArialMT-72" transform="translate(666.894531 0)"/>
      <use xlink:href="#ArialMT-69" transform="translate(700.195312 0)"/>
      <use xlink:href="#ArialMT-62" transform="translate(722.412109 0)"/>
      <use xlink:href="#ArialMT-75" transform="translate(778.027344 0)"/>
      <use xlink:href="#ArialMT-74" transform="translate(833.642578 0)"/>
      <use xlink:href="#ArialMT-69" transform="translate(861.425781 0)"/>
      <use xlink:href="#ArialMT-6f" transform="translate(883.642578 0)"/>
      <use xlink:href="#ArialMT-6e" transform="translate(939.257812 0)"/>
     </g>
    </g>
   </g>
   <g id="FillBetweenPolyCollection_1">
    <defs>
     <path id="m4f44005e2c" d="M 393.753723 -140.24103 
L 393.753723 -54.11625 
L 434.298361 -54.11625 
L 434.298361 -54.11625 
L 474.843 -54.11625 
L 474.843 -54.11625 
L 515.387639 -54.11625 
L 515.387639 -54.11625 
L 555.932277 -54.11625 
L 555.932277 -54.11625 
L 596.476916 -54.11625 
L 596.476916 -54.11625 
L 637.021555 -54.11625 
L 637.021555 -54.11625 
L 677.566193 -54.11625 
L 677.566193 -54.11625 
L 677.566193 -82.82451 
L 677.566193 -82.82451 
L 677.566193 -82.82451 
L 637.021555 -82.82451 
L 637.021555 -111.53277 
L 596.476916 -111.53277 
L 596.476916 -140.24103 
L 555.932277 -140.24103 
L 555.932277 -111.53277 
L 515.387639 -111.53277 
L 515.387639 -226.36581 
L 474.843 -226.36581 
L 474.843 -427.323631 
L 434.298361 -427.323631 
L 434.298361 -140.24103 
L 393.753723 -140.24103 
z
" style="stroke: #1f77b4; stroke-width: 2.5"/>
    </defs>
    <g clip-path="url(#p5b782045a8)">
     <use xlink:href="#m4f44005e2c" x="0" y="504" style="fill: #1f77b4; fill-opacity: 0.2; stroke: #1f77b4; stroke-width: 2.5"/>
    </g>
   </g>
   <g id="FillBetweenPolyCollection_2">
    <defs>
     <path id="m8f05600485" d="M 88.090057 -140.24103 
L 88.090057 -54.11625 
L 110.82175 -54.11625 
L 110.82175 -54.11625 
L 133.553443 -54.11625 
L 133.553443 -54.11625 
L 156.285135 -54.11625 
L 156.285135 -54.11625 
L 179.016828 -54.11625 
L 179.016828 -54.11625 
L 201.748521 -54.11625 
L 201.748521 -54.11625 
L 224.480214 -54.11625 
L 224.480214 -54.11625 
L 247.211907 -54.11625 
L 247.211907 -54.11625 
L 269.9436 -54.11625 
L 269.9436 -54.11625 
L 269.9436 -82.82451 
L 269.9436 -82.82451 
L 269.9436 -82.82451 
L 247.211907 -82.82451 
L 247.211907 -82.82451 
L 224.480214 -82.82451 
L 224.480214 -54.11625 
L 201.748521 -54.11625 
L 201.748521 -197.65755 
L 179.016828 -197.65755 
L 179.016828 -168.94929 
L 156.285135 -168.94929 
L 156.285135 -369.907111 
L 133.553443 -369.907111 
L 133.553443 -197.65755 
L 110.82175 -197.65755 
L 110.82175 -140.24103 
L 88.090057 -140.24103 
z
" style="stroke: #2ca02c; stroke-width: 2.5"/>
    </defs>
    <g clip-path="url(#p5b782045a8)">
     <use xlink:href="#m8f05600485" x="0" y="504" style="fill: #2ca02c; fill-opacity: 0.2; stroke: #2ca02c; stroke-width: 2.5"/>
    </g>
   </g>
   <g id="FillBetweenPolyCollection_3">
    <defs>
     <path id="m339a41dd14" d="M 125.101528 -341.198851 
L 125.101528 -54.11625 
L 158.764294 -54.11625 
L 158.764294 -54.11625 
L 192.42706 -54.11625 
L 192.42706 -54.11625 
L 226.089826 -54.11625 
L 226.089826 -54.11625 
L 259.752592 -54.11625 
L 259.752592 -54.11625 
L 293.415358 -54.11625 
L 293.415358 -54.11625 
L 327.078124 -54.11625 
L 327.078124 -54.11625 
L 360.74089 -54.11625 
L 360.74089 -54.11625 
L 360.74089 -82.82451 
L 360.74089 -82.82451 
L 360.74089 -82.82451 
L 327.078124 -82.82451 
L 327.078124 -82.82451 
L 293.415358 -82.82451 
L 293.415358 -82.82451 
L 259.752592 -82.82451 
L 259.752592 -54.11625 
L 226.089826 -54.11625 
L 226.089826 -226.36581 
L 192.42706 -226.36581 
L 192.42706 -369.907111 
L 158.764294 -369.907111 
L 158.764294 -341.198851 
L 125.101528 -341.198851 
z
" style="stroke: #d62728; stroke-width: 2.5"/>
    </defs>
    <g clip-path="url(#p5b782045a8)">
     <use xlink:href="#m339a41dd14" x="0" y="504" style="fill: #d62728; fill-opacity: 0.2; stroke: #d62728; stroke-width: 2.5"/>
    </g>
   </g>
   <g id="line2d_12">
    <path d="M 393.753723 364.496826 
L 398.032303 352.924448 
L 402.310883 340.741435 
L 408.015656 323.828579 
L 420.851396 285.44467 
L 425.129976 273.435156 
L 429.408556 262.258093 
L 432.260942 255.394914 
L 435.113329 249.084006 
L 437.965716 243.388503 
L 440.818102 238.3639 
L 443.670489 234.056886 
L 445.096682 232.184423 
L 446.522876 230.504411 
L 447.949069 229.019839 
L 449.375262 227.733014 
L 450.801456 226.645564 
L 452.227649 225.758433 
L 453.653842 225.071885 
L 455.080036 224.585512 
L 456.506229 224.298249 
L 457.932422 224.208386 
L 459.358615 224.313595 
L 460.784809 224.610944 
L 462.211002 225.096935 
L 463.637195 225.767527 
L 465.063389 226.618168 
L 466.489582 227.643835 
L 467.915775 228.839066 
L 469.341969 230.197998 
L 472.194355 233.381747 
L 475.046742 237.141668 
L 477.899129 241.420448 
L 480.751515 246.158112 
L 483.603902 251.293183 
L 487.882482 259.605602 
L 492.161062 268.467033 
L 499.292028 283.925137 
L 509.275382 305.660665 
L 514.980155 317.49608 
L 519.258735 325.884417 
L 523.537315 333.758183 
L 527.815895 341.053269 
L 530.668281 345.57289 
L 533.520668 349.807814 
L 536.373055 353.754217 
L 539.225441 357.412111 
L 542.077828 360.785169 
L 544.930215 363.880488 
L 547.782601 366.708287 
L 550.634988 369.28156 
L 553.487374 371.615675 
L 556.339761 373.727933 
L 559.192148 375.637102 
L 563.470728 378.163447 
L 567.749308 380.345834 
L 572.027888 382.251982 
L 577.732661 384.473903 
L 584.863627 386.924256 
L 613.387494 396.307386 
L 621.944654 399.517032 
L 630.501814 402.982487 
L 639.058974 406.686662 
L 649.042327 411.255647 
L 663.30426 418.073145 
L 677.566193 424.965961 
L 677.566193 424.965961 
" clip-path="url(#p5b782045a8)" style="fill: none; stroke: #1f77b4; stroke-width: 1.5; stroke-linecap: round"/>
   </g>
   <g id="line2d_13">
    <path d="M 88.090057 391.130087 
L 99.969937 371.375807 
L 102.711447 366.338135 
L 105.452958 360.873846 
L 108.194469 354.870249 
L 110.935979 348.237382 
L 113.67749 340.919186 
L 116.419001 332.902634 
L 119.160511 324.224196 
L 122.815859 311.785531 
L 128.29888 292.054766 
L 132.868065 275.804229 
L 135.609576 266.716072 
L 138.351086 258.489308 
L 140.17876 253.627142 
L 142.006434 249.356375 
L 143.834108 245.7484 
L 145.661782 242.864258 
L 146.575618 241.709349 
L 147.489455 240.752546 
L 148.403292 239.997688 
L 149.317129 239.447638 
L 150.230966 239.104251 
L 151.144803 238.968356 
L 152.05864 239.039742 
L 152.972477 239.317158 
L 153.886314 239.798324 
L 154.800151 240.479946 
L 155.713987 241.357752 
L 156.627824 242.426525 
L 158.455498 245.111729 
L 160.283172 248.477186 
L 162.110846 252.453652 
L 163.93852 256.963789 
L 166.68003 264.548947 
L 169.421541 272.867179 
L 173.990725 287.648181 
L 183.129094 317.524898 
L 188.612116 334.567335 
L 194.095137 350.86518 
L 199.578159 366.458259 
L 204.147343 378.765446 
L 207.802691 387.973679 
L 210.544201 394.401944 
L 213.285712 400.350866 
L 216.027223 405.772586 
L 218.768734 410.638312 
L 221.510244 414.940025 
L 224.251755 418.689164 
L 226.993266 421.912977 
L 229.734776 424.64954 
L 232.476287 426.942563 
L 235.217798 428.836947 
L 237.959308 430.37578 
L 240.700819 431.599046 
L 243.44233 432.543934 
L 246.18384 433.246313 
L 248.925351 433.742737 
L 252.580699 434.152327 
L 257.149883 434.405184 
L 265.374415 434.802085 
L 269.029763 435.208674 
L 269.9436 435.346771 
L 269.9436 435.346771 
" clip-path="url(#p5b782045a8)" style="fill: none; stroke: #2ca02c; stroke-width: 1.5; stroke-linecap: round"/>
   </g>
   <g id="line2d_14">
    <path d="M 125.101528 291.384143 
L 132.206233 260.576654 
L 135.758585 245.969419 
L 139.310937 232.29974 
L 141.679172 223.857378 
L 144.047407 216.052833 
L 146.415641 208.96777 
L 148.783876 202.677402 
L 151.152111 197.248698 
L 153.520346 192.73865 
L 154.704463 190.842799 
L 155.888581 189.19265 
L 157.072698 187.791835 
L 158.256815 186.643105 
L 159.440933 185.748305 
L 160.62505 185.108351 
L 161.809168 184.723223 
L 162.993285 184.591958 
L 164.177402 184.712657 
L 165.36152 185.082498 
L 166.545637 185.697754 
L 167.729755 186.553822 
L 168.913872 187.645265 
L 170.097989 188.965851 
L 171.282107 190.508607 
L 172.466224 192.265882 
L 174.834459 196.390356 
L 177.202694 201.267012 
L 179.570928 206.817311 
L 181.939163 212.959016 
L 184.307398 219.608787 
L 187.85975 230.357646 
L 191.412102 241.80625 
L 197.332689 261.836393 
L 215.09445 322.870821 
L 221.015037 342.146531 
L 225.751507 356.76188 
L 229.303859 367.101349 
L 232.856211 376.788348 
L 236.408563 385.715933 
L 238.776798 391.197013 
L 241.145033 396.272259 
L 243.513268 400.921698 
L 245.881503 405.130918 
L 248.249737 408.891728 
L 250.617972 412.202576 
L 252.986207 415.068701 
L 255.354442 417.502038 
L 257.722677 419.520884 
L 260.090911 421.149349 
L 262.459146 422.41664 
L 264.827381 423.356198 
L 267.195616 424.004752 
L 269.56385 424.40131 
L 271.932085 424.586147 
L 275.484437 424.55493 
L 279.03679 424.271368 
L 293.246198 422.826488 
L 296.798551 422.773745 
L 300.350903 422.921689 
L 303.903255 423.271096 
L 307.455607 423.804571 
L 312.192077 424.745693 
L 319.296781 426.439141 
L 328.76972 428.667173 
L 334.690307 429.802055 
L 340.610894 430.695258 
L 350.083833 431.833353 
L 357.188538 432.767275 
L 360.74089 433.35127 
L 360.74089 433.35127 
" clip-path="url(#p5b782045a8)" style="fill: none; stroke: #d62728; stroke-width: 1.5; stroke-linecap: round"/>
   </g>
   <g id="patch_3">
    <path d="M 58.61625 449.88375 
L 58.61625 58.016 
" style="fill: none; stroke: #cccccc; stroke-width: 1.25; stroke-linejoin: miter; stroke-linecap: square"/>
   </g>
   <g id="patch_4">
    <path d="M 707.04 449.88375 
L 707.04 58.016 
" style="fill: none; stroke: #cccccc; stroke-width: 1.25; stroke-linejoin: miter; stroke-linecap: square"/>
   </g>
   <g id="patch_5">
    <path d="M 58.61625 449.88375 
L 707.04 449.88375 
" style="fill: none; stroke: #cccccc; stroke-width: 1.25; stroke-linejoin: miter; stroke-linecap: square"/>
   </g>
   <g id="patch_6">
    <path d="M 58.61625 58.016 
L 707.04 58.016 
" style="fill: none; stroke: #cccccc; stroke-width: 1.25; stroke-linejoin: miter; stroke-linecap: square"/>
   </g>
   <g id="text_14">
    <!-- WIFI Efficiency: 1024 Bytes (N=90) -->
    <g style="fill: #262626" transform="translate(268.654844 22.839562) scale(0.14 -0.14)">
     <defs>
      <path id="Arial-BoldMT-57" d="M 1116 0 
L 22 4581 
L 969 4581 
L 1659 1434 
L 2497 4581 
L 3597 4581 
L 4400 1381 
L 5103 4581 
L 6034 4581 
L 4922 0 
L 3941 0 
L 3028 3425 
L 2119 0 
L 1116 0 
z
" transform="scale(0.015625)"/>
      <path id="Arial-BoldMT-49" d="M 438 0 
L 438 4581 
L 1363 4581 
L 1363 0 
L 438 0 
z
" transform="scale(0.015625)"/>
      <path id="Arial-BoldMT-46" d="M 472 0 
L 472 4581 
L 3613 4581 
L 3613 3806 
L 1397 3806 
L 1397 2722 
L 3309 2722 
L 3309 1947 
L 1397 1947 
L 1397 0 
L 472 0 
z
" transform="scale(0.015625)"/>
      <path id="Arial-BoldMT-20" transform="scale(0.015625)"/>
      <path id="Arial-BoldMT-45" d="M 466 0 
L 466 4581 
L 3863 4581 
L 3863 3806 
L 1391 3806 
L 1391 2791 
L 3691 2791 
L 3691 2019 
L 1391 2019 
L 1391 772 
L 3950 772 
L 3950 0 
L 466 0 
z
" transform="scale(0.015625)"/>
      <path id="Arial-BoldMT-66" d="M 75 3319 
L 563 3319 
L 563 3569 
Q 563 3988 652 4194 
Q 741 4400 980 4529 
Q 1219 4659 1584 4659 
Q 1959 4659 2319 4547 
L 2200 3934 
Q 1991 3984 1797 3984 
Q 1606 3984 1523 3895 
Q 1441 3806 1441 3553 
L 1441 3319 
L 2097 3319 
L 2097 2628 
L 1441 2628 
L 1441 0 
L 563 0 
L 563 2628 
L 75 2628 
L 75 3319 
z
" transform="scale(0.015625)"/>
      <path id="Arial-BoldMT-69" d="M 459 3769 
L 459 4581 
L 1338 4581 
L 1338 3769 
L 459 3769 
z
M 459 0 
L 459 3319 
L 1338 3319 
L 1338 0 
L 459 0 
z
" transform="scale(0.015625)"/>
      <path id="Arial-BoldMT-63" d="M 3353 2338 
L 2488 2181 
Q 2444 2441 2289 2572 
Q 2134 2703 1888 2703 
Q 1559 2703 1364 2476 
Q 1169 2250 1169 1719 
Q 1169 1128 1367 884 
Q 1566 641 1900 641 
Q 2150 641 2309 783 
Q 2469 925 2534 1272 
L 3397 1125 
Q 3263 531 2881 228 
Q 2500 -75 1859 -75 
Q 1131 -75 698 384 
Q 266 844 266 1656 
Q 266 2478 700 2936 
Q 1134 3394 1875 3394 
Q 2481 3394 2839 3133 
Q 3197 2872 3353 2338 
z
" transform="scale(0.015625)"/>
      <path id="Arial-BoldMT-65" d="M 2381 1056 
L 3256 909 
Q 3088 428 2723 176 
Q 2359 -75 1813 -75 
Q 947 -75 531 491 
Q 203 944 203 1634 
Q 203 2459 634 2926 
Q 1066 3394 1725 3394 
Q 2466 3394 2894 2905 
Q 3322 2416 3303 1406 
L 1103 1406 
Q 1113 1016 1316 798 
Q 1519 581 1822 581 
Q 2028 581 2168 693 
Q 2309 806 2381 1056 
z
M 2431 1944 
Q 2422 2325 2234 2523 
Q 2047 2722 1778 2722 
Q 1491 2722 1303 2513 
Q 1116 2303 1119 1944 
L 2431 1944 
z
" transform="scale(0.015625)"/>
      <path id="Arial-BoldMT-6e" d="M 3478 0 
L 2600 0 
L 2600 1694 
Q 2600 2231 2544 2389 
Q 2488 2547 2361 2634 
Q 2234 2722 2056 2722 
Q 1828 2722 1647 2597 
Q 1466 2472 1398 2265 
Q 1331 2059 1331 1503 
L 1331 0 
L 453 0 
L 453 3319 
L 1269 3319 
L 1269 2831 
Q 1703 3394 2363 3394 
Q 2653 3394 2893 3289 
Q 3134 3184 3257 3021 
Q 3381 2859 3429 2653 
Q 3478 2447 3478 2063 
L 3478 0 
z
" transform="scale(0.015625)"/>
      <path id="Arial-BoldMT-79" d="M 44 3319 
L 978 3319 
L 1772 963 
L 2547 3319 
L 3456 3319 
L 2284 125 
L 2075 -453 
Q 1959 -744 1854 -897 
Q 1750 -1050 1614 -1145 
Q 1478 -1241 1279 -1294 
Q 1081 -1347 831 -1347 
Q 578 -1347 334 -1294 
L 256 -606 
Q 463 -647 628 -647 
Q 934 -647 1081 -467 
Q 1228 -288 1306 -9 
L 44 3319 
z
" transform="scale(0.015625)"/>
      <path id="Arial-BoldMT-3a" d="M 628 2441 
L 628 3319 
L 1506 3319 
L 1506 2441 
L 628 2441 
z
M 628 0 
L 628 878 
L 1506 878 
L 1506 0 
L 628 0 
z
" transform="scale(0.015625)"/>
      <path id="Arial-BoldMT-31" d="M 2519 0 
L 1641 0 
L 1641 3309 
Q 1159 2859 506 2644 
L 506 3441 
Q 850 3553 1253 3867 
Q 1656 4181 1806 4600 
L 2519 4600 
L 2519 0 
z
" transform="scale(0.015625)"/>
      <path id="Arial-BoldMT-30" d="M 1756 4600 
Q 2422 4600 2797 4125 
Q 3244 3563 3244 2259 
Q 3244 959 2794 391 
Q 2422 -78 1756 -78 
Q 1088 -78 678 436 
Q 269 950 269 2269 
Q 269 3563 719 4131 
Q 1091 4600 1756 4600 
z
M 1756 3872 
Q 1597 3872 1472 3770 
Q 1347 3669 1278 3406 
Q 1188 3066 1188 2259 
Q 1188 1453 1269 1151 
Q 1350 850 1473 750 
Q 1597 650 1756 650 
Q 1916 650 2041 751 
Q 2166 853 2234 1116 
Q 2325 1453 2325 2259 
Q 2325 3066 2244 3367 
Q 2163 3669 2039 3770 
Q 1916 3872 1756 3872 
z
" transform="scale(0.015625)"/>
      <path id="Arial-BoldMT-32" d="M 3238 816 
L 3238 0 
L 159 0 
Q 209 463 459 877 
Q 709 1291 1447 1975 
Q 2041 2528 2175 2725 
Q 2356 2997 2356 3263 
Q 2356 3556 2198 3714 
Q 2041 3872 1763 3872 
Q 1488 3872 1325 3706 
Q 1163 3541 1138 3156 
L 263 3244 
Q 341 3969 753 4284 
Q 1166 4600 1784 4600 
Q 2463 4600 2850 4234 
Q 3238 3869 3238 3325 
Q 3238 3016 3127 2736 
Q 3016 2456 2775 2150 
Q 2616 1947 2200 1565 
Q 1784 1184 1673 1059 
Q 1563 934 1494 816 
L 3238 816 
z
" transform="scale(0.015625)"/>
      <path id="Arial-BoldMT-34" d="M 1994 0 
L 1994 922 
L 119 922 
L 119 1691 
L 2106 4600 
L 2844 4600 
L 2844 1694 
L 3413 1694 
L 3413 922 
L 2844 922 
L 2844 0 
L 1994 0 
z
M 1994 1694 
L 1994 3259 
L 941 1694 
L 1994 1694 
z
" transform="scale(0.015625)"/>
      <path id="Arial-BoldMT-42" d="M 469 4581 
L 2300 4581 
Q 2844 4581 3111 4536 
Q 3378 4491 3589 4347 
Q 3800 4203 3940 3964 
Q 4081 3725 4081 3428 
Q 4081 3106 3907 2837 
Q 3734 2569 3438 2434 
Q 3856 2313 4081 2019 
Q 4306 1725 4306 1328 
Q 4306 1016 4161 720 
Q 4016 425 3764 248 
Q 3513 72 3144 31 
Q 2913 6 2028 0 
L 469 0 
L 469 4581 
z
M 1394 3819 
L 1394 2759 
L 2000 2759 
Q 2541 2759 2672 2775 
Q 2909 2803 3045 2939 
Q 3181 3075 3181 3297 
Q 3181 3509 3064 3642 
Q 2947 3775 2716 3803 
Q 2578 3819 1925 3819 
L 1394 3819 
z
M 1394 1997 
L 1394 772 
L 2250 772 
Q 2750 772 2884 800 
Q 3091 838 3220 983 
Q 3350 1128 3350 1372 
Q 3350 1578 3250 1722 
Q 3150 1866 2961 1931 
Q 2772 1997 2141 1997 
L 1394 1997 
z
" transform="scale(0.015625)"/>
      <path id="Arial-BoldMT-74" d="M 1981 3319 
L 1981 2619 
L 1381 2619 
L 1381 1281 
Q 1381 875 1398 808 
Q 1416 741 1477 697 
Q 1538 653 1625 653 
Q 1747 653 1978 738 
L 2053 56 
Q 1747 -75 1359 -75 
Q 1122 -75 931 4 
Q 741 84 652 211 
Q 563 338 528 553 
Q 500 706 500 1172 
L 500 2619 
L 97 2619 
L 97 3319 
L 500 3319 
L 500 3978 
L 1381 4491 
L 1381 3319 
L 1981 3319 
z
" transform="scale(0.015625)"/>
      <path id="Arial-BoldMT-73" d="M 150 947 
L 1031 1081 
Q 1088 825 1259 692 
Q 1431 559 1741 559 
Q 2081 559 2253 684 
Q 2369 772 2369 919 
Q 2369 1019 2306 1084 
Q 2241 1147 2013 1200 
Q 950 1434 666 1628 
Q 272 1897 272 2375 
Q 272 2806 612 3100 
Q 953 3394 1669 3394 
Q 2350 3394 2681 3172 
Q 3013 2950 3138 2516 
L 2309 2363 
Q 2256 2556 2107 2659 
Q 1959 2763 1684 2763 
Q 1338 2763 1188 2666 
Q 1088 2597 1088 2488 
Q 1088 2394 1175 2328 
Q 1294 2241 1995 2081 
Q 2697 1922 2975 1691 
Q 3250 1456 3250 1038 
Q 3250 581 2869 253 
Q 2488 -75 1741 -75 
Q 1063 -75 667 200 
Q 272 475 150 947 
z
" transform="scale(0.015625)"/>
      <path id="Arial-BoldMT-28" d="M 1916 -1347 
L 1313 -1347 
Q 834 -625 584 153 
Q 334 931 334 1659 
Q 334 2563 644 3369 
Q 913 4069 1325 4659 
L 1925 4659 
Q 1497 3713 1336 3048 
Q 1175 2384 1175 1641 
Q 1175 1128 1270 590 
Q 1366 53 1531 -431 
Q 1641 -750 1916 -1347 
z
" transform="scale(0.015625)"/>
      <path id="Arial-BoldMT-4e" d="M 475 0 
L 475 4581 
L 1375 4581 
L 3250 1522 
L 3250 4581 
L 4109 4581 
L 4109 0 
L 3181 0 
L 1334 2988 
L 1334 0 
L 475 0 
z
" transform="scale(0.015625)"/>
      <path id="Arial-BoldMT-3d" d="M 266 2550 
L 266 3356 
L 3469 3356 
L 3469 2550 
L 266 2550 
z
M 266 1163 
L 266 1972 
L 3469 1972 
L 3469 1163 
L 266 1163 
z
" transform="scale(0.015625)"/>
      <path id="Arial-BoldMT-39" d="M 291 1059 
L 1141 1153 
Q 1172 894 1303 769 
Q 1434 644 1650 644 
Q 1922 644 2112 894 
Q 2303 1144 2356 1931 
Q 2025 1547 1528 1547 
Q 988 1547 595 1964 
Q 203 2381 203 3050 
Q 203 3747 617 4173 
Q 1031 4600 1672 4600 
Q 2369 4600 2816 4061 
Q 3263 3522 3263 2288 
Q 3263 1031 2797 475 
Q 2331 -81 1584 -81 
Q 1047 -81 715 205 
Q 384 491 291 1059 
z
M 2278 2978 
Q 2278 3403 2083 3637 
Q 1888 3872 1631 3872 
Q 1388 3872 1227 3680 
Q 1066 3488 1066 3050 
Q 1066 2606 1241 2398 
Q 1416 2191 1678 2191 
Q 1931 2191 2104 2391 
Q 2278 2591 2278 2978 
z
" transform="scale(0.015625)"/>
      <path id="Arial-BoldMT-29" d="M 216 -1347 
Q 475 -791 581 -494 
Q 688 -197 778 190 
Q 869 578 912 926 
Q 956 1275 956 1641 
Q 956 2384 797 3048 
Q 638 3713 209 4659 
L 806 4659 
Q 1278 3988 1539 3234 
Q 1800 2481 1800 1706 
Q 1800 1053 1594 306 
Q 1359 -531 822 -1347 
L 216 -1347 
z
" transform="scale(0.015625)"/>
     </defs>
     <use xlink:href="#Arial-BoldMT-57"/>
     <use xlink:href="#Arial-BoldMT-49" transform="translate(94.384766 0)"/>
     <use xlink:href="#Arial-BoldMT-46" transform="translate(122.167969 0)"/>
     <use xlink:href="#Arial-BoldMT-49" transform="translate(183.251953 0)"/>
     <use xlink:href="#Arial-BoldMT-20" transform="translate(211.035156 0)"/>
     <use xlink:href="#Arial-BoldMT-45" transform="translate(238.818359 0)"/>
     <use xlink:href="#Arial-BoldMT-66" transform="translate(305.517578 0)"/>
     <use xlink:href="#Arial-BoldMT-66" transform="translate(338.818359 0)"/>
     <use xlink:href="#Arial-BoldMT-69" transform="translate(372.119141 0)"/>
     <use xlink:href="#Arial-BoldMT-63" transform="translate(399.902344 0)"/>
     <use xlink:href="#Arial-BoldMT-69" transform="translate(455.517578 0)"/>
     <use xlink:href="#Arial-BoldMT-65" transform="translate(483.300781 0)"/>
     <use xlink:href="#Arial-BoldMT-6e" transform="translate(538.916016 0)"/>
     <use xlink:href="#Arial-BoldMT-63" transform="translate(600 0)"/>
     <use xlink:href="#Arial-BoldMT-79" transform="translate(655.615234 0)"/>
     <use xlink:href="#Arial-BoldMT-3a" transform="translate(711.230469 0)"/>
     <use xlink:href="#Arial-BoldMT-20" transform="translate(744.53125 0)"/>
     <use xlink:href="#Arial-BoldMT-31" transform="translate(772.314453 0)"/>
     <use xlink:href="#Arial-BoldMT-30" transform="translate(827.929688 0)"/>
     <use xlink:href="#Arial-BoldMT-32" transform="translate(883.544922 0)"/>
     <use xlink:href="#Arial-BoldMT-34" transform="translate(939.160156 0)"/>
     <use xlink:href="#Arial-BoldMT-20" transform="translate(994.775391 0)"/>
     <use xlink:href="#Arial-BoldMT-42" transform="translate(1022.558594 0)"/>
     <use xlink:href="#Arial-BoldMT-79" transform="translate(1094.775391 0)"/>
     <use xlink:href="#Arial-BoldMT-74" transform="translate(1150.390625 0)"/>
     <use xlink:href="#Arial-BoldMT-65" transform="translate(1183.691406 0)"/>
     <use xlink:href="#Arial-BoldMT-73" transform="translate(1239.306641 0)"/>
     <use xlink:href="#Arial-BoldMT-20" transform="translate(1294.921875 0)"/>
     <use xlink:href="#Arial-BoldMT-28" transform="translate(1322.705078 0)"/>
     <use xlink:href="#Arial-BoldMT-4e" transform="translate(1356.005859 0)"/>
     <use xlink:href="#Arial-BoldMT-3d" transform="translate(1428.222656 0)"/>
     <use xlink:href="#Arial-BoldMT-39" transform="translate(1486.621094 0)"/>
     <use xlink:href="#Arial-BoldMT-30" transform="translate(1542.236328 0)"/>
     <use xlink:href="#Arial-BoldMT-29" transform="translate(1597.851562 0)"/>
    </g>
    <!-- Calibrated Unified TX+Idle Energy (mJ/Byte) -->
    <g style="fill: #262626" transform="translate(236.385937 38.016) scale(0.14 -0.14)">
     <defs>
      <path id="Arial-BoldMT-43" d="M 3397 1684 
L 4294 1400 
Q 4088 650 3608 286 
Q 3128 -78 2391 -78 
Q 1478 -78 890 545 
Q 303 1169 303 2250 
Q 303 3394 893 4026 
Q 1484 4659 2447 4659 
Q 3288 4659 3813 4163 
Q 4125 3869 4281 3319 
L 3366 3100 
Q 3284 3456 3026 3662 
Q 2769 3869 2400 3869 
Q 1891 3869 1573 3503 
Q 1256 3138 1256 2319 
Q 1256 1450 1568 1081 
Q 1881 713 2381 713 
Q 2750 713 3015 947 
Q 3281 1181 3397 1684 
z
" transform="scale(0.015625)"/>
      <path id="Arial-BoldMT-61" d="M 1116 2306 
L 319 2450 
Q 453 2931 781 3162 
Q 1109 3394 1756 3394 
Q 2344 3394 2631 3255 
Q 2919 3116 3036 2902 
Q 3153 2688 3153 2116 
L 3144 1091 
Q 3144 653 3186 445 
Q 3228 238 3344 0 
L 2475 0 
Q 2441 88 2391 259 
Q 2369 338 2359 363 
Q 2134 144 1878 34 
Q 1622 -75 1331 -75 
Q 819 -75 523 203 
Q 228 481 228 906 
Q 228 1188 362 1408 
Q 497 1628 739 1745 
Q 981 1863 1438 1950 
Q 2053 2066 2291 2166 
L 2291 2253 
Q 2291 2506 2166 2614 
Q 2041 2722 1694 2722 
Q 1459 2722 1328 2630 
Q 1197 2538 1116 2306 
z
M 2291 1594 
Q 2122 1538 1756 1459 
Q 1391 1381 1278 1306 
Q 1106 1184 1106 997 
Q 1106 813 1243 678 
Q 1381 544 1594 544 
Q 1831 544 2047 700 
Q 2206 819 2256 991 
Q 2291 1103 2291 1419 
L 2291 1594 
z
" transform="scale(0.015625)"/>
      <path id="Arial-BoldMT-6c" d="M 459 0 
L 459 4581 
L 1338 4581 
L 1338 0 
L 459 0 
z
" transform="scale(0.015625)"/>
      <path id="Arial-BoldMT-62" d="M 422 0 
L 422 4581 
L 1300 4581 
L 1300 2931 
Q 1706 3394 2263 3394 
Q 2869 3394 3266 2955 
Q 3663 2516 3663 1694 
Q 3663 844 3258 384 
Q 2853 -75 2275 -75 
Q 1991 -75 1714 67 
Q 1438 209 1238 488 
L 1238 0 
L 422 0 
z
M 1294 1731 
Q 1294 1216 1456 969 
Q 1684 619 2063 619 
Q 2353 619 2558 867 
Q 2763 1116 2763 1650 
Q 2763 2219 2556 2470 
Q 2350 2722 2028 2722 
Q 1713 2722 1503 2476 
Q 1294 2231 1294 1731 
z
" transform="scale(0.015625)"/>
      <path id="Arial-BoldMT-72" d="M 1300 0 
L 422 0 
L 422 3319 
L 1238 3319 
L 1238 2847 
Q 1447 3181 1614 3287 
Q 1781 3394 1994 3394 
Q 2294 3394 2572 3228 
L 2300 2463 
Q 2078 2606 1888 2606 
Q 1703 2606 1575 2504 
Q 1447 2403 1373 2137 
Q 1300 1872 1300 1025 
L 1300 0 
z
" transform="scale(0.015625)"/>
      <path id="Arial-BoldMT-64" d="M 3503 0 
L 2688 0 
L 2688 488 
Q 2484 203 2207 64 
Q 1931 -75 1650 -75 
Q 1078 -75 670 386 
Q 263 847 263 1672 
Q 263 2516 659 2955 
Q 1056 3394 1663 3394 
Q 2219 3394 2625 2931 
L 2625 4581 
L 3503 4581 
L 3503 0 
z
M 1159 1731 
Q 1159 1200 1306 963 
Q 1519 619 1900 619 
Q 2203 619 2415 876 
Q 2628 1134 2628 1647 
Q 2628 2219 2422 2470 
Q 2216 2722 1894 2722 
Q 1581 2722 1370 2473 
Q 1159 2225 1159 1731 
z
" transform="scale(0.015625)"/>
      <path id="Arial-BoldMT-55" d="M 459 4581 
L 1384 4581 
L 1384 2100 
Q 1384 1509 1419 1334 
Q 1478 1053 1701 883 
Q 1925 713 2313 713 
Q 2706 713 2906 873 
Q 3106 1034 3147 1268 
Q 3188 1503 3188 2047 
L 3188 4581 
L 4113 4581 
L 4113 2175 
Q 4113 1350 4038 1009 
Q 3963 669 3761 434 
Q 3559 200 3221 61 
Q 2884 -78 2341 -78 
Q 1684 -78 1345 73 
Q 1006 225 809 467 
Q 613 709 550 975 
Q 459 1369 459 2138 
L 459 4581 
z
" transform="scale(0.015625)"/>
      <path id="Arial-BoldMT-54" d="M 1497 0 
L 1497 3806 
L 138 3806 
L 138 4581 
L 3778 4581 
L 3778 3806 
L 2422 3806 
L 2422 0 
L 1497 0 
z
" transform="scale(0.015625)"/>
      <path id="Arial-BoldMT-58" d="M 0 0 
L 1566 2391 
L 147 4581 
L 1228 4581 
L 2147 3109 
L 3047 4581 
L 4119 4581 
L 2694 2356 
L 4259 0 
L 3144 0 
L 2128 1584 
L 1109 0 
L 0 0 
z
" transform="scale(0.015625)"/>
      <path id="Arial-BoldMT-2b" d="M 1466 659 
L 1466 1850 
L 266 1850 
L 266 2672 
L 1466 2672 
L 1466 3863 
L 2266 3863 
L 2266 2672 
L 3469 2672 
L 3469 1850 
L 2266 1850 
L 2266 659 
L 1466 659 
z
" transform="scale(0.015625)"/>
      <path id="Arial-BoldMT-67" d="M 378 -219 
L 1381 -341 
Q 1406 -516 1497 -581 
Q 1622 -675 1891 -675 
Q 2234 -675 2406 -572 
Q 2522 -503 2581 -350 
Q 2622 -241 2622 53 
L 2622 538 
Q 2228 0 1628 0 
Q 959 0 569 566 
Q 263 1013 263 1678 
Q 263 2513 664 2953 
Q 1066 3394 1663 3394 
Q 2278 3394 2678 2853 
L 2678 3319 
L 3500 3319 
L 3500 341 
Q 3500 -247 3403 -537 
Q 3306 -828 3131 -993 
Q 2956 -1159 2664 -1253 
Q 2372 -1347 1925 -1347 
Q 1081 -1347 728 -1058 
Q 375 -769 375 -325 
Q 375 -281 378 -219 
z
M 1163 1728 
Q 1163 1200 1367 954 
Q 1572 709 1872 709 
Q 2194 709 2416 961 
Q 2638 1213 2638 1706 
Q 2638 2222 2425 2472 
Q 2213 2722 1888 2722 
Q 1572 2722 1367 2476 
Q 1163 2231 1163 1728 
z
" transform="scale(0.015625)"/>
      <path id="Arial-BoldMT-6d" d="M 394 3319 
L 1203 3319 
L 1203 2866 
Q 1638 3394 2238 3394 
Q 2556 3394 2790 3262 
Q 3025 3131 3175 2866 
Q 3394 3131 3647 3262 
Q 3900 3394 4188 3394 
Q 4553 3394 4806 3245 
Q 5059 3097 5184 2809 
Q 5275 2597 5275 2122 
L 5275 0 
L 4397 0 
L 4397 1897 
Q 4397 2391 4306 2534 
Q 4184 2722 3931 2722 
Q 3747 2722 3584 2609 
Q 3422 2497 3350 2280 
Q 3278 2063 3278 1594 
L 3278 0 
L 2400 0 
L 2400 1819 
Q 2400 2303 2353 2443 
Q 2306 2584 2207 2653 
Q 2109 2722 1941 2722 
Q 1738 2722 1575 2612 
Q 1413 2503 1342 2297 
Q 1272 2091 1272 1613 
L 1272 0 
L 394 0 
L 394 3319 
z
" transform="scale(0.015625)"/>
      <path id="Arial-BoldMT-4a" d="M 2119 4581 
L 3041 4581 
L 3041 1681 
Q 3041 1113 2941 806 
Q 2806 406 2453 164 
Q 2100 -78 1522 -78 
Q 844 -78 478 301 
Q 113 681 109 1416 
L 981 1516 
Q 997 1122 1097 959 
Q 1247 713 1553 713 
Q 1863 713 1991 889 
Q 2119 1066 2119 1622 
L 2119 4581 
z
" transform="scale(0.015625)"/>
      <path id="Arial-BoldMT-2f" d="M -9 -78 
L 1125 4659 
L 1784 4659 
L 638 -78 
L -9 -78 
z
" transform="scale(0.015625)"/>
     </defs>
     <use xlink:href="#Arial-BoldMT-43"/>
     <use xlink:href="#Arial-BoldMT-61" transform="translate(72.216797 0)"/>
     <use xlink:href="#Arial-BoldMT-6c" transform="translate(127.832031 0)"/>
     <use xlink:href="#Arial-BoldMT-69" transform="translate(155.615234 0)"/>
     <use xlink:href="#Arial-BoldMT-62" transform="translate(183.398438 0)"/>
     <use xlink:href="#Arial-BoldMT-72" transform="translate(244.482422 0)"/>
     <use xlink:href="#Arial-BoldMT-61" transform="translate(283.398438 0)"/>
     <use xlink:href="#Arial-BoldMT-74" transform="translate(339.013672 0)"/>
     <use xlink:href="#Arial-BoldMT-65" transform="translate(372.314453 0)"/>
     <use xlink:href="#Arial-BoldMT-64" transform="translate(427.929688 0)"/>
     <use xlink:href="#Arial-BoldMT-20" transform="translate(489.013672 0)"/>
     <use xlink:href="#Arial-BoldMT-55" transform="translate(516.796875 0)"/>
     <use xlink:href="#Arial-BoldMT-6e" transform="translate(589.013672 0)"/>
     <use xlink:href="#Arial-BoldMT-69" transform="translate(650.097656 0)"/>
     <use xlink:href="#Arial-BoldMT-66" transform="translate(677.880859 0)"/>
     <use xlink:href="#Arial-BoldMT-69" transform="translate(711.181641 0)"/>
     <use xlink:href="#Arial-BoldMT-65" transform="translate(738.964844 0)"/>
     <use xlink:href="#Arial-BoldMT-64" transform="translate(794.580078 0)"/>
     <use xlink:href="#Arial-BoldMT-20" transform="translate(855.664062 0)"/>
     <use xlink:href="#Arial-BoldMT-54" transform="translate(883.447266 0)"/>
     <use xlink:href="#Arial-BoldMT-58" transform="translate(944.53125 0)"/>
     <use xlink:href="#Arial-BoldMT-2b" transform="translate(1011.230469 0)"/>
     <use xlink:href="#Arial-BoldMT-49" transform="translate(1069.628906 0)"/>
     <use xlink:href="#Arial-BoldMT-64" transform="translate(1097.412109 0)"/>
     <use xlink:href="#Arial-BoldMT-6c" transform="translate(1158.496094 0)"/>
     <use xlink:href="#Arial-BoldMT-65" transform="translate(1186.279297 0)"/>
     <use xlink:href="#Arial-BoldMT-20" transform="translate(1241.894531 0)"/>
     <use xlink:href="#Arial-BoldMT-45" transform="translate(1269.677734 0)"/>
     <use xlink:href="#Arial-BoldMT-6e" transform="translate(1336.376953 0)"/>
     <use xlink:href="#Arial-BoldMT-65" transform="translate(1397.460938 0)"/>
     <use xlink:href="#Arial-BoldMT-72" transform="translate(1453.076172 0)"/>
     <use xlink:href="#Arial-BoldMT-67" transform="translate(1491.992188 0)"/>
     <use xlink:href="#Arial-BoldMT-79" transform="translate(1553.076172 0)"/>
     <use xlink:href="#Arial-BoldMT-20" transform="translate(1608.691406 0)"/>
     <use xlink:href="#Arial-BoldMT-28" transform="translate(1636.474609 0)"/>
     <use xlink:href="#Arial-BoldMT-6d" transform="translate(1669.775391 0)"/>
     <use xlink:href="#Arial-BoldMT-4a" transform="translate(1758.691406 0)"/>
     <use xlink:href="#Arial-BoldMT-2f" transform="translate(1814.306641 0)"/>
     <use xlink:href="#Arial-BoldMT-42" transform="translate(1842.089844 0)"/>
     <use xlink:href="#Arial-BoldMT-79" transform="translate(1914.306641 0)"/>
     <use xlink:href="#Arial-BoldMT-74" transform="translate(1969.921875 0)"/>
     <use xlink:href="#Arial-BoldMT-65" transform="translate(2003.222656 0)"/>
     <use xlink:href="#Arial-BoldMT-29" transform="translate(2058.837891 0)"/>
    </g>
   </g>
   <g id="legend_1">
    <g id="patch_7">
     <path d="M 572.373281 147.857094 
L 700.74 147.857094 
Q 702.54 147.857094 702.54 146.057094 
L 702.54 64.316 
Q 702.54 62.516 700.74 62.516 
L 572.373281 62.516 
Q 570.573281 62.516 570.573281 64.316 
L 570.573281 146.057094 
Q 570.573281 147.857094 572.373281 147.857094 
z
" style="fill: #ffffff; opacity: 0.8; stroke: #cccccc; stroke-linejoin: miter"/>
    </g>
    <g id="text_15">
     <!-- Method Statistics -->
     <g style="fill: #262626" transform="translate(590.873203 74.705375) scale(0.12 -0.12)">
      <defs>
       <path id="ArialMT-4d" d="M 475 0 
L 475 4581 
L 1388 4581 
L 2472 1338 
Q 2622 884 2691 659 
Q 2769 909 2934 1394 
L 4031 4581 
L 4847 4581 
L 4847 0 
L 4263 0 
L 4263 3834 
L 2931 0 
L 2384 0 
L 1059 3900 
L 1059 0 
L 475 0 
z
" transform="scale(0.015625)"/>
       <path id="ArialMT-68" d="M 422 0 
L 422 4581 
L 984 4581 
L 984 2938 
Q 1378 3394 1978 3394 
Q 2347 3394 2619 3248 
Q 2891 3103 3008 2847 
Q 3125 2591 3125 2103 
L 3125 0 
L 2563 0 
L 2563 2103 
Q 2563 2525 2380 2717 
Q 2197 2909 1863 2909 
Q 1613 2909 1392 2779 
Q 1172 2650 1078 2428 
Q 984 2206 984 1816 
L 984 0 
L 422 0 
z
" transform="scale(0.015625)"/>
       <path id="ArialMT-64" d="M 2575 0 
L 2575 419 
Q 2259 -75 1647 -75 
Q 1250 -75 917 144 
Q 584 363 401 755 
Q 219 1147 219 1656 
Q 219 2153 384 2558 
Q 550 2963 881 3178 
Q 1213 3394 1622 3394 
Q 1922 3394 2156 3267 
Q 2391 3141 2538 2938 
L 2538 4581 
L 3097 4581 
L 3097 0 
L 2575 0 
z
M 797 1656 
Q 797 1019 1065 703 
Q 1334 388 1700 388 
Q 2069 388 2326 689 
Q 2584 991 2584 1609 
Q 2584 2291 2321 2609 
Q 2059 2928 1675 2928 
Q 1300 2928 1048 2622 
Q 797 2316 797 1656 
z
" transform="scale(0.015625)"/>
       <path id="ArialMT-53" d="M 288 1472 
L 859 1522 
Q 900 1178 1048 958 
Q 1197 738 1509 602 
Q 1822 466 2213 466 
Q 2559 466 2825 569 
Q 3091 672 3220 851 
Q 3350 1031 3350 1244 
Q 3350 1459 3225 1620 
Q 3100 1781 2813 1891 
Q 2628 1963 1997 2114 
Q 1366 2266 1113 2400 
Q 784 2572 623 2826 
Q 463 3081 463 3397 
Q 463 3744 659 4045 
Q 856 4347 1234 4503 
Q 1613 4659 2075 4659 
Q 2584 4659 2973 4495 
Q 3363 4331 3572 4012 
Q 3781 3694 3797 3291 
L 3216 3247 
Q 3169 3681 2898 3903 
Q 2628 4125 2100 4125 
Q 1550 4125 1298 3923 
Q 1047 3722 1047 3438 
Q 1047 3191 1225 3031 
Q 1400 2872 2139 2705 
Q 2878 2538 3153 2413 
Q 3553 2228 3743 1945 
Q 3934 1663 3934 1294 
Q 3934 928 3725 604 
Q 3516 281 3123 101 
Q 2731 -78 2241 -78 
Q 1619 -78 1198 103 
Q 778 284 539 648 
Q 300 1013 288 1472 
z
" transform="scale(0.015625)"/>
      </defs>
      <use xlink:href="#ArialMT-4d"/>
      <use xlink:href="#ArialMT-65" transform="translate(83.300781 0)"/>
      <use xlink:href="#ArialMT-74" transform="translate(138.916016 0)"/>
      <use xlink:href="#ArialMT-68" transform="translate(166.699219 0)"/>
      <use xlink:href="#ArialMT-6f" transform="translate(222.314453 0)"/>
      <use xlink:href="#ArialMT-64" transform="translate(277.929688 0)"/>
      <use xlink:href="#ArialMT-20" transform="translate(333.544922 0)"/>
      <use xlink:href="#ArialMT-53" transform="translate(361.328125 0)"/>
      <use xlink:href="#ArialMT-74" transform="translate(428.027344 0)"/>
      <use xlink:href="#ArialMT-61" transform="translate(455.810547 0)"/>
      <use xlink:href="#ArialMT-74" transform="translate(511.425781 0)"/>
      <use xlink:href="#ArialMT-69" transform="translate(539.208984 0)"/>
      <use xlink:href="#ArialMT-73" transform="translate(561.425781 0)"/>
      <use xlink:href="#ArialMT-74" transform="translate(611.425781 0)"/>
      <use xlink:href="#ArialMT-69" transform="translate(639.208984 0)"/>
      <use xlink:href="#ArialMT-63" transform="translate(661.425781 0)"/>
      <use xlink:href="#ArialMT-73" transform="translate(711.425781 0)"/>
     </g>
    </g>
    <g id="patch_8">
     <path d="M 574.173281 93.809984 
L 592.173281 93.809984 
L 592.173281 87.509984 
L 574.173281 87.509984 
z
" style="fill: #1f77b4; fill-opacity: 0.2; stroke: #1f77b4; stroke-width: 2.5; stroke-linejoin: miter"/>
    </g>
    <g id="text_16">
     <!-- Single Byte -->
     <g style="fill: #262626" transform="translate(599.373281 88.142094) scale(0.09 -0.09)">
      <use xlink:href="#ArialMT-53"/>
      <use xlink:href="#ArialMT-69" transform="translate(66.699219 0)"/>
      <use xlink:href="#ArialMT-6e" transform="translate(88.916016 0)"/>
      <use xlink:href="#ArialMT-67" transform="translate(144.53125 0)"/>
      <use xlink:href="#ArialMT-6c" transform="translate(200.146484 0)"/>
      <use xlink:href="#ArialMT-65" transform="translate(222.363281 0)"/>
      <use xlink:href="#ArialMT-20" transform="translate(277.978516 0)"/>
      <use xlink:href="#ArialMT-42" transform="translate(305.761719 0)"/>
      <use xlink:href="#ArialMT-79" transform="translate(372.460938 0)"/>
      <use xlink:href="#ArialMT-74" transform="translate(422.460938 0)"/>
      <use xlink:href="#ArialMT-65" transform="translate(450.244141 0)"/>
     </g>
     <!-- μ=1.29e+00, σ=1.35e-01 -->
     <g style="fill: #262626" transform="translate(599.373281 97.798812) scale(0.09 -0.09)">
      <defs>
       <path id="ArialMT-3bc" d="M 3181 3319 
L 3181 0 
L 2678 0 
L 2678 394 
Q 2516 144 2356 50 
Q 2138 -78 1847 -78 
Q 1588 -78 1388 25 
Q 1238 103 1056 334 
L 1056 -1272 
L 500 -1272 
L 500 3319 
L 1056 3319 
L 1056 1913 
Q 1056 1147 1137 920 
Q 1219 694 1401 562 
Q 1584 431 1822 431 
Q 2072 431 2269 568 
Q 2466 706 2547 923 
Q 2628 1141 2628 1903 
L 2628 3319 
L 3181 3319 
z
" transform="scale(0.015625)"/>
       <path id="ArialMT-3d" d="M 3381 2694 
L 356 2694 
L 356 3219 
L 3381 3219 
L 3381 2694 
z
M 3381 1303 
L 356 1303 
L 356 1828 
L 3381 1828 
L 3381 1303 
z
" transform="scale(0.015625)"/>
       <path id="ArialMT-39" d="M 350 1059 
L 891 1109 
Q 959 728 1153 556 
Q 1347 384 1650 384 
Q 1909 384 2104 503 
Q 2300 622 2425 820 
Q 2550 1019 2634 1356 
Q 2719 1694 2719 2044 
Q 2719 2081 2716 2156 
Q 2547 1888 2255 1720 
Q 1963 1553 1622 1553 
Q 1053 1553 659 1965 
Q 266 2378 266 3053 
Q 266 3750 677 4175 
Q 1088 4600 1706 4600 
Q 2153 4600 2523 4359 
Q 2894 4119 3086 3673 
Q 3278 3228 3278 2384 
Q 3278 1506 3087 986 
Q 2897 466 2520 194 
Q 2144 -78 1638 -78 
Q 1100 -78 759 220 
Q 419 519 350 1059 
z
M 2653 3081 
Q 2653 3566 2395 3850 
Q 2138 4134 1775 4134 
Q 1400 4134 1122 3828 
Q 844 3522 844 3034 
Q 844 2597 1108 2323 
Q 1372 2050 1759 2050 
Q 2150 2050 2401 2323 
Q 2653 2597 2653 3081 
z
" transform="scale(0.015625)"/>
       <path id="ArialMT-2b" d="M 1603 741 
L 1603 1997 
L 356 1997 
L 356 2522 
L 1603 2522 
L 1603 3769 
L 2134 3769 
L 2134 2522 
L 3381 2522 
L 3381 1997 
L 2134 1997 
L 2134 741 
L 1603 741 
z
" transform="scale(0.015625)"/>
       <path id="ArialMT-2c" d="M 569 0 
L 569 641 
L 1209 641 
L 1209 0 
Q 1209 -353 1084 -570 
Q 959 -788 688 -906 
L 531 -666 
Q 709 -588 793 -436 
Q 878 -284 888 0 
L 569 0 
z
" transform="scale(0.015625)"/>
       <path id="ArialMT-3c3" d="M 3809 3319 
L 3809 2863 
L 2906 2863 
Q 3322 2475 3322 1656 
Q 3322 766 2867 345 
Q 2413 -75 1763 -75 
Q 1088 -75 650 362 
Q 213 800 213 1659 
Q 213 2544 667 2969 
Q 1122 3394 1763 3394 
Q 1997 3394 2294 3319 
L 3809 3319 
z
M 1753 2928 
Q 1344 2928 1067 2609 
Q 791 2291 791 1656 
Q 791 1025 1061 706 
Q 1331 388 1763 388 
Q 2216 388 2483 720 
Q 2750 1053 2750 1659 
Q 2750 2213 2504 2570 
Q 2259 2928 1753 2928 
z
" transform="scale(0.015625)"/>
       <path id="ArialMT-35" d="M 266 1200 
L 856 1250 
Q 922 819 1161 601 
Q 1400 384 1738 384 
Q 2144 384 2425 690 
Q 2706 997 2706 1503 
Q 2706 1984 2436 2262 
Q 2166 2541 1728 2541 
Q 1456 2541 1237 2417 
Q 1019 2294 894 2097 
L 366 2166 
L 809 4519 
L 3088 4519 
L 3088 3981 
L 1259 3981 
L 1013 2750 
Q 1425 3038 1878 3038 
Q 2478 3038 2890 2622 
Q 3303 2206 3303 1553 
Q 3303 931 2941 478 
Q 2500 -78 1738 -78 
Q 1113 -78 717 272 
Q 322 622 266 1200 
z
" transform="scale(0.015625)"/>
       <path id="ArialMT-2d" d="M 203 1375 
L 203 1941 
L 1931 1941 
L 1931 1375 
L 203 1375 
z
" transform="scale(0.015625)"/>
      </defs>
      <use xlink:href="#ArialMT-3bc"/>
      <use xlink:href="#ArialMT-3d" transform="translate(57.617188 0)"/>
      <use xlink:href="#ArialMT-31" transform="translate(116.015625 0)"/>
      <use xlink:href="#ArialMT-2e" transform="translate(171.630859 0)"/>
      <use xlink:href="#ArialMT-32" transform="translate(199.414062 0)"/>
      <use xlink:href="#ArialMT-39" transform="translate(255.029297 0)"/>
      <use xlink:href="#ArialMT-65" transform="translate(310.644531 0)"/>
      <use xlink:href="#ArialMT-2b" transform="translate(366.259766 0)"/>
      <use xlink:href="#ArialMT-30" transform="translate(424.658203 0)"/>
      <use xlink:href="#ArialMT-30" transform="translate(480.273438 0)"/>
      <use xlink:href="#ArialMT-2c" transform="translate(535.888672 0)"/>
      <use xlink:href="#ArialMT-20" transform="translate(563.671875 0)"/>
      <use xlink:href="#ArialMT-3c3" transform="translate(591.455078 0)"/>
      <use xlink:href="#ArialMT-3d" transform="translate(653.173828 0)"/>
      <use xlink:href="#ArialMT-31" transform="translate(711.572266 0)"/>
      <use xlink:href="#ArialMT-2e" transform="translate(767.1875 0)"/>
      <use xlink:href="#ArialMT-33" transform="translate(794.970703 0)"/>
      <use xlink:href="#ArialMT-35" transform="translate(850.585938 0)"/>
      <use xlink:href="#ArialMT-65" transform="translate(906.201172 0)"/>
      <use xlink:href="#ArialMT-2d" transform="translate(961.816406 0)"/>
      <use xlink:href="#ArialMT-30" transform="translate(995.117188 0)"/>
      <use xlink:href="#ArialMT-31" transform="translate(1050.732422 0)"/>
     </g>
    </g>
    <g id="patch_9">
     <path d="M 574.173281 116.199594 
L 592.173281 116.199594 
L 592.173281 109.899594 
L 574.173281 109.899594 
z
" style="fill: #2ca02c; fill-opacity: 0.2; stroke: #2ca02c; stroke-width: 2.5; stroke-linejoin: miter"/>
    </g>
    <g id="text_17">
     <!-- Chunked Transfer -->
     <g style="fill: #262626" transform="translate(599.373281 110.529594) scale(0.09 -0.09)">
      <defs>
       <path id="ArialMT-43" d="M 3763 1606 
L 4369 1453 
Q 4178 706 3683 314 
Q 3188 -78 2472 -78 
Q 1731 -78 1267 223 
Q 803 525 561 1097 
Q 319 1669 319 2325 
Q 319 3041 592 3573 
Q 866 4106 1370 4382 
Q 1875 4659 2481 4659 
Q 3169 4659 3637 4309 
Q 4106 3959 4291 3325 
L 3694 3184 
Q 3534 3684 3231 3912 
Q 2928 4141 2469 4141 
Q 1941 4141 1586 3887 
Q 1231 3634 1087 3207 
Q 944 2781 944 2328 
Q 944 1744 1114 1308 
Q 1284 872 1643 656 
Q 2003 441 2422 441 
Q 2931 441 3284 734 
Q 3638 1028 3763 1606 
z
" transform="scale(0.015625)"/>
       <path id="ArialMT-6b" d="M 425 0 
L 425 4581 
L 988 4581 
L 988 1969 
L 2319 3319 
L 3047 3319 
L 1778 2088 
L 3175 0 
L 2481 0 
L 1384 1697 
L 988 1316 
L 988 0 
L 425 0 
z
" transform="scale(0.015625)"/>
       <path id="ArialMT-54" d="M 1659 0 
L 1659 4041 
L 150 4041 
L 150 4581 
L 3781 4581 
L 3781 4041 
L 2266 4041 
L 2266 0 
L 1659 0 
z
" transform="scale(0.015625)"/>
      </defs>
      <use xlink:href="#ArialMT-43"/>
      <use xlink:href="#ArialMT-68" transform="translate(72.216797 0)"/>
      <use xlink:href="#ArialMT-75" transform="translate(127.832031 0)"/>
      <use xlink:href="#ArialMT-6e" transform="translate(183.447266 0)"/>
      <use xlink:href="#ArialMT-6b" transform="translate(239.0625 0)"/>
      <use xlink:href="#ArialMT-65" transform="translate(289.0625 0)"/>
      <use xlink:href="#ArialMT-64" transform="translate(344.677734 0)"/>
      <use xlink:href="#ArialMT-20" transform="translate(400.292969 0)"/>
      <use xlink:href="#ArialMT-54" transform="translate(426.326172 0)"/>
      <use xlink:href="#ArialMT-72" transform="translate(483.660156 0)"/>
      <use xlink:href="#ArialMT-61" transform="translate(516.960938 0)"/>
      <use xlink:href="#ArialMT-6e" transform="translate(572.576172 0)"/>
      <use xlink:href="#ArialMT-73" transform="translate(628.191406 0)"/>
      <use xlink:href="#ArialMT-66" transform="translate(678.191406 0)"/>
      <use xlink:href="#ArialMT-65" transform="translate(705.974609 0)"/>
      <use xlink:href="#ArialMT-72" transform="translate(761.589844 0)"/>
     </g>
     <!-- μ=6.41e-01, σ=7.58e-02 -->
     <g style="fill: #262626" transform="translate(599.373281 120.080844) scale(0.09 -0.09)">
      <defs>
       <path id="ArialMT-37" d="M 303 3981 
L 303 4522 
L 3269 4522 
L 3269 4084 
Q 2831 3619 2401 2847 
Q 1972 2075 1738 1259 
Q 1569 684 1522 0 
L 944 0 
Q 953 541 1156 1306 
Q 1359 2072 1739 2783 
Q 2119 3494 2547 3981 
L 303 3981 
z
" transform="scale(0.015625)"/>
      </defs>
      <use xlink:href="#ArialMT-3bc"/>
      <use xlink:href="#ArialMT-3d" transform="translate(57.617188 0)"/>
      <use xlink:href="#ArialMT-36" transform="translate(116.015625 0)"/>
      <use xlink:href="#ArialMT-2e" transform="translate(171.630859 0)"/>
      <use xlink:href="#ArialMT-34" transform="translate(199.414062 0)"/>
      <use xlink:href="#ArialMT-31" transform="translate(255.029297 0)"/>
      <use xlink:href="#ArialMT-65" transform="translate(310.644531 0)"/>
      <use xlink:href="#ArialMT-2d" transform="translate(366.259766 0)"/>
      <use xlink:href="#ArialMT-30" transform="translate(399.560547 0)"/>
      <use xlink:href="#ArialMT-31" transform="translate(455.175781 0)"/>
      <use xlink:href="#ArialMT-2c" transform="translate(510.791016 0)"/>
      <use xlink:href="#ArialMT-20" transform="translate(538.574219 0)"/>
      <use xlink:href="#ArialMT-3c3" transform="translate(566.357422 0)"/>
      <use xlink:href="#ArialMT-3d" transform="translate(628.076172 0)"/>
      <use xlink:href="#ArialMT-37" transform="translate(686.474609 0)"/>
      <use xlink:href="#ArialMT-2e" transform="translate(742.089844 0)"/>
      <use xlink:href="#ArialMT-35" transform="translate(769.873047 0)"/>
      <use xlink:href="#ArialMT-38" transform="translate(825.488281 0)"/>
      <use xlink:href="#ArialMT-65" transform="translate(881.103516 0)"/>
      <use xlink:href="#ArialMT-2d" transform="translate(936.71875 0)"/>
      <use xlink:href="#ArialMT-30" transform="translate(970.019531 0)"/>
      <use xlink:href="#ArialMT-32" transform="translate(1025.634766 0)"/>
     </g>
    </g>
    <g id="patch_10">
     <path d="M 574.173281 138.534359 
L 592.173281 138.534359 
L 592.173281 132.234359 
L 574.173281 132.234359 
z
" style="fill: #d62728; fill-opacity: 0.2; stroke: #d62728; stroke-width: 2.5; stroke-linejoin: miter"/>
    </g>
    <g id="text_18">
     <!-- Full Payload -->
     <g style="fill: #262626" transform="translate(599.373281 132.811625) scale(0.09 -0.09)">
      <defs>
       <path id="ArialMT-46" d="M 525 0 
L 525 4581 
L 3616 4581 
L 3616 4041 
L 1131 4041 
L 1131 2622 
L 3281 2622 
L 3281 2081 
L 1131 2081 
L 1131 0 
L 525 0 
z
" transform="scale(0.015625)"/>
      </defs>
      <use xlink:href="#ArialMT-46"/>
      <use xlink:href="#ArialMT-75" transform="translate(61.083984 0)"/>
      <use xlink:href="#ArialMT-6c" transform="translate(116.699219 0)"/>
      <use xlink:href="#ArialMT-6c" transform="translate(138.916016 0)"/>
      <use xlink:href="#ArialMT-20" transform="translate(161.132812 0)"/>
      <use xlink:href="#ArialMT-50" transform="translate(188.916016 0)"/>
      <use xlink:href="#ArialMT-61" transform="translate(255.615234 0)"/>
      <use xlink:href="#ArialMT-79" transform="translate(311.230469 0)"/>
      <use xlink:href="#ArialMT-6c" transform="translate(361.230469 0)"/>
      <use xlink:href="#ArialMT-6f" transform="translate(383.447266 0)"/>
      <use xlink:href="#ArialMT-61" transform="translate(439.0625 0)"/>
      <use xlink:href="#ArialMT-64" transform="translate(494.677734 0)"/>
     </g>
     <!-- μ=6.94e-01, σ=1.03e-01 -->
     <g style="fill: #262626" transform="translate(599.373281 142.468344) scale(0.09 -0.09)">
      <use xlink:href="#ArialMT-3bc"/>
      <use xlink:href="#ArialMT-3d" transform="translate(57.617188 0)"/>
      <use xlink:href="#ArialMT-36" transform="translate(116.015625 0)"/>
      <use xlink:href="#ArialMT-2e" transform="translate(171.630859 0)"/>
      <use xlink:href="#ArialMT-39" transform="translate(199.414062 0)"/>
      <use xlink:href="#ArialMT-34" transform="translate(255.029297 0)"/>
      <use xlink:href="#ArialMT-65" transform="translate(310.644531 0)"/>
      <use xlink:href="#ArialMT-2d" transform="translate(366.259766 0)"/>
      <use xlink:href="#ArialMT-30" transform="translate(399.560547 0)"/>
      <use xlink:href="#ArialMT-31" transform="translate(455.175781 0)"/>
      <use xlink:href="#ArialMT-2c" transform="translate(510.791016 0)"/>
      <use xlink:href="#ArialMT-20" transform="translate(538.574219 0)"/>
      <use xlink:href="#ArialMT-3c3" transform="translate(566.357422 0)"/>
      <use xlink:href="#ArialMT-3d" transform="translate(628.076172 0)"/>
      <use xlink:href="#ArialMT-31" transform="translate(686.474609 0)"/>
      <use xlink:href="#ArialMT-2e" transform="translate(742.089844 0)"/>
      <use xlink:href="#ArialMT-30" transform="translate(769.873047 0)"/>
      <use xlink:href="#ArialMT-33" transform="translate(825.488281 0)"/>
      <use xlink:href="#ArialMT-65" transform="translate(881.103516 0)"/>
      <use xlink:href="#ArialMT-2d" transform="translate(936.71875 0)"/>
      <use xlink:href="#ArialMT-30" transform="translate(970.019531 0)"/>
      <use xlink:href="#ArialMT-31" transform="translate(1025.634766 0)"/>
     </g>
    </g>
   </g>
  </g>
 </g>
 <defs>
  <clipPath id="p5b782045a8">
   <rect x="58.61625" y="58.016" width="648.42375" height="391.86775"/>
  </clipPath>
 </defs>
</svg>
