<?xml version="1.0" encoding="utf-8" standalone="no"?>
<!DOCTYPE svg PUBLIC "-//W3C//DTD SVG 1.1//EN"
  "http://www.w3.org/Graphics/SVG/1.1/DTD/svg11.dtd">
<svg xmlns:xlink="http://www.w3.org/1999/xlink" width="800.39952pt" height="548.39952pt" viewBox="0 0 800.39952 548.39952" xmlns="http://www.w3.org/2000/svg" version="1.1">
 <metadata>
  <rdf:RDF xmlns:dc="http://purl.org/dc/elements/1.1/" xmlns:cc="http://creativecommons.org/ns#" xmlns:rdf="http://www.w3.org/1999/02/22-rdf-syntax-ns#">
   <cc:Work>
    <dc:type rdf:resource="http://purl.org/dc/dcmitype/StillImage"/>
    <dc:date>2026-05-18T04:54:51.132709</dc:date>
    <dc:format>image/svg+xml</dc:format>
    <dc:creator>
     <cc:Agent>
      <dc:title>Matplotlib v3.10.6, https://matplotlib.org/</dc:title>
     </cc:Agent>
    </dc:creator>
   </cc:Work>
  </rdf:RDF>
 </metadata>
 <defs>
  <style type="text/css">*{stroke-linejoin: round; stroke-linecap: butt}</style>
 </defs>
 <g id="figure_1">
  <g id="patch_1">
   <path d="M 0 548.39952 
L 800.39952 548.39952 
L 800.39952 0 
L 0 0 
z
" style="fill: #ffffff"/>
  </g>
  <g id="axes_1">
   <g id="patch_2">
    <path d="M 59.76875 510.765145 
L 793.19952 510.765145 
L 793.19952 84.7555 
L 59.76875 84.7555 
z
" style="fill: #ffffff"/>
   </g>
   <g id="FillBetweenPolyCollection_1">
    <defs>
     <path id="m034d7b71ec" d="M 93.106512 -57.107317 
L 93.106512 -57.069738 
L 128.198894 -57.026221 
L 163.291275 -56.99845 
L 198.383656 -57.018161 
L 233.476038 -57.005218 
L 268.568419 -57.005975 
L 303.6608 -57.011393 
L 338.753182 -57.016155 
L 373.845563 -57.040088 
L 408.937944 -57.064185 
L 444.030326 -57.121041 
L 479.122707 -57.226027 
L 514.215088 -57.460609 
L 549.30747 -57.908384 
L 584.399851 -58.824799 
L 619.492232 -60.638134 
L 654.584614 -63.820895 
L 654.584614 -63.85776 
L 654.584614 -63.85776 
L 619.492232 -60.665288 
L 584.399851 -58.860786 
L 549.30747 -57.942608 
L 514.215088 -57.495047 
L 479.122707 -57.254716 
L 444.030326 -57.153621 
L 408.937944 -57.10372 
L 373.845563 -57.063605 
L 338.753182 -57.042855 
L 303.6608 -57.043181 
L 268.568419 -57.040999 
L 233.476038 -57.03863 
L 198.383656 -57.051065 
L 163.291275 -57.028631 
L 128.198894 -57.048991 
L 93.106512 -57.107317 
z
" style="stroke: #2ca02c; stroke-opacity: 0.15"/>
    </defs>
    <g clip-path="url(#pb234646f96)">
     <use xlink:href="#m034d7b71ec" x="0" y="548.39952" style="fill: #2ca02c; fill-opacity: 0.15; stroke: #2ca02c; stroke-opacity: 0.15"/>
    </g>
   </g>
   <g id="FillBetweenPolyCollection_2">
    <defs>
     <path id="m7238eb480b" d="M 93.106512 -58.177744 
L 93.106512 -58.066402 
L 128.198894 -58.161605 
L 163.291275 -58.092399 
L 198.383656 -58.109206 
L 233.476038 -58.173353 
L 268.568419 -58.188057 
L 303.6608 -58.327871 
L 338.753182 -58.523019 
L 373.845563 -59.304197 
L 408.937944 -61.014144 
L 444.030326 -64.081722 
L 479.122707 -69.999314 
L 514.215088 -82.14379 
L 549.30747 -106.086903 
L 584.399851 -154.329711 
L 619.492232 -250.903466 
L 654.584614 -443.815323 
L 654.584614 -444.279945 
L 654.584614 -444.279945 
L 619.492232 -251.271429 
L 584.399851 -154.695633 
L 549.30747 -106.354548 
L 514.215088 -82.414948 
L 479.122707 -70.335229 
L 444.030326 -64.420011 
L 408.937944 -61.435975 
L 373.845563 -59.511733 
L 338.753182 -58.690292 
L 303.6608 -58.487274 
L 268.568419 -58.332588 
L 233.476038 -58.26578 
L 198.383656 -58.238298 
L 163.291275 -58.191977 
L 128.198894 -58.28152 
L 93.106512 -58.177744 
z
" style="stroke: #d62728; stroke-opacity: 0.15"/>
    </defs>
    <g clip-path="url(#pb234646f96)">
     <use xlink:href="#m7238eb480b" x="0" y="548.39952" style="fill: #d62728; fill-opacity: 0.15; stroke: #d62728; stroke-opacity: 0.15"/>
    </g>
   </g>
   <g id="FillBetweenPolyCollection_3">
    <defs>
     <path id="md95fcf3aad" d="M 93.106512 -64.189933 
L 93.106512 -58.48265 
L 128.198894 -61.935483 
L 163.291275 -62.374048 
L 198.383656 -62.617354 
L 233.476038 -62.533193 
L 268.568419 -62.607382 
L 303.6608 -62.631432 
L 338.753182 -62.437187 
L 373.845563 -62.671002 
L 408.937944 -62.619329 
L 444.030326 -63.154814 
L 479.122707 -63.308421 
L 514.215088 -64.337961 
L 549.30747 -66.264589 
L 584.399851 -69.828463 
L 619.492232 -77.850479 
L 654.584614 -92.532701 
L 689.676995 -122.264845 
L 724.769376 -182.998847 
L 759.861758 -298.721635 
L 759.861758 -302.964209 
L 759.861758 -302.964209 
L 724.769376 -186.370283 
L 689.676995 -123.647745 
L 654.584614 -94.310011 
L 619.492232 -79.052234 
L 584.399851 -70.382391 
L 549.30747 -67.051821 
L 514.215088 -65.306349 
L 479.122707 -63.903733 
L 444.030326 -63.787981 
L 408.937944 -63.04967 
L 373.845563 -63.388204 
L 338.753182 -63.248735 
L 303.6608 -63.188049 
L 268.568419 -63.160809 
L 233.476038 -63.142019 
L 198.383656 -63.058107 
L 163.291275 -63.060212 
L 128.198894 -62.583919 
L 93.106512 -64.189933 
z
" style="stroke: #1f77b4; stroke-opacity: 0.15"/>
    </defs>
    <g clip-path="url(#pb234646f96)">
     <use xlink:href="#md95fcf3aad" x="0" y="548.39952" style="fill: #1f77b4; fill-opacity: 0.15; stroke: #1f77b4; stroke-opacity: 0.15"/>
    </g>
   </g>
   <g id="matplotlib.axis_1">
    <g id="xtick_1">
     <g id="line2d_1">
      <defs>
       <path id="me547053503" d="M 0 0 
L 0 3.5 
" style="stroke: #000000; stroke-width: 0.8"/>
      </defs>
      <g>
       <use xlink:href="#me547053503" x="163.291275" y="510.765145" style="stroke: #000000; stroke-width: 0.8"/>
      </g>
     </g>
     <g id="text_1">
      <!-- 4 -->
      <g transform="translate(160.110025 525.363582) scale(0.1 -0.1)">
       <defs>
        <path id="DejaVuSans-34" d="M 2419 4116 
L 825 1625 
L 2419 1625 
L 2419 4116 
z
M 2253 4666 
L 3047 4666 
L 3047 1625 
L 3713 1625 
L 3713 1100 
L 3047 1100 
L 3047 0 
L 2419 0 
L 2419 1100 
L 313 1100 
L 313 1709 
L 2253 4666 
z
" transform="scale(0.015625)"/>
       </defs>
       <use xlink:href="#DejaVuSans-34"/>
      </g>
     </g>
    </g>
    <g id="xtick_2">
     <g id="line2d_2">
      <g>
       <use xlink:href="#me547053503" x="268.568419" y="510.765145" style="stroke: #000000; stroke-width: 0.8"/>
      </g>
     </g>
     <g id="text_2">
      <!-- 32 -->
      <g transform="translate(262.205919 525.363582) scale(0.1 -0.1)">
       <defs>
        <path id="DejaVuSans-33" d="M 2597 2516 
Q 3050 2419 3304 2112 
Q 3559 1806 3559 1356 
Q 3559 666 3084 287 
Q 2609 -91 1734 -91 
Q 1441 -91 1130 -33 
Q 819 25 488 141 
L 488 750 
Q 750 597 1062 519 
Q 1375 441 1716 441 
Q 2309 441 2620 675 
Q 2931 909 2931 1356 
Q 2931 1769 2642 2001 
Q 2353 2234 1838 2234 
L 1294 2234 
L 1294 2753 
L 1863 2753 
Q 2328 2753 2575 2939 
Q 2822 3125 2822 3475 
Q 2822 3834 2567 4026 
Q 2313 4219 1838 4219 
Q 1578 4219 1281 4162 
Q 984 4106 628 3988 
L 628 4550 
Q 988 4650 1302 4700 
Q 1616 4750 1894 4750 
Q 2613 4750 3031 4423 
Q 3450 4097 3450 3541 
Q 3450 3153 3228 2886 
Q 3006 2619 2597 2516 
z
" transform="scale(0.015625)"/>
        <path id="DejaVuSans-32" d="M 1228 531 
L 3431 531 
L 3431 0 
L 469 0 
L 469 531 
Q 828 903 1448 1529 
Q 2069 2156 2228 2338 
Q 2531 2678 2651 2914 
Q 2772 3150 2772 3378 
Q 2772 3750 2511 3984 
Q 2250 4219 1831 4219 
Q 1534 4219 1204 4116 
Q 875 4013 500 3803 
L 500 4441 
Q 881 4594 1212 4672 
Q 1544 4750 1819 4750 
Q 2544 4750 2975 4387 
Q 3406 4025 3406 3419 
Q 3406 3131 3298 2873 
Q 3191 2616 2906 2266 
Q 2828 2175 2409 1742 
Q 1991 1309 1228 531 
z
" transform="scale(0.015625)"/>
       </defs>
       <use xlink:href="#DejaVuSans-33"/>
       <use xlink:href="#DejaVuSans-32" transform="translate(63.623047 0)"/>
      </g>
     </g>
    </g>
    <g id="xtick_3">
     <g id="line2d_3">
      <g>
       <use xlink:href="#me547053503" x="373.845563" y="510.765145" style="stroke: #000000; stroke-width: 0.8"/>
      </g>
     </g>
     <g id="text_3">
      <!-- 256 -->
      <g transform="translate(364.301813 525.363582) scale(0.1 -0.1)">
       <defs>
        <path id="DejaVuSans-35" d="M 691 4666 
L 3169 4666 
L 3169 4134 
L 1269 4134 
L 1269 2991 
Q 1406 3038 1543 3061 
Q 1681 3084 1819 3084 
Q 2600 3084 3056 2656 
Q 3513 2228 3513 1497 
Q 3513 744 3044 326 
Q 2575 -91 1722 -91 
Q 1428 -91 1123 -41 
Q 819 9 494 109 
L 494 744 
Q 775 591 1075 516 
Q 1375 441 1709 441 
Q 2250 441 2565 725 
Q 2881 1009 2881 1497 
Q 2881 1984 2565 2268 
Q 2250 2553 1709 2553 
Q 1456 2553 1204 2497 
Q 953 2441 691 2322 
L 691 4666 
z
" transform="scale(0.015625)"/>
        <path id="DejaVuSans-36" d="M 2113 2584 
Q 1688 2584 1439 2293 
Q 1191 2003 1191 1497 
Q 1191 994 1439 701 
Q 1688 409 2113 409 
Q 2538 409 2786 701 
Q 3034 994 3034 1497 
Q 3034 2003 2786 2293 
Q 2538 2584 2113 2584 
z
M 3366 4563 
L 3366 3988 
Q 3128 4100 2886 4159 
Q 2644 4219 2406 4219 
Q 1781 4219 1451 3797 
Q 1122 3375 1075 2522 
Q 1259 2794 1537 2939 
Q 1816 3084 2150 3084 
Q 2853 3084 3261 2657 
Q 3669 2231 3669 1497 
Q 3669 778 3244 343 
Q 2819 -91 2113 -91 
Q 1303 -91 875 529 
Q 447 1150 447 2328 
Q 447 3434 972 4092 
Q 1497 4750 2381 4750 
Q 2619 4750 2861 4703 
Q 3103 4656 3366 4563 
z
" transform="scale(0.015625)"/>
       </defs>
       <use xlink:href="#DejaVuSans-32"/>
       <use xlink:href="#DejaVuSans-35" transform="translate(63.623047 0)"/>
       <use xlink:href="#DejaVuSans-36" transform="translate(127.246094 0)"/>
      </g>
     </g>
    </g>
    <g id="xtick_4">
     <g id="line2d_4">
      <g>
       <use xlink:href="#me547053503" x="479.122707" y="510.765145" style="stroke: #000000; stroke-width: 0.8"/>
      </g>
     </g>
     <g id="text_4">
      <!-- 2048 -->
      <g transform="translate(466.397707 525.363582) scale(0.1 -0.1)">
       <defs>
        <path id="DejaVuSans-30" d="M 2034 4250 
Q 1547 4250 1301 3770 
Q 1056 3291 1056 2328 
Q 1056 1369 1301 889 
Q 1547 409 2034 409 
Q 2525 409 2770 889 
Q 3016 1369 3016 2328 
Q 3016 3291 2770 3770 
Q 2525 4250 2034 4250 
z
M 2034 4750 
Q 2819 4750 3233 4129 
Q 3647 3509 3647 2328 
Q 3647 1150 3233 529 
Q 2819 -91 2034 -91 
Q 1250 -91 836 529 
Q 422 1150 422 2328 
Q 422 3509 836 4129 
Q 1250 4750 2034 4750 
z
" transform="scale(0.015625)"/>
        <path id="DejaVuSans-38" d="M 2034 2216 
Q 1584 2216 1326 1975 
Q 1069 1734 1069 1313 
Q 1069 891 1326 650 
Q 1584 409 2034 409 
Q 2484 409 2743 651 
Q 3003 894 3003 1313 
Q 3003 1734 2745 1975 
Q 2488 2216 2034 2216 
z
M 1403 2484 
Q 997 2584 770 2862 
Q 544 3141 544 3541 
Q 544 4100 942 4425 
Q 1341 4750 2034 4750 
Q 2731 4750 3128 4425 
Q 3525 4100 3525 3541 
Q 3525 3141 3298 2862 
Q 3072 2584 2669 2484 
Q 3125 2378 3379 2068 
Q 3634 1759 3634 1313 
Q 3634 634 3220 271 
Q 2806 -91 2034 -91 
Q 1263 -91 848 271 
Q 434 634 434 1313 
Q 434 1759 690 2068 
Q 947 2378 1403 2484 
z
M 1172 3481 
Q 1172 3119 1398 2916 
Q 1625 2713 2034 2713 
Q 2441 2713 2670 2916 
Q 2900 3119 2900 3481 
Q 2900 3844 2670 4047 
Q 2441 4250 2034 4250 
Q 1625 4250 1398 4047 
Q 1172 3844 1172 3481 
z
" transform="scale(0.015625)"/>
       </defs>
       <use xlink:href="#DejaVuSans-32"/>
       <use xlink:href="#DejaVuSans-30" transform="translate(63.623047 0)"/>
       <use xlink:href="#DejaVuSans-34" transform="translate(127.246094 0)"/>
       <use xlink:href="#DejaVuSans-38" transform="translate(190.869141 0)"/>
      </g>
     </g>
    </g>
    <g id="xtick_5">
     <g id="line2d_5">
      <g>
       <use xlink:href="#me547053503" x="584.399851" y="510.765145" style="stroke: #000000; stroke-width: 0.8"/>
      </g>
     </g>
     <g id="text_5">
      <!-- 16384 -->
      <g transform="translate(568.493601 525.363582) scale(0.1 -0.1)">
       <defs>
        <path id="DejaVuSans-31" d="M 794 531 
L 1825 531 
L 1825 4091 
L 703 3866 
L 703 4441 
L 1819 4666 
L 2450 4666 
L 2450 531 
L 3481 531 
L 3481 0 
L 794 0 
L 794 531 
z
" transform="scale(0.015625)"/>
       </defs>
       <use xlink:href="#DejaVuSans-31"/>
       <use xlink:href="#DejaVuSans-36" transform="translate(63.623047 0)"/>
       <use xlink:href="#DejaVuSans-33" transform="translate(127.246094 0)"/>
       <use xlink:href="#DejaVuSans-38" transform="translate(190.869141 0)"/>
       <use xlink:href="#DejaVuSans-34" transform="translate(254.492188 0)"/>
      </g>
     </g>
    </g>
    <g id="xtick_6">
     <g id="line2d_6">
      <g>
       <use xlink:href="#me547053503" x="689.676995" y="510.765145" style="stroke: #000000; stroke-width: 0.8"/>
      </g>
     </g>
     <g id="text_6">
      <!-- 131072 -->
      <g transform="translate(670.589495 525.363582) scale(0.1 -0.1)">
       <defs>
        <path id="DejaVuSans-37" d="M 525 4666 
L 3525 4666 
L 3525 4397 
L 1831 0 
L 1172 0 
L 2766 4134 
L 525 4134 
L 525 4666 
z
" transform="scale(0.015625)"/>
       </defs>
       <use xlink:href="#DejaVuSans-31"/>
       <use xlink:href="#DejaVuSans-33" transform="translate(63.623047 0)"/>
       <use xlink:href="#DejaVuSans-31" transform="translate(127.246094 0)"/>
       <use xlink:href="#DejaVuSans-30" transform="translate(190.869141 0)"/>
       <use xlink:href="#DejaVuSans-37" transform="translate(254.492188 0)"/>
       <use xlink:href="#DejaVuSans-32" transform="translate(318.115234 0)"/>
      </g>
     </g>
    </g>
    <g id="text_7">
     <!-- Payload Size (Bytes) -->
     <g transform="translate(368.875541 539.041707) scale(0.1 -0.1)">
      <defs>
       <path id="DejaVuSans-Bold-50" d="M 588 4666 
L 2584 4666 
Q 3475 4666 3951 4270 
Q 4428 3875 4428 3144 
Q 4428 2409 3951 2014 
Q 3475 1619 2584 1619 
L 1791 1619 
L 1791 0 
L 588 0 
L 588 4666 
z
M 1791 3794 
L 1791 2491 
L 2456 2491 
Q 2806 2491 2997 2661 
Q 3188 2831 3188 3144 
Q 3188 3456 2997 3625 
Q 2806 3794 2456 3794 
L 1791 3794 
z
" transform="scale(0.015625)"/>
       <path id="DejaVuSans-Bold-61" d="M 2106 1575 
Q 1756 1575 1579 1456 
Q 1403 1338 1403 1106 
Q 1403 894 1545 773 
Q 1688 653 1941 653 
Q 2256 653 2472 879 
Q 2688 1106 2688 1447 
L 2688 1575 
L 2106 1575 
z
M 3816 1997 
L 3816 0 
L 2688 0 
L 2688 519 
Q 2463 200 2181 54 
Q 1900 -91 1497 -91 
Q 953 -91 614 226 
Q 275 544 275 1050 
Q 275 1666 698 1953 
Q 1122 2241 2028 2241 
L 2688 2241 
L 2688 2328 
Q 2688 2594 2478 2717 
Q 2269 2841 1825 2841 
Q 1466 2841 1156 2769 
Q 847 2697 581 2553 
L 581 3406 
Q 941 3494 1303 3539 
Q 1666 3584 2028 3584 
Q 2975 3584 3395 3211 
Q 3816 2838 3816 1997 
z
" transform="scale(0.015625)"/>
       <path id="DejaVuSans-Bold-79" d="M 78 3500 
L 1197 3500 
L 2138 1125 
L 2938 3500 
L 4056 3500 
L 2584 -331 
Q 2363 -916 2067 -1148 
Q 1772 -1381 1288 -1381 
L 641 -1381 
L 641 -647 
L 991 -647 
Q 1275 -647 1404 -556 
Q 1534 -466 1606 -231 
L 1638 -134 
L 78 3500 
z
" transform="scale(0.015625)"/>
       <path id="DejaVuSans-Bold-6c" d="M 538 4863 
L 1656 4863 
L 1656 0 
L 538 0 
L 538 4863 
z
" transform="scale(0.015625)"/>
       <path id="DejaVuSans-Bold-6f" d="M 2203 2784 
Q 1831 2784 1636 2517 
Q 1441 2250 1441 1747 
Q 1441 1244 1636 976 
Q 1831 709 2203 709 
Q 2569 709 2762 976 
Q 2956 1244 2956 1747 
Q 2956 2250 2762 2517 
Q 2569 2784 2203 2784 
z
M 2203 3584 
Q 3106 3584 3614 3096 
Q 4122 2609 4122 1747 
Q 4122 884 3614 396 
Q 3106 -91 2203 -91 
Q 1297 -91 786 396 
Q 275 884 275 1747 
Q 275 2609 786 3096 
Q 1297 3584 2203 3584 
z
" transform="scale(0.015625)"/>
       <path id="DejaVuSans-Bold-64" d="M 2919 2988 
L 2919 4863 
L 4044 4863 
L 4044 0 
L 2919 0 
L 2919 506 
Q 2688 197 2409 53 
Q 2131 -91 1766 -91 
Q 1119 -91 703 423 
Q 288 938 288 1747 
Q 288 2556 703 3070 
Q 1119 3584 1766 3584 
Q 2128 3584 2408 3439 
Q 2688 3294 2919 2988 
z
M 2181 722 
Q 2541 722 2730 984 
Q 2919 1247 2919 1747 
Q 2919 2247 2730 2509 
Q 2541 2772 2181 2772 
Q 1825 2772 1636 2509 
Q 1447 2247 1447 1747 
Q 1447 1247 1636 984 
Q 1825 722 2181 722 
z
" transform="scale(0.015625)"/>
       <path id="DejaVuSans-Bold-20" transform="scale(0.015625)"/>
       <path id="DejaVuSans-Bold-53" d="M 3834 4519 
L 3834 3531 
Q 3450 3703 3084 3790 
Q 2719 3878 2394 3878 
Q 1963 3878 1756 3759 
Q 1550 3641 1550 3391 
Q 1550 3203 1689 3098 
Q 1828 2994 2194 2919 
L 2706 2816 
Q 3484 2659 3812 2340 
Q 4141 2022 4141 1434 
Q 4141 663 3683 286 
Q 3225 -91 2284 -91 
Q 1841 -91 1394 -6 
Q 947 78 500 244 
L 500 1259 
Q 947 1022 1364 901 
Q 1781 781 2169 781 
Q 2563 781 2772 912 
Q 2981 1044 2981 1288 
Q 2981 1506 2839 1625 
Q 2697 1744 2272 1838 
L 1806 1941 
Q 1106 2091 782 2419 
Q 459 2747 459 3303 
Q 459 4000 909 4375 
Q 1359 4750 2203 4750 
Q 2588 4750 2994 4692 
Q 3400 4634 3834 4519 
z
" transform="scale(0.015625)"/>
       <path id="DejaVuSans-Bold-69" d="M 538 3500 
L 1656 3500 
L 1656 0 
L 538 0 
L 538 3500 
z
M 538 4863 
L 1656 4863 
L 1656 3950 
L 538 3950 
L 538 4863 
z
" transform="scale(0.015625)"/>
       <path id="DejaVuSans-Bold-7a" d="M 366 3500 
L 3419 3500 
L 3419 2719 
L 1575 800 
L 3419 800 
L 3419 0 
L 288 0 
L 288 781 
L 2131 2700 
L 366 2700 
L 366 3500 
z
" transform="scale(0.015625)"/>
       <path id="DejaVuSans-Bold-65" d="M 4031 1759 
L 4031 1441 
L 1416 1441 
Q 1456 1047 1700 850 
Q 1944 653 2381 653 
Q 2734 653 3104 758 
Q 3475 863 3866 1075 
L 3866 213 
Q 3469 63 3072 -14 
Q 2675 -91 2278 -91 
Q 1328 -91 801 392 
Q 275 875 275 1747 
Q 275 2603 792 3093 
Q 1309 3584 2216 3584 
Q 3041 3584 3536 3087 
Q 4031 2591 4031 1759 
z
M 2881 2131 
Q 2881 2450 2695 2645 
Q 2509 2841 2209 2841 
Q 1884 2841 1681 2658 
Q 1478 2475 1428 2131 
L 2881 2131 
z
" transform="scale(0.015625)"/>
       <path id="DejaVuSans-Bold-28" d="M 2413 -844 
L 1484 -844 
Q 1006 -72 778 623 
Q 550 1319 550 2003 
Q 550 2688 779 3389 
Q 1009 4091 1484 4856 
L 2413 4856 
Q 2013 4116 1813 3408 
Q 1613 2700 1613 2009 
Q 1613 1319 1811 609 
Q 2009 -100 2413 -844 
z
" transform="scale(0.015625)"/>
       <path id="DejaVuSans-Bold-42" d="M 2456 2859 
Q 2741 2859 2887 2984 
Q 3034 3109 3034 3353 
Q 3034 3594 2887 3720 
Q 2741 3847 2456 3847 
L 1791 3847 
L 1791 2859 
L 2456 2859 
z
M 2497 819 
Q 2859 819 3042 972 
Q 3225 1125 3225 1434 
Q 3225 1738 3044 1889 
Q 2863 2041 2497 2041 
L 1791 2041 
L 1791 819 
L 2497 819 
z
M 3616 2497 
Q 4003 2384 4215 2081 
Q 4428 1778 4428 1338 
Q 4428 663 3972 331 
Q 3516 0 2584 0 
L 588 0 
L 588 4666 
L 2394 4666 
Q 3366 4666 3802 4372 
Q 4238 4078 4238 3431 
Q 4238 3091 4078 2852 
Q 3919 2613 3616 2497 
z
" transform="scale(0.015625)"/>
       <path id="DejaVuSans-Bold-74" d="M 1759 4494 
L 1759 3500 
L 2913 3500 
L 2913 2700 
L 1759 2700 
L 1759 1216 
Q 1759 972 1856 886 
Q 1953 800 2241 800 
L 2816 800 
L 2816 0 
L 1856 0 
Q 1194 0 917 276 
Q 641 553 641 1216 
L 641 2700 
L 84 2700 
L 84 3500 
L 641 3500 
L 641 4494 
L 1759 4494 
z
" transform="scale(0.015625)"/>
       <path id="DejaVuSans-Bold-73" d="M 3272 3391 
L 3272 2541 
Q 2913 2691 2578 2766 
Q 2244 2841 1947 2841 
Q 1628 2841 1473 2761 
Q 1319 2681 1319 2516 
Q 1319 2381 1436 2309 
Q 1553 2238 1856 2203 
L 2053 2175 
Q 2913 2066 3209 1816 
Q 3506 1566 3506 1031 
Q 3506 472 3093 190 
Q 2681 -91 1863 -91 
Q 1516 -91 1145 -36 
Q 775 19 384 128 
L 384 978 
Q 719 816 1070 734 
Q 1422 653 1784 653 
Q 2113 653 2278 743 
Q 2444 834 2444 1013 
Q 2444 1163 2330 1236 
Q 2216 1309 1875 1350 
L 1678 1375 
Q 931 1469 631 1722 
Q 331 1975 331 2491 
Q 331 3047 712 3315 
Q 1094 3584 1881 3584 
Q 2191 3584 2531 3537 
Q 2872 3491 3272 3391 
z
" transform="scale(0.015625)"/>
       <path id="DejaVuSans-Bold-29" d="M 513 -844 
Q 913 -100 1113 609 
Q 1313 1319 1313 2009 
Q 1313 2700 1113 3408 
Q 913 4116 513 4856 
L 1441 4856 
Q 1916 4091 2145 3389 
Q 2375 2688 2375 2003 
Q 2375 1319 2147 623 
Q 1919 -72 1441 -844 
L 513 -844 
z
" transform="scale(0.015625)"/>
      </defs>
      <use xlink:href="#DejaVuSans-Bold-50"/>
      <use xlink:href="#DejaVuSans-Bold-61" transform="translate(70.666016 0)"/>
      <use xlink:href="#DejaVuSans-Bold-79" transform="translate(135.021484 0)"/>
      <use xlink:href="#DejaVuSans-Bold-6c" transform="translate(200.207031 0)"/>
      <use xlink:href="#DejaVuSans-Bold-6f" transform="translate(234.484375 0)"/>
      <use xlink:href="#DejaVuSans-Bold-61" transform="translate(303.185547 0)"/>
      <use xlink:href="#DejaVuSans-Bold-64" transform="translate(370.666016 0)"/>
      <use xlink:href="#DejaVuSans-Bold-20" transform="translate(442.248047 0)"/>
      <use xlink:href="#DejaVuSans-Bold-53" transform="translate(477.0625 0)"/>
      <use xlink:href="#DejaVuSans-Bold-69" transform="translate(549.083984 0)"/>
      <use xlink:href="#DejaVuSans-Bold-7a" transform="translate(583.361328 0)"/>
      <use xlink:href="#DejaVuSans-Bold-65" transform="translate(641.564453 0)"/>
      <use xlink:href="#DejaVuSans-Bold-20" transform="translate(709.386719 0)"/>
      <use xlink:href="#DejaVuSans-Bold-28" transform="translate(744.201172 0)"/>
      <use xlink:href="#DejaVuSans-Bold-42" transform="translate(789.904297 0)"/>
      <use xlink:href="#DejaVuSans-Bold-79" transform="translate(866.125 0)"/>
      <use xlink:href="#DejaVuSans-Bold-74" transform="translate(931.310547 0)"/>
      <use xlink:href="#DejaVuSans-Bold-65" transform="translate(979.113281 0)"/>
      <use xlink:href="#DejaVuSans-Bold-73" transform="translate(1046.935547 0)"/>
      <use xlink:href="#DejaVuSans-Bold-29" transform="translate(1106.457031 0)"/>
     </g>
    </g>
   </g>
   <g id="matplotlib.axis_2">
    <g id="ytick_1">
     <g id="line2d_7">
      <path d="M 59.76875 492.091615 
L 793.19952 492.091615 
" clip-path="url(#pb234646f96)" style="fill: none; stroke-dasharray: 1.85,0.8; stroke-dashoffset: 0; stroke: #b0b0b0; stroke-opacity: 0.4; stroke-width: 0.5"/>
     </g>
     <g id="line2d_8">
      <defs>
       <path id="mb4b8665441" d="M 0 0 
L -3.5 0 
" style="stroke: #000000; stroke-width: 0.8"/>
      </defs>
      <g>
       <use xlink:href="#mb4b8665441" x="59.76875" y="492.091615" style="stroke: #000000; stroke-width: 0.8"/>
      </g>
     </g>
     <g id="text_8">
      <!-- 0 -->
      <g transform="translate(46.40625 495.890834) scale(0.1 -0.1)">
       <use xlink:href="#DejaVuSans-30"/>
      </g>
     </g>
    </g>
    <g id="ytick_2">
     <g id="line2d_9">
      <path d="M 59.76875 437.485938 
L 793.19952 437.485938 
" clip-path="url(#pb234646f96)" style="fill: none; stroke-dasharray: 1.85,0.8; stroke-dashoffset: 0; stroke: #b0b0b0; stroke-opacity: 0.4; stroke-width: 0.5"/>
     </g>
     <g id="line2d_10">
      <g>
       <use xlink:href="#mb4b8665441" x="59.76875" y="437.485938" style="stroke: #000000; stroke-width: 0.8"/>
      </g>
     </g>
     <g id="text_9">
      <!-- 5000 -->
      <g transform="translate(27.31875 441.285157) scale(0.1 -0.1)">
       <use xlink:href="#DejaVuSans-35"/>
       <use xlink:href="#DejaVuSans-30" transform="translate(63.623047 0)"/>
       <use xlink:href="#DejaVuSans-30" transform="translate(127.246094 0)"/>
       <use xlink:href="#DejaVuSans-30" transform="translate(190.869141 0)"/>
      </g>
     </g>
    </g>
    <g id="ytick_3">
     <g id="line2d_11">
      <path d="M 59.76875 382.880261 
L 793.19952 382.880261 
" clip-path="url(#pb234646f96)" style="fill: none; stroke-dasharray: 1.85,0.8; stroke-dashoffset: 0; stroke: #b0b0b0; stroke-opacity: 0.4; stroke-width: 0.5"/>
     </g>
     <g id="line2d_12">
      <g>
       <use xlink:href="#mb4b8665441" x="59.76875" y="382.880261" style="stroke: #000000; stroke-width: 0.8"/>
      </g>
     </g>
     <g id="text_10">
      <!-- 10000 -->
      <g transform="translate(20.95625 386.679479) scale(0.1 -0.1)">
       <use xlink:href="#DejaVuSans-31"/>
       <use xlink:href="#DejaVuSans-30" transform="translate(63.623047 0)"/>
       <use xlink:href="#DejaVuSans-30" transform="translate(127.246094 0)"/>
       <use xlink:href="#DejaVuSans-30" transform="translate(190.869141 0)"/>
       <use xlink:href="#DejaVuSans-30" transform="translate(254.492188 0)"/>
      </g>
     </g>
    </g>
    <g id="ytick_4">
     <g id="line2d_13">
      <path d="M 59.76875 328.274583 
L 793.19952 328.274583 
" clip-path="url(#pb234646f96)" style="fill: none; stroke-dasharray: 1.85,0.8; stroke-dashoffset: 0; stroke: #b0b0b0; stroke-opacity: 0.4; stroke-width: 0.5"/>
     </g>
     <g id="line2d_14">
      <g>
       <use xlink:href="#mb4b8665441" x="59.76875" y="328.274583" style="stroke: #000000; stroke-width: 0.8"/>
      </g>
     </g>
     <g id="text_11">
      <!-- 15000 -->
      <g transform="translate(20.95625 332.073802) scale(0.1 -0.1)">
       <use xlink:href="#DejaVuSans-31"/>
       <use xlink:href="#DejaVuSans-35" transform="translate(63.623047 0)"/>
       <use xlink:href="#DejaVuSans-30" transform="translate(127.246094 0)"/>
       <use xlink:href="#DejaVuSans-30" transform="translate(190.869141 0)"/>
       <use xlink:href="#DejaVuSans-30" transform="translate(254.492188 0)"/>
      </g>
     </g>
    </g>
    <g id="ytick_5">
     <g id="line2d_15">
      <path d="M 59.76875 273.668906 
L 793.19952 273.668906 
" clip-path="url(#pb234646f96)" style="fill: none; stroke-dasharray: 1.85,0.8; stroke-dashoffset: 0; stroke: #b0b0b0; stroke-opacity: 0.4; stroke-width: 0.5"/>
     </g>
     <g id="line2d_16">
      <g>
       <use xlink:href="#mb4b8665441" x="59.76875" y="273.668906" style="stroke: #000000; stroke-width: 0.8"/>
      </g>
     </g>
     <g id="text_12">
      <!-- 20000 -->
      <g transform="translate(20.95625 277.468125) scale(0.1 -0.1)">
       <use xlink:href="#DejaVuSans-32"/>
       <use xlink:href="#DejaVuSans-30" transform="translate(63.623047 0)"/>
       <use xlink:href="#DejaVuSans-30" transform="translate(127.246094 0)"/>
       <use xlink:href="#DejaVuSans-30" transform="translate(190.869141 0)"/>
       <use xlink:href="#DejaVuSans-30" transform="translate(254.492188 0)"/>
      </g>
     </g>
    </g>
    <g id="ytick_6">
     <g id="line2d_17">
      <path d="M 59.76875 219.063229 
L 793.19952 219.063229 
" clip-path="url(#pb234646f96)" style="fill: none; stroke-dasharray: 1.85,0.8; stroke-dashoffset: 0; stroke: #b0b0b0; stroke-opacity: 0.4; stroke-width: 0.5"/>
     </g>
     <g id="line2d_18">
      <g>
       <use xlink:href="#mb4b8665441" x="59.76875" y="219.063229" style="stroke: #000000; stroke-width: 0.8"/>
      </g>
     </g>
     <g id="text_13">
      <!-- 25000 -->
      <g transform="translate(20.95625 222.862448) scale(0.1 -0.1)">
       <use xlink:href="#DejaVuSans-32"/>
       <use xlink:href="#DejaVuSans-35" transform="translate(63.623047 0)"/>
       <use xlink:href="#DejaVuSans-30" transform="translate(127.246094 0)"/>
       <use xlink:href="#DejaVuSans-30" transform="translate(190.869141 0)"/>
       <use xlink:href="#DejaVuSans-30" transform="translate(254.492188 0)"/>
      </g>
     </g>
    </g>
    <g id="ytick_7">
     <g id="line2d_19">
      <path d="M 59.76875 164.457552 
L 793.19952 164.457552 
" clip-path="url(#pb234646f96)" style="fill: none; stroke-dasharray: 1.85,0.8; stroke-dashoffset: 0; stroke: #b0b0b0; stroke-opacity: 0.4; stroke-width: 0.5"/>
     </g>
     <g id="line2d_20">
      <g>
       <use xlink:href="#mb4b8665441" x="59.76875" y="164.457552" style="stroke: #000000; stroke-width: 0.8"/>
      </g>
     </g>
     <g id="text_14">
      <!-- 30000 -->
      <g transform="translate(20.95625 168.256771) scale(0.1 -0.1)">
       <use xlink:href="#DejaVuSans-33"/>
       <use xlink:href="#DejaVuSans-30" transform="translate(63.623047 0)"/>
       <use xlink:href="#DejaVuSans-30" transform="translate(127.246094 0)"/>
       <use xlink:href="#DejaVuSans-30" transform="translate(190.869141 0)"/>
       <use xlink:href="#DejaVuSans-30" transform="translate(254.492188 0)"/>
      </g>
     </g>
    </g>
    <g id="ytick_8">
     <g id="line2d_21">
      <path d="M 59.76875 109.851875 
L 793.19952 109.851875 
" clip-path="url(#pb234646f96)" style="fill: none; stroke-dasharray: 1.85,0.8; stroke-dashoffset: 0; stroke: #b0b0b0; stroke-opacity: 0.4; stroke-width: 0.5"/>
     </g>
     <g id="line2d_22">
      <g>
       <use xlink:href="#mb4b8665441" x="59.76875" y="109.851875" style="stroke: #000000; stroke-width: 0.8"/>
      </g>
     </g>
     <g id="text_15">
      <!-- 35000 -->
      <g transform="translate(20.95625 113.651093) scale(0.1 -0.1)">
       <use xlink:href="#DejaVuSans-33"/>
       <use xlink:href="#DejaVuSans-35" transform="translate(63.623047 0)"/>
       <use xlink:href="#DejaVuSans-30" transform="translate(127.246094 0)"/>
       <use xlink:href="#DejaVuSans-30" transform="translate(190.869141 0)"/>
       <use xlink:href="#DejaVuSans-30" transform="translate(254.492188 0)"/>
      </g>
     </g>
    </g>
    <g id="text_16">
     <!-- Energy Consumption (mJ) -->
     <g transform="translate(14.798438 369.639229) rotate(-90) scale(0.1 -0.1)">
      <defs>
       <path id="DejaVuSans-Bold-45" d="M 588 4666 
L 3834 4666 
L 3834 3756 
L 1791 3756 
L 1791 2888 
L 3713 2888 
L 3713 1978 
L 1791 1978 
L 1791 909 
L 3903 909 
L 3903 0 
L 588 0 
L 588 4666 
z
" transform="scale(0.015625)"/>
       <path id="DejaVuSans-Bold-6e" d="M 4056 2131 
L 4056 0 
L 2931 0 
L 2931 347 
L 2931 1631 
Q 2931 2084 2911 2256 
Q 2891 2428 2841 2509 
Q 2775 2619 2662 2680 
Q 2550 2741 2406 2741 
Q 2056 2741 1856 2470 
Q 1656 2200 1656 1722 
L 1656 0 
L 538 0 
L 538 3500 
L 1656 3500 
L 1656 2988 
Q 1909 3294 2193 3439 
Q 2478 3584 2822 3584 
Q 3428 3584 3742 3212 
Q 4056 2841 4056 2131 
z
" transform="scale(0.015625)"/>
       <path id="DejaVuSans-Bold-72" d="M 3138 2547 
Q 2991 2616 2845 2648 
Q 2700 2681 2553 2681 
Q 2122 2681 1889 2404 
Q 1656 2128 1656 1613 
L 1656 0 
L 538 0 
L 538 3500 
L 1656 3500 
L 1656 2925 
Q 1872 3269 2151 3426 
Q 2431 3584 2822 3584 
Q 2878 3584 2943 3579 
Q 3009 3575 3134 3559 
L 3138 2547 
z
" transform="scale(0.015625)"/>
       <path id="DejaVuSans-Bold-67" d="M 2919 594 
Q 2688 288 2409 144 
Q 2131 0 1766 0 
Q 1125 0 706 504 
Q 288 1009 288 1791 
Q 288 2575 706 3076 
Q 1125 3578 1766 3578 
Q 2131 3578 2409 3434 
Q 2688 3291 2919 2981 
L 2919 3500 
L 4044 3500 
L 4044 353 
Q 4044 -491 3511 -936 
Q 2978 -1381 1966 -1381 
Q 1638 -1381 1331 -1331 
Q 1025 -1281 716 -1178 
L 716 -306 
Q 1009 -475 1290 -558 
Q 1572 -641 1856 -641 
Q 2406 -641 2662 -400 
Q 2919 -159 2919 353 
L 2919 594 
z
M 2181 2772 
Q 1834 2772 1640 2515 
Q 1447 2259 1447 1791 
Q 1447 1309 1634 1061 
Q 1822 813 2181 813 
Q 2531 813 2725 1069 
Q 2919 1325 2919 1791 
Q 2919 2259 2725 2515 
Q 2531 2772 2181 2772 
z
" transform="scale(0.015625)"/>
       <path id="DejaVuSans-Bold-43" d="M 4288 256 
Q 3956 84 3597 -3 
Q 3238 -91 2847 -91 
Q 1681 -91 1000 561 
Q 319 1213 319 2328 
Q 319 3447 1000 4098 
Q 1681 4750 2847 4750 
Q 3238 4750 3597 4662 
Q 3956 4575 4288 4403 
L 4288 3438 
Q 3953 3666 3628 3772 
Q 3303 3878 2944 3878 
Q 2300 3878 1931 3465 
Q 1563 3053 1563 2328 
Q 1563 1606 1931 1193 
Q 2300 781 2944 781 
Q 3303 781 3628 887 
Q 3953 994 4288 1222 
L 4288 256 
z
" transform="scale(0.015625)"/>
       <path id="DejaVuSans-Bold-75" d="M 500 1363 
L 500 3500 
L 1625 3500 
L 1625 3150 
Q 1625 2866 1622 2436 
Q 1619 2006 1619 1863 
Q 1619 1441 1641 1255 
Q 1663 1069 1716 984 
Q 1784 875 1895 815 
Q 2006 756 2150 756 
Q 2500 756 2700 1025 
Q 2900 1294 2900 1772 
L 2900 3500 
L 4019 3500 
L 4019 0 
L 2900 0 
L 2900 506 
Q 2647 200 2364 54 
Q 2081 -91 1741 -91 
Q 1134 -91 817 281 
Q 500 653 500 1363 
z
" transform="scale(0.015625)"/>
       <path id="DejaVuSans-Bold-6d" d="M 3781 2919 
Q 3994 3244 4286 3414 
Q 4578 3584 4928 3584 
Q 5531 3584 5847 3212 
Q 6163 2841 6163 2131 
L 6163 0 
L 5038 0 
L 5038 1825 
Q 5041 1866 5042 1909 
Q 5044 1953 5044 2034 
Q 5044 2406 4934 2573 
Q 4825 2741 4581 2741 
Q 4263 2741 4089 2478 
Q 3916 2216 3909 1719 
L 3909 0 
L 2784 0 
L 2784 1825 
Q 2784 2406 2684 2573 
Q 2584 2741 2328 2741 
Q 2006 2741 1831 2477 
Q 1656 2213 1656 1722 
L 1656 0 
L 531 0 
L 531 3500 
L 1656 3500 
L 1656 2988 
Q 1863 3284 2130 3434 
Q 2397 3584 2719 3584 
Q 3081 3584 3359 3409 
Q 3638 3234 3781 2919 
z
" transform="scale(0.015625)"/>
       <path id="DejaVuSans-Bold-70" d="M 1656 506 
L 1656 -1331 
L 538 -1331 
L 538 3500 
L 1656 3500 
L 1656 2988 
Q 1888 3294 2169 3439 
Q 2450 3584 2816 3584 
Q 3463 3584 3878 3070 
Q 4294 2556 4294 1747 
Q 4294 938 3878 423 
Q 3463 -91 2816 -91 
Q 2450 -91 2169 54 
Q 1888 200 1656 506 
z
M 2400 2772 
Q 2041 2772 1848 2508 
Q 1656 2244 1656 1747 
Q 1656 1250 1848 986 
Q 2041 722 2400 722 
Q 2759 722 2948 984 
Q 3138 1247 3138 1747 
Q 3138 2247 2948 2509 
Q 2759 2772 2400 2772 
z
" transform="scale(0.015625)"/>
       <path id="DejaVuSans-Bold-4a" d="M 588 4666 
L 1791 4666 
L 1791 453 
Q 1791 -419 1317 -850 
Q 844 -1281 -116 -1281 
L -359 -1281 
L -359 -372 
L -172 -372 
Q 203 -372 395 -162 
Q 588 47 588 453 
L 588 4666 
z
" transform="scale(0.015625)"/>
      </defs>
      <use xlink:href="#DejaVuSans-Bold-45"/>
      <use xlink:href="#DejaVuSans-Bold-6e" transform="translate(68.310547 0)"/>
      <use xlink:href="#DejaVuSans-Bold-65" transform="translate(139.501953 0)"/>
      <use xlink:href="#DejaVuSans-Bold-72" transform="translate(207.324219 0)"/>
      <use xlink:href="#DejaVuSans-Bold-67" transform="translate(256.640625 0)"/>
      <use xlink:href="#DejaVuSans-Bold-79" transform="translate(328.222656 0)"/>
      <use xlink:href="#DejaVuSans-Bold-20" transform="translate(393.408203 0)"/>
      <use xlink:href="#DejaVuSans-Bold-43" transform="translate(428.222656 0)"/>
      <use xlink:href="#DejaVuSans-Bold-6f" transform="translate(501.611328 0)"/>
      <use xlink:href="#DejaVuSans-Bold-6e" transform="translate(570.3125 0)"/>
      <use xlink:href="#DejaVuSans-Bold-73" transform="translate(641.503906 0)"/>
      <use xlink:href="#DejaVuSans-Bold-75" transform="translate(701.025391 0)"/>
      <use xlink:href="#DejaVuSans-Bold-6d" transform="translate(772.216797 0)"/>
      <use xlink:href="#DejaVuSans-Bold-70" transform="translate(876.416016 0)"/>
      <use xlink:href="#DejaVuSans-Bold-74" transform="translate(947.998047 0)"/>
      <use xlink:href="#DejaVuSans-Bold-69" transform="translate(995.800781 0)"/>
      <use xlink:href="#DejaVuSans-Bold-6f" transform="translate(1030.078125 0)"/>
      <use xlink:href="#DejaVuSans-Bold-6e" transform="translate(1098.779297 0)"/>
      <use xlink:href="#DejaVuSans-Bold-20" transform="translate(1169.970703 0)"/>
      <use xlink:href="#DejaVuSans-Bold-28" transform="translate(1204.785156 0)"/>
      <use xlink:href="#DejaVuSans-Bold-6d" transform="translate(1250.488281 0)"/>
      <use xlink:href="#DejaVuSans-Bold-4a" transform="translate(1354.6875 0)"/>
      <use xlink:href="#DejaVuSans-Bold-29" transform="translate(1391.894531 0)"/>
     </g>
    </g>
   </g>
   <g id="line2d_23">
    <path d="M 93.106512 491.310992 
L 128.198894 491.361914 
L 163.291275 491.38598 
L 198.383656 491.364907 
L 233.476038 491.377596 
L 268.568419 491.376033 
L 303.6608 491.372233 
L 338.753182 491.370015 
L 373.845563 491.347673 
L 408.937944 491.315568 
L 444.030326 491.262189 
L 479.122707 491.159148 
L 514.215088 490.921692 
L 549.30747 490.474024 
L 584.399851 489.556727 
L 619.492232 487.747809 
L 654.584614 484.560192 
" clip-path="url(#pb234646f96)" style="fill: none; stroke: #2ca02c; stroke-width: 1.8; stroke-linecap: square"/>
    <defs>
     <path id="md1b4bcdef2" d="M 0 2 
C 0.530406 2 1.03916 1.789267 1.414214 1.414214 
C 1.789267 1.03916 2 0.530406 2 0 
C 2 -0.530406 1.789267 -1.03916 1.414214 -1.414214 
C 1.03916 -1.789267 0.530406 -2 0 -2 
C -0.530406 -2 -1.03916 -1.789267 -1.414214 -1.414214 
C -1.789267 -1.03916 -2 -0.530406 -2 0 
C -2 0.530406 -1.789267 1.03916 -1.414214 1.414214 
C -1.03916 1.789267 -0.530406 2 0 2 
z
" style="stroke: #2ca02c"/>
    </defs>
    <g clip-path="url(#pb234646f96)">
     <use xlink:href="#md1b4bcdef2" x="93.106512" y="491.310992" style="fill: #2ca02c; stroke: #2ca02c"/>
     <use xlink:href="#md1b4bcdef2" x="128.198894" y="491.361914" style="fill: #2ca02c; stroke: #2ca02c"/>
     <use xlink:href="#md1b4bcdef2" x="163.291275" y="491.38598" style="fill: #2ca02c; stroke: #2ca02c"/>
     <use xlink:href="#md1b4bcdef2" x="198.383656" y="491.364907" style="fill: #2ca02c; stroke: #2ca02c"/>
     <use xlink:href="#md1b4bcdef2" x="233.476038" y="491.377596" style="fill: #2ca02c; stroke: #2ca02c"/>
     <use xlink:href="#md1b4bcdef2" x="268.568419" y="491.376033" style="fill: #2ca02c; stroke: #2ca02c"/>
     <use xlink:href="#md1b4bcdef2" x="303.6608" y="491.372233" style="fill: #2ca02c; stroke: #2ca02c"/>
     <use xlink:href="#md1b4bcdef2" x="338.753182" y="491.370015" style="fill: #2ca02c; stroke: #2ca02c"/>
     <use xlink:href="#md1b4bcdef2" x="373.845563" y="491.347673" style="fill: #2ca02c; stroke: #2ca02c"/>
     <use xlink:href="#md1b4bcdef2" x="408.937944" y="491.315568" style="fill: #2ca02c; stroke: #2ca02c"/>
     <use xlink:href="#md1b4bcdef2" x="444.030326" y="491.262189" style="fill: #2ca02c; stroke: #2ca02c"/>
     <use xlink:href="#md1b4bcdef2" x="479.122707" y="491.159148" style="fill: #2ca02c; stroke: #2ca02c"/>
     <use xlink:href="#md1b4bcdef2" x="514.215088" y="490.921692" style="fill: #2ca02c; stroke: #2ca02c"/>
     <use xlink:href="#md1b4bcdef2" x="549.30747" y="490.474024" style="fill: #2ca02c; stroke: #2ca02c"/>
     <use xlink:href="#md1b4bcdef2" x="584.399851" y="489.556727" style="fill: #2ca02c; stroke: #2ca02c"/>
     <use xlink:href="#md1b4bcdef2" x="619.492232" y="487.747809" style="fill: #2ca02c; stroke: #2ca02c"/>
     <use xlink:href="#md1b4bcdef2" x="654.584614" y="484.560192" style="fill: #2ca02c; stroke: #2ca02c"/>
    </g>
   </g>
   <g id="line2d_24">
    <path d="M 93.106512 490.277447 
L 128.198894 490.177958 
L 163.291275 490.257332 
L 198.383656 490.225768 
L 233.476038 490.179953 
L 268.568419 490.139198 
L 303.6608 489.991947 
L 338.753182 489.792864 
L 373.845563 488.991555 
L 408.937944 487.17446 
L 444.030326 484.148653 
L 479.122707 478.232249 
L 514.215088 466.120151 
L 549.30747 442.178795 
L 584.399851 393.886848 
L 619.492232 297.312073 
L 654.584614 104.351886 
" clip-path="url(#pb234646f96)" style="fill: none; stroke: #d62728; stroke-width: 1.8; stroke-linecap: square"/>
    <defs>
     <path id="mf02b181c9d" d="M 0 2 
C 0.530406 2 1.03916 1.789267 1.414214 1.414214 
C 1.789267 1.03916 2 0.530406 2 0 
C 2 -0.530406 1.789267 -1.03916 1.414214 -1.414214 
C 1.03916 -1.789267 0.530406 -2 0 -2 
C -0.530406 -2 -1.03916 -1.789267 -1.414214 -1.414214 
C -1.789267 -1.03916 -2 -0.530406 -2 0 
C -2 0.530406 -1.789267 1.03916 -1.414214 1.414214 
C -1.03916 1.789267 -0.530406 2 0 2 
z
" style="stroke: #d62728"/>
    </defs>
    <g clip-path="url(#pb234646f96)">
     <use xlink:href="#mf02b181c9d" x="93.106512" y="490.277447" style="fill: #d62728; stroke: #d62728"/>
     <use xlink:href="#mf02b181c9d" x="128.198894" y="490.177958" style="fill: #d62728; stroke: #d62728"/>
     <use xlink:href="#mf02b181c9d" x="163.291275" y="490.257332" style="fill: #d62728; stroke: #d62728"/>
     <use xlink:href="#mf02b181c9d" x="198.383656" y="490.225768" style="fill: #d62728; stroke: #d62728"/>
     <use xlink:href="#mf02b181c9d" x="233.476038" y="490.179953" style="fill: #d62728; stroke: #d62728"/>
     <use xlink:href="#mf02b181c9d" x="268.568419" y="490.139198" style="fill: #d62728; stroke: #d62728"/>
     <use xlink:href="#mf02b181c9d" x="303.6608" y="489.991947" style="fill: #d62728; stroke: #d62728"/>
     <use xlink:href="#mf02b181c9d" x="338.753182" y="489.792864" style="fill: #d62728; stroke: #d62728"/>
     <use xlink:href="#mf02b181c9d" x="373.845563" y="488.991555" style="fill: #d62728; stroke: #d62728"/>
     <use xlink:href="#mf02b181c9d" x="408.937944" y="487.17446" style="fill: #d62728; stroke: #d62728"/>
     <use xlink:href="#mf02b181c9d" x="444.030326" y="484.148653" style="fill: #d62728; stroke: #d62728"/>
     <use xlink:href="#mf02b181c9d" x="479.122707" y="478.232249" style="fill: #d62728; stroke: #d62728"/>
     <use xlink:href="#mf02b181c9d" x="514.215088" y="466.120151" style="fill: #d62728; stroke: #d62728"/>
     <use xlink:href="#mf02b181c9d" x="549.30747" y="442.178795" style="fill: #d62728; stroke: #d62728"/>
     <use xlink:href="#mf02b181c9d" x="584.399851" y="393.886848" style="fill: #d62728; stroke: #d62728"/>
     <use xlink:href="#mf02b181c9d" x="619.492232" y="297.312073" style="fill: #d62728; stroke: #d62728"/>
     <use xlink:href="#mf02b181c9d" x="654.584614" y="104.351886" style="fill: #d62728; stroke: #d62728"/>
    </g>
   </g>
   <g id="line2d_25">
    <path d="M 93.106512 487.063228 
L 128.198894 486.139819 
L 163.291275 485.68239 
L 198.383656 485.561789 
L 233.476038 485.561914 
L 268.568419 485.515425 
L 303.6608 485.489779 
L 338.753182 485.556559 
L 373.845563 485.369917 
L 408.937944 485.565021 
L 444.030326 484.928122 
L 479.122707 484.793443 
L 514.215088 483.577365 
L 549.30747 481.741315 
L 584.399851 478.294093 
L 619.492232 469.948164 
L 654.584614 454.978164 
L 689.676995 425.443225 
L 724.769376 363.714955 
L 759.861758 247.556598 
" clip-path="url(#pb234646f96)" style="fill: none; stroke: #1f77b4; stroke-width: 1.8; stroke-linecap: square"/>
    <defs>
     <path id="me1848c22b7" d="M 0 2 
C 0.530406 2 1.03916 1.789267 1.414214 1.414214 
C 1.789267 1.03916 2 0.530406 2 0 
C 2 -0.530406 1.789267 -1.03916 1.414214 -1.414214 
C 1.03916 -1.789267 0.530406 -2 0 -2 
C -0.530406 -2 -1.03916 -1.789267 -1.414214 -1.414214 
C -1.789267 -1.03916 -2 -0.530406 -2 0 
C -2 0.530406 -1.789267 1.03916 -1.414214 1.414214 
C -1.03916 1.789267 -0.530406 2 0 2 
z
" style="stroke: #1f77b4"/>
    </defs>
    <g clip-path="url(#pb234646f96)">
     <use xlink:href="#me1848c22b7" x="93.106512" y="487.063228" style="fill: #1f77b4; stroke: #1f77b4"/>
     <use xlink:href="#me1848c22b7" x="128.198894" y="486.139819" style="fill: #1f77b4; stroke: #1f77b4"/>
     <use xlink:href="#me1848c22b7" x="163.291275" y="485.68239" style="fill: #1f77b4; stroke: #1f77b4"/>
     <use xlink:href="#me1848c22b7" x="198.383656" y="485.561789" style="fill: #1f77b4; stroke: #1f77b4"/>
     <use xlink:href="#me1848c22b7" x="233.476038" y="485.561914" style="fill: #1f77b4; stroke: #1f77b4"/>
     <use xlink:href="#me1848c22b7" x="268.568419" y="485.515425" style="fill: #1f77b4; stroke: #1f77b4"/>
     <use xlink:href="#me1848c22b7" x="303.6608" y="485.489779" style="fill: #1f77b4; stroke: #1f77b4"/>
     <use xlink:href="#me1848c22b7" x="338.753182" y="485.556559" style="fill: #1f77b4; stroke: #1f77b4"/>
     <use xlink:href="#me1848c22b7" x="373.845563" y="485.369917" style="fill: #1f77b4; stroke: #1f77b4"/>
     <use xlink:href="#me1848c22b7" x="408.937944" y="485.565021" style="fill: #1f77b4; stroke: #1f77b4"/>
     <use xlink:href="#me1848c22b7" x="444.030326" y="484.928122" style="fill: #1f77b4; stroke: #1f77b4"/>
     <use xlink:href="#me1848c22b7" x="479.122707" y="484.793443" style="fill: #1f77b4; stroke: #1f77b4"/>
     <use xlink:href="#me1848c22b7" x="514.215088" y="483.577365" style="fill: #1f77b4; stroke: #1f77b4"/>
     <use xlink:href="#me1848c22b7" x="549.30747" y="481.741315" style="fill: #1f77b4; stroke: #1f77b4"/>
     <use xlink:href="#me1848c22b7" x="584.399851" y="478.294093" style="fill: #1f77b4; stroke: #1f77b4"/>
     <use xlink:href="#me1848c22b7" x="619.492232" y="469.948164" style="fill: #1f77b4; stroke: #1f77b4"/>
     <use xlink:href="#me1848c22b7" x="654.584614" y="454.978164" style="fill: #1f77b4; stroke: #1f77b4"/>
     <use xlink:href="#me1848c22b7" x="689.676995" y="425.443225" style="fill: #1f77b4; stroke: #1f77b4"/>
     <use xlink:href="#me1848c22b7" x="724.769376" y="363.714955" style="fill: #1f77b4; stroke: #1f77b4"/>
     <use xlink:href="#me1848c22b7" x="759.861758" y="247.556598" style="fill: #1f77b4; stroke: #1f77b4"/>
    </g>
   </g>
   <g id="patch_3">
    <path d="M 59.76875 510.765145 
L 59.76875 84.7555 
" style="fill: none; stroke: #000000; stroke-width: 0.8; stroke-linejoin: miter; stroke-linecap: square"/>
   </g>
   <g id="patch_4">
    <path d="M 793.19952 510.765145 
L 793.19952 84.7555 
" style="fill: none; stroke: #000000; stroke-width: 0.8; stroke-linejoin: miter; stroke-linecap: square"/>
   </g>
   <g id="patch_5">
    <path d="M 59.76875 510.765145 
L 793.19952 510.765145 
" style="fill: none; stroke: #000000; stroke-width: 0.8; stroke-linejoin: miter; stroke-linecap: square"/>
   </g>
   <g id="patch_6">
    <path d="M 59.76875 84.7555 
L 793.19952 84.7555 
" style="fill: none; stroke: #000000; stroke-width: 0.8; stroke-linejoin: miter; stroke-linecap: square"/>
   </g>
   <g id="text_17">
    <!-- Method: Chunked Transfer -->
    <g transform="translate(336.975385 16.318125) scale(0.12 -0.12)">
     <defs>
      <path id="DejaVuSans-Bold-4d" d="M 588 4666 
L 2119 4666 
L 3181 2169 
L 4250 4666 
L 5778 4666 
L 5778 0 
L 4641 0 
L 4641 3413 
L 3566 897 
L 2803 897 
L 1728 3413 
L 1728 0 
L 588 0 
L 588 4666 
z
" transform="scale(0.015625)"/>
      <path id="DejaVuSans-Bold-68" d="M 4056 2131 
L 4056 0 
L 2931 0 
L 2931 347 
L 2931 1625 
Q 2931 2084 2911 2256 
Q 2891 2428 2841 2509 
Q 2775 2619 2662 2680 
Q 2550 2741 2406 2741 
Q 2056 2741 1856 2470 
Q 1656 2200 1656 1722 
L 1656 0 
L 538 0 
L 538 4863 
L 1656 4863 
L 1656 2988 
Q 1909 3294 2193 3439 
Q 2478 3584 2822 3584 
Q 3428 3584 3742 3212 
Q 4056 2841 4056 2131 
z
" transform="scale(0.015625)"/>
      <path id="DejaVuSans-Bold-3a" d="M 716 3500 
L 1844 3500 
L 1844 2291 
L 716 2291 
L 716 3500 
z
M 716 1209 
L 1844 1209 
L 1844 0 
L 716 0 
L 716 1209 
z
" transform="scale(0.015625)"/>
      <path id="DejaVuSans-Bold-6b" d="M 538 4863 
L 1656 4863 
L 1656 2216 
L 2944 3500 
L 4244 3500 
L 2534 1894 
L 4378 0 
L 3022 0 
L 1656 1459 
L 1656 0 
L 538 0 
L 538 4863 
z
" transform="scale(0.015625)"/>
      <path id="DejaVuSans-Bold-54" d="M 31 4666 
L 4331 4666 
L 4331 3756 
L 2784 3756 
L 2784 0 
L 1581 0 
L 1581 3756 
L 31 3756 
L 31 4666 
z
" transform="scale(0.015625)"/>
      <path id="DejaVuSans-Bold-66" d="M 2841 4863 
L 2841 4128 
L 2222 4128 
Q 1984 4128 1890 4042 
Q 1797 3956 1797 3744 
L 1797 3500 
L 2753 3500 
L 2753 2700 
L 1797 2700 
L 1797 0 
L 678 0 
L 678 2700 
L 122 2700 
L 122 3500 
L 678 3500 
L 678 3744 
Q 678 4316 997 4589 
Q 1316 4863 1984 4863 
L 2841 4863 
z
" transform="scale(0.015625)"/>
     </defs>
     <use xlink:href="#DejaVuSans-Bold-4d"/>
     <use xlink:href="#DejaVuSans-Bold-65" transform="translate(99.511719 0)"/>
     <use xlink:href="#DejaVuSans-Bold-74" transform="translate(167.333984 0)"/>
     <use xlink:href="#DejaVuSans-Bold-68" transform="translate(215.136719 0)"/>
     <use xlink:href="#DejaVuSans-Bold-6f" transform="translate(286.328125 0)"/>
     <use xlink:href="#DejaVuSans-Bold-64" transform="translate(355.029297 0)"/>
     <use xlink:href="#DejaVuSans-Bold-3a" transform="translate(426.611328 0)"/>
     <use xlink:href="#DejaVuSans-Bold-20" transform="translate(466.601562 0)"/>
     <use xlink:href="#DejaVuSans-Bold-43" transform="translate(501.416016 0)"/>
     <use xlink:href="#DejaVuSans-Bold-68" transform="translate(574.804688 0)"/>
     <use xlink:href="#DejaVuSans-Bold-75" transform="translate(645.996094 0)"/>
     <use xlink:href="#DejaVuSans-Bold-6e" transform="translate(717.1875 0)"/>
     <use xlink:href="#DejaVuSans-Bold-6b" transform="translate(788.378906 0)"/>
     <use xlink:href="#DejaVuSans-Bold-65" transform="translate(852.257812 0)"/>
     <use xlink:href="#DejaVuSans-Bold-64" transform="translate(920.080078 0)"/>
     <use xlink:href="#DejaVuSans-Bold-20" transform="translate(991.662109 0)"/>
     <use xlink:href="#DejaVuSans-Bold-54" transform="translate(1026.476562 0)"/>
     <use xlink:href="#DejaVuSans-Bold-72" transform="translate(1083.689453 0)"/>
     <use xlink:href="#DejaVuSans-Bold-61" transform="translate(1133.005859 0)"/>
     <use xlink:href="#DejaVuSans-Bold-6e" transform="translate(1200.486328 0)"/>
     <use xlink:href="#DejaVuSans-Bold-73" transform="translate(1271.677734 0)"/>
     <use xlink:href="#DejaVuSans-Bold-66" transform="translate(1331.199219 0)"/>
     <use xlink:href="#DejaVuSans-Bold-65" transform="translate(1374.705078 0)"/>
     <use xlink:href="#DejaVuSans-Bold-72" transform="translate(1442.527344 0)"/>
    </g>
    <!-- Unified Model (95% CI) -->
    <g transform="translate(348.990385 29.7555) scale(0.12 -0.12)">
     <defs>
      <path id="DejaVuSans-Bold-55" d="M 588 4666 
L 1791 4666 
L 1791 1869 
Q 1791 1291 1980 1042 
Q 2169 794 2597 794 
Q 3028 794 3217 1042 
Q 3406 1291 3406 1869 
L 3406 4666 
L 4609 4666 
L 4609 1869 
Q 4609 878 4112 393 
Q 3616 -91 2597 -91 
Q 1581 -91 1084 393 
Q 588 878 588 1869 
L 588 4666 
z
" transform="scale(0.015625)"/>
      <path id="DejaVuSans-Bold-39" d="M 641 103 
L 641 966 
Q 928 831 1190 764 
Q 1453 697 1709 697 
Q 2247 697 2547 995 
Q 2847 1294 2900 1881 
Q 2688 1725 2447 1647 
Q 2206 1569 1925 1569 
Q 1209 1569 770 1986 
Q 331 2403 331 3084 
Q 331 3838 820 4291 
Q 1309 4744 2131 4744 
Q 3044 4744 3544 4128 
Q 4044 3513 4044 2388 
Q 4044 1231 3459 570 
Q 2875 -91 1856 -91 
Q 1528 -91 1228 -42 
Q 928 6 641 103 
z
M 2125 2350 
Q 2441 2350 2600 2554 
Q 2759 2759 2759 3169 
Q 2759 3575 2600 3781 
Q 2441 3988 2125 3988 
Q 1809 3988 1650 3781 
Q 1491 3575 1491 3169 
Q 1491 2759 1650 2554 
Q 1809 2350 2125 2350 
z
" transform="scale(0.015625)"/>
      <path id="DejaVuSans-Bold-35" d="M 678 4666 
L 3669 4666 
L 3669 3781 
L 1638 3781 
L 1638 3059 
Q 1775 3097 1914 3117 
Q 2053 3138 2203 3138 
Q 3056 3138 3531 2711 
Q 4006 2284 4006 1522 
Q 4006 766 3489 337 
Q 2972 -91 2053 -91 
Q 1656 -91 1267 -14 
Q 878 63 494 219 
L 494 1166 
Q 875 947 1217 837 
Q 1559 728 1863 728 
Q 2300 728 2551 942 
Q 2803 1156 2803 1522 
Q 2803 1891 2551 2103 
Q 2300 2316 1863 2316 
Q 1603 2316 1309 2248 
Q 1016 2181 678 2041 
L 678 4666 
z
" transform="scale(0.015625)"/>
      <path id="DejaVuSans-Bold-25" d="M 4959 1925 
Q 4738 1925 4616 1733 
Q 4494 1541 4494 1184 
Q 4494 825 4614 633 
Q 4734 441 4959 441 
Q 5184 441 5303 633 
Q 5422 825 5422 1184 
Q 5422 1541 5301 1733 
Q 5181 1925 4959 1925 
z
M 4959 2450 
Q 5541 2450 5875 2112 
Q 6209 1775 6209 1184 
Q 6209 594 5875 251 
Q 5541 -91 4959 -91 
Q 4378 -91 4042 251 
Q 3706 594 3706 1184 
Q 3706 1772 4042 2111 
Q 4378 2450 4959 2450 
z
M 2094 -91 
L 1403 -91 
L 4319 4750 
L 5013 4750 
L 2094 -91 
z
M 1453 4750 
Q 2034 4750 2367 4411 
Q 2700 4072 2700 3481 
Q 2700 2891 2367 2550 
Q 2034 2209 1453 2209 
Q 872 2209 539 2550 
Q 206 2891 206 3481 
Q 206 4072 539 4411 
Q 872 4750 1453 4750 
z
M 1453 4225 
Q 1228 4225 1106 4031 
Q 984 3838 984 3481 
Q 984 3122 1106 2926 
Q 1228 2731 1453 2731 
Q 1678 2731 1798 2926 
Q 1919 3122 1919 3481 
Q 1919 3838 1797 4031 
Q 1675 4225 1453 4225 
z
" transform="scale(0.015625)"/>
      <path id="DejaVuSans-Bold-49" d="M 588 4666 
L 1791 4666 
L 1791 0 
L 588 0 
L 588 4666 
z
" transform="scale(0.015625)"/>
     </defs>
     <use xlink:href="#DejaVuSans-Bold-55"/>
     <use xlink:href="#DejaVuSans-Bold-6e" transform="translate(81.201172 0)"/>
     <use xlink:href="#DejaVuSans-Bold-69" transform="translate(152.392578 0)"/>
     <use xlink:href="#DejaVuSans-Bold-66" transform="translate(186.669922 0)"/>
     <use xlink:href="#DejaVuSans-Bold-69" transform="translate(230.175781 0)"/>
     <use xlink:href="#DejaVuSans-Bold-65" transform="translate(264.453125 0)"/>
     <use xlink:href="#DejaVuSans-Bold-64" transform="translate(332.275391 0)"/>
     <use xlink:href="#DejaVuSans-Bold-20" transform="translate(403.857422 0)"/>
     <use xlink:href="#DejaVuSans-Bold-4d" transform="translate(438.671875 0)"/>
     <use xlink:href="#DejaVuSans-Bold-6f" transform="translate(538.183594 0)"/>
     <use xlink:href="#DejaVuSans-Bold-64" transform="translate(606.884766 0)"/>
     <use xlink:href="#DejaVuSans-Bold-65" transform="translate(678.466797 0)"/>
     <use xlink:href="#DejaVuSans-Bold-6c" transform="translate(746.289062 0)"/>
     <use xlink:href="#DejaVuSans-Bold-20" transform="translate(780.566406 0)"/>
     <use xlink:href="#DejaVuSans-Bold-28" transform="translate(815.380859 0)"/>
     <use xlink:href="#DejaVuSans-Bold-39" transform="translate(861.083984 0)"/>
     <use xlink:href="#DejaVuSans-Bold-35" transform="translate(930.664062 0)"/>
     <use xlink:href="#DejaVuSans-Bold-25" transform="translate(1000.244141 0)"/>
     <use xlink:href="#DejaVuSans-Bold-20" transform="translate(1100.439453 0)"/>
     <use xlink:href="#DejaVuSans-Bold-43" transform="translate(1135.253906 0)"/>
     <use xlink:href="#DejaVuSans-Bold-49" transform="translate(1208.642578 0)"/>
     <use xlink:href="#DejaVuSans-Bold-29" transform="translate(1245.849609 0)"/>
    </g>
   </g>
   <g id="legend_1">
    <g id="line2d_26">
     <path d="M 224.604057 60.498557 
L 229.104057 60.498557 
L 233.604057 60.498557 
" style="fill: none; stroke: #2ca02c; stroke-width: 1.8; stroke-linecap: square"/>
     <g>
      <use xlink:href="#md1b4bcdef2" x="229.104057" y="60.498557" style="fill: #2ca02c; stroke: #2ca02c"/>
     </g>
    </g>
    <g id="text_18">
     <!-- BLE (Err: ±0.24% to ±2.55%) -->
     <g transform="translate(239.604057 63.123557) scale(0.075 -0.075)">
      <defs>
       <path id="DejaVuSans-42" d="M 1259 2228 
L 1259 519 
L 2272 519 
Q 2781 519 3026 730 
Q 3272 941 3272 1375 
Q 3272 1813 3026 2020 
Q 2781 2228 2272 2228 
L 1259 2228 
z
M 1259 4147 
L 1259 2741 
L 2194 2741 
Q 2656 2741 2882 2914 
Q 3109 3088 3109 3444 
Q 3109 3797 2882 3972 
Q 2656 4147 2194 4147 
L 1259 4147 
z
M 628 4666 
L 2241 4666 
Q 2963 4666 3353 4366 
Q 3744 4066 3744 3513 
Q 3744 3084 3544 2831 
Q 3344 2578 2956 2516 
Q 3422 2416 3680 2098 
Q 3938 1781 3938 1306 
Q 3938 681 3513 340 
Q 3088 0 2303 0 
L 628 0 
L 628 4666 
z
" transform="scale(0.015625)"/>
       <path id="DejaVuSans-4c" d="M 628 4666 
L 1259 4666 
L 1259 531 
L 3531 531 
L 3531 0 
L 628 0 
L 628 4666 
z
" transform="scale(0.015625)"/>
       <path id="DejaVuSans-45" d="M 628 4666 
L 3578 4666 
L 3578 4134 
L 1259 4134 
L 1259 2753 
L 3481 2753 
L 3481 2222 
L 1259 2222 
L 1259 531 
L 3634 531 
L 3634 0 
L 628 0 
L 628 4666 
z
" transform="scale(0.015625)"/>
       <path id="DejaVuSans-20" transform="scale(0.015625)"/>
       <path id="DejaVuSans-28" d="M 1984 4856 
Q 1566 4138 1362 3434 
Q 1159 2731 1159 2009 
Q 1159 1288 1364 580 
Q 1569 -128 1984 -844 
L 1484 -844 
Q 1016 -109 783 600 
Q 550 1309 550 2009 
Q 550 2706 781 3412 
Q 1013 4119 1484 4856 
L 1984 4856 
z
" transform="scale(0.015625)"/>
       <path id="DejaVuSans-72" d="M 2631 2963 
Q 2534 3019 2420 3045 
Q 2306 3072 2169 3072 
Q 1681 3072 1420 2755 
Q 1159 2438 1159 1844 
L 1159 0 
L 581 0 
L 581 3500 
L 1159 3500 
L 1159 2956 
Q 1341 3275 1631 3429 
Q 1922 3584 2338 3584 
Q 2397 3584 2469 3576 
Q 2541 3569 2628 3553 
L 2631 2963 
z
" transform="scale(0.015625)"/>
       <path id="DejaVuSans-3a" d="M 750 794 
L 1409 794 
L 1409 0 
L 750 0 
L 750 794 
z
M 750 3309 
L 1409 3309 
L 1409 2516 
L 750 2516 
L 750 3309 
z
" transform="scale(0.015625)"/>
       <path id="DejaVuSans-b1" d="M 2944 4013 
L 2944 2803 
L 4684 2803 
L 4684 2272 
L 2944 2272 
L 2944 1063 
L 2419 1063 
L 2419 2272 
L 678 2272 
L 678 2803 
L 2419 2803 
L 2419 4013 
L 2944 4013 
z
M 678 531 
L 4684 531 
L 4684 0 
L 678 0 
L 678 531 
z
" transform="scale(0.015625)"/>
       <path id="DejaVuSans-2e" d="M 684 794 
L 1344 794 
L 1344 0 
L 684 0 
L 684 794 
z
" transform="scale(0.015625)"/>
       <path id="DejaVuSans-25" d="M 4653 2053 
Q 4381 2053 4226 1822 
Q 4072 1591 4072 1178 
Q 4072 772 4226 539 
Q 4381 306 4653 306 
Q 4919 306 5073 539 
Q 5228 772 5228 1178 
Q 5228 1588 5073 1820 
Q 4919 2053 4653 2053 
z
M 4653 2450 
Q 5147 2450 5437 2106 
Q 5728 1763 5728 1178 
Q 5728 594 5436 251 
Q 5144 -91 4653 -91 
Q 4153 -91 3862 251 
Q 3572 594 3572 1178 
Q 3572 1766 3864 2108 
Q 4156 2450 4653 2450 
z
M 1428 4353 
Q 1159 4353 1004 4120 
Q 850 3888 850 3481 
Q 850 3069 1003 2837 
Q 1156 2606 1428 2606 
Q 1700 2606 1854 2837 
Q 2009 3069 2009 3481 
Q 2009 3884 1853 4118 
Q 1697 4353 1428 4353 
z
M 4250 4750 
L 4750 4750 
L 1831 -91 
L 1331 -91 
L 4250 4750 
z
M 1428 4750 
Q 1922 4750 2215 4408 
Q 2509 4066 2509 3481 
Q 2509 2891 2217 2550 
Q 1925 2209 1428 2209 
Q 931 2209 642 2551 
Q 353 2894 353 3481 
Q 353 4063 643 4406 
Q 934 4750 1428 4750 
z
" transform="scale(0.015625)"/>
       <path id="DejaVuSans-74" d="M 1172 4494 
L 1172 3500 
L 2356 3500 
L 2356 3053 
L 1172 3053 
L 1172 1153 
Q 1172 725 1289 603 
Q 1406 481 1766 481 
L 2356 481 
L 2356 0 
L 1766 0 
Q 1100 0 847 248 
Q 594 497 594 1153 
L 594 3053 
L 172 3053 
L 172 3500 
L 594 3500 
L 594 4494 
L 1172 4494 
z
" transform="scale(0.015625)"/>
       <path id="DejaVuSans-6f" d="M 1959 3097 
Q 1497 3097 1228 2736 
Q 959 2375 959 1747 
Q 959 1119 1226 758 
Q 1494 397 1959 397 
Q 2419 397 2687 759 
Q 2956 1122 2956 1747 
Q 2956 2369 2687 2733 
Q 2419 3097 1959 3097 
z
M 1959 3584 
Q 2709 3584 3137 3096 
Q 3566 2609 3566 1747 
Q 3566 888 3137 398 
Q 2709 -91 1959 -91 
Q 1206 -91 779 398 
Q 353 888 353 1747 
Q 353 2609 779 3096 
Q 1206 3584 1959 3584 
z
" transform="scale(0.015625)"/>
       <path id="DejaVuSans-29" d="M 513 4856 
L 1013 4856 
Q 1481 4119 1714 3412 
Q 1947 2706 1947 2009 
Q 1947 1309 1714 600 
Q 1481 -109 1013 -844 
L 513 -844 
Q 928 -128 1133 580 
Q 1338 1288 1338 2009 
Q 1338 2731 1133 3434 
Q 928 4138 513 4856 
z
" transform="scale(0.015625)"/>
      </defs>
      <use xlink:href="#DejaVuSans-42"/>
      <use xlink:href="#DejaVuSans-4c" transform="translate(68.603516 0)"/>
      <use xlink:href="#DejaVuSans-45" transform="translate(124.316406 0)"/>
      <use xlink:href="#DejaVuSans-20" transform="translate(187.5 0)"/>
      <use xlink:href="#DejaVuSans-28" transform="translate(219.287109 0)"/>
      <use xlink:href="#DejaVuSans-45" transform="translate(258.300781 0)"/>
      <use xlink:href="#DejaVuSans-72" transform="translate(321.484375 0)"/>
      <use xlink:href="#DejaVuSans-72" transform="translate(360.847656 0)"/>
      <use xlink:href="#DejaVuSans-3a" transform="translate(400.210938 0)"/>
      <use xlink:href="#DejaVuSans-20" transform="translate(433.902344 0)"/>
      <use xlink:href="#DejaVuSans-b1" transform="translate(465.689453 0)"/>
      <use xlink:href="#DejaVuSans-30" transform="translate(549.478516 0)"/>
      <use xlink:href="#DejaVuSans-2e" transform="translate(613.101562 0)"/>
      <use xlink:href="#DejaVuSans-32" transform="translate(644.888672 0)"/>
      <use xlink:href="#DejaVuSans-34" transform="translate(708.511719 0)"/>
      <use xlink:href="#DejaVuSans-25" transform="translate(772.134766 0)"/>
      <use xlink:href="#DejaVuSans-20" transform="translate(867.154297 0)"/>
      <use xlink:href="#DejaVuSans-74" transform="translate(898.941406 0)"/>
      <use xlink:href="#DejaVuSans-6f" transform="translate(938.150391 0)"/>
      <use xlink:href="#DejaVuSans-20" transform="translate(999.332031 0)"/>
      <use xlink:href="#DejaVuSans-b1" transform="translate(1031.119141 0)"/>
      <use xlink:href="#DejaVuSans-32" transform="translate(1114.908203 0)"/>
      <use xlink:href="#DejaVuSans-2e" transform="translate(1178.53125 0)"/>
      <use xlink:href="#DejaVuSans-35" transform="translate(1210.318359 0)"/>
      <use xlink:href="#DejaVuSans-35" transform="translate(1273.941406 0)"/>
      <use xlink:href="#DejaVuSans-25" transform="translate(1337.564453 0)"/>
      <use xlink:href="#DejaVuSans-29" transform="translate(1432.583984 0)"/>
     </g>
    </g>
    <g id="line2d_27">
     <path d="M 357.473588 60.498557 
L 361.973588 60.498557 
L 366.473588 60.498557 
" style="fill: none; stroke: #d62728; stroke-width: 1.8; stroke-linecap: square"/>
     <g>
      <use xlink:href="#mf02b181c9d" x="361.973588" y="60.498557" style="fill: #d62728; stroke: #d62728"/>
     </g>
    </g>
    <g id="text_19">
     <!-- LORA (Err: ±0.06% to ±4.29%) -->
     <g transform="translate(372.473588 63.123557) scale(0.075 -0.075)">
      <defs>
       <path id="DejaVuSans-4f" d="M 2522 4238 
Q 1834 4238 1429 3725 
Q 1025 3213 1025 2328 
Q 1025 1447 1429 934 
Q 1834 422 2522 422 
Q 3209 422 3611 934 
Q 4013 1447 4013 2328 
Q 4013 3213 3611 3725 
Q 3209 4238 2522 4238 
z
M 2522 4750 
Q 3503 4750 4090 4092 
Q 4678 3434 4678 2328 
Q 4678 1225 4090 567 
Q 3503 -91 2522 -91 
Q 1538 -91 948 565 
Q 359 1222 359 2328 
Q 359 3434 948 4092 
Q 1538 4750 2522 4750 
z
" transform="scale(0.015625)"/>
       <path id="DejaVuSans-52" d="M 2841 2188 
Q 3044 2119 3236 1894 
Q 3428 1669 3622 1275 
L 4263 0 
L 3584 0 
L 2988 1197 
Q 2756 1666 2539 1819 
Q 2322 1972 1947 1972 
L 1259 1972 
L 1259 0 
L 628 0 
L 628 4666 
L 2053 4666 
Q 2853 4666 3247 4331 
Q 3641 3997 3641 3322 
Q 3641 2881 3436 2590 
Q 3231 2300 2841 2188 
z
M 1259 4147 
L 1259 2491 
L 2053 2491 
Q 2509 2491 2742 2702 
Q 2975 2913 2975 3322 
Q 2975 3731 2742 3939 
Q 2509 4147 2053 4147 
L 1259 4147 
z
" transform="scale(0.015625)"/>
       <path id="DejaVuSans-41" d="M 2188 4044 
L 1331 1722 
L 3047 1722 
L 2188 4044 
z
M 1831 4666 
L 2547 4666 
L 4325 0 
L 3669 0 
L 3244 1197 
L 1141 1197 
L 716 0 
L 50 0 
L 1831 4666 
z
" transform="scale(0.015625)"/>
       <path id="DejaVuSans-39" d="M 703 97 
L 703 672 
Q 941 559 1184 500 
Q 1428 441 1663 441 
Q 2288 441 2617 861 
Q 2947 1281 2994 2138 
Q 2813 1869 2534 1725 
Q 2256 1581 1919 1581 
Q 1219 1581 811 2004 
Q 403 2428 403 3163 
Q 403 3881 828 4315 
Q 1253 4750 1959 4750 
Q 2769 4750 3195 4129 
Q 3622 3509 3622 2328 
Q 3622 1225 3098 567 
Q 2575 -91 1691 -91 
Q 1453 -91 1209 -44 
Q 966 3 703 97 
z
M 1959 2075 
Q 2384 2075 2632 2365 
Q 2881 2656 2881 3163 
Q 2881 3666 2632 3958 
Q 2384 4250 1959 4250 
Q 1534 4250 1286 3958 
Q 1038 3666 1038 3163 
Q 1038 2656 1286 2365 
Q 1534 2075 1959 2075 
z
" transform="scale(0.015625)"/>
      </defs>
      <use xlink:href="#DejaVuSans-4c"/>
      <use xlink:href="#DejaVuSans-4f" transform="translate(52.087891 0)"/>
      <use xlink:href="#DejaVuSans-52" transform="translate(130.798828 0)"/>
      <use xlink:href="#DejaVuSans-41" transform="translate(196.28125 0)"/>
      <use xlink:href="#DejaVuSans-20" transform="translate(264.689453 0)"/>
      <use xlink:href="#DejaVuSans-28" transform="translate(296.476562 0)"/>
      <use xlink:href="#DejaVuSans-45" transform="translate(335.490234 0)"/>
      <use xlink:href="#DejaVuSans-72" transform="translate(398.673828 0)"/>
      <use xlink:href="#DejaVuSans-72" transform="translate(438.037109 0)"/>
      <use xlink:href="#DejaVuSans-3a" transform="translate(477.400391 0)"/>
      <use xlink:href="#DejaVuSans-20" transform="translate(511.091797 0)"/>
      <use xlink:href="#DejaVuSans-b1" transform="translate(542.878906 0)"/>
      <use xlink:href="#DejaVuSans-30" transform="translate(626.667969 0)"/>
      <use xlink:href="#DejaVuSans-2e" transform="translate(690.291016 0)"/>
      <use xlink:href="#DejaVuSans-30" transform="translate(722.078125 0)"/>
      <use xlink:href="#DejaVuSans-36" transform="translate(785.701172 0)"/>
      <use xlink:href="#DejaVuSans-25" transform="translate(849.324219 0)"/>
      <use xlink:href="#DejaVuSans-20" transform="translate(944.34375 0)"/>
      <use xlink:href="#DejaVuSans-74" transform="translate(976.130859 0)"/>
      <use xlink:href="#DejaVuSans-6f" transform="translate(1015.339844 0)"/>
      <use xlink:href="#DejaVuSans-20" transform="translate(1076.521484 0)"/>
      <use xlink:href="#DejaVuSans-b1" transform="translate(1108.308594 0)"/>
      <use xlink:href="#DejaVuSans-34" transform="translate(1192.097656 0)"/>
      <use xlink:href="#DejaVuSans-2e" transform="translate(1255.720703 0)"/>
      <use xlink:href="#DejaVuSans-32" transform="translate(1287.507812 0)"/>
      <use xlink:href="#DejaVuSans-39" transform="translate(1351.130859 0)"/>
      <use xlink:href="#DejaVuSans-25" transform="translate(1414.753906 0)"/>
      <use xlink:href="#DejaVuSans-29" transform="translate(1509.773438 0)"/>
     </g>
    </g>
    <g id="line2d_28">
     <path d="M 496.132182 60.498557 
L 500.632182 60.498557 
L 505.132182 60.498557 
" style="fill: none; stroke: #1f77b4; stroke-width: 1.8; stroke-linecap: square"/>
     <g>
      <use xlink:href="#me1848c22b7" x="500.632182" y="60.498557" style="fill: #1f77b4; stroke: #1f77b4"/>
     </g>
    </g>
    <g id="text_20">
     <!-- WIFI (Err: ±0.87% to ±56.75%) -->
     <g transform="translate(511.132182 63.123557) scale(0.075 -0.075)">
      <defs>
       <path id="DejaVuSans-57" d="M 213 4666 
L 850 4666 
L 1831 722 
L 2809 4666 
L 3519 4666 
L 4500 722 
L 5478 4666 
L 6119 4666 
L 4947 0 
L 4153 0 
L 3169 4050 
L 2175 0 
L 1381 0 
L 213 4666 
z
" transform="scale(0.015625)"/>
       <path id="DejaVuSans-49" d="M 628 4666 
L 1259 4666 
L 1259 0 
L 628 0 
L 628 4666 
z
" transform="scale(0.015625)"/>
       <path id="DejaVuSans-46" d="M 628 4666 
L 3309 4666 
L 3309 4134 
L 1259 4134 
L 1259 2759 
L 3109 2759 
L 3109 2228 
L 1259 2228 
L 1259 0 
L 628 0 
L 628 4666 
z
" transform="scale(0.015625)"/>
      </defs>
      <use xlink:href="#DejaVuSans-57"/>
      <use xlink:href="#DejaVuSans-49" transform="translate(98.876953 0)"/>
      <use xlink:href="#DejaVuSans-46" transform="translate(128.369141 0)"/>
      <use xlink:href="#DejaVuSans-49" transform="translate(185.888672 0)"/>
      <use xlink:href="#DejaVuSans-20" transform="translate(215.380859 0)"/>
      <use xlink:href="#DejaVuSans-28" transform="translate(247.167969 0)"/>
      <use xlink:href="#DejaVuSans-45" transform="translate(286.181641 0)"/>
      <use xlink:href="#DejaVuSans-72" transform="translate(349.365234 0)"/>
      <use xlink:href="#DejaVuSans-72" transform="translate(388.728516 0)"/>
      <use xlink:href="#DejaVuSans-3a" transform="translate(428.091797 0)"/>
      <use xlink:href="#DejaVuSans-20" transform="translate(461.783203 0)"/>
      <use xlink:href="#DejaVuSans-b1" transform="translate(493.570312 0)"/>
      <use xlink:href="#DejaVuSans-30" transform="translate(577.359375 0)"/>
      <use xlink:href="#DejaVuSans-2e" transform="translate(640.982422 0)"/>
      <use xlink:href="#DejaVuSans-38" transform="translate(672.769531 0)"/>
      <use xlink:href="#DejaVuSans-37" transform="translate(736.392578 0)"/>
      <use xlink:href="#DejaVuSans-25" transform="translate(800.015625 0)"/>
      <use xlink:href="#DejaVuSans-20" transform="translate(895.035156 0)"/>
      <use xlink:href="#DejaVuSans-74" transform="translate(926.822266 0)"/>
      <use xlink:href="#DejaVuSans-6f" transform="translate(966.03125 0)"/>
      <use xlink:href="#DejaVuSans-20" transform="translate(1027.212891 0)"/>
      <use xlink:href="#DejaVuSans-b1" transform="translate(1059 0)"/>
      <use xlink:href="#DejaVuSans-35" transform="translate(1142.789062 0)"/>
      <use xlink:href="#DejaVuSans-36" transform="translate(1206.412109 0)"/>
      <use xlink:href="#DejaVuSans-2e" transform="translate(1270.035156 0)"/>
      <use xlink:href="#DejaVuSans-37" transform="translate(1301.822266 0)"/>
      <use xlink:href="#DejaVuSans-35" transform="translate(1365.445312 0)"/>
      <use xlink:href="#DejaVuSans-25" transform="translate(1429.068359 0)"/>
      <use xlink:href="#DejaVuSans-29" transform="translate(1524.087891 0)"/>
     </g>
    </g>
   </g>
  </g>
 </g>
 <defs>
  <clipPath id="pb234646f96">
   <rect x="59.76875" y="84.7555" width="733.43077" height="426.009645"/>
  </clipPath>
 </defs>
</svg>
